<svg id="Слой_1" data-name="Слой 1" xmlns="http://www.w3.org/2000/svg" viewBox="0 0 101.71 109.43"><defs><style>.cls-1{fill:#333;fill-rule:evenodd;}</style></defs><title>award</title><path class="cls-1" d="M64.21,99.71h1.57c1.29,0,2.59.09,3.88.07,1,0,2-.12,3-.19s1.89.34,2.06,1.13a6.49,6.49,0,0,1,.06,1.69c0,.79-.19,1.58-.23,2.38,0,1,0,1.95,0,2.92a1.52,1.52,0,0,1-1.2,1.37q-1.61.1-3.22.1c-1.75,0-3.49,0-5.24,0l-4.27-.06c-1.62,0-3.24-.07-4.86-.07-1.45,0-2.9.15-4.35.08-2.09-.11-4.16.16-6.24.06s-4-.14-6.06-.14-4.12,0-6.18.12c-1.08,0-2.17.16-3.25.29a1.42,1.42,0,0,1-1.57-1.32c-.11-1.73-.23-3.46-.29-5.19a8.27,8.27,0,0,1,.17-1.57,1,1,0,0,1,.78-.89,9.57,9.57,0,0,1,3-.31c2-.1,4-.13,6-.19a6.33,6.33,0,0,0,.12-.79c0-1.05,0-2.11,0-3.16a1.5,1.5,0,0,1,1.47-1.34,21.62,21.62,0,0,0,3-.25,3.24,3.24,0,0,0,1.42-.76,8.57,8.57,0,0,0,2.45-3A9.06,9.06,0,0,0,47,86.4q-.14-2.15-.27-4.3c-.13-2-.17-3.93-.41-5.87A13.82,13.82,0,0,0,45,71.9a7.29,7.29,0,0,0-2.37-2.75c-1.27-.92-2.46-2-3.8-2.75A27.44,27.44,0,0,1,34,62.48,25.51,25.51,0,0,1,31.09,59c-.56-.75-.91-1.65-1.41-2.45a3.44,3.44,0,0,0-.82-.74c-1.43-1.15-2.87-2.3-4.32-3.43-.78-.61-1.59-1.16-2.37-1.77-1.12-.87-2.21-1.76-3.32-2.64-.55-.44-1.14-.85-1.65-1.33-.88-.84-1.75-1.69-2.57-2.59s-1.3-1.57-1.93-2.37c-.9-1.15-1.83-2.27-2.65-3.47s-1.63-2.58-2.43-3.88S6.2,31.93,5.51,30.74c-.41-.71-.75-1.45-1.13-2.17C3.75,27.38,3.09,26.2,2.48,25a15,15,0,0,1-.71-1.71C1.35,22.17.95,21,.59,19.9a8.13,8.13,0,0,1-.31-1.71A44,44,0,0,1,0,13.79a46.12,46.12,0,0,1,.4-5.1,10.19,10.19,0,0,1,1-3.43A9.21,9.21,0,0,1,4.21,2,7.07,7.07,0,0,1,7.11.7a9.75,9.75,0,0,1,4.17,0,24.49,24.49,0,0,1,3.05.82c1.26.5,2.46,1.15,3.67,1.76.65.32,1.29.67,1.93,1l.71.39a5.45,5.45,0,0,0,3.13.72c.76-.08,1.09-.84,1.1-1.67a17.31,17.31,0,0,0-.17-2C24.65,1.26,25.38.52,26,.51c1.66,0,3.31-.1,5-.1,1.81,0,3.62.06,5.42.09a12.3,12.3,0,0,1,1.68,0A30.85,30.85,0,0,0,42.84.45c1.7,0,3.39,0,5.09,0,1.36,0,2.73.06,4.09.05s2.65-.09,4-.09c1.82,0,3.65.08,5.47.06,2.33,0,4.66-.14,7-.18,2.06,0,4.12,0,6.18-.06.4,0,.8,0,1.2,0a1.16,1.16,0,0,1,1.27,1.46c-.09.81-.15,1.62-.24,2.42a.62.62,0,0,0,.39.71,3.08,3.08,0,0,0,2.12.11,36.46,36.46,0,0,0,4.91-2.2c1.16-.55,2.31-1.14,3.49-1.65A16,16,0,0,1,92,.06a8.24,8.24,0,0,1,5.5,1.52A7.06,7.06,0,0,1,99.9,4.46a15.63,15.63,0,0,1,1.78,6.32,17.73,17.73,0,0,1,0,2.56c-.11,1.67-.2,3.35-.44,5a35.83,35.83,0,0,1-.87,3.65c-.13.53-.31,1-.45,1.57a16.32,16.32,0,0,1-1.5,4c-.4.73-.67,1.53-1,2.28-.21.42-.51.79-.74,1.19s-.43.87-.67,1.29c-.48.81-1,1.62-1.49,2.41a29.33,29.33,0,0,1-1.7,2.4c-1,1.25-2.1,2.46-3.17,3.67s-2.13,2.39-3.23,3.55c-.57.61-1.22,1.15-1.82,1.74s-1,1.1-1.55,1.63-1.12,1.08-1.69,1.6c-1,.93-2,1.87-3.07,2.78s-1.85,1.53-2.79,2.29-1.65,1.3-2.46,2-1.51,1.25-2.24,1.9a7,7,0,0,0-.89,1c-.76,1-1.44,2.09-2.27,3a16,16,0,0,1-2.21,2c-1.53,1.21-3.11,2.36-4.64,3.56-.91.71-1.81,1.44-2.65,2.22a4.89,4.89,0,0,0-1.32,2.24.74.74,0,0,1-.05.21,6.65,6.65,0,0,0-1,2.54,19.82,19.82,0,0,0-.66,4.07c0,1.07-.15,2.13-.22,3.2A15.29,15.29,0,0,0,54.82,84c0,1,.2,2,.21,3.07a7.34,7.34,0,0,0,1.58,4.31,9,9,0,0,0,2.29,2.15c.07.05.17.1.21.17.38.77,1.11.54,1.72.57s1.39,0,2.08-.07a.62.62,0,0,1,.66.43A4.85,4.85,0,0,1,64,96.91c0,.88.12,1.77.21,2.8ZM87.39,41.49h0c.51-.5,1.06-1,1.54-1.52,1-1.15,2-2.3,3-3.5.72-.89,1.39-1.83,2-2.79a43.27,43.27,0,0,0,3.33-6c.29-.67.73-1.27,1-2,.38-1,.67-2,1-3.07a28.48,28.48,0,0,0,1.19-6c.09-1,.07-2.08.19-3.11A15.1,15.1,0,0,0,100,7.35a13.62,13.62,0,0,0-1.22-2.72,5.78,5.78,0,0,0-2-2.22,7.76,7.76,0,0,0-6.08-1,22.76,22.76,0,0,0-4.8,1.76c-.61.31-1.2.66-1.81,1s-1,.49-1.52.71c-.95.41-1.88.84-2.85,1.2a3.25,3.25,0,0,1-2.89-.2c-.2.88-.2.92.51,1.17a3.19,3.19,0,0,0,1,.14c.41,0,.81,0,1.22,0l0,.12a1.71,1.71,0,0,1-.46.22c-.8.11-1.61.43-2.41-.34l-.06,1.17c1.54.4,2.76-.51,4.13-.72a9.77,9.77,0,0,1-1.3.76,4.74,4.74,0,0,1-2.88.52l-.08,1a10.4,10.4,0,0,0,1.9-.48c1.12-.52,2.19-1.16,3.28-1.74a4.12,4.12,0,0,1,.5-.19l.06.13c-.73.53-1.44,1.1-2.21,1.56a6.55,6.55,0,0,1-3.17,1.11c-.48,0-.57.18-.45.82a3.88,3.88,0,0,0,1-.17c1-.46,2.06-.94,3-1.49s2-1.22,3.05-1.88c-.37,1.18-5,3.77-7.21,4.08l-.06.91a6.73,6.73,0,0,0,1-.34c1.33-.72,2.7-1.38,4-2.22s2.42-1.88,3.63-2.82a2.73,2.73,0,0,1,.42-.22l.11.14c-.15.17-.29.35-.45.5L83,9.23a1.41,1.41,0,0,0-.25.33c-.15.25-.22.58-.43.76-.78.66-1.57,1.3-2.4,1.88-1.1.75-2.23,1.45-3.37,2.14-.5.3-.6.46-.4,1.12l2.25-1.63.12.14a10.93,10.93,0,0,1-2.65,2.25l.13.62c.62-.54,1.15-1,1.69-1.48.85-.73,1.72-1.43,2.56-2.17.59-.52,1.15-1.09,1.72-1.64,1-1,2-1.93,3-2.88.78-.73,1.57-1.44,2.39-2.12.63-.52,1.32-1,2-1.46a7.75,7.75,0,0,1,4-1.65,3.29,3.29,0,0,1,1.82.43,6.8,6.8,0,0,1,2.08,1.69,7.9,7.9,0,0,1,1.43,3.34,9.31,9.31,0,0,1,0,2.32c-.07,1.32-.14,2.64-.3,4s-.45,2.85-.74,4.26c-.16.78-.44,1.53-.67,2.3-.29,1-.54,1.92-.89,2.85S95.3,26.16,95,27a37.57,37.57,0,0,1-2.52,4.9c-.48.89-1.08,1.73-1.64,2.58s-1.07,1.69-1.67,2.49q-1.12,1.48-2.35,2.87c-1,1.18-2.13,2.33-3.23,3.46-.47.49-1,.91-1.54,1.36-1.33,1.16-2.65,2.34-4,3.48-.93.79-1.88,1.54-2.82,2.32a.5.5,0,0,0-.18.26c-.1.65-.18,1.3-.27,2a2.55,2.55,0,0,0,.24-.17c2-1.85,4.11-3.67,6.11-5.57s3.7-3.57,5.45-5.46C88,40,89.18,38.42,90.44,36.86q.83-1,1.58-2.09c.77-1.09,1.51-2.19,2.24-3.29a13.28,13.28,0,0,0,1.27-2c.77-1.79,1.44-3.62,2.13-5.44a9.61,9.61,0,0,0,.4-1.48c.22-1.09.42-2.18.62-3.27s.35-2.3.62-3.42a11.74,11.74,0,0,0,.38-4.32,4,4,0,0,1,0-2.36,1.72,1.72,0,0,1,.24-.31l.14.06c0,.19,0,.38,0,.57a4.7,4.7,0,0,0,0,.8,12.1,12.1,0,0,1-.13,4.93c-.3,1.26-.49,2.54-.72,3.82s-.38,2.26-.6,3.39a26.45,26.45,0,0,1-1.39,4.2,19.53,19.53,0,0,1-1.88,4.13c-.66,1-1.36,1.94-2,2.93-.42.64-.73,1.36-1.21,2-1.17,1.47-2.4,2.89-3.59,4.34-.41.5-.77,1-1.16,1.56l-.63.58.16.13.46-.72Zm-60.32-38h0l.23,0a3.42,3.42,0,0,1,.14.55c0,.38,0,.77,0,1.15.12,1.54.3,3.09.35,4.63s0,3.12,0,4.67q0,2.63.14,5.25c.08,1.82.23,3.64.33,5.47.16,2.9.28,5.8.45,8.7.09,1.49.23,3,.37,4.48s.29,2.76.42,4.13c.11,1.09.19,2.19.31,3.28a36.51,36.51,0,0,0,.47,3.74,25.81,25.81,0,0,0,2.22,6.68,11.3,11.3,0,0,0,2.13,3c1.88,1.75,3.92,3.34,5.92,5,.69.55,1.47,1,2.25,1.51l-.11.42a1,1,0,0,1-.25-.08c-1.6-1.14-3.23-2.26-4.8-3.45-.84-.64-1.56-1.44-2.39-2.08a11.48,11.48,0,0,1-3.14-4c-.36-.69-.63-1.42-.93-2.11l-1.08-.09a16.32,16.32,0,0,0,1.9,4,30.47,30.47,0,0,0,5.6,5.8c.33.28.64.59,1,.84.8.56,1.64,1.07,2.44,1.63s1.75,1.29,2.64,1.92a5.74,5.74,0,0,1,2.1,2.34A21.61,21.61,0,0,1,47.18,75a41.08,41.08,0,0,1,.46,4.82c.06.74,0,1.49.08,2.24A48.59,48.59,0,0,1,48,88.53a7.92,7.92,0,0,1-.79,2.83,12.57,12.57,0,0,1-1.56,2.08c-.22.28-.46.56-.77.93h1.28a5,5,0,0,1,.34-.54,8.89,8.89,0,0,0,2.13-5.49c0-1.22.16-2.44.16-3.66a37.46,37.46,0,0,0-.17-4.2c-.19-1.64-.53-3.26-.81-4.92.31-.16.4.07.46.34.13.64.25,1.29.39,1.93a27.87,27.87,0,0,1,.57,5.79c0,1.55-.1,3.1-.17,4.65a8.16,8.16,0,0,1-1.4,4.7c-.31.42-.56.87-.84,1.31h6.78c-.07-.2-.1-.28-.13-.36-.25-.61-.53-1.2-.74-1.82a1.64,1.64,0,0,1,.05-.64,2.11,2.11,0,0,1,.43.45c.27.55.48,1.14.76,1.69.4.78.52.81,1.51.57-.19-.28-.37-.54-.54-.82a10.4,10.4,0,0,1-.88-1.5,16.46,16.46,0,0,1-1.14-6.37C53,83,53,80.56,53,78.1a10.55,10.55,0,0,1,.28-1.89c.09-.43.21-.46.51-.33-.09.89-.21,1.76-.26,2.63s0,1.54,0,2.3c0,1.88,0,3.76-.05,5.64a13.49,13.49,0,0,0,.6,3.88,11.46,11.46,0,0,0,2.2,3.92l1.42-.06a9.94,9.94,0,0,1-2.55-2.84,8.59,8.59,0,0,1-1.24-4.08,39.23,39.23,0,0,1-.06-6.71c.05-.41.08-.83.12-1.24q.11-1.08.23-2.16c0-.27.06-.54.1-.81a9,9,0,0,1,.25-1.56c.29-.88.75-1.71,1-2.59a6.27,6.27,0,0,1,1.71-2.85,37.22,37.22,0,0,1,3-2.4c.77-.58,1.58-1.12,2.33-1.72,1.11-.88,2.22-1.76,3.25-2.73A16.14,16.14,0,0,0,68,60.09a23.16,23.16,0,0,0,2.49-4.49,26.62,26.62,0,0,0,1.94-6.24c.38-2.51.68-5,1-7.55a80.11,80.11,0,0,0,.34-9.73c0-1.8.16-3.6.26-5.41.08-1.51.16-3,.28-4.53s.3-2.79.41-4.18c.22-2.64.4-5.28.61-7.91.14-1.73.29-3.46.43-5.18.05-.67.09-1.35.11-2,0-.25,0-.56-.34-.56s-.94,0-1.42,0c-1,0-2,.13-3,.15s-1.74,0-2.61,0-1.56.1-2.33.14l-6,.24C58,2.92,55.84,3,53.73,3,52.6,3,51.47,3,50.34,3q-2,0-4,0c-1,0-1.93,0-2.89,0C41.75,3,40,3,38.34,3c-.75,0-1.5-.09-2.25-.1-1.49,0-3,0-4.46,0h-.9c-.06.89-.13,1.72-.17,2.56,0,.26,0,.47-.42.46V2.81l-4.27-.43c0,.39,0,.68.08,1,.05.54.13,1.09.16,1.63.06,1.18.1,2.37.15,3.55.09,2.24.22,4.48.28,6.72s.07,4.69.11,7c0,.46,0,.93.07,1.39s0,.64.05,1a5.38,5.38,0,0,0,.09.8c.05.24.22.45.25.69.07.58.1,1.16.14,1.75.19,2.41.4,4.82.57,7.24.09,1.36.11,2.73.18,4.09.12,2.42.23,4.84.4,7.26a37.68,37.68,0,0,0,1.13,6,2,2,0,0,0,1.56,1.67c-.14-.47-.29-.92-.41-1.37-.3-1.09-.66-2.17-.85-3.28-.23-1.33-.32-2.68-.45-4-.26-2.54-.53-5.08-.75-7.63-.16-1.81-.28-3.63-.4-5.45s-.25-3.79-.36-5.69q-.19-3.3-.35-6.61c-.08-1.64-.17-3.28-.19-4.92s.12-3.25.07-4.86c-.06-2-.24-4-.37-6a6.39,6.39,0,0,1,0-.75ZM73.42,50.21h0a2,2,0,0,0,.45-.16c.78-.57,1.57-1.13,2.31-1.75q2.13-1.81,4.2-3.7c1.29-1.17,2.56-2.37,3.82-3.57.66-.63,1.31-1.26,1.9-1.95s1.08-1.44,1.63-2.15c.39-.5.86-1,1.2-1.49.81-1.26,1.56-2.55,2.34-3.83.34-.56.71-1.1,1-1.67a33,33,0,0,0,2.64-5.63c.59-1.87,1.36-3.69,1.79-5.59a48.49,48.49,0,0,0,.87-6.32,24.24,24.24,0,0,0-.14-3.64,3.9,3.9,0,0,0-.26-1,6.4,6.4,0,0,0-1.59-2.25,2.67,2.67,0,0,0-2.69-.86,10.41,10.41,0,0,0-2.45,1,18.37,18.37,0,0,0-4.16,3.25c-.88.92-1.78,1.83-2.71,2.69-1.22,1.13-2.47,2.22-3.71,3.31-1.08.95-2.18,1.87-3.27,2.81-.49.43-1.15.77-.91,1.62,0,.06,0,.14,0,.21-.1.83-.22,1.67-.29,2.51-.1,1.1-.19,2.2-.25,3.3-.08,1.44-.16,2.89-.21,4.34,0,1.11,0,2.21,0,3.32q-.07,2.61-.2,5.22c-.08,1.56-.19,3.11-.29,4.67,0,.22,0,.44,0,.65-.11.75-.25,1.5-.35,2.25s-.19,1.63-.29,2.44c-.08.62-.18,1.24-.28,1.94Zm-45.83-.37h0l.12-.06c-.1-.59-.22-1.18-.28-1.77-.18-1.87-.37-3.73-.51-5.6-.17-2.34-.28-4.68-.43-7s-.33-4.83-.47-7.24c-.16-2.75-.29-5.51-.46-8.26a1.25,1.25,0,0,0-.3-.72c-.48-.52-1-1-1.53-1.49-1-1-2-2.06-2.92-3.1-.24-.25-.43-.54-.68-.78-.75-.69-1.52-1.36-2.27-2-1.34-1.23-2.63-2.51-4-3.69A12.68,12.68,0,0,0,8.93,5.42a2.69,2.69,0,0,0-2.46.26A5.66,5.66,0,0,0,4.33,9.14a15.48,15.48,0,0,0-.05,6.23,39.27,39.27,0,0,0,2,7.52C6.86,24.28,7.43,25.68,8.1,27q1.41,2.83,3,5.58a30.78,30.78,0,0,0,2,3c.68.93,1.43,1.8,2.16,2.69,1,1.19,1.9,2.41,2.95,3.53s2,2,3.1,2.91,2.43,2.09,3.67,3.1c.86.7,1.77,1.33,2.66,2Zm1.58,58.26h0c.74,0,1.3.1,1.86.09,2.62,0,5.25-.1,7.87-.11s5.47.08,8.2.06,5.44-.15,8.16-.17c1.9,0,3.8.12,5.7.14,1.7,0,3.39,0,5.09,0,2.11,0,4.22.06,6.33.08.73,0,.93-.27,1-1q.09-2.15.24-4.31c.06-.8,0-.89-.77-.88-3.49,0-7,.07-10.46.13-3.21.05-6.42.18-9.62.21s-6.38,0-9.57-.06L39,102.2l-7.5-.07H28.87l.3,6ZM2.77,6.33h0L3,6.4a9.31,9.31,0,0,1-.27,1.27,17.08,17.08,0,0,0-.85,5.6,27.08,27.08,0,0,0,.41,4,16.89,16.89,0,0,0,1.79,6.15c1,1.78,1.65,3.73,2.78,5.45s2,3.38,3,5.06c.65,1.08,1.27,2.17,2,3.2a41.23,41.23,0,0,0,5.67,7c1.08,1,2.19,2,3.33,2.93s2.43,1.92,3.66,2.87c.45.35.91.68,1.46,1.09l-.11-1.11c-.72-.57-1.36-1.07-2-1.59s-1.13-1-1.7-1.44-1.24-1-1.84-1.53c-.19-.16-.31-.41-.52-.54a16.19,16.19,0,0,1-3.47-3.38c-.37-.41-.66-.89-1-1.31-.85-1-1.71-2-2.57-3A29.74,29.74,0,0,1,9.7,32.44c-.89-1.55-1.64-3.19-2.49-4.77a34.92,34.92,0,0,1-2.93-7.32c-.36-1.3-.67-2.61-1-3.92A16.05,16.05,0,0,1,3,14.28a16.93,16.93,0,0,1,0-2A20.3,20.3,0,0,1,3.1,9.61a8.13,8.13,0,0,1,1.37-3.3,5.84,5.84,0,0,1,1.25-1.4,4.29,4.29,0,0,1,4.38-.27c.87.35,1.68.85,2.53,1.26A9.57,9.57,0,0,1,15,7.63l3,2.82c1,.95,2.08,1.87,3.07,2.85,1.21,1.21,2.36,2.48,3.54,3.72.23.24.48.45.75.69a1.5,1.5,0,0,0-.54-1.86c-.73-.5-1.42-1.07-2.11-1.63-.12-.1-.16-.29-.24-.44l.13-.09,2.73,1.92c0-.46.09-.8-.35-1a6.4,6.4,0,0,1-1.2-.52c-.63-.39-1.22-.84-1.83-1.26l.1-.15,3.13,1.58c.26-.75.18-.91-.34-1.1-1-.36-2-.72-3-1.11-.19-.08-.33-.29-.49-.44l.1-.15a14.31,14.31,0,0,0,3.81,1.27c.06-.7.06-.67-.45-.8-.86-.23-1.72-.47-2.55-.78a9.11,9.11,0,0,1-1.34-.77l.07-.16c.51-.1.86.37,1.32.47s1,.36,1.45.5,1,.21,1.57.33l-.18-.87a1.62,1.62,0,0,0-.25,0,7.61,7.61,0,0,1-3.7-1,2.19,2.19,0,0,1-.41-.4l.1-.12c.69.26,1.37.54,2.07.77a4.43,4.43,0,0,0,2.21.2V9C21.22,9,20.81,8.53,20,7.86a13.65,13.65,0,0,0,5.18.58L25,6.23a1.81,1.81,0,0,0-.33.07,3.42,3.42,0,0,1-2.93,0A35.38,35.38,0,0,1,17.47,4a14.84,14.84,0,0,0-4-1.69,32.76,32.76,0,0,0-3.92-.74A6,6,0,0,0,6.3,2,8.24,8.24,0,0,0,3.18,4.34a8.12,8.12,0,0,0-1.63,4c-.27,1.66-.41,3.34-.6,5A5.5,5.5,0,0,0,.9,14.43c.1,1.13.23,2.25.35,3.37a6.66,6.66,0,0,0,.09.86,16.72,16.72,0,0,0,.5,1.78c.45,1.25.89,2.5,1.44,3.71S4.46,26.31,5,27.4c.8,1.52,1.53,3.09,2.39,4.59,1,1.7,2.06,3.35,3.12,5a20.56,20.56,0,0,0,1.4,2c1.15,1.4,2.33,2.78,3.53,4.14a26.54,26.54,0,0,0,2.32,2.48c1.32,1.17,2.72,2.24,4.11,3.33s2.64,2,4,3a1.46,1.46,0,0,0,.28.13,23.37,23.37,0,0,0-2.84-2.57c-2-1.45-3.85-3-5.67-4.63a36.36,36.36,0,0,1-5.54-6.58c-.85-1.23-1.59-2.53-2.39-3.79-.57-.91-1.16-1.81-1.72-2.73S6.85,29.88,6.3,28.92c-.39-.69-.76-1.41-1.12-2.12s-.69-1.4-1-2.11a24.62,24.62,0,0,1-1.41-3.13,41,41,0,0,1-1.18-5.94A20,20,0,0,1,2,8.36a15.37,15.37,0,0,1,.73-2ZM38.92,96.7h0c0,1,0,1.93,0,2.82,0,.31.18.42.46.41l3.5,0c1.38,0,2.77-.07,4.15-.05,1.57,0,3.14.11,4.7.11,1.95,0,3.89-.07,5.84-.11l4.92-.11c.33,0,.51-.13.5-.49,0-.95,0-1.89,0-2.84,0-.3-.18-.44-.51-.43l-4.37.16-5.58.21-5.69.18-4.22.12-3.67.06Zm34.7,4.71h0c-.09-.67-.34-.83-.93-.76a30,30,0,0,1-3,.26c-2.05,0-4.11-.05-6.16,0-2.4,0-4.8.09-7.21.11s-4.51,0-6.77,0l-8.66-.06c-.62,0-1.24,0-1.86,0-1.31,0-2.61.1-3.92.13-1,0-1.93,0-2.9,0a6.17,6.17,0,0,0-3,.51c14.88.45,29.63.12,44.43-.22ZM39,96.33h0l21.11-.68v-.17c-1.13-.05-2.27-.13-3.4-.15-.87,0-1.74.09-2.61.09-1.4,0-2.8-.08-4.2-.07-1.84,0-3.68.08-5.52.16-1.62.07-3.24.17-4.85.26-.4,0-.69.14-.53.56ZM80.75,10.77h0l-.33.18c-1.18.61-2.33,1.27-3.55,1.79-.61.26-.89.54-.77,1.18.9-.22,4.27-2.44,4.65-3.15ZM76.22,52.21h0l.08.12a86,86,0,0,0,6.92-6.42l-.11-.11-6.89,6.41Zm-2.73,1.28h0l.11.08a2.14,2.14,0,0,0,.65-2.43l-.76,2.36Zm-1.4,1.3h0a3.19,3.19,0,0,0,1-2.86l-1,2.86ZM26.53,50.58h0c-.08.82,0,1,.53,1.19.28-.66.14-1-.53-1.19Zm2.35,3.64h0c-.18-.46-.15-.93-.74-1,.06.45.12.85.74,1ZM28,51.49h0c-.32.72-.25.87.37,1l-.37-1Zm-1.15,1h0l-.12.11.72.66C27.54,52.71,27.17,52.64,26.88,52.5Z"/><path class="cls-1" d="M59.54,64.54c-.36-.26-.28-.5-.06-.72.47-.48,1-.93,1.43-1.44,1.11-1.26,2.21-2.53,3.3-3.81a12.42,12.42,0,0,0,2.05-2.82,33.28,33.28,0,0,0,2.45-7c.5-2.39,1-4.78,1.36-7.2.22-1.51.18-3.06.26-4.59,0-.86.09-1.71.16-2.57.16-1.95.36-3.89.48-5.84.06-1.09-.07-2.19,0-3.28.1-2.15-.28-4.3.08-6.45.13-.8.07-1.63.13-2.45,0-.14.15-.28.24-.42.08.14.23.29.22.43,0,1.09-.12,2.18-.13,3.27,0,1.48.06,3,0,4.43,0,2.07-.14,4.14-.22,6.21,0,.64-.08,1.27-.13,1.91-.07,1-.16,1.92-.21,2.89-.07,1.31,0,2.63-.16,3.93q-.29,3-.75,6c-.2,1.3-.49,2.58-.82,3.85a40.63,40.63,0,0,1-1.17,4,15.21,15.21,0,0,1-2.87,5.36c-1.25,1.35-2.4,2.79-3.6,4.18-.58.67-1.19,1.33-1.79,2A1,1,0,0,1,59.54,64.54Z"/><path class="cls-1" d="M29.33,24.4a4.5,4.5,0,0,1,.06.46c.09,2.23.17,4.45.28,6.68.09,1.79.17,3.58.31,5.36.15,1.95.35,3.89.55,5.84.16,1.52.29,3.05.54,4.56a22.33,22.33,0,0,0,1.67,6.28c.46.93,1,1.82,1.49,2.73A17.59,17.59,0,0,0,37,60a19.4,19.4,0,0,0,4.2,3.14c.46.27.87.6,1.33.87.3.18.3.37.1.69l-1.22-.8c-1-.7-2.15-1.33-3.11-2.12A20.42,20.42,0,0,1,35.51,59a23.43,23.43,0,0,1-3-4.86,23.29,23.29,0,0,1-1.63-5.72,90.48,90.48,0,0,1-1.16-10.23c-.19-2.62-.33-5.24-.47-7.87-.09-1.62-.15-3.24-.2-4.86a7.41,7.41,0,0,1,.11-1.06Z"/><path class="cls-1" d="M72.64,20.19a4.4,4.4,0,0,1,.13.7c0,1.46,0,2.91.07,4.37,0,.75.06,1.49,0,2.24-.06,1.8-.13,3.61-.22,5.41s-.18,3.9-.32,5.85c-.16,2.22-.44,4.43-.56,6.65A34,34,0,0,1,70,53.72a18.71,18.71,0,0,1-1.76,3.69,10.79,10.79,0,0,1-1.58,1.8c-.06.07-.23,0-.34,0,0-.17,0-.38,0-.49s.48-.45.69-.7a7.57,7.57,0,0,0,1.14-1.44,34,34,0,0,0,1.59-3.72,25.49,25.49,0,0,0,1-3.8c.34-1.83.59-3.68.76-5.53.26-2.82.46-5.64.63-8.47.19-3.24.33-6.49.23-9.74,0-1.72,0-3.44,0-5.17Z"/><path class="cls-1" d="M43.37,63.77,41.8,62.61c-1-.78-2-1.57-3.06-2.36a5.76,5.76,0,0,1-.66-.65,25.57,25.57,0,0,1-1.85-2.07,20.66,20.66,0,0,1-2.3-4,55.12,55.12,0,0,1-2-6.47,16.5,16.5,0,0,1-.36-1.92,2.08,2.08,0,0,1,0-.43l.21,0c.13.43.26.86.37,1.29.53,2,.95,4,1.61,6a17.2,17.2,0,0,0,3.11,5.68,27.25,27.25,0,0,0,5.73,5,6,6,0,0,1,.79.59,1.42,1.42,0,0,1,.22.48Z"/><path class="cls-1" d="M65.51,60.51a3.13,3.13,0,0,1-.21.25c-.67.64-1.33,1.29-2,1.93-1.13,1-2.31,2.05-3.4,3.14a23.54,23.54,0,0,0-3.47,3.75A8,8,0,0,0,55,73a.69.69,0,0,1-.13.41,2.29,2.29,0,0,1-.52.28,1.86,1.86,0,0,1,0-.49c.15-.6.32-1.2.49-1.79a9.44,9.44,0,0,1,1.66-2.8,12.81,12.81,0,0,1,1.68-1.87c1.48-1.4,3-2.76,4.5-4.15.75-.69,1.47-1.4,2.22-2.09a1.16,1.16,0,0,1,.48-.18S65.44,60.44,65.51,60.51Z"/><path class="cls-1" d="M74.27,5.28c-.24,2.7-.46,5.41-.71,8.11-.15,1.54-.34,3.08-.53,4.61,0,.16-.18.44-.27.44-.32,0-.26-.26-.23-.49.21-1.85.47-3.69.63-5.54.22-2.61.36-5.24.56-7.85,0-.15.18-.29.28-.44a1.44,1.44,0,0,1,.26.45,3.28,3.28,0,0,1,0,.71Z"/><path class="cls-1" d="M34.56,26.37c.08,1.09.13,2.18.23,3.27.14,1.56.29,3.12.48,4.68s.43,3.4.74,5.09c.26,1.39.65,2.75,1,4.13,0,.14-.08.32-.13.48l-.18,0a3.8,3.8,0,0,1-.22-.58c-.37-1.77-.81-3.52-1.06-5.31-.41-2.87-.71-5.76-1-8.64-.08-.74-.09-1.49-.1-2.24a6.76,6.76,0,0,1,.11-.93Z"/><path class="cls-1" d="M68.73,5.75,62.31,7.33c-1.2.29-2.39.62-3.6.88-1.47.31-3,.59-4.44.84-.93.16-1.88.25-2.82.35a2.43,2.43,0,0,1-.59-.08V9.05c.38,0,.77-.08,1.15-.14,1.91-.3,3.83-.54,5.72-.92,2.29-.46,4.55-1,6.82-1.58,1.08-.26,2.16-.54,3.24-.79a6,6,0,0,1,.94-.07Z"/><path class="cls-1" d="M36.68,35.35c.11.69.23,1.38.34,2.07a47.59,47.59,0,0,0,1.65,7.76c.3.92.61,1.84,1,2.74.41,1.06.89,2.1,1.32,3.15a.69.69,0,0,1-.08.52,33.51,33.51,0,0,1-3-7.88,49.45,49.45,0,0,1-1.34-8.33Z"/><path class="cls-1" d="M53.82,10.49a3.06,3.06,0,0,1,.49-.2c2.74-.61,5.49-1.17,8.22-1.82C64.29,8,66,7.51,67.75,7c.26-.07.5-.22.77-.29a2.34,2.34,0,0,1,.61,0C68.09,7.7,54.73,11,53.82,10.49Z"/><path class="cls-1" d="M45.6,6.87a6.31,6.31,0,0,1-.83.11,66.31,66.31,0,0,1-10.2-.59c-.39-.06-.8,0-1.2-.05a3.32,3.32,0,0,1-.63-.19l0-.17a1.76,1.76,0,0,1,.38-.06l3.33.2,6.28.38c.87,0,1.74.07,2.6.11a.87.87,0,0,1,.24.08Z"/><path class="cls-1" d="M29.31,19.29c-.34.2-.42,0-.42-.28s0-.87,0-1.31c-.08-2.2-.15-4.41-.27-6.61a62.88,62.88,0,0,1,.07-6.94,2.2,2.2,0,0,1,.14-.4c.12.23.23.34.23.46a8.53,8.53,0,0,1,0,1.31,35.41,35.41,0,0,0,0,5.74c.06,2,.18,4,.25,6C29.34,17.95,29.31,18.61,29.31,19.29Z"/><path class="cls-1" d="M39.86,44.6c.2.52.44,1,.6,1.55A31.49,31.49,0,0,0,44,53.65c.72,1.14,1.55,2.2,2.33,3.3a1,1,0,0,1,.2.37.35.35,0,0,1-.16.29c-.07,0-.23-.06-.29-.14-1.15-1.79-2.34-3.56-3.43-5.39a24.61,24.61,0,0,1-2.91-7.21,1,1,0,0,1,0-.21Z"/><path class="cls-1" d="M63.45,53.78a6.34,6.34,0,0,1-1.07.7A20.21,20.21,0,0,1,57.28,56a33.92,33.92,0,0,0-3.35.77,6.38,6.38,0,0,1-1.08.15,1.92,1.92,0,0,1-.55-.14V56.6c1.87-.38,3.77-.67,5.62-1.15s3.62-1.17,5.42-1.76Z"/><path class="cls-1" d="M48.16,8.13c-.49.46-11.21.13-12-.45A6.51,6.51,0,0,1,37,7.6l5.51.2L47.84,8A1.7,1.7,0,0,1,48.16,8.13Z"/><path class="cls-1" d="M64.07,5.51a8.11,8.11,0,0,1-1.27.4c-3,.46-6.07.88-9.1,1.32-.45.06-.91.11-1.36.13a1.91,1.91,0,0,1-.52-.13l0-.14L64,5.37Z"/><path class="cls-1" d="M50.78,11.43l-.88.15a36.22,36.22,0,0,1-6.34.15l-3.5-.09a3,3,0,0,1-.7-.08c-.11,0-.18-.18-.26-.28.12-.06.24-.18.35-.17.65,0,1.3.1,1.95.13,1.46.06,2.91.13,4.37.14,1,0,2-.09,3-.12.67,0,1.34,0,2,0Z"/><path class="cls-1" d="M62.43,55.59c-.58.24-1.16.49-1.75.72a31.2,31.2,0,0,1-5.75,1.55c-.79.15-1.57.29-2.36.41a1.56,1.56,0,0,1-.54-.13V57.9c.48-.08,1-.16,1.44-.25,1.53-.31,3.08-.58,4.6-1,1.13-.29,2.21-.73,3.32-1.09.31-.1.64-.15,1-.22Z"/><path class="cls-1" d="M48.36,73.78c-.09-.14-.19-.28-.27-.43a32.76,32.76,0,0,0-1.79-3.43A21.36,21.36,0,0,0,44,67.43s-.07,0-.09-.06c-.18-.21-.65-.36-.35-.71s.45.11.63.25a11.57,11.57,0,0,1,3.7,5c.17.44.44.84.61,1.28a1.61,1.61,0,0,1,0,.57Z"/><path class="cls-1" d="M55.43,11.7a2.72,2.72,0,0,1,.46-.22l7.17-1.91c.47-.13,1-.24,1.44-.33.1,0,.23.1.35.16a1.11,1.11,0,0,1-.3.21c-1.31.38-2.62.76-3.93,1.11q-2.35.63-4.7,1.22c-.14,0-.31-.06-.46-.09Z"/><path class="cls-1" d="M48.16,9.61c-1,.54-8.9.36-9.52-.2a5,5,0,0,1,.77-.11c1.13,0,2.26.1,3.39.12s2.41,0,3.61,0C47,9.47,47.58,9.56,48.16,9.61Z"/><path class="cls-1" d="M56.17,67.48a3.16,3.16,0,0,1-.37.57,7.76,7.76,0,0,0-2,4c-.14.62-.23,1.25-.38,1.87,0,.17-.24.3-.43.4a12.7,12.7,0,0,1,1.1-4.71,18.21,18.21,0,0,1,1.47-2,1.56,1.56,0,0,1,.37-.27Z"/><path class="cls-1" d="M59.6,57.59c-1,1-7.23,2.57-7.93,2.06Z"/><path class="cls-1" d="M48.57,71.46a6.91,6.91,0,0,1-.43-.65c-.33-.65-.62-1.31-1-2a6.71,6.71,0,0,0-1.95-2,2.81,2.81,0,0,1-.58-.64c-.06-.09,0-.27,0-.42a1,1,0,0,1,.38.12,12.54,12.54,0,0,1,1.48,1.39,26.1,26.1,0,0,1,1.65,2.35,6.17,6.17,0,0,1,.51,1.14,2.4,2.4,0,0,1,.08.54Z"/><path class="cls-1" d="M34,33.61c-.61-1.17-1.19-9.94-.63-10.58A91.85,91.85,0,0,0,34,33.61Z"/><path class="cls-1" d="M51.4,61.08a9.68,9.68,0,0,1,1.06-.29,26.87,26.87,0,0,0,5-1.32,1.49,1.49,0,0,1,.69,0C57.47,60.29,52.3,61.55,51.4,61.08Z"/><path class="cls-1" d="M55.81,13l7.24-2C62.57,11.8,56.44,13.47,55.81,13Z"/><path class="cls-1" d="M72.14,4.46c-.08,1.37-.16,2.75-.23,4.12,0,.21.06.5-.26.49s-.18-.3-.17-.49q.08-2.15.16-4.3a7.46,7.46,0,0,1,0-.81c0-.1.14-.18.21-.26.09.09.25.18.26.27a9.32,9.32,0,0,1,0,1Z"/><path class="cls-1" d="M73.11,2.76a13.81,13.81,0,0,1-.3,3.36A5,5,0,0,1,73.11,2.76Z"/><path class="cls-1" d="M44.72,12.95h3.47a11.15,11.15,0,0,1-3.47.28Z"/><path class="cls-1" d="M48.22,94.23c-.37-.53.15-1.74.89-2.34C49.14,92.83,48.45,93.37,48.22,94.23Z"/><path class="cls-1" d="M56.93,61.27a3.26,3.26,0,0,1-2.63.43l2.6-.6Z"/><path class="cls-1" d="M48.81,14.84l2.53-.17a4.74,4.74,0,0,1-2.11.57,1.61,1.61,0,0,1-.5-.22Z"/><path class="cls-1" d="M62.1,13.66l-3,.73-.06-.24,3-.78Z"/><path class="cls-1" d="M62.95,107.38c0-.61,0-1.22,0-1.83s0-1.16,0-1.75c0-.07,0-.16,0-.21a3.3,3.3,0,0,1,.29-.36c.09.11.24.23.24.34,0,.75,0,1.49-.07,2.24,0,.4,0,.8,0,1.2a1.84,1.84,0,0,1-.13.42Z"/><path class="cls-1" d="M32.22,103.75a2.6,2.6,0,0,1,.16.58c0,.62,0,1.24,0,1.86,0,.3.1.61.13.91a1.29,1.29,0,0,1-.07.37c-.13-.07-.35-.12-.36-.21a17.36,17.36,0,0,1-.15-3.45Z"/><path class="cls-1" d="M64.68,107.54c0-.4,0-.8,0-1.2,0-1,0-2,0-3.07,0-.12.1-.24.16-.36.11.1.3.21.3.31,0,.58,0,1.16-.07,1.74,0,.8-.1,1.6-.15,2.4a1,1,0,0,1,0,.18Z"/><path class="cls-1" d="M61.85,106.51a1.09,1.09,0,0,1-.12-.33c0-.94,0-1.89,0-2.83,0-.1.15-.19.24-.29.09.11.27.22.27.33,0,.53,0,1.05-.08,1.58s-.13,1-.2,1.48Z"/><path class="cls-1" d="M67.74,105.62v-2.83l.16-.09c.08.12.24.25.24.36,0,.86-.12,1.72-.19,2.58Z"/><path class="cls-1" d="M33.29,104.62c.08.07.24.14.24.22,0,.9,0,1.81,0,2.71l-.14,0-.31-2.87Z"/><path class="cls-1" d="M31.1,106.35a7.57,7.57,0,0,1-.09-2.49l.2,0c0,.33.11.65.14,1s.06.86.07,1.3c0,.1-.1.2-.15.3Z"/><path class="cls-1" d="M20.54,11.49c-.33.4-.58.11-.76-.06A20.55,20.55,0,0,1,18,9.78a32.69,32.69,0,0,0-5.2-4.55A9.49,9.49,0,0,0,8.08,3.59c-.15,0-.29-.17-.44-.26a1.64,1.64,0,0,1,.48-.16,9.36,9.36,0,0,1,5.94,2.34,41.82,41.82,0,0,1,4.76,4.41C19.34,10.48,19.94,10.95,20.54,11.49Z"/><path class="cls-1" d="M18.12,5.53c.56.28,1.14.51,1.68.84a6.43,6.43,0,0,0,4.46.84,1.38,1.38,0,0,1,.51.13c-.14.13-.27.35-.43.38a5.64,5.64,0,0,1-3.42-.27c-.92-.4-1.8-.88-2.68-1.35-.12-.06-.18-.25-.27-.38Z"/><path class="cls-1" d="M86.7,5.78a6.17,6.17,0,0,1,.83-.89,40.46,40.46,0,0,1,3.41-2.33,4.58,4.58,0,0,1,4.15-.24A2.29,2.29,0,0,1,95.8,3c0,.05,0,.23,0,.32s-.21,0-.28,0c-1.51-1.18-3-.86-4.58-.09a26.38,26.38,0,0,0-3.66,2.58,4.14,4.14,0,0,1-.39.22Z"/><path class="cls-1" d="M58.81,99.47l-.2-1.78c.13-.12.39-.17.43.12a13.73,13.73,0,0,1,0,1.64Z"/><path class="cls-1" d="M59.62,99.33c-.1-.41-.22-.82-.29-1.23,0-.1.12-.23.19-.34.1.09.28.17.28.26,0,.44,0,.89,0,1.33Z"/></svg>