<svg id="Layer_1" data-name="Layer 1" xmlns="http://www.w3.org/2000/svg" viewBox="0 0 101.98 78.6"><defs><style>.cls-1{fill:#7f723c;fill-rule:evenodd;}</style></defs><title>book</title><path class="cls-1" d="M95.29,53.17c0,.19-.11.21-.12.36C83.5,58.61,71.43,63.31,60.32,69.4c-.65.36-1.3,1.06-2.15,1,2.56-2,5.69-3.23,8.71-4.66,7.4-3.49,15.1-7,22.92-10.39,1.74-.77,3.33-1.55,5.13-2.15C95,53,95.09,53.21,95.29,53.17Z"/><path class="cls-1" d="M93.14,43.14v.24c-1.4,1.42-3.73,1.84-5.49,2.86-.48.28-.75.76-1.31.84.34-1.27,2.28-1.58,3.82-2.39A26.91,26.91,0,0,1,93.14,43.14Z"/><path class="cls-1" d="M90.75,50.18c0,.19-.11.2-.12.36-5.88,2.2-10.76,5.4-17,7.28.41-.78,1.56-.83,2.39-1.19C81.2,54.72,85.52,52,90.75,50.18Z"/><path class="cls-1" d="M90.16,48.15v.36C80.56,52.72,71.43,57,61.63,61.4c-2.43,1.09-4.67,2.21-7,3.46-.61.32-1.48,1-2.27.71.42-.88,1.54-.84,2.27-1.19C56.77,63.32,59,62,61.39,60.93,71,56.75,80.63,52.65,89.8,48,90,48,90,48.15,90.16,48.15Z"/><path class="cls-1" d="M88.61,31.68c.29,1.54-1.18,3.11-.36,4.3-.27.13-.22.57-.72.48A11.67,11.67,0,0,1,88.61,31.68Z"/><path class="cls-1" d="M87.53,47.2c0,.19-.11.2-.12.36H86.7c-7.92,3.32-16.62,7.1-25.07,10.74-1.11.48-2.31,1.26-3.58,1.08.4-.59,1.2-.6,1.79-.84,9-3.59,18-7.85,27.22-11.34Z"/><path class="cls-1" d="M87.41,43.5c0,.1,0,.11-.12.12C79.82,47.16,72.18,51,63.9,54.24c-1.13.44-2.21,1.19-3.46,1.19C65,53.28,69.6,51.71,74,49.59A144.29,144.29,0,0,1,87.41,43.5Z"/><path class="cls-1" d="M86.58,31.32a36.7,36.7,0,0,0-1.19,5.49c-.75-.35-.18-1.45,0-2.15C85.7,33.45,85.81,32,86.58,31.32Z"/><path class="cls-1" d="M83.47,37.17c-.68-.79.09-2.51.36-3.58.33-1.3.66-2.57,1-3.7.1,0,.12-.12.24-.12a9.07,9.07,0,0,1-.6,3c-.3,1.11-.58,2.23-.84,3.22C83.47,36.47,84,37,83.47,37.17Z"/><path class="cls-1" d="M85.26,46c-2.71,1.7-6.83,2.83-10.15,4.3C78,48.49,81.73,47.42,85.26,46Z"/><path class="cls-1" d="M83.59,28.46c-.81,3.09-1.31,6.49-2.27,9.43-.27-1.12.36-2.46.72-3.94C82.54,31.86,82.47,29.36,83.59,28.46Z"/><path class="cls-1" d="M79.18,38.72c-.33-1.36.38-3,.72-4.66s.53-3.44.84-4.89c0-.1,0-.11.12-.12s.23.09.24.24C80.5,32.48,79.92,35.69,79.18,38.72Z"/><path class="cls-1" d="M79.06,26.31c-.26,2.24-1.47,4-1.67,6-.66-2.06,1.2-3.65,1.19-5.85A.68.68,0,0,1,79.06,26.31Z"/><path class="cls-1" d="M76.07,30.13c-.87-.87,0-2.11.36-3,.37-1,.66-2.05,1-3a.57.57,0,0,1,.36-.12C77.45,25.84,76.13,28.08,76.07,30.13Z"/><path class="cls-1" d="M76.07,39.8c-.46.06-.37-.42-.6-.6-1.36.09-1,1.78-2,1.67.19-.85.11-2,.84-2.27.07.39-.08.55-.12.84C74.48,39.17,76.54,38,76.07,39.8Z"/><path class="cls-1" d="M74.4,28.81c-.23-1,.68-3,1-4.3,0-.19.11-.2.12-.36C75.87,25.53,74.85,27.5,74.4,28.81Z"/><path class="cls-1" d="M73.8,23.2a5.6,5.6,0,0,1-.72,3.46c.16.22.3,1.18-.24,1.07A13,13,0,0,1,73.8,23.2Z"/><path class="cls-1" d="M72.25,21.65v.24c-.64,1.43-.56,3.58-1.43,4.78.1-1.6.7-3,1-4.89A.67.67,0,0,1,72.25,21.65Z"/><path class="cls-1" d="M71.77,41.23c-.36.59-.4,1.51-1.07,1.79-.55-.69.14-1.79.36-2.62.16-.64,0-1.47.6-1.67,0,1.27-.57,1.9-.6,3.1C71.5,41.83,71.35,41.24,71.77,41.23Z"/><path class="cls-1" d="M69.63,23.44c.07-1.28.64-2.07.6-3.46h.24C70.86,20.87,70.07,22.6,69.63,23.44Z"/><path class="cls-1" d="M68.79,18.67c-.16,1.63-.73,2.85-1,4.42.05.18.15,0,.36,0-.08.48-.25.86-.84.84A15.7,15.7,0,0,1,68.79,18.67Z"/><path class="cls-1" d="M67.72,42.78A6.32,6.32,0,0,1,68.07,40c.08-.37-.31-1,.36-.84C68.13,40.21,68.58,42.47,67.72,42.78Z"/><path class="cls-1" d="M65.69,23.2c-.28-2.17.56-4.9,1-7.4a.56.56,0,0,1,.36-.12C66.69,17.8,65.9,21,65.69,23.2Z"/><path class="cls-1" d="M66.64,39a32.82,32.82,0,0,1-.84,3.82c0,.24.35,0,.36-.12a.85.85,0,0,1-.72,1.19c-.25-1.63.65-3.07.72-4.78C66.38,39.1,66.42,38.93,66.64,39Z"/><path class="cls-1" d="M65.33,37.29c-.21,1.62-.38,3.45-.72,5a5.86,5.86,0,0,1-1,2.75c.19-2.28,1.19-4.78,1.31-7.52C65.09,37.45,65.09,37.25,65.33,37.29Z"/><path class="cls-1" d="M62.46,14.25a6.48,6.48,0,0,1-.84,3.7c-.12.69.38,1.27-.36,1.31C61.25,17.65,62,15.82,62.46,14.25Z"/><path class="cls-1" d="M61.27,39.68c-.82-.73-.35-2.38-.12-3.58a21.22,21.22,0,0,1,1-3.34c0-.19.11-.21.12-.36.2,1.51-.94,3.93-1,6C61.26,38.89,61.69,39.24,61.27,39.68Z"/><path class="cls-1" d="M60.79,31.08a67.71,67.71,0,0,0-1.31,7.28c-.16.52.46.25.36.71a.33.33,0,0,0-.36.24c-.57-.23-.38-1-.36-1.43.11-2.08,1-4.39,1.07-6.33C60.54,31.55,60.4,31.05,60.79,31.08Z"/><path class="cls-1" d="M60.67,13.3a11.08,11.08,0,0,1-.48,4.3C60.24,16.53,60.08,14.21,60.67,13.3Z"/><path class="cls-1" d="M60.55,24.64c0,.14,0,.21-.12.24-.61.14-1.52-.37-2.27-.48C58.71,23.85,59.88,24.54,60.55,24.64Z"/><path class="cls-1" d="M59.36,29.89a66.94,66.94,0,0,0-1.19,7.88c-.5-.09-.26-.94-.24-1.31A41,41,0,0,1,59,30.25Q59,29.86,59.36,29.89Z"/><path class="cls-1" d="M55.66,37.05a28.46,28.46,0,0,0,1.07-8.48.56.56,0,0,1,.36-.12.57.57,0,0,1,.12.36C56.68,31.39,57,35.18,55.66,37.05Z"/><path class="cls-1" d="M54.94,34.19c-.6-2.16.36-4.81.72-6.81.2,0,.23.09.24.24A55.61,55.61,0,0,0,54.94,34.19Z"/><path class="cls-1" d="M53.39,33.71c-.56-.29-.38-1.08-.36-1.55.07-1.85.92-4.09,1-5.49,0-.14,0-.21.12-.24.63,1.86-1.3,4.88-.36,6.68C53.54,33.22,53.53,33.53,53.39,33.71Z"/><path class="cls-1" d="M52.32,25.71a31.51,31.51,0,0,0-.72,6.81c-.62-.34-.41-1.31-.36-2C51.37,28.66,51.52,26.42,52.32,25.71Z"/><path class="cls-1" d="M51.72,50.06a5.85,5.85,0,0,0-.24-2.39c-.33,0-.51.55-.84.24-.08-1,.55-2-.12-2.63,1-.74.84,1.08.6,1.79C52.37,47,52.58,49.53,51.72,50.06Z"/><path class="cls-1" d="M49.21,31.44a11.84,11.84,0,0,1,.12-4.65C49.92,28,49.31,30.1,49.21,31.44Z"/><path class="cls-1" d="M48.38,48.27c-.85-.74.37-2.28,0-3.7C49.5,45.22,48.34,47.17,48.38,48.27Z"/><path class="cls-1" d="M46.71,46.24c-.7-.75,0-3.11.36-3.58A26.3,26.3,0,0,1,46.71,46.24Z"/><path class="cls-1" d="M44.8,44.57c-1-.34.39-2.77.36-4.06a.55.55,0,0,1,.36-.12C45.61,41.63,44.82,43.43,44.8,44.57Z"/><path class="cls-1" d="M43.24,64.39c.87,1.24.21,4,1.07,5.25.47-1.41-.57-3.39.36-4.42.08,1.51-.2,3.39.24,4.54-.32.25-.5,0-1.07.36A25,25,0,0,1,43.24,64.39Z"/><path class="cls-1" d="M42.53,43.74c-.45-.78.1-2.59.48-3.34C43.28,41,42.8,42.88,42.53,43.74Z"/><path class="cls-1" d="M42.41,55.91c-.77-.23-.33-1.66-.6-2.39-.7.26-.24,1.67-1.07,1.79-.49-.93-.08-3.31-.48-3.94,1.07.28.55,1.43.72,2.63.38-.3.28-1.07.72-1.31C42.68,53.1,42.59,55.32,42.41,55.91Z"/><path class="cls-1" d="M40,52.57c.06.57-.25.78-.48,1.07-1.07-.28-.9-2.44-1.07-3.22.74-.08.54,1.75.84,2.51C39.77,53,39.5,52.41,40,52.57Z"/><path class="cls-1" d="M39.07,68.21c-1.2-.6-1.35-2.6-1.67-4.18a22.19,22.19,0,0,1-.72-6.57c.66,3.44.89,7.3,2.15,10.15.37-.23-.07-1.17.36-1A1.68,1.68,0,0,1,39.07,68.21Z"/><path class="cls-1" d="M37.63,48.75c.24,1.25-.91,2.7,0,3.46-.09.41-.33.67-.72.48-.58-1.16.81-3,0-3.58C36.85,48.68,37.27,48.74,37.63,48.75Z"/><path class="cls-1" d="M36.68,65.82c-1.2-.92-1-3.17-1.31-5a29.44,29.44,0,0,1-.6-4.89c.91,3,.77,6.27,1.67,9.19.24-.16.27-.53.36-.84C37.26,64.48,37.05,65.69,36.68,65.82Z"/><path class="cls-1" d="M35.13,52c.12-1.51-.22-3.72.12-4.66,1,1-.3,3.72.6,4.18C35.75,52,35.64,52.13,35.13,52Z"/><path class="cls-1" d="M34.65,64.87c-.32-2.32-1.69-5.75-1.19-8.48.26,1.94.68,4.58,1.19,6.92.05.18.15,0,.36,0C34.92,64,35.38,64.7,34.65,64.87Z"/><path class="cls-1" d="M33.69,50.66a17.83,17.83,0,0,1,.24-4.42c.14,0,.21,0,.24.12C34.15,47.61,34.46,50.38,33.69,50.66Z"/><path class="cls-1" d="M33.46,64.15c-.89-.92-1.06-2.63-1.31-4.18a22.49,22.49,0,0,1-.48-4.66c.78,2.28.68,5.45,1.55,7.64.34,0-.14-.78.36-.6C33.56,63.14,33.8,63.59,33.46,64.15Z"/><path class="cls-1" d="M31.43,62.6c-.81-.87-.63-2.25-.84-3.34-.32-1.72-.84-3.43-1.07-5.25.82,0,.51.86.6,1.31.39,2,.76,4.36,1.19,6.33.31-.13.39-.49.36-1C31.84,61.28,32.11,62.28,31.43,62.6Z"/><path class="cls-1" d="M30.47,48.27c-.56-1.2,0-3.72.24-4.54.14,0,.21,0,.24.12.09.78-.34,2.13-.36,3.22C30.58,47.53,31.1,48.2,30.47,48.27Z"/><path class="cls-1" d="M29.76,60.81c-1-1.38-1.37-4-1.67-6C28,54,27.72,53,28.2,52.45a33.17,33.17,0,0,0,1.31,7.28c.37-.16-.22-.53.12-.72A1.89,1.89,0,0,1,29.76,60.81Z"/><path class="cls-1" d="M27.84,59c-1-.6-1-2.21-1.19-3.46a12.86,12.86,0,0,1-.6-3.7c1,1.7.73,4.21,1.43,6.21.11.21.22.41.6.36A.58.58,0,0,1,27.84,59Z"/><path class="cls-1" d="M26.29,58.18c-1.05-.56-1.06-2.25-1.31-3.58a16.59,16.59,0,0,1-.48-4.18c.81,2.09.68,5.13,1.55,7.16C26.47,57.5,26.48,58,26.29,58.18Z"/><path class="cls-1" d="M24.38,57.34c-1.12-.73-1.53-3.22-1.67-5.13,0-.65-.26-1.76.36-2.15A15.65,15.65,0,0,0,24.38,57.34Z"/><path class="cls-1" d="M22.83,42.3c-1.37-.4.56-3-.6-3.58-.07-.36.5-.68.71-.36C23.24,39.61,22.61,41.43,22.83,42.3Z"/><path class="cls-1" d="M22.47,55.44a.56.56,0,0,0-.12.36c-1.58-1-1.45-4.73-1.55-7,1,1.65.06,5,1.31,6.57A.53.53,0,0,0,22.47,55.44Z"/><path class="cls-1" d="M20.8,52.93c0,.55.15,1.35-.24,1.55-.77-1-1.2-3.22-1.43-5a3.72,3.72,0,0,1,.24-2.63,20.53,20.53,0,0,0,1.07,6.45C20.73,53.33,20.38,52.74,20.8,52.93Z"/><path class="cls-1" d="M19,51.26c.05.61-.06,1.05-.48,1.19-.84-2.06-.86-5.22-1.07-7.28,1.11,1.34.39,4.24,1.07,6.21C18.64,51.73,18.71,51.1,19,51.26Z"/><path class="cls-1" d="M18.53,16v.24c-.31,1.12-.79,2.47-1.07,3.7-.07.33.28,1-.36,1.07,0-1.81.77-3.3,1-5Z"/><path class="cls-1" d="M17,49.94c-.59-.63-.63-2-.72-3.22A8.29,8.29,0,0,1,16.38,44c.52,1.22.05,3.42.6,4.9C17.61,48.7,17.4,50.06,17,49.94Z"/><path class="cls-1" d="M15.67,50.06a10.68,10.68,0,0,1-1.19-4.42c-.06-.68-.29-1.88.36-2.15a46.44,46.44,0,0,0,.6,5.49c.38.11.17-.39.36-.48C16.2,48.67,15.91,49.8,15.67,50.06Z"/><path class="cls-1" d="M15.79,17.23a19.47,19.47,0,0,1-.6,2.75c-.06.44.35,1.2-.24,1.31A6.33,6.33,0,0,1,15.79,17.23Z"/><path class="cls-1" d="M14.83,35.62c-.17-.87.31-2.06.12-3.34C15.6,32.78,15.43,35.2,14.83,35.62Z"/><path class="cls-1" d="M14.24,48.15c-1.25-.09-1.53-4.25-.6-5.25A9.52,9.52,0,0,0,14.24,48.15Z"/><path class="cls-1" d="M12.57,47.56c-1-.23-.8-1.73-.84-2.63a28.3,28.3,0,0,1,.12-3.58c.53,1.44-.25,4.39.84,5.73C12.73,47.33,12.6,47.39,12.57,47.56Z"/><path class="cls-1" d="M12.57,29.65a12.81,12.81,0,0,1-.24,2.87c-.05.44.33,1.21-.36,1.19C12,32.32,11.86,30.2,12.57,29.65Z"/><path class="cls-1" d="M10.89,45.65c-.09-1.14-.52-2.53-.12-3.46A6.78,6.78,0,0,1,10.89,45.65Z"/><path class="cls-1" d="M10.06,20.1C10,21.16,8.39,21.73,9,22.73c-.23.05-.3.26-.6.24A2.83,2.83,0,0,1,10.06,20.1Z"/><path class="cls-1" d="M9.82,45.29c0,.17-.36,0-.36.24a14.6,14.6,0,0,1-1-4.42c-.09-.89-.3-2.05.24-2.51C8.95,40.67,8.86,43.46,9.82,45.29Z"/><path class="cls-1" d="M8.27,42.9A1.48,1.48,0,0,1,8,44c-.75-1-1-2.78-1.19-4.42a8.11,8.11,0,0,1,0-2.75c.48,1.95.42,4.43,1.07,6.21A.56.56,0,0,1,8.27,42.9Z"/><path class="cls-1" d="M6.72,43.38c-.85-.2-1-1.53-1.19-2.63a20.83,20.83,0,0,1-.6-3.1c0-.31-.24-1,.36-1.07A20.19,20.19,0,0,0,6.72,43.38Z"/><path class="cls-1" d="M5,42.42a11.19,11.19,0,0,1-2-4.77c0-.38-.25-1.07.36-1.19C3.49,38.88,4.49,40.43,5,42.42Z"/><path class="cls-1" d="M4.33,26.79c-1-.39.07-3,.36-3.7C5.22,24,4,25.66,4.33,26.79Z"/><path class="cls-1" d="M89.2,36.1c.07-.81,0-2.61.84-3a21,21,0,0,0-.36,2.63c1.8-.59,3.68-1.1,5.37-1.79-.73-.82-2.28-1.32-2.51-2.27-4.34-2.73-8.12-6.19-12.41-9.07-3.23-2.17-6.49-4.24-9.91-6.33-6.5-4-13-8.21-19.7-12.18,0-.77-1.08-.67-1.07-1.55,0-.63.55,0,.48-.6,1.66.49,2.88,1.41,4.54,1.91a1,1,0,0,1,.12.72C69,14.4,84.8,22.91,98,33.95c-.28.23-.18.86-.36,1.19-9.92,5-21.35,8.57-31.63,13.25-3.35,1.78-6.87,3.39-10.51,4.9-.93,2.26-2.09,7.05-5.85,4.42-1.85,1.4-2.54,6.63-2.39,10.15a17.37,17.37,0,0,0,.84,3.1c.55,2.16.28,4,1.91,4.77,1.67-.22,2.35-3.22,4.3-1.67A15.49,15.49,0,0,0,55.66,73c.47-.15.29.35.6.36.46-.14.63-.56,1-.84,12.8-6.22,25.47-12.57,39-18a22.54,22.54,0,0,1-1.43-3.1c-2.36.91-4.19,2.33-6.45,3.34-.19-.51,1-.59,1.19-1.07-3.78,1.45-7.37,3.32-11.1,4.89s-7.62,3-11.46,4.54c-3.94,1.86-8,3.69-12.06,5.61-.73.35-1.51,1.12-2.39.84.35-.75,1.38-.94,2-1.19,2.36-.92,4.69-2,7-3.1,9.18-4.16,19.19-7.91,28.17-12.3.41-.09.5.13.72.24a32.76,32.76,0,0,0,3.94-2.39,17.36,17.36,0,0,1-.84-3q-2.17.87-4.18,1.91c.33-1.39,2.88-1.57,4.18-2.39a10.29,10.29,0,0,1,0-1.55c-1.39.24-3.06,1.87-4.42,2.15C90,46.73,92.2,46,93.62,45c-.29-1.11.24-2.3.12-3.34a62.89,62.89,0,0,0-6.45,3c0-.67.88-.92,1.43-1.19,1.15-.59,2.48-1.13,3.82-1.79.58-.29,1.42-.53,1.43-1.31-.61-.41-1.22.3-1.79.6s-1.27.55-1.91.83a18.38,18.38,0,0,1-3.7,1.55c.23-.86,1.24-.8,1.91-1.07,1-.42,2-1.05,3-1.55s2.27-.56,2.75-1.43c-1.53.38-3.25,1.61-5,2.15a15.48,15.48,0,0,1,2.75-1.55,20.17,20.17,0,0,1,3-1.31c.5.41,0,1.2-.24,1.55-.52,3-.5,6.74.48,9.19,2,1.74,4.54,3,6.57,4.42.1.86.2,1.71.24,2.63C96.36,59.29,89.59,61,84.07,64c-5.61,1.83-10.53,4.91-15.76,7.16-2.55,1.1-4.86,2.66-7.4,3.82a18.72,18.72,0,0,0-4.78,2.51.58.58,0,0,1-.24-.6c-.17.27-.25.63-.6.72-.86-.25-1.25-1-2.15-.84-.56.11-.66.72-1.07,1.07s-.71,0-.6.48c-2.12,1-3.64-1.58-5.61-1.43-11.48-9.33-24-17.61-35.33-27.1-1.51.06-2.21-1.68-3.82-1.91.57-.56-.45-.66-.72-1.07.55-.52-.07-.51.12-1.08.78-.09,1.37,1,2.15,1.31.38-.19-.42-.44,0-.72C15.09,50.21,20.43,56.24,27,60.69s12.53,9.72,19.34,13.85c-1.83-6.94-2.86-16.48,2.27-21,1.54.13,2.26,1.08,3.34,1.67,1.27-.76.43-1.34.6-2.39a3.31,3.31,0,0,1,1.67-1.91c.36-.13.78.11,1.19,0,.59-.16,1.44-.84,2.27-1.19,1-.44,2.15-.75,2.75-1,.25-.09,0,.07.12-.24C70.25,44.52,79.26,39.84,89.2,36.1ZM99.95,56.15c.4.56,1.48-.36.36,0a2.63,2.63,0,0,1,0-1c-2.45.53-4.15,1.82-6.45,2.51-.17.23-.18.62-.48.72a38.73,38.73,0,0,0-10.27,4.89C88.59,60.79,94.41,58.62,99.95,56.15Zm-7.64,1.67a27,27,0,0,0,5.13-2.39A29.74,29.74,0,0,0,92.31,57.82Zm0-27.81c-.22-.24.72.91,1,.6C92.86,30.49,92.71,30.13,92.31,30Zm-8.24,8.71c2.89-1.09,5.78-2.18,8.59-3.34A59.06,59.06,0,0,0,84.07,38.72ZM91,58.42a3.32,3.32,0,0,0,1.19-.6A2.8,2.8,0,0,0,91,58.42Zm-1.55.6a21.21,21.21,0,0,0-4.3,1.91c1.82-.57,3.28-1.5,5.13-2C90.17,58.49,89.64,58.95,89.44,59ZM70,68c1.93-1,4.09-1.8,6-2.86A38.74,38.74,0,0,0,70,68Zm-4.3,1.91c.64-.26,1.42-.62,2.15-1s1.61-.56,1.79-1.07C68.4,68.61,66.86,69.06,65.69,69.88Zm-2.15,1c.44,0,1.22-.37,1.07-.6C64.35,70.53,63.67,70.41,63.54,70.83ZM61.15,49.94c.34-.18,1.38-.29,1.07-.72C62,49.44,60.9,50,61.15,49.94ZM54.7,76.56c.28.28.63,0,.6-.36C55,76.25,54.79,76.33,54.7,76.56ZM50.53,57c.09.36.74.77,1,.6C51.1,57.45,51,57,50.53,57ZM50,55.08v.6c.18,0,.44,0,.48-.12C50.25,55.52,50.26,55.19,50,55.08Zm-.36,1.07a6.7,6.7,0,0,1-.6,1.19c.5-.26.78-.73,1.19-1.07C49.95,56.37,50,56.1,49.69,56.15Zm-.48,20.17a1.16,1.16,0,0,0,.48,1A.88.88,0,0,0,49.21,76.33ZM47.9,56.75c.43-.72,1.45-.86,1.67-1.79C48.58,54.61,47.59,55.81,47.9,56.75Zm.12.84c.44,0,.84-.75.6-1.07C48.47,56.92,47.94,56.95,48,57.58Zm-.6,2.51a8.13,8.13,0,0,1,.48-1.79C47.43,58.51,47.28,59.66,47.42,60.09ZM40,71.67a12.64,12.64,0,0,0,3.58,2.51A16.12,16.12,0,0,0,40,71.67Zm-9.07-7.28c3.19,2.38,6.54,5.24,9.91,7C37.44,69.28,34.14,66.37,30.95,64.39Zm-5.73-4.3c.67.36,1.44,1.26,2,1.31C26.59,61,25.88,60.07,25.22,60.09Zm-6.57-4.3c2.58,2,5.42,4.29,8,5.85C24,59.78,21.29,57.3,18.65,55.79Zm2.27.72c0-.09,0-.24-.12-.24-3.46-2.75-7-6-10.62-8.24C13.81,50.81,16.89,54.13,20.92,56.51Z"/><path class="cls-1" d="M93.14,49c.87,1.29-3.08,2.53-4.18,2.86a6.69,6.69,0,0,1-1.67.84,33.15,33.15,0,0,1,5.73-3A1,1,0,0,0,93.14,49Z"/><path class="cls-1" d="M64.73,14.37c.71.7-.14,1.88-.36,2.87s-.35,2.31-.6,3.34c-.57-.45-.17-1.56,0-2.27C64.1,17,64.89,15.73,64.73,14.37Z"/><path class="cls-1" d="M51.36,21.06a8.78,8.78,0,0,1-3.94.72c-.27,0-.52-.32-1-.48-.93-.33-1.6-.39-2.39-.72-2.76-1.15-7.11-5.18-7-8.24,0-1.73,1.41-2.42,2.39-3.82,2.25-.71,4.63-1.7,7.52-.72a14.63,14.63,0,0,1,5.37,3.82,8.67,8.67,0,0,1,2,6.09c0,.12-.22.42-.24.36.2.66,1.86,1.54,2.75,2.15,3,2.07,5.54,4.25,8.48,6.21h.6c2.54,1.8,4.69,4,7.64,5.37.89,1.2.26,2.35-1,3.34s-2.45,1.59-3.7,1c-.58-.19-.54-.74-1.19-.6-3.65-3.3-7.1-6.76-10.86-10a20.44,20.44,0,0,0-3.94-3c-.05-.39-.53-.34-.48-.84C51.85,21.46,51.6,21.63,51.36,21.06Zm5.37,2.75c.21.39.74,1,1.08,1.55A19.55,19.55,0,0,0,64.49,27c-1.05-1.08-2.47-1.11-4.18-1.43A3.45,3.45,0,0,1,62,25.35c-.73-.52-1.26-1.51-2.27-1.79a2.19,2.19,0,0,0-.48.24c-1.4-.08-2.91-1.61-4.54-1.79.53.65,1.29,1.48,2,1.55a.33.33,0,0,0-.36.24C56.61,23.84,56.65,23.64,56.73,23.8Zm8.83,7.88c-.18.11.57.8.84,1a14.24,14.24,0,0,0,5.37,1.19c.35,0,.37.27.72.24.45-.22,1.44-.94.72-1.55.15.34.06.54-.36.6-2.73-1.93-5.21-4.1-8.12-5.85,0,.21.12.6-.24.48-1.76-.39-3.81-1.12-5.37-1.31a2.86,2.86,0,0,1,1.31,1.07c1.74.4,3.55,1.15,5.25,1.55.54.13,1.52,0,1.67.72-2,0-4.1-1.39-6-1.43,1.13,1,2.83,1.3,4.42,1.79s3.41.79,4.66,1.67c-2.37-.26-5.19-1.74-7.52-2,1.36,1.32,4.43,2.31,6.81,2.63.7.09,2-.33,2.15.72A23.85,23.85,0,0,1,65.57,31.68Zm1.55,1.91c.86,1,3.07.75,4.54,1.19,0-.17.2-.2.24-.36C70,34.35,68.72,33.64,67.12,33.59Zm1.19,1.19c.56.27,1.12.55,1.67.84.31-.16.89-.06,1-.48C70,35.14,69,34.59,68.31,34.78ZM66.88,28c.49.19,1,.94,1.43.84C67.84,28.61,67.29,27.85,66.88,28Zm-9-5.73c-1.46.08-3.43-1.56-4.78-1.19,1.88.59,3.94,1.63,5.73,1.91C58.58,22.71,58.14,22.59,57.93,22.25ZM54.35,19.5c-.1.31.36.65,0,.84-.63-.35-.53-1.56-1-1.79a11.22,11.22,0,0,0-.12,1.67,8.86,8.86,0,0,0,3.46,1.07C55.73,20.9,55.23,20,54.35,19.5ZM52.56,14a22.05,22.05,0,0,0,.48,3.7C52.76,16.09,53.79,14.62,52.56,14Zm.12,5.73C52.31,18,52.64,15,52,14c.22-1.48-1.2-2.28-2-3.1a76.18,76.18,0,0,0,.48,9c.13-.31.08-.8.36-1,.08.52-.15,1.35.12,1.67.84-.61.19-2.18.12-3.46a14.48,14.48,0,0,1,.12-4.54c.36,1.51.08,3.66.48,5.13.3-.25-.19-1.5.36-1.79a10.7,10.7,0,0,0,.12,2c0,1-.67,2.73.6,3,.15-.63-.59-.37-.48-1C52.41,20,52.79,20.1,52.68,19.74ZM50,20.58c-.22-2.93-.88-7.17-.12-9.91C48.25,9.3,45.6,7.72,42.77,8.28c-.38,2.87-.46,6.05-.72,8.83,0,.37.34-.3.36.12-.25.31,0,1.1-.36,1.31.38.18.58.53,1.08.6.21-4-.32-6.55.48-9.91-.07,2.86-.13,5-.12,9.19.47-.09-.07,1.59,1,1.31.42-3.08,0-9,.84-10.86C45.14,12.31,45,15.57,44.8,19c.52,0,.12.81.6,1.07a.77.77,0,0,0,.6.12c.19-3.31-.41-7.78.36-10.15a69,69,0,0,0,0,8.24,4.41,4.41,0,0,0,.6,2.27c-.12-2.93-.12-5.77,0-8.48,0-.57-.32-1.39.36-1.79.09,2.66-.44,6.06.12,8.48.1-.3-.23-1,.24-1,.09.78-.31,2.25.24,3.1.78-3.16-.29-7.86.6-11,.16,3.47,0,6.61.24,11C49.2,20.84,49.91,21,50,20.58ZM41.21,8.76c0,2.3-.21,5-.12,7.52.54-1-.52,2.07.6,1.79.09-3.54.51-7,.72-9.67A1.33,1.33,0,0,1,41.21,8.76Zm-1.79,6.45c.21-.07,0-.57.24-.6a2.31,2.31,0,0,1,0,1.43,3.76,3.76,0,0,0,1,1c.24-2.6.1-5.24.36-8-1.13.19-1.61,1.13-2.51,1,.08.28.46.14.6.6,0-.21-.12-.6.24-.48C39.83,11.6,39.06,14.31,39.42,15.21Zm-.48-3.82c-.63.94-.28,3,0,3.7C38.89,13.3,39.18,12.69,38.95,11.39Zm-1.43,1.55c.38.09.42.54.6.84a9.84,9.84,0,0,0,.12-3C37.59,11.49,37.76,12.47,37.51,12.94Z"/><path class="cls-1" d="M20,21.41c.21-.17.43-.14.71-.24s.73-.42,1.07-.36.93,1.07,1.43,1.55a14.83,14.83,0,0,0,1.67,1.31,18.61,18.61,0,0,0,5,2.87c-1.18-3.12-5.17-5.1-6.92-7.64.09-.54.59-.68.84-1.07a27.05,27.05,0,0,0,8.12,5.61c.12-.94-1.2-1.41-1.43-2.39a17.41,17.41,0,0,1-2.86-2.63c-.47-.43-1.32-.76-1.31-1.55.25,0,.24-.32.36-.48,3.15,1.62,4.85,4.7,8.24,6.09.09-3-2.87-5-4.66-6.8-.44-.44-1.32-1.25-.71-1.91,4.72,2.88,9,6.82,10.27,12.77.11.05.21.11.24.24,2.78,2.28,6.09,4.9,9.19,7.16,1.05.77,2.23,1.36,3.22,2.15.57.46,1,1.19,1.67,1.67,1.65,1.17,3.72,2.42,4.78,3.82a3.54,3.54,0,0,1,.48,1.31c-.92.8-2.26,2.29-3.82,2.27-.93,0-1.5-.71-2.51-.83-5.63-4.87-11.31-9.7-17-14.56-1.68.17-3.67.56-5.37,0a20.53,20.53,0,0,1-2-1.19,12.67,12.67,0,0,1-2.51-1.31c-1.41-1.05-3.37-2.56-4.78-3.82A4.36,4.36,0,0,1,20,21.41ZM54.58,39.8c1.06.84,1.59,2.75,2.75,3.1v.48c.72-.08,1.21-.38,1.31-1.07-.5-.41-.3.67-.83.6-.48-.56-1.24-.83-1.19-1.91C56,40.65,55.16,39.82,54.58,39.8Zm-.24-.6c-.57-1.06-1.9-1.36-2.75-2.15-.36-.09-.35.21-.71.12s-.45-.65-.6-.36a42.45,42.45,0,0,0,3.1,5c.13.22.84.92.12,1.19-1.15-2.08-2.84-4.24-3.46-6.45-.56-.28-1.08-1.23-1.55-1.19,1.13,1.89,2,4,3.1,6,.09.33-.24.24-.24.48,1.31.76,2.46,2.32,4.06,2.39a76.38,76.38,0,0,1-3.7-6.69c1.2,1.3,1.82,3.2,3,4.54,0-.15,0-.28.24-.24-.09,1,1.3,1.65.6,2.51a1.5,1.5,0,0,0,1.31-.72c-.87-1.79-2.46-2.87-3.1-4.89C54.16,38.67,54.11,39.08,54.35,39.2Zm-7.64-5.13a31.31,31.31,0,0,1,1.91,4.06c1.09,0,.53,1.5.6,1.67.31.74,1.48,1.1,1.91,1.55C49.51,39.14,49.1,35.09,46.71,34.07Zm2.15.72a13.23,13.23,0,0,0,1.79,1.31A5.29,5.29,0,0,0,48.86,34.78Zm-3.46-2c.39,2.07,1.82,3.11,2.15,5.25.37.39.87,1.28,1.31,1.19C47.48,37.27,47.16,34.29,45.39,32.75Zm-2-1.67c.7,1.53,1.22,3.24,2,4.66.15-.3-.35-.5,0-.6.47.69.7,2.24,1.55,2.15C45.66,35.31,45.49,32.21,43.36,31.08Zm-1.67-1.43c.6,1.91,1.68,3.33,2.27,5.25.23,0,.7.76.72.24C43.72,33.27,43.39,30.78,41.69,29.65ZM40,28.58c.45,1.19.62,2.64,1.55,3.34a1.9,1.9,0,0,0,1.55,2C42,32.22,42,29.46,40,28.58Zm-1.07-1c.14.81.5,1.41.6,2.27.6-.13,1,1.29.12,1.19-.22-.53-.59-1.44-.83-2.27s-.18-2.12-1.08-1.55c.4.79.18,2.2,1.08,2.51,0,.28-.19.45-.12.84.79.56,1.43,1.27,2.27,1.79C40.32,30.78,40,28.8,38.95,27.62ZM36.8,21.41c.55.85.95,2.78,1.91,3.22C38.12,23.51,37.73,22.19,36.8,21.41Zm0,2.15a3.16,3.16,0,0,0-1.07-1.67c.05,2.13,1.52,2.85,2.51,4.06,0-.14,0-.34.12-.36-.17-.78-1.68-1.37-1.07-2.15a.33.33,0,0,0,.24.36c-.05-.23,0-.51-.36-.48C37,23.49,37,23.27,36.8,23.56Zm.6,6c.27,0,.52.57.72.24-.61-3.19-1.87-5.47-4.3-7,.42,1,1.46,1.33,1.79,2.39-.49.24-.45-.65-.72-.24.56.77,1.13,1.63,1.67,2.51.44.72,1.15,1.53,1,2.15C37.51,29.46,37.42,29.4,37.39,29.53Zm-.48-1c-.23,0-.26.13-.48.12,0,.46.49.39.72.6C37.21,28.92,36.79,29,36.92,28.58ZM35.6,21.06c.16.89,1.32,1.36,1.19,2.15C37.27,22.56,36,21.66,35.6,21.06Zm0,2.75c.61.34.82,1.09,1.31,1.55C36.74,24.65,36.09,23.8,35.6,23.8Zm-.72-5c-.87-.92-1.69-2.2-3-2.27,1.52.51,3,3.37,4.66,4.06A9,9,0,0,0,34.89,18.79Zm-.12,5.85A37.59,37.59,0,0,0,27.84,18c.92,1,2.16,1.75,3.11,2.74C33.1,23,34.24,26,36.2,28.46,35.76,27.07,34.5,26.06,34.77,24.64Zm-1.79,0c.75,1,1.09,2.41,2,3.22,0-.16.21-.11.24-.24C34.32,27.06,33.87,24.68,33,24.64Zm-.6,2.51c.18.74,1.76,1.21,1.07,2-.5-.26-.55-1-1.07-1.19a1.36,1.36,0,0,1,0,1.07c.71.41,1.42,0,2.63.12-1-1.79-1.56-4-3.34-5a10.75,10.75,0,0,0,1.43,2.39c0-.18,0-.44.12-.48.09.55.83,1.08.48,1.67-.66.12-.51-.8-1-.24C32.67,27.4,32.49,26.82,32.38,27.14Zm-1.67-2.39c-.19-.14-.43-.76,0-.84.48.83.86,2.41,1.79,2.39-.79-.72-1-2-1.79-2.74-1.72-.31-2.73-2-4.06-2.27C27.91,22.46,29.56,23.88,30.71,24.76Zm-.24.6c.72.48.94,2.08,1.67,2.15C31.58,26.87,31.28,25.34,30.47,25.35Zm-3.94.72c-.38-.22-.79-.17-1.07-.36-1.3-.84-2.1-2.36-3.34-2.63,2.9,2.43,5.53,5.13,9.91,6.09.09,0,.14-.1.12-.24C30.4,29.07,28.3,27.11,26.53,26.07Zm4.18,1c.06.38-.55.09-.6.36.47.14,1,.82,1.31.72C31.08,27.84,31.12,27.21,30.71,27Zm-1.55.24c.34.11.75.76,1.07.48C29.87,27.66,29.45,27,29.16,27.26Zm-5.37-8.48c0,.43,1.24,1.75,1.67,1.31C24.75,19.81,24.5,19.07,23.79,18.79Z"/><path class="cls-1" d="M48.5,53.17c-2-.55-3-2.14-4.78-2.87-1.31-1.67-4-3.33-5.85-4.77C32.58,41.4,27,37.29,21.52,33.47c-3.85-3-8.06-5.71-11.58-9.07-.15-.17-.56-.07-.72-.24A.33.33,0,0,0,9,23.8c.29-1.62.73-3.09,2.15-3.58,0,.92-1.43,1.42-1.43,2.75.63-.56.71-1.67,1.67-1.91.05.8-.82.94-.12,1.43.53-.23.67-.85,1.31-1,.35.6-.7.7-.72,1.31a5.18,5.18,0,0,0,.6.48c.36-.12.53-1.05.84-.84.57.23-.33.9-.48,1.19.44.56.62-.25,1.31-.12.24.3-.19.7-.36,1,.29.11.32.48.83.36a.66.66,0,0,1,.12.48c3.46,2.45,6.51,5.39,9.91,8C32.1,39.1,40.3,44,47.54,50.06a.67.67,0,0,1,.12.48,16.39,16.39,0,0,0,1.67,1.31c.19.33-.31.54-.36.24A4.59,4.59,0,0,1,48.5,53.17ZM46,50.06c.44.47-.22.39-.36.48a1.07,1.07,0,0,1,.48.48c.69-.46,1.46.37,1.79.24C47.24,51,46.56,50.05,46,50.06Zm-15.4-11.7c5.07,3.76,10.33,8,15.64,11.1A187.88,187.88,0,0,0,30.59,38.36Zm-1.43-1.08c.35.16,1.19,1,1.19.72C29.92,37.88,29.5,37.11,29.16,37.29Zm-1.79-.24c.83.52,1.76,1.58,2.51,1.79C29.07,38.29,28.15,37.22,27.37,37.05Zm.6-.84c.13.35.77.81,1,.72C28.59,36.7,28.29,36.44,28,36.22Zm-2.63-1.79c.8.39,1.62,1.4,2.27,1.55C26.83,35.56,26.09,34.47,25.34,34.42Zm-1-.83c.28,0,.51.76.84.36C24.92,33.92,24.56,33.34,24.38,33.59Zm-8.24-4.66a5.5,5.5,0,0,0-1.91-1.43c2.07,1.59,4.1,3.22,6.33,4.66,0,.07.1.13.12,0A50.32,50.32,0,0,0,16.15,28.93Zm1.19-.24c.92.51,1.87,1.63,2.75,1.79C19.11,30,18.23,28.84,17.34,28.7Zm-2.75-3c-.21.72-.45-.26-.72-.24,0,.09-.1.14-.24.12,0,.56.71.48.84,1,1.2-.47,2.32,1.59,3.34,1.67C16.72,27.41,15.76,26.46,14.59,25.71Zm-3-1.19c-.64-.11-.86-1-1.55-.72A7.25,7.25,0,0,0,12,25.59c0-.52.93.06.6-.24S11.15,25.16,11.61,24.52Zm0-.36c.35,0,.44-.27.6-.48C11.86,23.69,11.53,23.72,11.61,24.16ZM10.3,23c.24,0,.23.32.48.36,0-.24.33-.15.24-.48C10.71,22.63,10.44,22.55,10.3,23Z"/><path class="cls-1" d="M48.38.64V.88c-.4.38-.31.25-1,.12-.9,1.13-2.86,1.09-4.42,1.67-2.33.87-4.92,2-7.4,3.1-.61.27-1.07.78-1.67,1.07-.88.43-2,.67-2.87,1.07C23.7,11.19,16.42,15,9.34,18.67c-.91.64-1.72,3.74-3.34,3.7-.93,0-1.42-1.47-2.86-.72-1.06,1.56-1.28,4-1.43,6.68a42.9,42.9,0,0,0,.24,9.43c.62,3.07,2.06,5.47,2.15,8.12-1.25-.78-1.25-2.81-2.27-3.82-2-5.75-2.72-15-.24-21,.38-.1.37.19.6.24,0-.5,0-1,.24-1.19,1.22-.77,2.7.1,4.06.24,1-.21.19-2,.83-2.27.12-.05.31.17.36.12.3-.34.09-1.07.48-1.31C19.69,12,31.79,5.5,44.2.88,45.9.25,47-.61,48.38.64ZM41.45,2.79c.43-.22,1.42-.81.6-.6-.46.12-.56.45-1.31.48-.15.45-.89.31-1.08.71A7.17,7.17,0,0,0,41.45,2.79ZM.87,25.71c-.08-1.4,1-2.29.72-3.46C1.3,23.29.55,24.48.87,25.71Z"/><path class="cls-1" d="M62.11,43.26c0-.84,1-2.61,0-3,.3-2.37,1-3.81,1.19-6a.55.55,0,0,1,.36-.12C63,36.8,63.51,40.93,62.11,43.26Z"/><path class="cls-1" d="M44.44,72c-1.07-.57-1.17-2.09-1.55-3.34-.4.15-.36.76-.6,1.08-.74.06-.54-.82-.84-1.19a1.19,1.19,0,0,1-.72.6c-1-1.08-.9-3-1.19-4.66s-.95-3.25-.6-4.78c.44,1.84.88,4.58,1.19,6.92.77-2.15-.52-4.15,0-6.21a65.51,65.51,0,0,0,1.43,7.28c.08-1.46-.1-3.86.24-4.77C42.62,66.18,43.21,69.51,44.44,72Zm-2.39-6.09c-.06,1.14,0,2.13.72,2.51A13.69,13.69,0,0,0,42.05,65.94Zm-1.31.24c.07.77,0,1.72.6,1.91C41.07,67.52,41,66.73,40.74,66.18Z"/><path class="cls-1" d="M32.86,44.69c-.63,1.15-.32,3.83-.48,5.37-1.05-.85,0-3.91-.12-5.73-.84-.75-1.91-1.28-2.75-2A23.07,23.07,0,0,0,29,46.12c.18.44.43,1-.36,1a16.75,16.75,0,0,1,.48-4.89A5.11,5.11,0,0,0,28,41.35a15,15,0,0,0-.36,3.58c-1.06-.44-.09-2.92,0-3.82-.36-.43-.92-.67-1.31-1.07a15.06,15.06,0,0,0-.83,3.82c-.09.32.56-.09.48.24.12.52-.75.4-1,.24a30.05,30.05,0,0,1,.84-4.54c-.25-.42-.73-.62-1.08-1,.09,1.05-1,2.9.12,3.46-.32.2-.31.72-1,.6a14.44,14.44,0,0,1,.48-4.18c-.65-.82-1.7-1.25-2.39-2-.15.46-.89,2.64-.24,3.1-.19.45-.24,1-.84,1.07a35.07,35.07,0,0,1,.6-4.42,14.24,14.24,0,0,0-1.31-1.08c-.67,1.45.26,3.88-.72,4.54-.73-2,1.52-4.69-.72-5.49-.27.68-.28,1.63-.6,2.27,0,.42.39-.25.36.12s-.26.85-.72,1c-.22-1.52,1.43-4.14-.72-4.66-.2,1-1.15,2.45-.36,3.34-.28,0-.22.41-.6.36a4.85,4.85,0,0,1,.12-2.51c.12-.44.65-1,.6-1.31-.18-1-1.84-1.14-2.51-2a10.2,10.2,0,0,0-.72,3.7c-.74-.84-.07-3.1.48-3.82a22.45,22.45,0,0,0-2.63-2c-.86.9,0,3.15-1.07,3.58-.31-1.65,1.59-3.72-.12-4.54-.4.86-.26,2.09-.6,2.75-.81-.53.23-2,.24-2.87-.27-.56-.84-.83-1.31-1.19-.68.93.11,2.9-1,3.22a19.28,19.28,0,0,1,.6-3.46c-.25-.42-.73-.62-1.07-1A11.44,11.44,0,0,1,6.48,28c-.82-.6,1.29-3.11-.36-3.58-.38.93-.31,2.32-1,3-.32-.9.32-1.72.48-2.39.12-.49-.18-1.24.48-1.43A23.4,23.4,0,0,0,9.94,27c.23,0,.09-.46.48-.36-.07.17.14.62-.12.6,3.18,2.47,6.49,5.45,9.79,7.4C28,41.23,36.8,46.92,44.44,53.76c.29,0,.26-.22.6-.12.08,1.37-.5,3.07-.6,4.3-.68-.18-.14-1.77,0-2.27-.58.06-.36.91-.84,1.07a.56.56,0,0,0-.36-.12,8.59,8.59,0,0,1,.36-2.74c.55.22,0,.92.12,1.43.56,0,.32-.79.72-1Q38.67,49.51,32.86,44.69Z"/></svg>