<svg id="Layer_1" data-name="Layer 1" xmlns="http://www.w3.org/2000/svg" viewBox="0 0 101.15 95.37"><defs><style>.cls-1{fill-rule:evenodd;}</style></defs><title>cap</title><path class="cls-1" d="M5.73,23.85c-.13-.54.48-.34.35-.88,2.11-.28,2.7-2.08,4.72-2.45C9.58,22,7.74,23.74,5.73,23.85Z"/><path class="cls-1" d="M6.26,21.57c1.26-2.47,3.7-2.7,6.12-4C10.57,19,8.41,21,6.26,21.57Z"/><path class="cls-1" d="M7.13,24.89v-.52c1.5-.42,3.26-2.25,4.55-2.8A7.09,7.09,0,0,1,7.13,24.89Z"/><path class="cls-1" d="M11.5,15.8a2.13,2.13,0,0,1,1.92-.17c-.13,1.25-1,.52-1.57.7-1.53.41-2.78,2-4.2,1.92,1-2.22,3.82-2.59,5.25-4.37-2.36.5-3.45,2.26-5.42,3.15A9.39,9.39,0,0,1,14,13C13.91,14.71,12.2,14.75,11.5,15.8Z"/><path class="cls-1" d="M11.33,34.16c.48,1.47-1.57,4-1.4,5.77H9.41C9.26,37.91,10.67,36,11.33,34.16Z"/><path class="cls-1" d="M13.43,34.69c.65,1.94-1.19,5.34-1.75,6.65C11.28,39.52,13,36.81,13.43,34.69Z"/><path class="cls-1" d="M17.8,35c-.86,2.22-1.46,5.26-2.27,7A10,10,0,0,1,17.8,35Z"/><path class="cls-1" d="M20.77,34C21,35,20,36.45,19.55,37.84a22.7,22.7,0,0,0-1.23,4.37.81.81,0,0,1-.52.17C17.89,39.38,19.51,36.4,20.77,34Z"/><path class="cls-1" d="M24.1,33.46c.59.33-.5,1-.7,1.4-1,2-1.8,5.48-2.45,7.52-.23.21-.28.07-.52,0C21,39.49,22.09,35.55,24.1,33.46Z"/><path class="cls-1" d="M25.67,37c-.51-1.28.8-3.58,1.75-4.55-.92,2.71-2.28,6.77-3.32,9.44-.23.21-.28.07-.52,0,.43-1.15.72-3.54,1.57-4.9C25.2,36.88,25.6,37,25.67,37Z"/><path class="cls-1" d="M27.24,40.28c.15.52.14-.53.7-.18a2.66,2.66,0,0,1-1.22,1.57c-.54-1.63.75-3.59,1.4-5.25s1.21-3.8,2.45-4.9C29.63,34.63,28.33,37.35,27.24,40.28Z"/><path class="cls-1" d="M27.07,64.77a41.74,41.74,0,0,1,6.12-7.52c-1.4,2.57-3.52,4.41-5.07,6.82.39.32,1.39-1.16,1.75-.87C29.34,64,28,65.45,27.07,64.77Z"/><path class="cls-1" d="M34.59,59.35c.19,1.35-1.11,2.82-2.1,4s-2.45,2.29-2.62,4c-.23.21-.27.07-.52,0C29.95,64.32,33.45,61.91,34.59,59.35Z"/><path class="cls-1" d="M33.54,30.14c.25,2.79-2.09,6.46-2.62,9.09a.82.82,0,0,1-.52.17C30.81,36.39,32.53,33.16,33.54,30.14Z"/><path class="cls-1" d="M36.86,28.74c-.6,3.66-2.16,6.35-2.8,10,.06.3-.14.33-.35.35a.83.83,0,0,1-.18-.52,34.32,34.32,0,0,1,1.4-5.25C35.48,31.68,35.79,29.9,36.86,28.74Z"/><path class="cls-1" d="M35.64,7.93V7.58c1.08-1.92,5-2.34,6.12-3.85.08-.11-.28-.19-.35-.18.18-.4.8-.36,1.4-.35C41.44,5.58,38,5.9,36.34,7.93Z"/><path class="cls-1" d="M37.56,10.73c2.23-2.32,5.69-3.4,8.39-5.25-.49,1.67-3.92,2.66-5.77,4C39.27,10.18,38.87,11.36,37.56,10.73Z"/><path class="cls-1" d="M47,7.06c-1.12,2.5-3.94,3.29-6.12,4.72-.42.92-1.23,1.29-2.27,1.93-.2,0-.31,0-.35-.18a.48.48,0,0,1,0-.7A98.67,98.67,0,0,0,47,7.06Z"/><path class="cls-1" d="M40.71,15.28c.69-.53,1.75-.7,2.45-1.22-.22.9-2.43,2.21-3.85,1.92,2.61-3,6.57-4.73,9.79-7.17C47,11.65,43.38,13,40.71,15.28Z"/><path class="cls-1" d="M43.33,41.51c-.37,2.08-1.48,3.42-2.45,4.9-.31,0-.4-.3-.35-.7C42,44.8,42.17,42.68,43.33,41.51Z"/><path class="cls-1" d="M43,46.93c.8-1.76,2.09-3.79,2.1-5.77,1.18.61.16,2.11-.17,3a23.84,23.84,0,0,1-1.23,2.8C43.34,47.22,43.46,46.91,43,46.93Z"/><path class="cls-1" d="M47.88,41C48,42.8,46.37,45.75,46,48.15h-.52A25.57,25.57,0,0,1,47.88,41Z"/><path class="cls-1" d="M47.36,48.33a30.4,30.4,0,0,1,3.5-8c-.16,2.15-2.36,4.59-2.27,7C48.07,47.53,48.24,48.46,47.36,48.33Z"/><path class="cls-1" d="M49.45,48.33c.62-2.29,1.2-4.63,2.62-6.12-.23,1.82-2,3.56-1.22,5.25C50.29,47.73,50.26,48.79,49.45,48.33Z"/><path class="cls-1" d="M55.23,40.28c.55,1.35-1.81,3.67-2.1,5.42-.13.76,0,2.4-1.22,2.1C52.35,45.33,54.2,42.76,55.23,40.28Z"/><path class="cls-1" d="M58.37,39.06c-.23,2.42-2.43,4.64-2.1,6.47-.22.65-.44,1.31-1.22,1.4a1,1,0,0,1-.17-.7C56.15,44,56.81,41.05,58.37,39.06Z"/><path class="cls-1" d="M58.55,53.93c.87,1.27-.88,2.84-1.4,4.2a7.18,7.18,0,0,1-1.4,2.8.83.83,0,0,1-.52.17C55.8,58.87,57.74,56.51,58.55,53.93Z"/><path class="cls-1" d="M61.35,55c.32,1.53-1.76,4.07-2.62,5.77.24.67-.33,1.48-.87,2.27-.23.21-.27.07-.52,0C57.87,60.23,60,57.56,61.35,55Z"/><path class="cls-1" d="M61.35,36.79A53.47,53.47,0,0,1,59.07,45h-.52C59.3,42.78,59.91,38.91,61.35,36.79Z"/><path class="cls-1" d="M63.62,33.46c.58,2.16.07,5.81-.52,8.22.45.27.65-1.21,1.4-1.22-.66,1-.73,2.54-2.1,2.8C62.81,40.38,63.21,36.17,63.62,33.46Z"/><path class="cls-1" d="M63.79,17.2v-.52c3.39-1,5.21-3.54,8.74-4.37C69.53,13.84,67.56,16.42,63.79,17.2Z"/><path class="cls-1" d="M65,30.14c3.39-2.73,7.9-4.34,11.54-6.82,0,.92-1.31,1.44-2.1,1.92-2.68,1.66-6.28,3.23-8.74,5.07C65.35,30.39,65.26,30.2,65,30.14Z"/><path class="cls-1" d="M65.19,21.57c2.7-2.26,6.55-3.36,9.62-5.25.31,1.66-4.53,2.11-5.07,3.5C68.75,20.19,67,21.66,65.19,21.57Z"/><path class="cls-1" d="M65.54,19.12V18.6c2.81-1.09,4.73-3.09,7.87-3.85-2.16,1.74-4.86,2.95-7.35,4.37Z"/><path class="cls-1" d="M65.72,26.64c3-2.64,7.26-3.93,10.49-6.3-2.45,3-6.68,4.17-9.79,6.47C66.05,26.89,66,26.7,65.72,26.64Z"/><path class="cls-1" d="M66.07,23.85a40,40,0,0,1,9.79-5.6,57.22,57.22,0,0,1-9.27,5.6C66.46,24.16,66.27,23.87,66.07,23.85Z"/><path class="cls-1" d="M77.78,33.64c.91,1.18-.09,3.77.35,5.07-.23.21-.28.07-.52,0A28,28,0,0,1,77.78,33.64Z"/><path class="cls-1" d="M77.61,70.36c.27-.37,1.09.18,1,.7C78.17,71,78.1,70.46,77.61,70.36Z"/><path class="cls-1" d="M80.23,32.59c1.37,1.62.26,5.51-.17,6.82C80,37.86,80.58,34.27,80.23,32.59Z"/><path class="cls-1" d="M79.88,75.09v-.35c.48,0,.35-.29.7,0v.35C80.24,75.38,80.36,75.07,79.88,75.09Z"/><path class="cls-1" d="M83.73,30.84a44.09,44.09,0,0,1-1,8.22.48.48,0,0,1-.35-.52C83.3,36.48,82.39,32.53,83.73,30.84Z"/><path class="cls-1" d="M86.53,30.84c-.36,1.82-.26,5.68-1,7.17-.3.06-.33-.14-.35-.35C85.74,35.53,85.24,32.29,86.53,30.84Z"/><path class="cls-1" d="M88.1,30.14a10.9,10.9,0,0,1-.87,7.35C87.16,35.37,88,32.64,88.1,30.14Z"/><path class="cls-1" d="M93.7,25.59c.94.32,2.3-1.28,3.32-.88.12,1-.84.91-1,1.57.28,2.52-1.11,5.68.18,7.52-2.4,1-.36-5.29-.7-7-2.06.27-2.74,3.44-3,6.12.08.44.38-.29.35-.52.79.3-.26.92-.52,1.23.89-.22.33,2.45-.7,2.45,0-2.48.65-4.36.87-6.65-3.15.7-1.63,5.2-3.15,6.82-.68-1.22,1.13-3.63-.18-4.37.83-.87,1-2.4,1.4-3.67-.05-.24-.44-.14-.7-.17,1.75-2.38,5-3.31,7.17-5.25A7.19,7.19,0,0,1,93.7,25.59Zm-1.22,3c-.11-.48.22-1.39-.17-1.57-.28.54-1.08.55-1.4,1,.47.31-.57,1.51,0,1.92C91.38,29.45,91.71,28.79,92.48,28.57Zm3.15-3.15c-1,.15-1.57.76-2.45,1,.1.36-.22,1.15.18,1.22C94,26.85,95.19,26.5,95.62,25.42Z"/><path class="cls-1" d="M89.68,20.7a25.6,25.6,0,0,1,5.77-4.55c0,1-1.28,1.31-2.27,2.1C92,19.2,91.35,20.94,89.68,20.7Z"/><path class="cls-1" d="M89.85,18.07A10.57,10.57,0,0,1,93,15.28c-.31,1.44-1.89,1.61-2.27,3C90.23,18.39,90.27,18,89.85,18.07Z"/><path class="cls-1" d="M90.2,23c0-.28.16-.3.17-.52,1.88-1.45,4.27-3.3,5.95-4.37-.31,2.09-3.79,2.5-4.72,4.55C91,22.59,90.64,23.36,90.2,23Z"/><path class="cls-1" d="M87.58,80c.23.2.61-1.2,1.4-.52,1.11,1.4.85,4.17,1.4,6.12-.27.74.91,0,.87.52.55.76-1.29.39-.87,1.57-2.46.73-5.75,2.63-8.57,3.67a33.24,33.24,0,0,1-7,1.75c-4.94.72-10.05,1.77-15.39,2.1A141.06,141.06,0,0,1,34.06,94c-3.33-.4-6.57-1.37-10-1.4-1-.31-.8-1.25-1.4-1.57-1.1-.4,0,1.4-.87,1.22-.85-1-.88-2.74-1.22-4.55-.43-2.3-1.53-3.83.7-4.55-1.08-1.32-.36-3.22-.35-4.9,0-1.92-.45-3.93-.52-5.95-.08-2.2.1-4.42,0-6.64-.27-6-1-11.46-1.4-18-8.94-.5-14.2-6.4-17.49-13.12C.17,31.73-.25,27.5.14,24c.61-5.48,3.43-8.86,6.12-12.59,4.4-2.49,9.21-5.45,15-5.25,1.55.05,3.47.43,4.9,0,1.2-.36,1.54-1.32,2.62-2.1,3.47-2.48,9.95-4.46,15.74-4,2.18.17,4.94,1.39,7.17.7,7.65,1.36,16.09-.22,24.13,1,2.13.34,4.4.75,6.47,1.22a38.66,38.66,0,0,1,5.42,2.1,32.92,32.92,0,0,1,3.5,1C93,7.15,93.81,9,96,9.16A32.15,32.15,0,0,1,101,28.74c-.54,6.31-6.43,10.91-11.19,13.47C85.7,51.73,84.62,68.44,87.58,80ZM22.7,57.25c.3-.22.46-.59,1-.52-2.3,1-1.22,3-1,5.95.36,6.17-.07,14.19.52,19.24,4.8.44,9.89.6,12.94,2.8,3.37.15,6.71,1,10,.7.34-.07.14-.68.7-.52,9.14.06,19.5-1.57,28-3.32-.39-.41-1.79.35-2.8.17-.56.28-1.83.93-2.1,0,4.07-1.24,9.23-1.38,13.47-2.45a1,1,0,0,1-.17.7c.41-.12,1.11-.4,1,.35-1.81-.06-2.86.64-4.2,1,1.91,0,4.55-.78,5.95-.35.41-.15,0-.9-.17-1,0,.38-.14.56-.52.52-.41-.58-.65-1.33-1-1.92-.66-.26,0,.78-.7.52.07-.33.06-.75.52-.7C83.32,71,83,62,83.91,55.32c0-.28-.45-.14-.35-.52a25.67,25.67,0,0,1,.7-3.67c-1.53.14-2.22,2.85-3.5,2.1.79-2,3.73-1.87,3.85-4.55-1.73.18-3.23,3.28-4.9,2.62,1.36-1.91,4.56-2,5.07-4.72-4.77,1.3-7,5.13-11.54,6.65,1.89-2,5-2.84,6.47-5.25-1,0-1.76,1.14-2.45.87,2.38-1.29,5.09-1.53,7.52-3V44.13c-1.53.73-4.64,1.7-6.47,3.15-.76.6-3,2.66-2.27,2.62-1,0-1.19.8-2.1.87,0,.33.2.39.18.7C70,54.72,66,59,64,63.72c.3-.35.92-1.28,1.22-1-.95,1-1.4,2.56-2.8,3.15,0-2.85,3-4.44,3.67-6.82a8.91,8.91,0,0,1-.17-.87c1.22-2.44,5-3.45,5.95-5.77-.1.42-1.09.83-1.22.18,1.89-1.72,5-3.14,6.3-4.9-.71.68-1.43-.36-2.1,0a3.34,3.34,0,0,1,1.92-.52c.75-1.43,2.48-1.3,3.85-1.75a13.45,13.45,0,0,0,3.15-1.57,28.88,28.88,0,0,1-6.3,1.57c-2.52,1.19-3.92,3.13-5.77,4.55-.17.13-.61,0-.87.17-.45.34-1,1.86-1.75.88,2-2.07,4.56-3.6,6.82-5.42-.64,0-.37-.91-1.22-.7-.28,1.24.49.52.87.87-.5.31-1.67,0-1.92.52.21,0,.5,0,.52.17-2.85.61-4.17,2.64-5.95,4.2-1,.84-2.45,2.28-3.32,1.92.88-1,2.06-1.67,3-2.62-.16-.19-.65-.05-.52-.52-.74.08-.74.89-1.4,1-.32-.31-1.24-.6-.7-1.22-1.33.06-3.21,2-4.2.7.14-.5,1.27,0,1.23-.7-1.79.32-3.69,1.23-5.42,1-8.13,3.16-17-.53-22.21-4,0,3.2.8,8-.87,10.49.64-2.81.5-7.27.35-11a2.48,2.48,0,0,0-1.4-1c.1,3-.18,4.5-.18,7.35.16.48.39-.53.7,0-.09.67-1.37,1.07-.7,1.92a.77.77,0,0,1,.35-.7c-.12,1-.06,2.16-.87,2.45-.31-.33-.13-1.16-.18-1.75-2.1,2.56-4.13,5.2-6.12,7.87.55.07,1-.88,1.23-.52-.72.68-1.2,1.6-2.45,1.75.75-1.94,2.23-3.44,3.67-5.25,2.09-2.62,4.69-4.56,3.85-9.09-1.38.82-1.27,3-1.4,4.2-.7,0,0-1.4-.7-1.4-1.3.89.24,2.54-1,3.5-.22-.49-.43-.86-.17-1.4-.73.33-.8.75-.87,1.4-2.24,1.26-3,4.94-5.07,5.77,1.54-3.16,5.43-5.85,4.72-9.62-1.29.23,0,3-1.22,3.32-.54-.49.44-1.57-.18-2.1-.81.71-.49,2.54-1.22,3.32-.38-.15.07-1.12-.35-1.22C24.09,55.49,22.65,56.38,22.7,57.25Zm17-15c.79-.44,1.3-2.07,2.27-1.75a4.72,4.72,0,0,1-1.4,1.75c.74-.14,1.25-1.24,2.1-.7a48.7,48.7,0,0,1-5.6,4.2c-.64-.84-1.35-.42-2.1-.87,1.42-1.49,4.24-2.52,4.72-4.37C37.87,41.64,36,44.4,33.72,44a5.93,5.93,0,0,0,1.92,2.1,35.55,35.55,0,0,0,8.74,4c4.63,1.48,10.22.46,14.34-1.4C66.46,46.86,71.16,42,73.94,35.21c.91.05-.31,1.32.52,1.22.57-.65,0-2.47,1-2.62.21,3.88-1.85,7-3.32,9.79,4.18,0,9.75-.28,12.94-1.92a11.24,11.24,0,0,0,6.3-2.62c1.12-.84,2.41-2.69,3.15-2.27C98,34.19,98.78,30,99.64,24.89c.29-1.7-.95-4-1.22-5.6a19.52,19.52,0,0,0-1.22-4.72c-.23-.43-.65.19-.7-.17-.23-.54,0-.5,0-1.22-.66,0-.85-.55-1.4-.7-.9-2.13-3.17-3.45-5.42-4.2s-4.4-2.46-6.82-3-5.32-.47-8-.87C71.72,4,69,4,66.94,3.56c.34,1,1.58,1.1,1.75,2.27-.15,1-1.56.66-1.57,1.75-.68.1-.41-.75-.87-.87C62.09,6,59.91,3.36,54.88,3.56c0-.27,0-.6-.35-.52-2.42,0-4.81-1-7.17-1.22A24.05,24.05,0,0,0,30.74,6c2.72.61,4.28-2.62,7.17-3a33.07,33.07,0,0,1-3.32,2.45c.2,0,.5,0,.52.17-.66.39-1.49.6-2.1,1,1.33.37,2.25-1.11,3.32-1.57-.26,0-.65.06-.7-.17,1.2-.15,1.64-.72,2.62-.7.05-.34-.24-.35-.35-.52.52,0,1.07-.49,1.22.17C38.55,5.13,37.06,5.45,36,6.18c.26,0,.65-.06.7.17-.55.38-1.39.48-1.75,1,.09.84,1.39.92,1.4,1.75,1.73-1.65,4.14-2.63,6.3-3.85C40.88,7.4,38,8.4,36,10.2c-.53-.74-.85-.28-1.22-.35-.58-.11-1.63-.64-2.1-.7-.67-.08-1.39.11-2.1,0-.54-.08-1-.44-1.57-.52-8.4-1.12-18.19,2-22.56,6.47-.51,0-.54.4-1,.35a13.52,13.52,0,0,1-3.32,4.37c-.25,1.75-.9,3.11-1,4.72-.6,6.42,2.06,11,4.37,14.86,3.2,3.74,6.88,7,13.47,7.35.24-.34.1-1.07.87-.88,1.28,1.53,2.56.72,4.9,1a4.34,4.34,0,0,1,1.4-1c6.11-.24,9.76-4.46,14.34-6.82.37.79-.4.86.35,1.4C40.61,41.19,39.44,41.75,39.66,42.21ZM14,8.28c.12.3,2.16-.37,2.8-.7C15.52,7.51,14.94,8.1,14,8.28Zm7.52,78.17c-.59-.56.5-1.75-.52-1.92C20.69,84.8,21.07,86.84,21.47,86.45Zm.18-11.37c-.42-.8.06-2.51-.52-3.15C21.16,73,21,75.19,21.65,75.09ZM22,81.21c-.13-.95-.2-3-.35-2.62s-.49,2.82.17,3C22,81.52,22,81.41,22,81.21Zm0-19.76a13.12,13.12,0,0,1-.18-2.1c-.4.24-.06,1.22-.17,1.75C21.88,61.1,21.81,61.4,22,61.45Zm.35-9.27c-.16.59-.39,0-.7.35.1.31-.21,1,.17,1C21.93,53.14,22.86,52.65,22.35,52.18Zm-.17,4.72c.57-1.21,2.56-2.64.7-3.85a4.62,4.62,0,0,0-.87,1.4c.21,0,.5,0,.52.17-.35,0-.22.48-.7.35A3.8,3.8,0,0,0,22.17,56.9ZM24.45,90c1.89.85,5.3.18,7.17,1,0,.33-.58.12-.52.52A189.59,189.59,0,0,0,62.57,93.1a49.81,49.81,0,0,0,9.79-1.75c2.49-.59,4.93-1.66,7.17-1.92,3.6-.42,5.44-1.85,8.22-2.62a32.85,32.85,0,0,1-.18-5.25C81.89,83,76.07,84.67,69.74,84.88,65.62,85,62,86,58.2,86.28c-3.31.26-6.65-.2-10,0a14.2,14.2,0,0,1-1.57.35,25.7,25.7,0,0,1-3.85-.7c-5.18-.9-10.5-.5-13.64-.7-.17.33.52.58,0,.7-2.06-.38-4.81-.36-6.47.52,2.23.58,5.8-.3,7.35.52-.83.8-3.29,0-4.37.52.28,0,.61,0,.52.35-.75-.06-2-.48-3.32-.52,0,.76.44,1.08.7,1.57,2.47,0,5.58-.91,7.17.18-1.14.62-4.78-.32-5.6.52.65.11,1.8-.28,1.92.35A8.34,8.34,0,0,0,24.45,90ZM22.87,85.4a16.25,16.25,0,0,0,3.5-.35c-1.26-.2-2.5-.42-3.67-.7C22.81,85,22.7,85,22.87,85.4Zm1.4-31.65c.87-.26.53-2.08.18-2.62.66.35.69-.79.35-.87A4.82,4.82,0,0,0,24.27,53.75Zm1-6.3c-1.33-.28-.81,2.21-.87,2.62A4.49,4.49,0,0,0,25.32,47.45Zm1,.7a7.24,7.24,0,0,0-1,4.2C26.79,52,26.39,49,26.37,48.15Zm1.4-1.57a4.78,4.78,0,0,0-.7,3.85A10.15,10.15,0,0,0,27.77,46.58Zm.7,2.62c-1,1.16-.33,2.11-.7,4C29,53,28.71,50.32,28.47,49.2Zm1.92,42.15c-.34-.2-2.36-.33-2.1,0C29,91.2,29.84,91.89,30.39,91.35Zm-.7-44.25c.46-.7.79-1.55,1.92-1.57a4,4,0,0,0-1,4.2c1.21-1.19,1.6-2.35,1.57-4.55-.86-.12-2.13.75-3.15,1C29.64,46.11,29.29,47,29.69,47.1Zm0,.7c-.81.41-.61,2.77-.35,3.67C30.24,51,29.93,49.06,29.69,47.8ZM43.51,94a71.61,71.61,0,0,0,11,.52C51,94.22,46.8,93.69,43.51,94Zm16.61.35c-.36-.17-.83-.22-.87-.7a3.11,3.11,0,0,0-1.92.35C58.63,93.6,59,95.09,60.12,94.32ZM66.24,5.48C66,5.29,65.34,4.53,65,5,65.2,5.26,67.06,5.83,66.24,5.48Zm1.57,39.35c-.18.46-.69.59-.87,1C67.49,45.89,68.44,45.41,67.82,44.83Zm5.42.7c-.21,0-.5,0-.52-.18.45-.14,1-.18,1.22-.52a13.18,13.18,0,0,0-1.92.35c-.22.57.57.13.35.7A18.06,18.06,0,0,0,67.64,49,54.63,54.63,0,0,0,73.24,45.53ZM72.36,2.16c-1.29.18-2.6-.54-3.67,0C69.73,2.33,71.74,2.64,72.36,2.16Zm-.7,90.59a6.1,6.1,0,0,0-2.62.52C69.83,93,71.2,93.33,71.67,92.75Zm5.42-.7c-1.8.35-2.52-.25-3.85.7A12.09,12.09,0,0,0,77.09,92.05Zm.52-9.27c-.66.5-2.06.27-2.8.7C75.31,83.58,77.81,83.37,77.61,82.78Zm7.17-11.19c.14,0,.2.15.18.35v1.75c.4-.24.06-1.22.17-1.75,0-.74.3-3-.35-4A20,20,0,0,1,84.78,71.59ZM85.66,49c.33.53-.36,1.94,0,2.45a43.48,43.48,0,0,0,.87-4.72,2.27,2.27,0,0,0-1.4,2.8C85.32,49.39,85.19,48.91,85.66,49Zm0-3.67a2.74,2.74,0,0,0,1.4-2.1,2.5,2.5,0,0,0-1.92.87C85.78,44.06,85.2,45.22,85.66,45.36Zm.87,1.22v-1c-.35.07-1.22.51-.87.7C85.78,45.84,86.18,46.62,86.53,46.58Zm.52-.18c0,.19.08.44.17.18C87.79,44.5,87.59,44.19,87.05,46.4Zm1.22-3.5c-.69-.22-.45.48-.7.7C88.27,43.83,88,43.13,88.28,42.91Z"/><path class="cls-1" d="M72.89,48.85c.29-.41.9-.5,1.22-.87.42.27-.39.76-.87.7a1.13,1.13,0,0,1,.17.87c-2.93,1.77-4.2,4.19-7,5.95,0-1.61,1.78-2.71,3-3.67s2.9-1.75,3.85-3Z"/><path class="cls-1" d="M44.73,17.72c2.43-.73,4.35-2.87,6.82-3-1.91.46-2.09,1.62-4.2,1.93-1.3,1.06-2.59,2.16-4.37,1.92,2-3.2,6.72-3.65,7.69-7.87,1.25.3.29,1.68,0,2.1C49.44,14.63,46.34,16.07,44.73,17.72Z"/><path class="cls-1" d="M51.9,14.75c-.49,0,.42-.48-.35-.35.44-.56,1.08-.51,1.75-.18-1.27,2.52-3.39,4.19-5.42,5.95,1-2.35,3.09-3.67,4.72-5.42C52.73,14.47,51.78,14.47,51.9,14.75Z"/><path class="cls-1" d="M52.25,41.86c-.31.26.26-1,.18-1.23C52.91,40.9,52.44,41.68,52.25,41.86Z"/><path class="cls-1" d="M67.64,70.19c.35,0,.22-.48.7-.35-1,.82-1.36,2.38-2.8,2.8.8-3.64,5.16-5.21,6.47-8.92,1.67,0,2-1.49,2.45-2.27-3-1-4.5,2.58-6.12,4.2,1.5-.61,2.18-2.93,3.85-2.8-2.15,1.06-3.39,3.94-5.42,4.55.1-1.86,2-3,3.15-4.37s2.39-2.84,3.5-4.2c-1.71,1-2.6,2.77-4.37,3.67.43.77-.8.64-.7,1.57-1,.33-1.4,2.18-2.45,1.92-.33-2.09,1.45-3.55,2.1-5.25-.26-.33-.6.74-1.22.18,1.59-2.67,4.32-4.19,6.3-6.47-.06-.54-.89.46-1-.18-.47-.6.61-.82,1.4-.7,1.83-.34,4.2-1,6.12-.7-.94,1-3.49.47-4.9,1-1,1-2.24,1.61-3,2.8.2,0,.31,0,.35-.18-.36.46-1.28,1.86-2.45,2.1a16.07,16.07,0,0,1-2.1,4.2c1.88-1.56,4-4.39,6.12-6.3,0-.5-1.2.15-1.22-.35,1.51-1.23,4.44-1,6.82-1.4-1.33,1.41-5.1.38-5.6,2.62,2.26-.31,4.65-.48,7-.7-1.14,1.31-4.25.65-6.12,1.22.06.41.83.1.7.7a.77.77,0,0,1-.7-.35c-.34.94-1.13,1.44-1.57,2.27,2.44-.31,5.36-1,7.52-1-1.2,1-3.3,1-5.25,1.22.37.83.9.51,1.75.7-.59.52-1.53-.1-2.1-.18.21.49-.43,1-.7,1.92,1.29-.14,4.94-.26,5.25-1.4,1.47,1.5-3.64,1.86-5.42,2.1,1.47.53,3.73-.09,5.07.87-.11,1.21-1.61.87-2.27,1a15,15,0,0,1-4,1c.21.47,1.21.76,1.22,0,.83.62-.65,1.58-1,2.1,1.36.08,4.69.06,5.07-.87.41.23,1.16.13,1,.87-3,.8-7.49.21-8.74,2.8,2.79-.36,5.24-.74,7.69-1-1.71,1.32-5.51.55-5.77,3.32,2,0,4.72-.76,7-1-1,1.06-2.75.91-4,1.22-.93.23-3.1.5-3.85,1-1.72,1.27-3.22,3.55-4.72,5.07,1.3-.63,2.11-1.74,3.5-2.27-1.62,1-3,3.12-4.72,3.5.24-2.81,4.4-4.09,4.72-6.82,1.27-.19,1.71-1.2,2.27-2.1-.69-.62-2,.47-2.45-.35-1.36,1-2.13,2.65-3.32,3.85.89-.34,2-1.93,3.15-2.62a26,26,0,0,1-5.07,5.07c.07-1.65,1.63-2.93,2.62-4.2a20.92,20.92,0,0,1,3.32-3.85c.13-.54-.6-.21-.35-.87a3.92,3.92,0,0,0,2.8-1.93c-.23-.9-1.27-.1-1.75-.52.79-1.49,5.35-1.45,7-2.1.15-1-1.08,0-.52-.7-1.4.15-3.16-.16-4.9.17C71.14,66.45,69.25,68.19,67.64,70.19Zm2.1-8.57c1.08-1.13,2.37-2.06,3.5-3.15C71.36,58.7,70.49,60.85,69.74,61.62Zm-2.45,2.27c-.46,0-.91.94-.52,1.22C66.85,64.61,67.39,64.57,67.29,63.89Z"/><path class="cls-1" d="M77.44,27.69a36.77,36.77,0,0,1-8.74,5.77c-.32,2.26-.18,3.9-.52,6.12-.78-1.34-.2-4.4-.18-5.6-.63.12-.94.57-1.57.7-.2,2.81.38,5.36-.88,7.17-.83-.55.07-2,.18-3.32.15-1.85-.07-4.15.52-5.6,0-.33-.58-.12-.52-.52,3.57-2.78,8.6-5,12.42-7A35.51,35.51,0,0,1,70.44,30C72.63,29.88,75.12,27.66,77.44,27.69Zm-8.57,3.67a3.27,3.27,0,0,1-.18,1.4C71.3,31.41,74,30.18,76,28.22,73.48,29.1,71.27,30.33,68.87,31.37Zm-.7,1.75c-.11-.42.22-1.27-.18-1.4C67.23,32,66.28,33,66.77,34,67.08,33.54,67.77,33.47,68.17,33.11Z"/><path class="cls-1" d="M74.46,80.16c0-.81-3.52,1.13-4.55.35.63-1.16,2.54-1.19,3.85-1.4,1.87-.29,4.23-.67,7-.88.13-.79-.48.27-.35-.52.53.17,1.43,0,1.4.7-2.34.23-4.37,1-7.17,1.22C74.69,79.92,74.47,79.93,74.46,80.16Z"/><path class="cls-1" d="M70.44,79.28A6,6,0,0,1,72.71,77c-.55-.52-1.65.85-1.75-.52,2.77-.73,5.87-1.12,8.74-1.75-.86,1.58-3.41.42-4.37,1.92-.26-.08.07-.22,0-.52-1.53.48-2.52.48-3.32,1.75,2.65-.15,6.62-1.43,9.27-1.57a11.5,11.5,0,0,1-4.2,1.22c.19.79,1.19-.34,1.4.52a13.7,13.7,0,0,0-6.12.87c-.55.08-.71-.22-.87-.52A4.24,4.24,0,0,0,70.44,79.28Z"/><path class="cls-1" d="M96.85,20c.08-.26.22.07.52,0-1.08,2.65-4.47,3-5.77,5.42-.93-.06-1.31.78-2.1.35C91.48,23.5,95.49,22.31,96.85,20Z"/><path class="cls-1" d="M65.37,55c-.73,2.65-3.18,5.1-4.37,7.87.35.5.27-.88,1-.52-.7.73-1.13,2.57-2.27,2.27C60.74,61.19,63.19,57.76,65.37,55Z"/></svg>