<svg id="Layer_1" data-name="Layer 1" xmlns="http://www.w3.org/2000/svg" viewBox="0 0 101.43 85.22"><defs><style>.cls-1{fill:#464646;}</style></defs><title>cards</title><path class="cls-1" d="M14.17,23.83c3.26-5.64,6.7-11,12.23-20.18.38-.64-1.63-1-2.08-.35-5.22,8-7.08,11.88-12,19.72C12,23.66,13.75,24.54,14.17,23.83Z"/><path class="cls-1" d="M27.31,1.82c1.46-.93,3.1-.52,4.7-.29.34,0,1.06,0,1.14-.42s-.6-.73-.94-.78C29.94,0,27.67-.4,25.61.91,24.74,1.46,26.67,2.22,27.31,1.82Z"/><path class="cls-1" d="M33.2,2C53.55,11.29,74,20.47,94.33,29.8a2.1,2.1,0,0,0,1,.09c-.16.19-.11.43.35.68,3.08,1.65,4.51,4.34,3.22,7.72-.28.74,1.77,1.18,2.08.35,1.5-3.94-.6-7.09-4.07-9a1.5,1.5,0,0,0-.94-.1c0-.1-.13-.22-.42-.35C75.15,19.91,54.72,10.74,34.37,1.41,33.77,1.14,31.95,1.4,33.2,2Z"/><path class="cls-1" d="M88.55,65.1c.48.09.72.38.83.12,5-10.94,7-13.61,11.19-24.88.14-.38-1.88-.89-2.08-.35l-.27.74c-.51-.11-1.06-.1-1.15.17-4,10.74-4.89,10.56-8.58,19.57Z"/><path class="cls-1" d="M87.57,36.89a13.5,13.5,0,0,0,.86,2.48c.09.17.6.16.48-.08a13.1,13.1,0,0,1-.82-2.4C88,36.7,87.51,36.67,87.57,36.89Z"/><path class="cls-1" d="M88.39,36.48a23.49,23.49,0,0,0,.71,2.77c0,.12.54.15.51,0a23.48,23.48,0,0,1-.7-2.73C88.89,36.42,88.38,36.41,88.39,36.48Z"/><path class="cls-1" d="M89.4,34.73c.25,1.54.62,3.05,1,4.56,0,.18.56.22.51,0-.36-1.51-.74-3-1-4.57C89.88,34.57,89.36,34.52,89.4,34.73Z"/><path class="cls-1" d="M90.44,34.05c.1,1.89.86,3.64,1.14,5.51,0,.15.54.22.51,0-.28-1.84-1-3.57-1.13-5.44C90.95,34,90.43,33.9,90.44,34.05Z"/><path class="cls-1" d="M91.69,34a37.83,37.83,0,0,0,1,4.21c0,.13.55.17.51,0a37.61,37.61,0,0,1-1-4.16C92.18,33.9,91.67,33.89,91.69,34Z"/><path class="cls-1" d="M92.87,33.91a19,19,0,0,0,1,3.09c.09.21.6.17.48-.11a18.24,18.24,0,0,1-.92-3C93.33,33.67,92.8,33.65,92.87,33.91Z"/><path class="cls-1" d="M94.44,36.57c0,.16.56.2.51,0a1.7,1.7,0,0,0-.17-.45c-.09-.15-.6-.16-.51,0A1.7,1.7,0,0,1,94.44,36.57Z"/><path class="cls-1" d="M26.87,8.37c.51,1.41.88,2.87,1.4,4.28.07.2.6.22.52,0-.51-1.41-.88-2.87-1.4-4.28C27.32,8.18,26.8,8.16,26.87,8.37Z"/><path class="cls-1" d="M29.22,6.88c.09,1.79.55,3.54.64,5.34,0,.11.15.18.28.19.1.89.21,1.79.37,2.68a5.24,5.24,0,0,0,.92,2.73c.17.17.65,0,.41-.2-.62-.62-.71-2-.85-2.77-.18-1-.29-2-.4-3.05,0-.12-.15-.18-.28-.19-.15-1.55-.5-3.08-.57-4.63C29.73,6.76,29.21,6.69,29.22,6.88Z"/><path class="cls-1" d="M30.78,5.92c.3,2.31.6,4.63,1,6.92,0,.06.09.09.18.12a10.77,10.77,0,0,0,1,4.2c.07.13.56.13.51,0a11.08,11.08,0,0,1-1.06-4.58c0-.06-.1-.1-.21-.12-.39-2.15-.68-4.32-1-6.49C31.28,5.84,30.77,5.82,30.78,5.92Z"/><path class="cls-1" d="M32.85,6.3a28.48,28.48,0,0,0,.72,7.64c0,.14.55.18.51,0a28.25,28.25,0,0,1-.71-7.59C33.37,6.23,32.85,6.18,32.85,6.3Z"/><path class="cls-1" d="M34.7,7.15c.2,2,.69,4,.89,6,0,.09.13.15.25.17.16.92.34,1.85.57,2.76,0,.14.55.19.51,0-.31-1.22-.53-2.46-.73-3.7,0-.06-.1-.09-.21-.11-.23-1.69-.6-3.36-.76-5.07C35.2,7,34.68,7,34.7,7.15Z"/><path class="cls-1" d="M37.46,7.86a24.47,24.47,0,0,0,.1,2.85c0,.15.53.17.52.09A24.46,24.46,0,0,1,38,7.95C38,7.8,37.46,7.76,37.46,7.86Z"/><path class="cls-1" d="M26.57,15.47c0-.2-.56-.24-.52,0a16.38,16.38,0,0,0,1.3,4.18c.09.18.6.17.48-.08A16.11,16.11,0,0,1,26.57,15.47Z"/><path class="cls-1" d="M29,19.77c-1.07-1.43-1-3.44-1.56-5.08-.06-.16-.57-.19-.51,0,.59,1.67.51,3.68,1.6,5.15C28.67,19.94,29.18,20,29,19.77Z"/><path class="cls-1" d="M29.71,18.61a20.79,20.79,0,0,1-.72-4.7c0-.16-.53-.21-.52-.09a21,21,0,0,0,.73,4.75C29.24,18.71,29.75,18.76,29.71,18.61Z"/><path class="cls-1" d="M30.69,18.49C29.79,17,29.8,15,29.5,13.37c0-.16-.55-.22-.51,0,.31,1.66.29,3.65,1.2,5.13C30.27,18.62,30.78,18.63,30.69,18.49Z"/><path class="cls-1" d="M31.29,12.31c0-.2-.56-.24-.52,0a18.5,18.5,0,0,0,1.51,5.77c.09.17.61.16.48-.08C31.82,16.32,31.61,14.17,31.29,12.31Z"/><path class="cls-1" d="M33.15,12.37c0-.15-.53-.17-.52-.09.11.77.22,1.53.39,2.29a4.51,4.51,0,0,0,.75,2c.1.12.55.09.51,0a4.49,4.49,0,0,1-.74-1.94C33.37,13.9,33.26,13.13,33.15,12.37Z"/><path class="cls-1" d="M35.21,16.15c.09.16.61.16.47-.07-.76-1.35-.68-3.11-.93-4.6,0-.19-.55-.23-.52,0C34.49,13,34.43,14.76,35.21,16.15Z"/><path class="cls-1" d="M37.92,16.26c0-.15-.08-.3-.12-.45-.12-.48-.22-1-.32-1.45-.19-.91-.37-1.82-.56-2.72,0-.16-.55-.21-.51,0,.21,1,.39,1.93.6,2.89.11.5.21,1,.34,1.5,0,.17.07.41.25.49s.61,0,.3-.16C38,16.4,38,16.4,37.92,16.26Z"/><path class="cls-1" d="M37.59,11.65c.11.92.24,1.84.41,2.76a5.62,5.62,0,0,0,.8,2.4c.09.12.57.11.51,0a5.6,5.6,0,0,1-.79-2.35c-.18-.91-.29-1.83-.41-2.76C38.09,11.58,37.57,11.56,37.59,11.65Z"/><path class="cls-1" d="M38.55,11.85a35.93,35.93,0,0,0,1.21,5.51c.06.17.58.19.51,0a36.05,36.05,0,0,1-1.21-5.51C39,11.7,38.5,11.65,38.55,11.85Z"/><path class="cls-1" d="M3.27,77.62c-2-15.36.32-30.86-1.22-46.25-.07-.74-2.12-.28-2,.55C1.55,47.31-.79,62.8,1.23,78.16,1.32,78.91,3.37,78.43,3.27,77.62Z"/><path class="cls-1" d="M2.1,29.32C3,27.86,4.7,27.55,6.26,27.09c.33-.1,1-.4.86-.86s-.84-.41-1.18-.31c-2.21.65-4.43,1.24-5.76,3.28C-.38,30.06,1.69,29.95,2.1,29.32Z"/><path class="cls-1" d="M7.52,27c22.39,0,44.78-.18,67.17-.18a2.1,2.1,0,0,0,.91-.31c-.07.24.08.44.6.47,3.49.22,5.9,2.06,6.15,5.67.05.79,2.1.33,2-.55-.28-4.2-3.5-6.19-7.43-6.44a1.5,1.5,0,0,0-.9.3c0-.09-.2-.14-.53-.14-22.39,0-44.78.18-67.17.18C7.7,26,6.15,27,7.52,27Z"/><path class="cls-1" d="M85.66,70.63c0-.08,0-.17,0-.25.48-.11.93-.33.93-.61,0-12-.92-24-1.84-36,0-.4-2.08,0-2,.55l.06.79c-.51.12-1,.35-1,.64.88,11.41,1.7,22.82,1.81,34.27a.68.68,0,0,0-.18.4c-.19,3.7-.77,7.75-4.56,9.4-.42.18-.56.42-.55.65h0c-22,1.76-44,1.51-66.07,2.39a2.06,2.06,0,0,0-.85.32.81.81,0,0,0-.49-.17c-3-.19-5.63-.65-7.5-3.2-.55-.74-2.49,0-1.87.9,2.12,2.89,5.25,3.56,8.66,3.78a1.47,1.47,0,0,0,1.16-.59h.06c22-.88,44.08-.62,66.07-2.39A2.5,2.5,0,0,0,78.6,81a1.19,1.19,0,0,0,1.15.13.52.52,0,0,0-.17.4h0C58.32,83.2,37,83,15.78,83.81a1.29,1.29,0,0,0-.22,0,1.22,1.22,0,0,0-.32.05l-1.77.06c-.67,0-2.19,1.09-.83,1l1.61-.06h.17l.15,0a.82.82,0,0,0,.79.36,1.11,1.11,0,0,0,.89-.42c20.82-.72,41.67-.59,62.45-2.26A2.49,2.49,0,0,0,79.86,82a1.19,1.19,0,0,0,1.19.12c4.43-1.93,5.49-6.36,5.72-10.79C86.79,70.72,86.21,70.54,85.66,70.63Z"/><path class="cls-1" d="M19.2,56.89c.85,0,1.69,0,2.54,0,1.93,0,4.31.17,6.12-.65C30.57,55,30,51.82,30,49.37a.55.55,0,0,0-.48-.54c.19-2.68.1-5.68-1.89-6.41a11.87,11.87,0,0,0-5.05-.37c-3.2.21-6.46-.05-9.66-.06a1.65,1.65,0,0,0-.62.16.47.47,0,0,0-.27-.1,3.38,3.38,0,0,0-3.1,1.21c-.17.23-.06.38.12.47-.42.13-.79.36-.79.66,0,3.1-.44,6.72.4,9.74.51,1.84,2.37,2.23,4,2.3a1.77,1.77,0,0,0,.79-.22c0,.23.11.43.61.47,1.49.12,3,.18,4.47.2A1.51,1.51,0,0,0,19.2,56.89Zm-8.81-5.32c0-.49,0-1-.06-1.49a28.62,28.62,0,0,0,3.93.23,2.08,2.08,0,0,0,.5,0,4,4,0,0,0,.45,2,33.71,33.71,0,0,0-4.41,0,1.41,1.41,0,0,0-.34.08C10.43,52.06,10.41,51.82,10.39,51.57ZM10.29,47h0c1.54,0,3.07.05,4.61.12a8.1,8.1,0,0,0-.14,1.64,17.18,17.18,0,0,1-4-.26,1.73,1.73,0,0,0-.43-.05C10.3,48,10.29,47.49,10.29,47Zm6.54,2.7c0-.94-.48-4.14,1-4.27a1.44,1.44,0,0,0,.91-.43L19,45a.35.35,0,0,0,.18.21c1.43.88,1.63,2.19,1.63,3.74,0,.61.41,3.82-.54,3.78a1.09,1.09,0,0,0-.31,0c-.11-.42-.72-.48-1.25-.32C17.29,52.18,16.88,51.2,16.83,49.71Zm6,1.26c0-.41,0-.82,0-1.23a30.28,30.28,0,0,1,4,.07,1.27,1.27,0,0,0,.67-.13c-.06.58-.12,1.13-.18,1.65a20.21,20.21,0,0,1-4.29.29,1,1,0,0,0-.26,0A4,4,0,0,0,22.84,51ZM27.6,48.5h0a32.79,32.79,0,0,0-4.14-.06,2.33,2.33,0,0,0-.58.08,7.08,7.08,0,0,0-.38-2.21h4.35a2.21,2.21,0,0,0,.73-.12A13.61,13.61,0,0,1,27.6,48.5Zm-1.4,6.85a36.85,36.85,0,0,1-6,.3A15.17,15.17,0,0,0,20,53.76a3.22,3.22,0,0,0,2-.69,1.08,1.08,0,0,0,.36.11c1.65.21,3.23-.27,4.85-.33,0,.1,0,.2,0,.29s.36.28.77.23A2.08,2.08,0,0,1,26.2,55.35Zm.21-11.69A2.61,2.61,0,0,1,27.32,45H22l-.27,0a4.21,4.21,0,0,0-.94-.79,1.33,1.33,0,0,0-1,0c0-.4-.1-.79-.15-1.18C21.8,43,24.82,42.51,26.41,43.65ZM11.78,43a1.43,1.43,0,0,0,.31,0c1.9,0,3.8,0,5.7.06a.39.39,0,0,0-.19.29,9.52,9.52,0,0,0,.13,1,3.17,3.17,0,0,0-2.23,1.28c-1.67-.07-3.33-.17-5-.12a1.08,1.08,0,0,0-.2,0c0-.59,0-1.18,0-1.76a.18.18,0,0,0-.08-.15,1.3,1.3,0,0,0,.61-.42.65.65,0,0,1,.13-.15A2.08,2.08,0,0,0,11.78,43ZM14,55.57c-.06-.08-.22-.14-.52-.15a2.75,2.75,0,0,1-2.83-2.08c1.62-.13,3.24.07,4.86.09a2.1,2.1,0,0,0,.84-.18,4.77,4.77,0,0,0,1.55.34c.05.66.2,1.32.24,2-1.13-.06-2.26-.14-3.36-.23A1.4,1.4,0,0,0,14,55.57Z"/><path class="cls-1" d="M15.34,68.06c0-1.33-.08-2.66-.08-4,0-.46-2-.12-2,.55,0,.23,0,.46,0,.68h-.15c-.6,0-.69-.08-.62-.68a14.36,14.36,0,0,0,.26-2.08c0-1-2.07-.58-2.05.21,0,.94-.34,1.85-.27,2.79.09,1.14,1.65,1.14,2.46,1.07a1.76,1.76,0,0,0,.41-.09c0,.7,0,1.39,0,2.09C13.3,69.06,15.34,68.73,15.34,68.06Z"/><path class="cls-1" d="M16.63,68.09c-.09.11.1.18.16.19,1.53.29,3.06,0,4.59.17a2.72,2.72,0,0,0,1.42-.27l.13-.07c.6,0,1.45-.28,1.46-.72s0-1,0-1.5a3.19,3.19,0,0,0,.07.34A2.79,2.79,0,0,0,28,68a3.3,3.3,0,0,0,2.29-3.22c-.1-1.2-1.25-2.91-2.5-3a2,2,0,0,0-1.25.26,1.79,1.79,0,0,0-1.15.45,5.76,5.76,0,0,0-1,2.18,14.74,14.74,0,0,0-.18-2.45c-.12-.7-2.17-.21-2,.55a28.08,28.08,0,0,1,.13,4.95c-1.19-.05-2.4.08-3.58-.09.78-1,1.59-2.5.92-3.68-.76-1.34-2.5-1-3.65-.5-.15.06-.71.41-.26.49a2.67,2.67,0,0,0,1.42-.27c-.41.17.47.87.59,1.08a1.82,1.82,0,0,1,0,1.33A5.74,5.74,0,0,1,16.63,68.09ZM28,64.52a2.09,2.09,0,0,1-.52,2.55c.17-.17-.53-.65-.69-.83A2.14,2.14,0,0,1,26.39,65a3.6,3.6,0,0,1,.59-2A4.1,4.1,0,0,1,28,64.52Z"/><path class="cls-1" d="M38.38,66.32c-.73,0-2.14.82-1.08,1.12A2.63,2.63,0,0,0,40.48,66a8.78,8.78,0,0,0,.33-3.42c0-.36-.61-.38-1.17-.22.08-.2-.05-.38-.56-.42A3.79,3.79,0,0,0,36.14,63a1.41,1.41,0,0,0,.38,2.34,3.4,3.4,0,0,0,2.09.19,5.26,5.26,0,0,1-.11.54A1.51,1.51,0,0,1,38.38,66.32ZM38.29,63a1.24,1.24,0,0,0,.48-.07c0,.41,0,.82,0,1.23a.24.24,0,0,0,0,.07s0,.08,0,.12a1.65,1.65,0,0,1-.45,0C37.44,64.27,37.65,63,38.29,63Z"/><path class="cls-1" d="M41.82,67.39A3.48,3.48,0,0,0,44.6,67a.65.65,0,0,0,.38-.62,8.43,8.43,0,0,0-.72-2.11,3.1,3.1,0,0,0,.63-1.13,1.63,1.63,0,0,0-.27-1.64c-.65-.63-1.81-.27-2.52,0-.28.11-.85.52-.53.87a.65.65,0,0,0,.39.19c-.35.17-.59.42-.47.69s.38.81.57,1.21A4.43,4.43,0,0,0,41,65.53,1.3,1.3,0,0,0,41.82,67.39Z"/><path class="cls-1" d="M45.82,66.48c.12.81,2.17.31,2-.55-.16-1.06-.18-2.12-.25-3.18,0-.22-.19-.33-.42-.38,0-.32,0-.64,0-1,0-.83-2-.39-2,.26,0,.37,0,.74,0,1.1s.19.38.44.42a.53.53,0,0,0,0,.1C45.65,64.36,45.66,65.43,45.82,66.48Z"/><path class="cls-1" d="M49,66.28c1.15-.06,3-.52,3.61-1.66.45-.9-.41-1.45-1.23-1.77.47-.25.9-.56.84-1-.09-.84-1.43-.9-2.06-1a1.91,1.91,0,0,0-1.44.39c-.33.27-.23.58.18.65s1.1.05,1.27.39c.05.11-.89.5-1,.57s-.69.59-.2.73a3.48,3.48,0,0,1,1.55.71c.49.47-.28.94-.71,1a1.83,1.83,0,0,0-1.35.54C48.16,66.12,48.69,66.29,49,66.28Z"/><path class="cls-1" d="M59.09,61.52c-.07-.39-2.12.08-2,.55.14.76,0,1.55.15,2.31.11.53.8.61,1.24.64A6.23,6.23,0,0,0,59.66,65c0,.63.06,1.26.07,1.89,0,.29,2,0,2-.55,0-.83-.05-1.65-.1-2.47a.87.87,0,0,0,0-.39c-.12-.41-2.07.08-2,.55v.21a.5.5,0,0,1-.37-.35A15.14,15.14,0,0,1,59.09,61.52Z"/><path class="cls-1" d="M63.29,66.59c.14.62,2.18.11,2-.55-.36-1.63.25-3.4-.7-4.88-.33-.51-1.8.07-2,.53-.32.88.1,2.2-.68,2.86-.31.26-.25.56.17.62a2,2,0,0,0,1-.16A6.79,6.79,0,0,0,63.29,66.59Z"/><path class="cls-1" d="M68.46,65.92A13.85,13.85,0,0,1,67,65.53a1.62,1.62,0,0,0-1.44.39c-.33.32-.2.68.22.8,1.7.51,3.72,1,5.14-.45S70.4,63,69.07,62.66a1.56,1.56,0,0,0-1.09.15,6.37,6.37,0,0,0-.17-.93c.63,0,1.26,0,1.89,0A1.16,1.16,0,0,0,70.83,61c.06-.53-.54-.67-.94-.67-1,0-2.08.06-3.12.06a1.16,1.16,0,0,0-1.12.82.45.45,0,0,0,0,.07.54.54,0,0,0,0,.61A4.35,4.35,0,0,1,66,63.59c.06.59,1.05.53,1.63.13a.66.66,0,0,0,.24.12c.73.21,1.6,1.08,1.47,1.9C69.25,66.12,68.83,66,68.46,65.92Z"/><path class="cls-1" d="M73,61.8A4.07,4.07,0,0,0,73.12,65c.59,1.19,2,1.08,3.06.56a2.53,2.53,0,0,0,1.5-3.28,3.91,3.91,0,0,0-3.53-2.1,1.75,1.75,0,0,0-1.35.54c-.29.39.24.55.54.55a2,2,0,0,1,.39,0A1.16,1.16,0,0,0,73,61.8Zm2.38,2.9-.12-.15a2.36,2.36,0,0,1-.38-1,3.6,3.6,0,0,1,0-1.66C75.77,62.63,76.22,63.83,75.36,64.7Z"/><path class="cls-1" d="M54.84,50.06s0-.07,0-.1A4.21,4.21,0,0,0,57.37,49c-.06.33-.13.66-.19,1-.17.83,1.89.51,2-.23q.15-.73.29-1.45h1.54q.54.8,1,1.62c.43.69,2.39,0,1.88-.86a28.55,28.55,0,0,0-4-5.21c0-.15,0-.31,0-.46,0-.9-2-.49-2,.23,0,.09,0,.19,0,.28a.38.38,0,0,0,0,.6h0c0,.71-.1,1.41-.19,2.11a2.67,2.67,0,0,0-1.06-.81c.75-.49,1.48-1.06.72-2s-2.21-.74-3.26-.6c-.22-.86-2-.56-2,.31,0,2.25.7,4.44.64,6.69C52.74,51.29,54.81,51,54.84,50.06Zm5.55-2.69h-.73c0-.26.09-.52.13-.78C60,46.85,60.2,47.11,60.39,47.38Zm-5.57,1.37h0c-.06-.68-.15-1.36-.25-2l.22.05a1.3,1.3,0,0,1,1.21,1C56.2,48.58,55.44,48.73,54.83,48.74Zm.54-4.21c.85.34-.5,1-.95,1.31-.07-.47-.12-.94-.16-1.42A2.5,2.5,0,0,1,55.36,44.53Z"/><path class="cls-1" d="M66.88,49.8a17.08,17.08,0,0,0-.28-2.22c.6.83,1.08,1.89,2,2.38a1.33,1.33,0,0,0,1.76-.47c1.12-1.88.41-4.41.23-6.44-.08-.94-2.12-.45-2,.55a30.22,30.22,0,0,1,.35,3.73,10,10,0,0,0-.61-.91,32.31,32.31,0,0,1-2.5-3.22.66.66,0,0,0-.4-.27c-.38-.83-2.27-.29-2,.61A26.88,26.88,0,0,1,64.81,50C64.86,51,66.92,50.72,66.88,49.8Z"/><path class="cls-1" d="M77.08,46.88A8.4,8.4,0,0,0,75.58,46c-.77-.45-.52-.64.05-1.25a11.85,11.85,0,0,0,1.31-1.38c.73-1.07-1.18-1.34-1.7-.58-.29.43-1,1-1.62,1.66a22.57,22.57,0,0,1-.45-2.34c-.07-.59-2.12-.15-2,.55.15,1.28.49,2.52.74,3.78s.31,2.49.53,3.73c.11.61,2.16.12,2-.55S74.2,48,74.1,47.23l.67.36a13.59,13.59,0,0,1,2.44,2.1c.66.62,2.59-.22,1.87-.89S77.75,47.51,77.08,46.88Z"/><path class="cls-1" d="M8.19,80c-.58-.64-1.29-1.14-1.87-1.78-.12-.13-.6.06-.47.2.58.64,1.29,1.14,1.87,1.78C7.83,80.36,8.31,80.18,8.19,80Z"/><path class="cls-1" d="M9.63,79.94C8.79,78.86,7.84,77.87,7,76.8c-.14-.19-.63,0-.47.22.84,1.08,1.79,2.06,2.63,3.14C9.31,80.35,9.79,80.15,9.63,79.94Z"/><path class="cls-1" d="M11.6,80.15a24.47,24.47,0,0,0-4.18-4.87c-.12-.1-.59.09-.48.19a24.16,24.16,0,0,1,4.14,4.82C11.19,80.44,11.66,80.25,11.6,80.15Z"/><path class="cls-1" d="M14,80.37c-1.74-2.21-4-4-5.52-6.37-.1-.16-.6,0-.47.21,1.55,2.36,3.78,4.16,5.52,6.37C13.61,80.73,14.1,80.55,14,80.37Z"/><path class="cls-1" d="M9.32,73.35c1,1.41,2.44,2.49,3.38,4,.09.15.57,0,.51-.14-1-1.5-2.37-2.59-3.41-4C9.72,73,9.23,73.21,9.32,73.35Z"/><path class="cls-1" d="M12.77,74.35c-.6-.76-1.27-1.45-1.87-2.21-.11-.13-.6,0-.47.2.6.76,1.27,1.45,1.87,2.21C12.4,74.68,12.9,74.5,12.77,74.35Z"/><path class="cls-1" d="M4.66,62.24a13.5,13.5,0,0,0,1.82,1.9c.15.12.61-.1.4-.27A13.1,13.1,0,0,1,5.13,62C5,61.87,4.51,62.06,4.66,62.24Z"/><path class="cls-1" d="M5.23,61.52A23.49,23.49,0,0,0,7,63.75c.08.09.56-.09.48-.17a23.48,23.48,0,0,1-1.77-2.19C5.66,61.26,5.19,61.46,5.23,61.52Z"/><path class="cls-1" d="M5.42,59.52c.87,1.29,1.84,2.51,2.8,3.74.11.15.6,0,.47-.2-1-1.23-1.93-2.45-2.8-3.74C5.79,59.16,5.3,59.33,5.42,59.52Z"/><path class="cls-1" d="M6.08,58.46c.88,1.68,2.3,3,3.33,4.53.09.13.58,0,.48-.19-1-1.56-2.42-2.82-3.29-4.47C6.51,58.16,6,58.33,6.08,58.46Z"/><path class="cls-1" d="M7.19,57.87a37.83,37.83,0,0,0,2.65,3.42c.09.1.57-.08.48-.18A37.61,37.61,0,0,1,7.7,57.73C7.6,57.6,7.14,57.8,7.19,57.87Z"/><path class="cls-1" d="M8.23,57.32a19,19,0,0,0,2.16,2.41c.17.15.61-.1.39-.3a18.24,18.24,0,0,1-2.09-2.34C8.55,56.91,8.06,57.11,8.23,57.32Z"/><path class="cls-1" d="M10.77,59.09c.11.13.6,0,.47-.2a1.7,1.7,0,0,0-.34-.34c-.14-.1-.61.11-.47.2A1.7,1.7,0,0,1,10.77,59.09Z"/><path class="cls-1" d="M41.09,38.46c1.06,1.07,2,2.24,3.06,3.31.15.15.63-.05.47-.21-1.06-1.07-2-2.24-3.06-3.31C41.41,38.1,40.93,38.3,41.09,38.46Z"/><path class="cls-1" d="M42.6,36.13c.83,1.59,2,3,2.8,4.59.05.1.21.1.34.06.46.77.94,1.54,1.45,2.28s1.12,1.79,2,2.1c.23.08.6-.25.29-.36-.83-.3-1.46-1.48-1.93-2.17-.58-.85-1.11-1.73-1.63-2.61a.26.26,0,0,0-.33-.05c-.78-1.35-1.73-2.59-2.45-4C43,35.8,42.51,36,42.6,36.13Z"/><path class="cls-1" d="M43.62,34.6c1.24,2,2.47,4,3.82,5.86,0,0,.12,0,.21,0a10.77,10.77,0,0,0,2.69,3.38c.12.09.56-.11.48-.18A11.08,11.08,0,0,1,47.95,40c0-.06-.14,0-.25,0-1.25-1.79-2.42-3.64-3.58-5.5C44,34.33,43.56,34.52,43.62,34.6Z"/><path class="cls-1" d="M45.65,34.09a28.48,28.48,0,0,0,3.84,6.65c.09.11.58-.06.48-.18a28.25,28.25,0,0,1-3.8-6.6C46.1,33.81,45.6,34,45.65,34.09Z"/><path class="cls-1" d="M47.69,34.09c1,1.75,2.29,3.34,3.31,5.09,0,.08.18.08.3,0,.53.77,1.08,1.54,1.67,2.27.09.12.58-.06.48-.19-.79-1-1.51-2-2.21-3.06,0,0-.13,0-.23,0-.92-1.44-1.94-2.81-2.81-4.29C48.1,33.79,47.61,34,47.69,34.09Z"/><path class="cls-1" d="M50.49,33.58a24.47,24.47,0,0,0,1.27,2.55c.08.13.55-.07.51-.14A24.46,24.46,0,0,1,51,33.44C50.94,33.32,50.45,33.5,50.49,33.58Z"/><path class="cls-1" d="M62.23,36.14c-.79-1.19-1.59-2.37-2.33-3.59-.12-.19-.61,0-.47.22,1.43,2.34,3,4.57,4.5,6.88.12.19.61,0,.47-.22-.68-1.06-1.38-2.11-2.08-3.15a23.59,23.59,0,0,0,4,4.47c.15.11.62-.09.47-.2a15.42,15.42,0,0,1-2.95-3.14c.1.08.2.17.3.25s.63-.13.39-.29c-1.73-1.17-2.47-3.65-3.61-5.32-.13-.19-.61,0-.47.22.74,1.08,1.31,2.47,2.08,3.65C62.37,35.93,62.18,36,62.23,36.14Z"/><path class="cls-1" d="M66,35.62A26.22,26.22,0,0,0,68.84,40c.09.12.54-.1.51-.14a26.26,26.26,0,0,1-2.8-4.33C66.49,35.37,66,35.56,66,35.62Z"/><path class="cls-1" d="M66.54,34.09a54.2,54.2,0,0,0,3.84,6.15c.11.17.6,0,.47-.21A53.65,53.65,0,0,1,67.05,34C67,33.76,66.46,33.91,66.54,34.09Z"/><path class="cls-1" d="M67.82,32.31c1.69,2.87,3.05,7,5.88,8.95.14.1.6-.1.47-.2-2.83-2-4.15-6-5.84-8.89C68.23,32,67.74,32.18,67.82,32.31Z"/><path class="cls-1" d="M70.37,32.05c1.18,2.6,2.87,6.08,5.37,7.66.13.08.57-.12.48-.18-2.5-1.58-4.14-5-5.33-7.62C70.81,31.78,70.31,31.94,70.37,32.05Z"/><path class="cls-1" d="M73.68,32.82a32.34,32.34,0,0,1,2.8,4.84c.05.12.55-.05.51-.14a32.32,32.32,0,0,0-2.8-4.84C74.1,32.56,73.64,32.76,73.68,32.82Z"/><path class="cls-1" d="M76,31.15c-.09-.25-.6-.11-.51.14a24.36,24.36,0,0,0,2.32,4.38c.13.21.61,0,.47-.23A23.8,23.8,0,0,1,76,31.15Z"/><path class="cls-1" d="M71.48,57.89a3.83,3.83,0,0,0,1,.85c.13.08.56-.13.48-.18a3.84,3.84,0,0,1-1-.85C71.88,57.61,71.4,57.78,71.48,57.89Z"/><path class="cls-1" d="M72.32,56.93a8.28,8.28,0,0,0,1.8,2c.11.09.57-.1.48-.18a8.11,8.11,0,0,1-1.77-1.93C72.75,56.67,72.27,56.86,72.32,56.93Z"/><path class="cls-1" d="M72.93,56.13a36.05,36.05,0,0,0,2.72,3.48c.16.18.64,0,.47-.23A36.1,36.1,0,0,1,73.4,55.9C73.27,55.7,72.78,55.9,72.93,56.13Z"/><path class="cls-1" d="M77.48,59.66a36.25,36.25,0,0,1-3-4.73c-.08-.17-.58,0-.51.14A36.56,36.56,0,0,0,77,59.85C77.1,60,77.59,59.82,77.48,59.66Z"/><path class="cls-1" d="M78.75,59.22c-1.56-2-3-4.14-4.33-6.28-.12-.19-.61,0-.47.22,1.37,2.14,2.77,4.27,4.33,6.28C78.42,59.62,78.91,59.42,78.75,59.22Z"/><path class="cls-1" d="M79.54,57.9c-1-1.67-2-3.38-3.14-5-.09-.13-.56.07-.51.14C77,54.66,78,56.37,79,58,79.11,58.17,79.58,58,79.54,57.9Z"/><path class="cls-1" d="M80,56.37a29.14,29.14,0,0,0-2.55-3.91c-.09-.15-.57,0-.51.14a29.29,29.29,0,0,1,2.55,3.91C79.52,56.66,80,56.5,80,56.37Z"/><path class="cls-1" d="M78.18,52.26c.67,1,1.34,2,2,3.06.08.13.55-.06.51-.14-.61-1-1.28-2.05-2-3.06C78.6,52,78.13,52.2,78.18,52.26Z"/><path class="cls-1" d="M81.23,53.74c-.33-.58-.67-1.16-1-1.72-.08-.12-.58,0-.48.19.36.54.68,1.11,1,1.67C80.81,54,81.3,53.85,81.23,53.74Z"/><path class="cls-1" d="M80.19,70.85c-.84-1-1.67-2-2.46-3.06-.14-.18-.62,0-.47.22.79,1,1.62,2.05,2.46,3.06C79.87,71.25,80.36,71,80.19,70.85Z"/><path class="cls-1" d="M81.32,70.3c-.85-1.41-1.95-2.64-2.89-4-.09-.12-.55.08-.51.14.94,1.35,2,2.58,2.89,4C80.88,70.56,81.36,70.37,81.32,70.3Z"/><path class="cls-1" d="M82.17,69.88a27.91,27.91,0,0,0-3-4.63c-.13-.17-.62,0-.47.22a27.56,27.56,0,0,1,3,4.55C81.76,70.22,82.26,70.07,82.17,69.88Z"/><path class="cls-1" d="M81.72,66.95c-.63-1.05-1.44-2-2-3.06-.1-.18-.59,0-.47.21.6,1.07,1.41,2,2,3.06C81.36,67.34,81.85,67.16,81.72,66.95Z"/><path class="cls-1" d="M82.15,65.34a25.71,25.71,0,0,1-1.87-3c-.09-.16-.59,0-.47.2a25.7,25.7,0,0,0,1.87,3C81.79,65.69,82.28,65.51,82.15,65.34Z"/><path class="cls-1" d="M82.66,63.47a10.74,10.74,0,0,1-1.53-2.29c-.1-.18-.59,0-.47.21a10.7,10.7,0,0,0,1.53,2.29C82.33,63.83,82.82,63.64,82.66,63.47Z"/><path class="cls-1" d="M83,61.89a17.94,17.94,0,0,1-1.19-2c-.05-.12-.55.06-.51.14a17.84,17.84,0,0,0,1.19,2C82.58,62.15,83.05,61.95,83,61.89Z"/><path class="cls-1" d="M65,75.08a1.19,1.19,0,0,0,.91.49c.26,0,.42-.33.07-.3s-1.11-1.16-1.31-1.42c-.49-.64-.95-1.31-1.41-2-.1-.15-.6,0-.47.2l1.08,1.51-.13-.09a.37.37,0,0,0-.32,0c-.13-.22-.26-.44-.41-.64s-.62,0-.47.23a28,28,0,0,0,2.17,3.31c.17.18.65,0,.47-.23A11.39,11.39,0,0,1,63.67,74a4.76,4.76,0,0,1,1.11,1A.21.21,0,0,0,65,75.08Z"/><path class="cls-1" d="M66.32,74.88l.5.64c.09.11.57-.06.48-.18a27.72,27.72,0,0,1-2.66-3.8c-.08-.14-.56,0-.51.14l.2.34c-.13-.07-.53.07-.44.19a22.3,22.3,0,0,0,2.17,2.68S66.21,74.91,66.32,74.88Z"/><path class="cls-1" d="M68.82,74.57a30.09,30.09,0,0,1-3.42-4.31c-.08-.14-.56,0-.51.14a30.35,30.35,0,0,0,3.45,4.35C68.43,74.85,68.91,74.68,68.82,74.57Z"/><path class="cls-1" d="M70.37,75c-1-1.87-2.65-3.35-3.69-5.22-.09-.17-.58,0-.51.14,1,1.87,2.65,3.35,3.69,5.22C69.95,75.28,70.44,75.1,70.37,75Z"/><path class="cls-1" d="M71.74,74.93c-1.18-2.15-2.88-3.93-4.2-6-.13-.2-.61,0-.47.23,1.32,2.06,3,3.84,4.2,6C71.39,75.36,71.88,75.16,71.74,74.93Z"/><path class="cls-1" d="M72.13,72.92a14.38,14.38,0,0,1-3.93-5.08c0-.12-.55,0-.51.14a14.54,14.54,0,0,0,4,5.11C71.75,73.17,72.2,73,72.13,72.92Z"/><path class="cls-1" d="M73.66,72.51c-.93-1.54-2.17-2.85-3.18-4.33-.11-.16-.6,0-.47.21,1,1.48,2.26,2.79,3.18,4.33C73.28,72.88,73.78,72.71,73.66,72.51Z"/><path class="cls-1" d="M74.67,71c-.91-1-1.82-2.09-2.67-3.18-.15-.19-.63,0-.47.23.85,1.09,1.76,2.14,2.67,3.18C74.37,71.39,74.85,71.18,74.67,71Z"/><path class="cls-1" d="M75.84,70.89c-.76-1.46-1.88-2.69-2.55-4.2-.09-.19-.59,0-.51.14.67,1.51,1.79,2.74,2.55,4.2C75.43,71.22,75.93,71.06,75.84,70.89Z"/><path class="cls-1" d="M77.23,71c-.89-1.29-1.66-2.66-2.55-3.95-.09-.14-.59,0-.47.2.89,1.29,1.66,2.66,2.55,3.95C76.85,71.32,77.34,71.16,77.23,71Z"/><path class="cls-1" d="M78.64,71.15a23.39,23.39,0,0,0-1.78-2.93c-.09-.13-.55.08-.51.14a23.49,23.49,0,0,1,1.78,2.93C78.2,71.41,78.69,71.23,78.64,71.15Z"/><path class="cls-1" d="M54.17,78.5a8.13,8.13,0,0,1-.89-1.15c-.1-.15-.6,0-.47.21a8.26,8.26,0,0,0,.89,1.15C53.83,78.85,54.31,78.65,54.17,78.5Z"/><path class="cls-1" d="M55.57,78.39a10.27,10.27,0,0,0-2-1.91c-.12-.08-.56.12-.48.18a10.29,10.29,0,0,1,2,1.91C55.18,78.67,55.66,78.49,55.57,78.39Z"/><path class="cls-1" d="M56.85,78.12a9.52,9.52,0,0,1-1.78-2c-.1-.15-.59,0-.47.2a9.57,9.57,0,0,0,1.78,2C56.51,78.44,57,78.24,56.85,78.12Z"/><path class="cls-1" d="M58.24,78.37a24.24,24.24,0,0,1-3.06-3.95c-.12-.19-.61,0-.47.22a24.27,24.27,0,0,0,3.06,3.95C57.93,78.75,58.42,78.54,58.24,78.37Z"/><path class="cls-1" d="M59.68,79.21c.12.1.58-.1.48-.18a33.35,33.35,0,0,1-3.82-4.59c-.09-.11-.58.06-.48.18A33.55,33.55,0,0,0,59.68,79.21Z"/><path class="cls-1" d="M61.65,78.35c-1.74-1.12-3-3.17-4.17-4.81-.12-.16-.61,0-.47.21,1.22,1.68,2.46,3.73,4.24,4.87C61.41,78.71,61.87,78.49,61.65,78.35Z"/><path class="cls-1" d="M62,76.81c-1.48-.75-2.23-2.7-3.28-3.92-.14-.16-.63,0-.47.22,1.07,1.25,1.82,3.21,3.35,4C61.82,77.18,62.27,76.93,62,76.81Z"/><path class="cls-1" d="M62.92,76.54c-1.44-.81-2.33-2.8-3.15-4.17-.12-.21-.61,0-.47.23C60.15,74,61,76,62.53,76.85,62.73,77,63.17,76.69,62.92,76.54Z"/><path class="cls-1" d="M63.79,76.69c.15.08.62-.13.4-.25A4.79,4.79,0,0,1,62.85,75a21.84,21.84,0,0,1-1.27-2c-.1-.18-.59,0-.51.14.4.72.84,1.42,1.31,2.1A4.85,4.85,0,0,0,63.79,76.69Z"/><path class="cls-1" d="M68.18,75.19c-1.07-1.7-2.41-3.2-3.57-4.84-.1-.15-.6,0-.47.2,1.15,1.64,2.49,3.14,3.57,4.84C67.8,75.55,68.3,75.38,68.18,75.19Z"/><path class="cls-1" d="M37.18,51.2a4.08,4.08,0,0,0,.76.85c.14.14.63-.06.47-.21a4.11,4.11,0,0,1-.76-.85C37.56,50.82,37.06,51,37.18,51.2Z"/><path class="cls-1" d="M37.43,50.76a11.57,11.57,0,0,1,1.1.93c.12.12.6-.07.48-.19a11.86,11.86,0,0,0-1.1-.93C37.77,50.47,37.31,50.67,37.43,50.76Z"/><path class="cls-1" d="M37.52,49c.86,1,1.65,2.14,2.55,3.14.16.18.65,0,.47-.23-.9-1-1.69-2.1-2.55-3.14C37.83,48.58,37.35,48.79,37.52,49Z"/><path class="cls-1" d="M38.2,48.21c.92,1.17,1.84,2.34,2.8,3.48.09.11.58-.06.48-.19-1-1.14-1.88-2.31-2.8-3.48C38.59,47.91,38.1,48.08,38.2,48.21Z"/><path class="cls-1" d="M38.12,46.87c1.23,1.27,2.07,2.89,3.52,3.94.17.12.62-.12.4-.28-1.42-1-2.24-2.63-3.45-3.87C38.44,46.5,38,46.7,38.12,46.87Z"/><path class="cls-1" d="M39.56,46.94a28,28,0,0,1,2.7,3.38c.09.14.56-.05.51-.14A28.33,28.33,0,0,0,40,46.76C39.94,46.65,39.46,46.83,39.56,46.94Z"/><path class="cls-1" d="M40.66,47a28.3,28.3,0,0,1,2.55,2.8c.11.14.6,0,.47-.2a28.08,28.08,0,0,0-2.55-2.8C41,46.7,40.52,46.89,40.66,47Z"/><path class="cls-1" d="M41.68,46.76a10.26,10.26,0,0,1,2.45,2.87c.07.12.54-.08.51-.14a10.37,10.37,0,0,0-2.48-2.9C42.06,46.51,41.61,46.71,41.68,46.76Z"/><path class="cls-1" d="M45.47,48.54c-.85-.93-1.78-1.79-2.63-2.72-.1-.11-.57.08-.48.18.85.93,1.78,1.79,2.63,2.72C45.09,48.82,45.56,48.64,45.47,48.54Z"/><path class="cls-1" d="M43.77,45c-.12-.17-.61,0-.47.21a16.38,16.38,0,0,0,2.92,3.26c.15.12.61-.1.4-.27A16.11,16.11,0,0,1,43.77,45Z"/><path class="cls-1" d="M47.81,47.91c-1.57-.86-2.33-2.72-3.53-4-.12-.12-.6.06-.47.2,1.23,1.28,2,3.13,3.6,4C47.54,48.23,48,48,47.81,47.91Z"/><path class="cls-1" d="M47.93,46.58a20.79,20.79,0,0,1-2.62-4c-.07-.14-.56,0-.51.14a21,21,0,0,0,2.65,4C47.55,46.88,48,46.7,47.93,46.58Z"/><path class="cls-1" d="M48.78,46.07c-1.44-1-2.26-2.78-3.23-4.16-.09-.14-.59,0-.47.2,1,1.38,1.79,3.2,3.23,4.16C48.45,46.36,48.91,46.16,48.78,46.07Z"/><path class="cls-1" d="M46.74,40.2c-.11-.17-.61,0-.47.21A18.5,18.5,0,0,0,50,45c.16.12.62-.11.4-.27C48.9,43.62,47.81,41.76,46.74,40.2Z"/><path class="cls-1" d="M48.46,39.47c-.08-.13-.55.07-.51.14.42.65.84,1.3,1.31,1.92A4.51,4.51,0,0,0,50.76,43c.14.06.54-.15.48-.17a4.49,4.49,0,0,1-1.48-1.46C49.29,40.78,48.87,40.13,48.46,39.47Z"/><path class="cls-1" d="M51.91,42.05c.15.11.62-.11.4-.26-1.26-.91-1.92-2.54-2.77-3.79-.11-.16-.6,0-.47.21C49.94,39.49,50.62,41.12,51.91,42.05Z"/><path class="cls-1" d="M54.42,41c-.11-.12-.2-.24-.3-.36-.31-.39-.6-.79-.9-1.19-.55-.74-1.09-1.5-1.65-2.24-.1-.13-.59,0-.48.19.59.79,1.16,1.59,1.74,2.37.31.41.61.82.93,1.22.11.14.23.35.43.35s.55-.27.2-.27C54.57,41.11,54.52,41.13,54.42,41Z"/><path class="cls-1" d="M52.19,37c.49.79,1,1.58,1.52,2.33a5.62,5.62,0,0,0,1.72,1.85c.14.07.56-.14.48-.18a5.6,5.6,0,0,1-1.69-1.8c-.54-.75-1-1.54-1.52-2.33C52.62,36.71,52.14,36.9,52.19,37Z"/><path class="cls-1" d="M53.15,36.75a35.93,35.93,0,0,0,3.4,4.5c.13.12.61-.07.47-.2a36.05,36.05,0,0,1-3.4-4.5C53.52,36.42,53,36.59,53.15,36.75Z"/><path class="cls-1" d="M54.76,36.75c.92,1.41,1.93,2.77,2.89,4.16.1.14.59,0,.47-.2-1-1.39-2-2.75-2.89-4.16C55.14,36.42,54.65,36.58,54.76,36.75Z"/><path class="cls-1" d="M54.93,35.15c1.41,2,2.28,4.4,4,6.2.14.15.62,0,.47-.21-1.71-1.8-2.58-4.19-4-6.2C55.29,34.78,54.8,35,54.93,35.15Z"/><path class="cls-1" d="M56.2,35.07a20.43,20.43,0,0,0,3.74,5.69c.16.15.64-.06.47-.22a20.43,20.43,0,0,1-3.74-5.69C56.57,34.66,56.08,34.84,56.2,35.07Z"/><path class="cls-1" d="M57.14,34.56c1.31,2.08,2.72,4.1,4,6.2.12.2.61,0,.47-.22-1.27-2.1-2.68-4.12-4-6.2C57.48,34.14,57,34.33,57.14,34.56Z"/><path class="cls-1" d="M58.58,34.22a16.18,16.18,0,0,1,1.27,2.14l-.2-.13c-.14-.08-.58.12-.48.18a9.11,9.11,0,0,1,1.15.84,7.39,7.39,0,0,0,2.37,2.87.22.22,0,0,0,.11,0c.24.36.46.72.68,1.09.08.15.57,0,.51-.14a15.11,15.11,0,0,0-3.2-4A26.93,26.93,0,0,0,59.05,34C58.92,33.83,58.43,34,58.58,34.22Z"/><path class="cls-1" d="M65.42,35.8c-1.5-1-2.46-3-3.3-4.57-.07-.13-.55.05-.51.14a17.74,17.74,0,0,0,2.46,3.85c-.06.05-.1.11-.06.18a26.16,26.16,0,0,0,4.08,5.09c.14.14.63-.05.47-.21A27.9,27.9,0,0,1,65,36C65.16,36,65.5,35.85,65.42,35.8Z"/></svg>