<svg id="Layer_1" data-name="Layer 1" xmlns="http://www.w3.org/2000/svg" viewBox="0 0 101.21 72.18"><defs><style>.cls-1{fill:#7a6603;fill-rule:evenodd;}</style></defs><title>cart</title><path class="cls-1" d="M94.47,15.74a16.29,16.29,0,0,0-5.92-4.58,36.92,36.92,0,0,0,4.66,3.74c.07.46-1-.14-.69.54C93.23,15.45,93.91,16.16,94.47,15.74Z"/><path class="cls-1" d="M93.82,18a23.23,23.23,0,0,0-5.55-4.24,22.42,22.42,0,0,0,4.49,3.74c0,.24-.44.16-.7.19C92.33,18.19,93.52,18.72,93.82,18Z"/><path class="cls-1" d="M93,21.4c-.89-2.55-3.52-3.26-5.22-5-.31,1.13,1.74,1.8,2.88,2.73.65.53,1,1.2,1.62,1.54-.25.54-.77-.13-1.23,0A1.55,1.55,0,0,0,93,21.4Z"/><path class="cls-1" d="M89.33,20.45c.09,1.47,2.37,2.19,2.74,4C92.83,22.71,90.21,21.59,89.33,20.45Z"/><path class="cls-1" d="M91.93,25.82C91,24.64,89.57,24,88.69,22.74c-.52.7,1.17,1.95,2,2.41,0,.24-.43.16-.7.19C90.3,25.82,91.56,26.51,91.93,25.82Z"/><path class="cls-1" d="M82.38,16.77v-.53c-2.83-2.36-2.44-5.06-6.21-6.42,2.83,2.06,2.85,4,5.34,6.45-.52.27-1.08-.59-1,.2C81.27,16.34,81.68,17.33,82.38,16.77Z"/><path class="cls-1" d="M80.94,22.07c0-.12,0-.23,0-.35-1-1.51-2.61-2.29-4-3.41s.51-2.63-1.21-3.22a35.64,35.64,0,0,1,4.12,6.83C80.3,21.91,80.41,22.21,80.94,22.07Z"/><path class="cls-1" d="M78.15,9.34V8.81l-.7,0C77.39,9.29,77.81,9.27,78.15,9.34Z"/><path class="cls-1" d="M68.79,23c0-.12,0-.23,0-.35-1.74-2.31-2.39-3.73-4.87-5.26,1.43,2.22,2.6,2.66,3.64,5.29A2.86,2.86,0,0,0,68.79,23Z"/><path class="cls-1" d="M68.16,25.83c-1.49-2-1.59-3.37-3.63-4.77.76,2,2.17,2.75,2.94,5.31C67.83,26.31,67.93,26,68.16,25.83Z"/><path class="cls-1" d="M87,.32C91.86-1,96.16,2.18,99.42,4.2c.24.43-.5.74,0,.88s1.77-.42,1.76.3a5.14,5.14,0,0,1-2.42,1.29c-.43.41-.3,1.18-.84,1.25C96.32,16,93.71,24.09,92.8,32.29c1.73-6,3.35-13.05,4.42-18.72.09.13.38-1,1-.91.28-1.56.33-3.33.75-4.76.73-.23.33.73.73.86.26-.27,0-1,.68-.89-2.89,13.16-7,26.6-9.8,40.45-.1.31-.83,0-.87.38-.22,1.22-1.17,1.74-2,2.34-1.4-.59-3.79-.27-6,0,2.23.15,4.56-.53,5.46.73-.8.25-1.14.26-1.38.74-2.87.15-6.13.13-9.13.07-7.68-.15-13,.27-21.65,0-2.8-.09-4.86-.73-7.29-.48-3.89.39-8.16.89-10.95.67.32.9,1.07,2.19.79,3.14-1.43-.84-.92-3.72-2.4-4.5A2.13,2.13,0,0,1,33,51.09c0-1.18,1.51-.33,1.92-.58-4.86-14-9.4-29-13.1-43.7A15.6,15.6,0,0,1,26,3c.05-.8.59-.64.49-1.24,1.28-.35,2.79-.21,4.55-.65m66.21,6.3c-2.32,1.23-6.39-.24-8.59.41C90.69,10,94.3,11.46,95.47,14c-.34.35-1.11-.38-1.76-.3,0-.24.44-.16.7-.19a19.42,19.42,0,0,0-6.09-4.75,1.43,1.43,0,0,1-.38-1c-1.67.34-3.69-.66-4.55.47-.34-.06-.16-.68-.72-.51-20.11.23-38.4.24-58.47,1,3.69,14.5,8.88,27.41,13.21,41.24,3.49.27,6.34-.65,9.2-.27a8,8,0,0,0,2.64.28c5.35-.53,9-.07,15.33-.31a187.87,187.87,0,0,1,22.72.2,2,2,0,0,1,1-1.26,5.2,5.2,0,0,1,1.3-3.89c1-4.55,2.13-8.92,2.79-13.76-1.63-1.83-3.73-3.16-5.06-5.31a26.4,26.4,0,0,1,4.87,4.79c1.87-6.15,2.52-11.4,4.27-17.49-.11-.61-.95-.44-1.25-.84,0-.38.62-.09.87-.2A13.83,13.83,0,0,0,92,8.62c2-.2,3.14,2.09,4.82,2.85C96.88,9.82,97.68,9,97.23,7.42ZM94.48,3.28A13.62,13.62,0,0,0,90,1.47,11.59,11.59,0,0,0,94.48,3.28Zm-4.57-.23c-.38-.2-.53-.65-1.07-.67C89,2.79,89.17,3.24,89.91,3.05ZM84.73,6c.14.29,1.45.25,1.58,0C85.61,6.13,85,5.73,84.73,6Zm-.37-.69a5.08,5.08,0,0,0,1.93-.23.66.66,0,0,0-.72-.68M81.74,51.89a60.13,60.13,0,0,0-11.49-.14,5.5,5.5,0,0,1-1,.2c1,.32,1.76,0,3.33-.09C76.15,51.76,77.1,51.9,81.74,51.89ZM77.26,2.34c.31.93.31,2.38,1.31,2.95.33-1.7.92-.82.38-2.84m-3.43.29c.28.79.41,2.19,1.47,2.24.48-1.23-.6-2.77-1-4.18M33.77,5.61c1.43.36,3.56,0,5.27,0,0,0,.61.07.5-.24h0s.09.12.24-.19a.65.65,0,0,0,.55-.63Zm44.5,1.44c.32-.35-1.41-.07-1.93-.12C76,7.28,77.74,7,78.26,7.05ZM77.08,4.88c.51.23-2-.5-1.86,0m1.22,2.33c-.14-.63-1.29-.21-1.94-.3C74.64,7.51,75.78,7.09,76.44,7.18ZM74.26,4.6c-.17-.66-.1-1.58-1.09-1.38C73.16,4.08,73.29,4.79,74.26,4.6Zm-.81,2.48c-.33-.38-2.85,0-4-.07C69.74,7.4,72.26,7,73.45,7.08Zm.05-4.56c-.17-.55,0-1.47-.91-1.2C72.65,2,72.62,2.73,73.5,2.52ZM73,4.64a9.66,9.66,0,0,1-.57-1.56c-.87.11-1,0-1.57.22-.11.65.32.74.21,1.4C72.07,4.59,72.33,4.85,73,4.64Zm-.76-2.09a2.88,2.88,0,0,0-.38-1.22,4.34,4.34,0,0,0-1.57.22c-.11.54.32.51.2,1ZM70.58,4.7c.07-.56-.33-.61-.21-1.22-2.9-.19-3.34-.1-6.14-.13-.72-.06.15.44-.33.71l-1.75,0C65.09,4.61,67.18,5.3,70.58,4.7ZM70,2.79c.12-.66-.24-.83-.21-1.4-2.64.72-4,.11-6.28,1.1C66.37,3.17,66.51,2.7,70,2.79ZM65.88,52c.32-.35.53-.07,0-.12C65.56,52.27,65.35,52,65.88,52ZM61.28,4.3c.22-.17-2.58-.45-2.63.25A9.83,9.83,0,0,1,61.28,4.3Zm-.8,3c-3.36-.83-8.82-.27-13.95,0C50.05,7.39,56.81,7.12,60.48,7.3Zm-2-1.7c0-.58-3.9.05-2.63.07ZM48.2,4a6.5,6.5,0,0,0-2.82-.28c-.44.38,1.27-.14.54.69C47.2,4,47.37,4.52,48.2,4ZM48,4.15c2.9,0,6.28-.29,9.72-.46-2.8-1-6.32.66-8.86-.09C48.28,3.78,49.07,4.3,48,4.15Zm7.24-1.62c-.12-.45-1.35-.08-2,.08l-2.63.07c-1.52.09.24.27.88.15C53,2.69,54,3,55.26,2.53Zm.09,49.31c.46-.32-.06-.1-.44-.14C54.45,52,55,51.81,55.35,51.84ZM54.21,5.57c-1.48-.36-5.2.08-7.55,0C48.14,6,51.86,5.52,54.21,5.57ZM51,1.51c0-.68-2.22-.1-3.07,0C49,2.18,50.42,1.23,51,1.51Zm-3.23.37c.25-.55-1.16-.51-.88,0Zm-2.93,2c-.89-.38-1.54,0-2.72-.08C42.59,4.75,43.78,3.94,44.86,3.89ZM39.58,6.51c-.05-.31-1.49-.14-2.64-.1-1,0-2.83-.06-2.27.24A21.22,21.22,0,0,0,39.58,6.51ZM31.24,3.22c0-.58-.89-.67-1.24-.32C30,3.41,30.75,3.21,31.24,3.22ZM24,6.75c-.19-.49-.74.07-1.05,0a.83.83,0,0,1,.19.52C23.6,7.32,23.5,6.76,24,6.75Z"/><path class="cls-1" d="M78.56,24.59c-.55.1-.63-.3-1.23-.14.41.48,1.51,1.09,1.94.48-1-2,.32-3.28-1.59-4.27C78.49,21.73,77.53,23.15,78.56,24.59Z"/><path class="cls-1" d="M77.77,28a2.62,2.62,0,0,0-.35-3.77c0-.28-.18-.3-.19-.52C77.66,25.12,77,26.21,77.77,28Z"/><path class="cls-1" d="M80.19,55.87c1.07.48,1.61,1.79,2.69,2.21,1.85.72,3.88.05,6,.89,0,1,.53.47.73,1a8.58,8.58,0,0,1,.66,5.07c-1.09,1.52-3.65,1.55-5.23,1.37-1.22,1.06-2,3.45-3.92,4.49-2.22,1.17-6.41,1.68-8.94.41-1.88-.94-2.72-3.76-4.5-4.27a11.6,11.6,0,0,0-3.51-.21c-6-.11-13.24.91-19.79,1.11-.85,1.13-1.79,2.94-3.24,3.59-4.08,1.84-11.59-.84-12.58-4.58-.48-1.8,0-4.14.54-6.16-2.53-10.16-5.76-20.74-8.72-30.66-1-3.38-1.66-7-3.42-9.91-5-.4-10.42,0-15.28-.29C.78,18.84.64,17,0,16.17c5.9-.25,12.11,0,19.3-.34a13.54,13.54,0,0,0,2.1.1c3.7,13.58,7.75,25.9,11.93,39-.18.93-.62.75-.3,1.94,4.7-1.31,8.85-.59,11.11,2.16,9.73,0,15.1-.41,24.57.47,1.31-1,1.76-2.78,3.6-3.26a.53.53,0,0,1,.15-.88C75.69,54.94,77.73,54.76,80.19,55.87Zm9.33,7.47c-.33.34-.44,0-.88,0-.66.49,0,1.23-.66,1.6C88.66,65.8,89.74,64.45,89.52,63.34Zm-8.41.58c-2.4-.44-6.25-.21-8.78-.29.16,2.53,4.59,4.49,7.13,4C81.25,67.31,81.1,65.63,81.11,63.92Zm0-.88c-.21-1.07-.72-.86-1.09-1.55-1.11-.09-2.6,0-4.56.12-1.27,0-3.55-.34-2.95,1.31C76.17,63,78.17,63,81.09,63ZM78.4,60.83c-1.35-.59-4.94-1.51-5.61.33C74.71,61.09,76.35,60.77,78.4,60.83Zm0,7.72c-1.44-1-4.22-.59-5.15-2.15C73.29,68.15,76.1,69.77,78.43,68.55ZM75,56.71c-.34-.93-1.72-.25-2.28.06C73.25,57.25,74.26,56.69,75,56.71Zm-3,5c-.68,0-.91,1.06-.15,1.06C71.64,62.23,72.07,62.24,71.93,61.7Zm-1.11-2.08c-.63.26-.62,1.13-1.19,1.44C70,61.31,71.14,60.07,70.82,59.63Zm-3.3,1.14a2,2,0,0,0-2.27.41c-.39-.66,1.09-.16.69-.67-7.08.91-14.44-.12-20.69.43.29,1,.8.64,1.68.63,8.22-.12,13.69-.25,20.25-.27C67.32,61.16,67.27,60.82,67.51,60.77Zm-.21,5.45c.46-.32-1-.1-1.41-.14C65.44,66.4,66.93,66.18,67.31,66.22Zm-.1-3.86c0-.28-.17-.3-.19-.52-3.33,0-5.74.38-8.24.1,0,.66,2,.27,2.46.29,2.24.09,2.85.47,5.44.33C66.79,63.05,66.95,62.27,67.2,62.36Zm-1.65,3.91c-2.05-.52-2-.24-4.91-.17-2.55.07-5-.38-7.45.23-.59.14,1.69.27,2,.27C58.69,66.64,61.28,66.27,65.55,66.26Zm-7.3-4.14c-2.14-.33-4.9.07-6.75,0C54,62.53,55.35,62.08,58.26,62.12Zm-3.47,1.32a50.82,50.82,0,0,0-10.09-.23c-.09.26,1.2.9.82.88.25.39.25,0,.79.13-.12-.18-.41-.17-.36-.52C48.76,63.37,51.46,63.7,54.78,63.44ZM53,59.66c.42-.34-1.16-.09-1.58-.13C51,59.86,52.59,59.61,53,59.66Zm-1.07,6c-2.36-.68-4.32.4-6.41-.33.19.84,1,.47,2.38.44Zm-2.42,1.47c-1.17-.81-3.1.2-4.14-.74-.46.19-.45.82-.85,1.08A19.06,19.06,0,0,1,49.53,67.12Zm-6.24-.68a19.87,19.87,0,0,0-2.22,2.34A5.86,5.86,0,0,0,43.29,66.43Zm-1.14-3.31c-3.74.17-7,.55-10-.61-1.27,1.84-.51,2.85,1.16,4.18,1.13.89,3,2.31,5.31,1.79C40.3,68.1,43.06,65,42.15,63.13Zm-.37-.69c.11-.27-2-.2-2.28-.11C39.92,62.72,41.07,62.34,41.78,62.44Zm-.9-.85c-.83-1.05-2.57-1.14-3.74-1.83-1.51.62-2.85,1.4-4.33,2C35.35,62.27,38.15,61.51,40.88,61.58Zm-3.44,9a3,3,0,0,0,3.16-.08C40.71,70.37,38.41,70.71,37.43,70.63Zm1.71-8.12c.42-.34-1.16-.09-1.58-.13C37.14,62.71,38.72,62.46,39.14,62.51ZM35,59.11c-.07-.77-1.44-.22-1.22.38C34.53,59.67,34.47,59.1,35,59.11ZM32.67,69.88a7.93,7.93,0,0,1-3.27-4.12C28.94,68,31.09,69.14,32.67,69.88ZM32.35,57.6c-.07-.53,0-1.2-.56-1.21C31.85,56.92,31.79,57.58,32.35,57.6Zm-1,1.08a11.64,11.64,0,0,0-.39-1.57C30.34,57.25,30.45,59,31.32,58.68Zm-5.11-13.9c.47.24-.16-1-.21-1.4C25.52,43.15,26.28,44.28,26.21,44.78ZM24.5,33.24c-.26-3.21-2-6.42-2.72-9.75C21.86,26.89,23.47,30.24,24.5,33.24Zm-2-1.7c-.78-3.8-2.08-8.62-4-11.83C19.64,23.87,21.22,27.56,22.52,31.54ZM18.65,17.95c-.16-.6.24-.68.14-1.23-.37.08-.47-.11-.71-.16C18.41,16.57,17.78,18,18.65,17.95ZM6.54,18.1c-.72-.58-3.26-.26-4.92-.39-.33.72.31,1.3.75,1.74.56.14.54-.29.87-.37-.37-.27-1-.24-1.25-.67C3.33,17.56,5.23,18.23,6.54,18.1Z"/><path class="cls-1" d="M71.76,29.24c.23,3.6-.95,7.09-.07,10.36a7.19,7.19,0,0,1-2.61.77c-.3-6.39.14-13.32.34-20.19a5.14,5.14,0,0,1-1.6-.84c.69-.24,1.25.59,1.58.13A61.45,61.45,0,0,1,62.2,12.7c3.39,1.72,4,4.31,7.35,6.07.18-.52.13-1.25.3-1.76a1.55,1.55,0,0,1-1.6-.84c.62,0,1.27.81,1.59.48.38-1.09-1-1.3-1.63-1.71C66,13.39,65.71,11.42,63.53,10c3.58,1,3.48,3.9,6.63,5.39a3,3,0,0,1,.65-2.12c-1.9-1.67-4.25-2.85-6.09-4.58,3.36.43,4.45,5.1,9.22,3.61.29.41.88.51,1.08,1-1,9.54-1.69,20-2.21,29-.91.8-3.54,1.47-4.73.48.16-.42.74-.44,1-.73-.52.19-.32-.38-.37-.69.67-.86,3-.08,3.5-.27-.43-6,.92-11.91-.32-18.59,0,1.12-.38.1-.53-.16.14,1.05-.16,2.57.26,3.33l-.07-2.46c.7.28.41,2.39.25,3-.46.32-.36-.76-.53-.16.23.85-.28,1.89.06,2.28.58-.25-.39-2,.47-1.94a6.56,6.56,0,0,1-.44,3.17C71.65,29.59,71.57,29.29,71.76,29.24Zm2.09-13.75c.15,1.11-.42,3.35-.21,5.27.18,1.65.16-.11.17-.18a44.8,44.8,0,0,0,.39-5.1c0-.62-.32,0-.54-.51.16-.49.21-1.59-.38-1-.82,0,.22.4.19.7-.51.43-.74,1.12-1.18,1.61-.61-.54.51-.88.31-1.59A4.83,4.83,0,0,0,71,14a16.33,16.33,0,0,1,.24,2.45c.36-.09.47.11.71.16a21.77,21.77,0,0,0,.49,5.08c-.11.53.21,1.63.19.52-.14-1.72.23-3,0-4.74.06-.3-.15-.33-.36-.34-.1-.55.53-.41.32-1.06.47,0,1-.13,1.06.32C74.07,16.1,73.56,16,73.85,15.49Zm-3.29,1.84a2.61,2.61,0,0,0,.07,2.81c0,.65-.68,0-.69.37-.31,6-.17,13.33-.38,18.79,1.77-.15.85-2.38.78-3.71C70.05,30.13,71.52,23.21,70.56,17.34Z"/><path class="cls-1" d="M55.11,13.27c-.43-.44.32.58.44.14a24.11,24.11,0,0,0-5.48-5.09c3.33.14,3.47,3.81,6.17,4.55.28.08.55-.2.87-.2a24.18,24.18,0,0,1,2.47.64c.59.09,1.74-.52,2.12.47-.61.56-1.5.86-1.89,1.63-.32-.26,0-1.2-.73-1,.64,2.89.7,6.31,1.49,9.79.09-2.83.17-4.19.18-6.32-.41,0-.18.51-.51.54.19-1.19.32-2.43.43-3.7.8-.25.3.88.73,1,0-.65.24-.45.69-.37.52,4.1.27,8.48.69,12.79.27,2.82,1,7.39.63,10.34-.08.59,0,1.36-.84,1.6,0-.26,0-.65-.19-.7-.36.91-.74-.13-1.06-.32-.23.5.13,1.45-.48,1.94,1-.19,2.37-.52,2.48.64-1.34.85-3.54,2.08-5.58,1.2-.14-.53.16-.64.15-1.06-.42.46-.63-.1-.89-.33.09-6.24.22-15.57-.62-23.15A2.31,2.31,0,0,1,55,17.63c.52-.17,1.08.52,1.23.14a2,2,0,0,0-.84-2.06c-.83-.54-1.71-1-2.5-1.51C51.24,13.12,49.3,12.3,48.38,11c3,1.42,5,3.94,7.59,5.21.08-.92-.34-1.32-.24-2.27C55,14,55.62,13.52,55.11,13.27ZM62.38,39a133.55,133.55,0,0,0-.94-15.42C61.64,29.17,61.49,34.5,62.38,39Zm-1.49,3.2c-.46-.47-2.3-.56-2.27.41C59.67,42.77,59.94,42.18,60.88,42.22ZM59,16.3a147.63,147.63,0,0,0,1,24c.71-.8.58-2.27.61-3.53A118.31,118.31,0,0,0,59,16.3Zm-.56-1.39c-.39-.59-1.31-1.43-2-1.17a4.49,4.49,0,0,0,1.16,4c.25.75-.48.57-.68.89,1.05,8.38.68,13.72.77,22.09.58.08,1.49-.39,1.22-.56C58.49,31.88,58.28,23.48,58.4,14.91Z"/><path class="cls-1" d="M50.45,16c.24.7.14,1.77.41,2.45.54.46,1.17,0,1.42.49-.33,0-.37.15-.17.36,1.3,1.1,3,1.66,3.33,3.22C53.9,21.69,52.64,20,50.7,19c.22,6.63,2.33,14.3,3.18,20.62-1.08-.3-.25-2.62-1.31-2.95-.35-4.17-1.71-9.14-2.13-14.16-.2-2.32,0-4.63-.88-6.65-.17.52-.67.45-.86.55C49.46,23.36,51,29.58,51.51,36c.05.67.38,2.24-.45,2.64-.43-.33-.39-1.15-.4-1.92-.4.36-.46.36-.88,0,.37.57.07,1.84.59,2.27.76-.05,1.43-.4,2.1-.05.07,1.2-2,.34-1.89,1.63.54.22,2.65,0,2.84,1.15a3.92,3.92,0,0,1-3.84.63c-.42-1.11.2-1,.48-1.77-2.09-2.49-2-7.24-2.93-11-1.31,0-1.87-.73-2.9-.42.87,1.73,1.89,2.27,2.65,4.12a8.36,8.36,0,0,1-3.36-4.45c1-.9,1.86.5,3.06-.11a49.89,49.89,0,0,0-5.12-4.58c.06,5.22,4.45,11.16,2.15,14.68-1.87-5.28-3-11.71-4-16.57-.09.37.25,1.15-.14,1.23,0-1-.37-1.49-.23-2.1,0,.19.3.41.36.17-.69-2-.41-5-2.09-5.91.43.9.26,2.18,1,3.13.31,7.51,3.58,13.79,4.24,20.6-1.45-2.44-2-6.75-2.54-9.58-1.72-4.62-2-10.79-3.74-15.35-.61.68-.19,1.38-.12,2.11.74,8,4,15.82,5.71,23.19A2.89,2.89,0,0,1,45,41.27c.12.67-.55,1,0,1.61-1.23-.09-2,.42-3,.08-.29-1.15-.26-2.7-1.49-3.29-1.85-8.09-3.88-16-5.56-24.25.35-.57.36.48.53,0-.27-1.17.47-1.38.64-2.12-.7-.23-1.41-.44-1.61-1.19,4.64,2.07,7.07,5.46,11.52,7.74,0-1-.32-1.29-.06-2.11-.86-.2-1.48-.7-.91-1-2.82-1.71-4.75-3.34-7.59-5,3.73.81,5.43,3.7,8.29,4.84A7.57,7.57,0,0,1,45.83,14a59.63,59.63,0,0,0-6.71-4.88c4.53.35,5.32,5.82,10,4.27,0,.62.57.72,1.08.85.71,2.67,4.13,2.88,5.32,5.62-1,.58-.58-.46-1.32-.29,0-1,.25.39.43-.21C52.75,17.85,52.83,17.24,50.45,16Zm-.2,18.78c.35-2.61-.38-4.83-.7-6.65C49.29,30,49.91,32.58,50.25,34.81Zm-1-19.1c.26-.32.62-.55.49-1.24a1.26,1.26,0,0,0-.34.54c-.25,0-.5,0-.53-.16C48.44,15,49.16,15.44,49.21,15.71Zm-.06,17.38c-.36-4.89-.65-11.1-1.63-14.87C47.63,23,48.62,27.79,49.15,33.08Zm-.27,3c.18-2.81-1.15-7.69-1.17-10.85-1.18.33-.17,3.11.13,4.74.36,2,.62,4.12,1,5.59ZM47.35,24.7c.41-.68,0-2-.25-2.63C46.23,22.59,47.05,24.24,47.35,24.7Zm-.29-4.2a26,26,0,0,0-.25-2.8C46.31,18,46.18,20.53,47.06,20.5Zm-.26-3.33c.11-.65-.32-.74-.21-1.4C46.34,15.87,46.2,17.37,46.79,17.17Zm-.06,10.88c.27-.65-.4-1.86-.26-3-.43,0-.85.06-.89-.33s.44-.16.7-.19c-1.78-2-3.64-3-5.65-4.74C40.11,24.89,44.42,25.39,46.73,28.06Zm-.48-4.73a10.86,10.86,0,0,1-.25-2.8c-2.57-1.5-3.88-3.3-6.53-4.71.09,1.23.58,2,.62,3.32C42.71,20.27,43.57,22.26,46.26,23.33ZM45.08,41.46c0-.68-.78-.62-1.42-.66a1.24,1.24,0,0,0,.73,1C44.87,41.95,44.73,41.48,45.08,41.46ZM42,30.32c.33-.24.09-1.41-.39-1.39A4.4,4.4,0,0,1,42,30.32Zm-1-5.59c-.15.07.24,3.92.63,4,.72.18-1.28-9.36,0-.7C41.41,27,41.17,25.64,40.95,24.73Zm-2.52-8.88c.53-.63-.36-1.3-1.09-1.2C37.47,15.49,38.76,14.95,38.43,15.84Z"/><path class="cls-1" d="M39.07,20c-.7-.47,0,1.16-.15,1.06C39.64,21.55,38.83,20,39.07,20Z"/><path class="cls-1" d="M87.76,14.35a12.19,12.19,0,0,1-2.64-.11,4.51,4.51,0,0,1,.93,2.08c.3,0,.66-1,.7-.19A88.51,88.51,0,0,1,85,28.28c-.65,3.52-1.36,7-2,10.06-.22,1-.3,2.33-1.68,2.85,1.94-6.43,3.38-14.8,4.85-22.24-.54.15-.35-.47-.89-.33-1,6.47-2.55,12.57-3.9,18.36C81,38.4,81,40,79.87,41.06c-.23-.29.06-1.28-.74-1.38.14.52.54.75.39,1.57a10.35,10.35,0,0,1,1.24.49q0,.61,0,1.23c-.76,0-1.1.44-1.92.4-.5-.54-1.41-1.45-1.28-2.07.5-.26.9.45,1.05,0A1.06,1.06,0,0,1,79,39.5c-.28-.31-.65-.52-.56-1.21,1.76-5.34,2-12.14,3.39-17.82,0-.57-1-.09-.9-.85.21,0,.5,0,.52-.19-2.49-2.48-2.93-4.06-5.17-6.81,3.18,2,3.08,4.38,5.87,6.79.1-2.32,1.84-4.18,1.25-5.65a1,1,0,0,1-.7-.16c-.73-2.12-3.75-2.78-4.16-4.63,1.93.73,3,3.48,5,4.08,1.44.42,2.57-.32,4.38-.12C87.88,13.89,87.16,13.52,87.76,14.35Zm-2.6,1.3c0-.28-.17-.3-.19-.52a1.46,1.46,0,0,0-1.38.91c-2,3.37-2.39,11.35-3.08,16.05-.35,2.36-1.22,4.37-1.24,6.35,1.86-7.13,3.13-15.72,4.84-22.42C84.73,16.14,84.85,15.81,85.16,15.64Zm-.77,3.88c-1,.62-1.32,3.41-1.78,5.66a64.41,64.41,0,0,0-1.22,6.7C82.85,28.21,83.36,23.62,84.39,19.52Z"/></svg>