<svg id="s" xmlns="http://www.w3.org/2000/svg" viewBox="0 0 101.85 91.71"><defs><style>.cls-1{fill:#452400;fill-rule:evenodd;}</style></defs><title>catering</title><path class="cls-1" d="M50.6,12.42A4.5,4.5,0,0,1,49.5,15a.56.56,0,0,0-.4-.1C48.8,14.09,49.47,11.8,50.6,12.42Z"/><path class="cls-1" d="M53.39,13a5.34,5.34,0,0,1-1.3,2.7c.17.19.69,0,.7.4,0,1-1.13,1.21-1.9,1.6-1.5.75-2.88,1.4-4.59,2.19-.71.33-1.81,1-2.5.3-.09-.79.68-.63,1.1-.8,1.83-.74,3.94-1.73,5.69-2.6a13,13,0,0,1,2.2-4C53.14,12.74,53.21,12.93,53.39,13Z"/><path class="cls-1" d="M42.31,13.62c.09,1-1.29,1.49-2,1.1A1.45,1.45,0,0,1,42.31,13.62Z"/><path class="cls-1" d="M47.4,14.21a.52.52,0,0,1-.9.5A.52.52,0,0,1,47.4,14.21Z"/><path class="cls-1" d="M39.42,14.91c0,.75-.13,1.27-.9,1.2C37.93,15.5,38.74,14.29,39.42,14.91Z"/><path class="cls-1" d="M36.72,15.81c.34.66-.61,1.49-1.2.9A.83.83,0,0,1,36.72,15.81Z"/><path class="cls-1" d="M57.68,16.31a6.57,6.57,0,0,0,.8.6c-.28.39-.38,1-1,1a2.25,2.25,0,0,0-.2.6c-1.34.61-2.12,2.78-3.89,2.3-.06-.82.84-1,1.3-1.39.73-.57,1.33-1.49,2.3-1.8C57.08,17,57.47,16.76,57.68,16.31Z"/><path class="cls-1" d="M60.78,16.31c.46,0,.65.28,1,.4a2.21,2.21,0,0,1-.8,1c-.38,0-.42-.38-.8-.4C60.26,16.86,60.69,16.76,60.78,16.31Z"/><path class="cls-1" d="M34.62,16.81v.5a1.79,1.79,0,0,1-1.9,0v-.5A1.84,1.84,0,0,1,34.62,16.81Z"/><path class="cls-1" d="M33.43,19.11c-1.05.85-3.13-2.05-1.8-2.1.55,0,.67.62,1.1,1.1S33.72,18.48,33.43,19.11Z"/><path class="cls-1" d="M62.57,17.31a3.9,3.9,0,0,1,0,1.3,6.25,6.25,0,0,1-1-.6C61.53,17.26,62.05,16.67,62.57,17.31Z"/><path class="cls-1" d="M59.18,19.8c.23-.21.79-.3,1,0-.46,1.58-2.16,2.51-3.39,3.49-.59.47-1.2,1.17-1.8,1.7s-1.31,1.34-2.1.9c.37-1.3,1.71-1.93,2.59-2.7s1.87-1.59,2.8-2.4c-.19-.18-.58-.15-.6-.5a9.75,9.75,0,0,1,1.9-2.5c.31.12.43.43.8.5A11.26,11.26,0,0,1,59.18,19.8Z"/><path class="cls-1" d="M63.37,18c.37.06.41.46.8.5-.07.37-.37.5-.6.7-.37-.07-.49-.38-.8-.5C62.91,18.41,63.23,18.3,63.37,18Z"/><path class="cls-1" d="M31.53,20.5c-1,.51-2.62-1.12-2.4-1.9.29-1,1.07.09,1.6.6S31.65,20,31.53,20.5Z"/><path class="cls-1" d="M53.39,18.8c-.31,1.41-2.29,1.65-3.59,2.2a15.13,15.13,0,0,1-2.1.8c-.66.17-1.67.54-2.2,0,.39-1.09,2.12-1,3.19-1.4A27,27,0,0,1,52,19.11a2.54,2.54,0,0,0,.7-.5A.76.76,0,0,1,53.39,18.8Z"/><path class="cls-1" d="M64.47,18.8a4.28,4.28,0,0,0,.9.4v.6c.2,0,.2-.27.3-.4l1,.5a3.23,3.23,0,0,0-.3,1.2c-.79-.31-1.33-.86-2.1-1.2A5.89,5.89,0,0,0,64.47,18.8Z"/><path class="cls-1" d="M61.58,19.11a11.65,11.65,0,0,1,1.3.9,4.5,4.5,0,0,0-1.1,2.19c-.23.27-.77-.07-.9.1-.31.36.26.49.1,1a28.28,28.28,0,0,1-4.19,3.19,25.45,25.45,0,0,1-4.69,2.7c-.68-.94.59-1.28,1.1-1.6a46,46,0,0,0,5.49-3.69.89.89,0,0,1-.2-.8A6.3,6.3,0,0,0,61.58,19.11Z"/><path class="cls-1" d="M28.43,22.8c-.1,0-.08.12-.1.2-1.41,0-2.73-1.82-2.4-3.19.93.08,1.15,1.13,1.6,1.7C27.86,21.91,28.43,22.2,28.43,22.8Z"/><path class="cls-1" d="M27.14,19.8c1.18.15,1.42,1.24,2.4,1.6a.76.76,0,0,1-.2.7C28.11,21.93,26.68,21,27.14,19.8Z"/><path class="cls-1" d="M67.76,20.5c.89.51,1.7,1.09,2.6,1.6,0,.74-.32,1.14-.3,1.89-.44-.13-.63-.5-.9-.8a4.83,4.83,0,0,1,.3-1.3,2,2,0,0,0-.8.9c-.51-.16-.67-.65-1.1-.9A7.49,7.49,0,0,1,67.76,20.5Z"/><path class="cls-1" d="M52.39,21.3c0,.58-.59,1-1,1.2A21.4,21.4,0,0,1,45,24.8c-.47-1,.67-1,1.2-1.2A27.84,27.84,0,0,0,51.69,21C52.07,21,52.32,21,52.39,21.3Z"/><path class="cls-1" d="M64.07,21.2c.37.2.76.37.9.8-.29.27-.26.87-.9.8a21.9,21.9,0,0,1-2.3,2.2c-.75.66-1.54,1.64-2.6,1.7-.23-1.32,1.43-1.91,2.3-2.7A28.44,28.44,0,0,0,64.07,21.2Z"/><path class="cls-1" d="M26.24,25a3.44,3.44,0,0,1-1.7-.8c-.41-.36-2.35-2.24-1.2-2.4.89-.12,1.27,1.14,2.1,1.8C26,24,26.9,24.3,26.24,25Z"/><path class="cls-1" d="M65.07,24.7c-.51-.67,0-1.77,0-2.59.32-.2.62.33,1,.4C65.68,23.37,66.44,24.79,65.07,24.7Z"/><path class="cls-1" d="M23.44,24.1c.49,0,1,0,1.2.4v.2c-.84,1.4-3.3-.74-3.09-1.5C21.86,22,23.12,23.74,23.44,24.1Z"/><path class="cls-1" d="M71.36,22.9c.41.09.53.46.9.6-.16.74-.34,1.45-.5,2.2-.47-.4-.9-.84-1.4-1.2C70.6,23.87,71.16,23.57,71.36,22.9Z"/><path class="cls-1" d="M66.87,23.3c.46.31.74.79,1.2,1.1-.31.76-.36,1.77-.9,2.3a.85.85,0,0,1-.6-.1c-.27-.42.09-.93.2-1.3-.76.34-1.47,1.59-2.4,2.1-.1.4.3.3.2.7a34.71,34.71,0,0,1-5.09,3.4c-.84.52-1.79,1-2.7,1.5S55,34.33,54,34c.36-1.19,1.76-1.67,2.8-2.2S59,30.62,60,30a1,1,0,0,1,0-.8C63.06,28,64.87,25.56,66.87,23.3Z"/><path class="cls-1" d="M72.56,24.2a3.1,3.1,0,0,1,.8.8,5.71,5.71,0,0,1-.4,1.5c.25,0,.68-.65.9-1a9.56,9.56,0,0,1,1.1,1,15.53,15.53,0,0,1-.6,2.09c-.82-.78-1.49-1.7-2.3-2.5C72.16,25.39,72.51,24.94,72.56,24.2Z"/><path class="cls-1" d="M20.15,25.09c.71-.53,1.24.84,2,1.4.42.31,1.58.47,1.5,1-.15.89-1.55.2-2.2-.3S19.47,25.61,20.15,25.09Z"/><path class="cls-1" d="M68.66,25.19c.6.23.81.85,1.4,1.1A22.07,22.07,0,0,1,67,29.59c-.18.17.09.33,0,.7-1.73,1-3.07,2.32-4.69,3.39-.42.09-.47-.19-.8-.2a68.59,68.59,0,0,1-6.09,3.19c-.6.3-1.27,1-2,.6.13-1.16,1.53-1.49,2.4-1.9,2-.91,3.72-1.95,5.59-3a28.67,28.67,0,0,0,2.7-1.5,28.08,28.08,0,0,0,2.2-2C67.39,27.86,68.41,27,68.66,25.19Z"/><path class="cls-1" d="M62.77,25.79c-.15.94-1.17,1.51-1.9,2-1.57,1.05-3.2,2-4.89,2.89-.77.42-1.79,1.09-2.7.7.15-.94,1.3-1.21,2-1.6a44.67,44.67,0,0,0,6.79-4.19A.75.75,0,0,1,62.77,25.79Z"/><path class="cls-1" d="M46.6,26.49c-.25,1.13-2.42,1.77-3.49,1.1.15-1.22,2.24-.49,2.7-1.4C46.2,26.16,46.53,26.19,46.6,26.49Z"/><path class="cls-1" d="M23.44,30c.1.68-1,.55-1.5.4a14.36,14.36,0,0,1-2-1.5c-.35-.27-2.83-1.89-1.4-2.1,1-.15,2.89,2.36,3.69,2.59C22.7,29.53,23.37,29.46,23.44,30Z"/><path class="cls-1" d="M51.59,27c-.45,1.6-2.73,1.77-4.29,2.29-.78.26-1.64.58-2.5.8s-1.9.7-2.6.1c.09-.94,1.34-.85,2-1a22.86,22.86,0,0,0,2.2-.7c1.6-.53,3.41-.81,4.49-1.7A.75.75,0,0,1,51.59,27Z"/><path class="cls-1" d="M70.36,26.79a3.54,3.54,0,0,1,.8.8c-.34.59-.19,1.55-.9,1.5C69.29,29,70.17,27.55,70.36,26.79Z"/><path class="cls-1" d="M75.35,26.89a3.66,3.66,0,0,1,.8.8,10.15,10.15,0,0,1-.5,1.8c.33,0,.83-.69,1.1-1.1a5.59,5.59,0,0,1,1,1c-.18,1-.62,1.71-.8,2.7a1.2,1.2,0,0,1-.6-1.6c-.14-.22-.18.48-.6.3-.32-.55-.66-1.08-1-1.6C74.89,28.36,75.17,27.67,75.35,26.89Z"/><path class="cls-1" d="M71.46,28a7.33,7.33,0,0,1,.8.9,11.63,11.63,0,0,1-1.3,2.8.61.61,0,0,1-.7-.6c-1.66,1.63-3.14,3.44-4.89,5-.42,0-.54-.33-.7-.6-2.42,1.1-4.71,2.41-7.09,3.59s-4.52,2.79-7.19,3.29c0-.15-.38-.46-.1-.6,0-.12,0-.18.1-.2,4.08-1.83,8.25-4.17,12.38-6.29a25.91,25.91,0,0,0,4-2.2,20.27,20.27,0,0,0,2.1-2.2C69.8,29.87,70.91,29.26,71.46,28Z"/><path class="cls-1" d="M21.35,32.18c-1.73.41-2.71-1.6-3.79-2.49-.29-.15-.69-.17-.8-.5-.1-.7.52-.61.8-.6.94,0,1.71,1.61,2.69,2.4C20.76,31.39,21.54,31.46,21.35,32.18Z"/><path class="cls-1" d="M71.86,32.48c.07-1.19.8-1.73.9-2.89.37.19.5.64.8.9C73.23,31.3,73,33.13,71.86,32.48Z"/><path class="cls-1" d="M52.59,30.09c-.2.94-1.39,1.09-2.2,1.4-1.65.64-3.21,1.43-5,2-.81.26-1.85.84-2.6.3.09-1,1.34-1,2.1-1.2,2.16-.68,5-2,6.89-2.8C51.93,29.73,52.47,29.7,52.59,30.09Z"/><path class="cls-1" d="M19.75,35.08c-1.5.36-3.54-1.52-4.29-2.3-.28-.29-1.28-1.47-.3-1.6.58-.07,1.31,1.07,1.7,1.4a18.39,18.39,0,0,0,1.7,1.4C19.08,34.3,19.91,34.22,19.75,35.08Z"/><path class="cls-1" d="M73.85,31.18c.35.21.4.74.8.9-.65.65-.65,1.94-1.4,2.5-.4.1-.44-.16-.6-.3-.89.64-1.49,1.58-2.59,2-.16.14-.11.49-.3.6a140.54,140.54,0,0,1-15.07,6.49c-.64.22-1.55.85-2.2.2.13-1,1.37-.88,2-1.1,2.14-.73,4.31-1.82,6.49-2.7,2.91-1.17,5.72-2.47,8.39-3.79C70.74,34.26,72.75,33.17,73.85,31.18Z"/><path class="cls-1" d="M78.55,33.18c-.13-.13-.58.28-.7.5-.34-.12-.26-.68-.6-.8a11.67,11.67,0,0,1,1.8-1.6,6.75,6.75,0,0,0,.7,1.3,11.26,11.26,0,0,1-.8,2.1,1.8,1.8,0,0,0,1.2-1.3,1.87,1.87,0,0,1,.7,1.2,20.53,20.53,0,0,0-1.1,2.29c-.58-.85-1.07-1.8-1.6-2.7A2,2,0,0,1,78.55,33.18Z"/><path class="cls-1" d="M75.35,33.28a9.59,9.59,0,0,1,1,1.5c-.32.74-1.2.93-1.3,1.9C73.64,36.38,73.3,38.22,72,38c-.14-1.56,1.85-1.72,2.59-2.79C75,34.57,74.89,33.94,75.35,33.28Z"/><path class="cls-1" d="M50.8,33.68c-.17.91-1.3,1.16-2.1,1.5A44.59,44.59,0,0,1,43.41,37c-.87.24-1.94.73-2.69.2,0-1,1.38-.9,2.1-1.1A45.94,45.94,0,0,0,50,33.38C50.1,33.33,50.67,33.28,50.8,33.68Z"/><path class="cls-1" d="M18.85,36.67c1.67-.2,1.69,1.27,0,1a7.16,7.16,0,0,1-2.79-1.4c-.45-.31-3.15-2.3-1.7-2.49.59-.08,2,1.52,2.1,1.6C17.37,36,18.11,36.1,18.85,36.67Z"/><path class="cls-1" d="M81.44,36a30.2,30.2,0,0,1,2.2,5,.93.93,0,0,1-.3.7c.15.31.43-.29.6,0,0,.39.23.5.2.9a6.61,6.61,0,0,0-1.5.9,2.46,2.46,0,0,1,.2-3c-.3-.07-.84.49-.9,1a6.84,6.84,0,0,1-.6-1.1c.22-.84.71-1.42.9-2.3a1.9,1.9,0,0,0-1.2,1.4c-.31-.32-.38-.88-.7-1.2A12.06,12.06,0,0,0,81.44,36Z"/><path class="cls-1" d="M77,36.17c.39.18.34.79.7,1-.35.48-.4,1.26-.9,1.6-.55.14-.54-.26-.8-.4-.83.73-1.85,1.25-2.7,2A35.59,35.59,0,0,1,70,42.56c-.27,0-.57,0-.7-.1-1.8.82-3.93,1.39-5.89,2.2-.57.23-1.28.84-1.9.4-.11-1,1.13-1.17,1.7-1.39,3.66-1.45,7.22-2.46,10.28-4.69A17.89,17.89,0,0,0,77,36.17Z"/><path class="cls-1" d="M19.25,40.27c-.42.86-1.5.26-2,0-1.2-.63-2.18-1.31-3.49-2.1-.36-.22-2.38-1.61-1-1.8.37-.05,1,.6,1.3.8A28.68,28.68,0,0,1,18,39.57C18.46,39.73,19.28,39.58,19.25,40.27Z"/><path class="cls-1" d="M51.39,36.67c-.37,1-2.09,1.51-3.09,1.9a7.21,7.21,0,0,1-3.89.7c.15-1.2,2-1.09,3.09-1.5C48.88,37.28,50.34,36.06,51.39,36.67Z"/><path class="cls-1" d="M78,38.07a8.51,8.51,0,0,1,1.1,2.1,3.18,3.18,0,0,0-1.9,1.7c-1.54-.37-2.26,1.43-3.69,1.8q-.53,0-.5-.5a34.4,34.4,0,0,1-5.69,2.69c-.57.25-1.3.86-1.9.4.3-1.29,2.13-1.58,3.29-2.09s2.51-1.13,3.69-1.6c.36,0,.52.14.5.5C74.71,41.46,77.33,40.72,78,38.07Z"/><path class="cls-1" d="M18.35,43.06c-1.78.25-3.86-1.09-5.49-2-.32-.18-2.59-1.23-1.1-1.5.49-.09,1.31.54,1.8.8A32.65,32.65,0,0,0,17,42C17.51,42.18,18.59,42.18,18.35,43.06Z"/><path class="cls-1" d="M41.71,44c.11-1,1.34-.85,2-1,2.3-.53,4.42-1.52,6.49-2.19a.75.75,0,0,1,.2.7c-.08,0-.1.1-.2.1A21.82,21.82,0,0,1,43.91,44C43.23,44.12,42.27,44.55,41.71,44Z"/><path class="cls-1" d="M18.35,45.36c0,.66-.73.53-1.2.5a25.47,25.47,0,0,1-5.49-2c-.61-.34-1.25-1-.7-1.5A27.49,27.49,0,0,1,14.36,44a20.88,20.88,0,0,0,2.1.6C17.09,44.76,18,44.77,18.35,45.36Z"/><path class="cls-1" d="M50.6,44.66c-.35,1-2,1.41-3.39,1.7a21,21,0,0,1-2.2.3c-.66.06-1.65.23-1.9-.4.31-.9,1-.53,1.7-.6a21.21,21.21,0,0,0,5-1.3C49.92,44.31,50.44,44.25,50.6,44.66Z"/><path class="cls-1" d="M80.74,44.86c.3.46.06.87.3,1.4-.76-.24-1,.59-2,.4-.09-.08-.06-.28-.2-.3C78.84,45.22,80.24,45.48,80.74,44.86Z"/><path class="cls-1" d="M58,15.31c.32-.12.9.36,1.4.4-.08.32-.36.44-.5.7A6.88,6.88,0,0,0,58,16C58.14,15.77,58.23,15.54,58,15.31Z"/><path class="cls-1" d="M56,9.82c2,.66,4.15.22,6.29.7a66.13,66.13,0,0,1,10.48,3.79,20.47,20.47,0,0,1,2.5,1.8c1.56,1.07,3,2.07,4.49,3.3a20.26,20.26,0,0,1,2.2,1.69c1.21,1.37,2.06,3.37,3.29,5a32.33,32.33,0,0,1,3.49,4.79c1.14,2.36,1.55,5.34,2.2,8.19s.7,5.86,2,8.39h3.29a19.72,19.72,0,0,1,3.19-.1c.6.14,1.38,1.09,1.7,1.5a3,3,0,0,1,.7,2.4c-.2.51-.73.64-1.3.9a7.81,7.81,0,0,1-1.4.7,31,31,0,0,1-4-.1H82.84c.79.89,2.29,1.35,3.19,2.6a20.39,20.39,0,0,1,1.3,2.59,8.57,8.57,0,0,1,1.1,5.69c-.19,1.28-1.32,1.87-1.2,3.59.1,1.45,1.75,4,2.4,5.29.84,1.66,1.88,3.47,2.6,5a34.47,34.47,0,0,0,4.49,7c.69.83,1.7,1.45,1.6,2.2a1.31,1.31,0,0,1-.6.8c-1.41.42-3.43-2.88-4-3.59a30.06,30.06,0,0,1-2.79-4.69c-1.94-3.6-3.55-6.73-5.09-10-.57.06-1.07,1.1-1.9.5-1-.74.65-2.55,1-3.19.9-1.66,1.86-2.75,1.6-5.09a15.6,15.6,0,0,0-2.3-5.19,13.1,13.1,0,0,0-3.69-2.4c-2.57-1-5.41-.81-7.59-1.9-1.77-.89-2.67-3-6-2.5-1.15-.58-2.18-1.67-3.89-2.1a17.45,17.45,0,0,0-2.6-.2A10.39,10.39,0,0,0,58,47a7.64,7.64,0,0,0-2.5,1.3c-.07.81.17,1.29.1,1.6,1.65,1,4.36.9,6.09,1.8,1.93-.48,2.74,1.75.5,1.9a6.53,6.53,0,0,1-2.1-.4,10.17,10.17,0,0,0-1.1.2c-3.74.35-7.19.08-11,.4-1.07.09-2.52.4-4,.6-1.16.16-3.27.81-4,.6-.43-.12-.4-.65-.8-1.1-.14-.15-.46-.26-.6-.4a30,30,0,0,0-2.4-2.3,19.81,19.81,0,0,0-2.4-1.4,7.59,7.59,0,0,0-2.5-1.2c-.76-.09-2.13.18-2.3.7-.36,1.1.89,1,.8,1.7,3,.92,3.82,3,5.59,5.39a7,7,0,0,0,2,2.1c1,.41,3.2.31,4.79.2,2.54-.18,6.06-.83,8.29-1,1.07-.08,1.87.08,2.9,0,.76-.06,2.94-.71,3,.7.06,1.65-3.47,1.08-5.09,1.2a39.35,39.35,0,0,0-5.89.8c4.76.66,8.89,1.72,13.18,2.59a44.65,44.65,0,0,1,6.69,1.9c1.07.4,2.3.56,3.19,1a13.48,13.48,0,0,1,2.1,2,19.71,19.71,0,0,1,4,4.59c2.76,4.87,3.1,11.4,5.39,16.37.16.35,1.81,2.49.4,2.9-1.09.31-2-1.5-2.29-2.3-2.47-5.71-2.66-12.13-6-17a18.23,18.23,0,0,0-2-2.59c-1.07-1.09-1.88-2.18-3.39-2.4A49.44,49.44,0,0,0,57,64.62a19.67,19.67,0,0,0-3.39-.7c-1.17,0-2.17.39-3.2.4-.49,0-1-.21-1.5-.2-3.19,0-5.23,2.12-8.28,1.8a10.17,10.17,0,0,1-4.09-1.7c-1.23-.77-2.64-1.4-3.79-2a38.21,38.21,0,0,0-8-3.49c-.47,0-.43-.57-.9-.6-3.46-.1-6-1.09-6-4.69-3.53-.55-10.08.34-14.18,0-1.43-.12-3.11-.89-3.49-2a3.32,3.32,0,0,1,1.3-3.79c1.59,0,3.62,0,5.49,0a37.67,37.67,0,0,1,2.6-13.38,50.35,50.35,0,0,1,5-10.28,31.25,31.25,0,0,1,5.39-5.49c5.75-5.14,14.62-7,23.86-8.58a6,6,0,0,1-1.4-5.09c.59-3.23,5-5.42,9-4.69,2.33.43,5.4,3.56,5.69,6.19C57.26,7.95,56.54,8.66,56,9.82Zm-2.8-2.1c-.23-1-1.28-1.11-1.3-2.3a.57.57,0,0,1,.8-.3c-.1-.56.14-.79.5-.9.51.12.58.69,1,.9A4.57,4.57,0,0,0,50.6,2C48.13,1.69,45,3,44.41,5A3,3,0,0,0,47.7,9.12a1.25,1.25,0,0,0,1.4.3c-.15-.58-.71-.75-.6-1.6.19,0,.18-.29.5-.2.57.13.56.84,1,1.1,0-.6-.35-1.36.3-1.5s.72,1,1.1.9a2.51,2.51,0,0,1-.3-1.5c.14,0,.17-.16.3-.2C52.43,6.43,52.71,7.17,53.19,7.73ZM38.72,12.82c-7,1.64-13.14,3.26-17.57,7.29-1.8,1.64-3.88,3.29-5,5-.41.63-.75,1.39-1.2,2.1a24.06,24.06,0,0,0-1.2,2.2C11.22,34.62,9,40.53,9,47.65c2.36-.07,5,.13,7.19-.1-1.33-.42-2.91-.52-4.19-1a4.19,4.19,0,0,1-2.4-1.7c.86-.77,1.77.37,2.59.7,1.68.67,3.78.74,5.59,1.3.15.32,0,.44,0,.8h9.68a7.46,7.46,0,0,1,5.29-1c.81.13,1.39.84,2.1,1,1.56.34,3.79,0,5.69,0s4.14.11,5.79,0c2.22-.15,3.69-1.2,5.19-1.9a.5.5,0,0,1,.3.3c0,1.07-1,1-1.5,1.6h3.59a7.89,7.89,0,0,1,1.5-1.7c-.52.1-1,.15-1.1-.4.4-.69,1.31-.81,2-1.1s1.49-.59,2.2-.9c3.61-1.58,7-3.41,10.48-5,.33-.15,2-1,2.2-.2.11.6-2.61,1.65-3.09,1.89-3.42,1.72-7,3.21-10.28,4.79,4.64-.24,6.9,1.88,10.88,2.3.18-.15.07-.6.3-.7,2.29-1,4.2-2.46,6.49-3.49.44-.13.41.48.7.2,1.23-.74,2.76-1.17,3.19-2.7a14,14,0,0,1,.7,1.5c-.84.45-.36,1.9-1.6,2.1-.36-.07-.28-.59-.6-.7-1.38.57-2.48,1.9-4.29,1.7-1.07.89-2.61,1.31-3.69,2.2h4.79c-.12-.18,0-.58-.2-.7-.34.24-1.08.8-1.4.2.34-1.27,1.95-1.38,3-2,.36-.21.49-.69,1-.6s.19.61.4.8a21.75,21.75,0,0,1,2.6-1.4c.12-.18-.11-.7.2-.9a5.57,5.57,0,0,1,.5,1.6,20.44,20.44,0,0,1-2.7,1.4c-.2,1-1.33,1-1.9,1.6,1.65.21,3.69-.29,5.09,0,.49.1.59.5,1.1.4,1.38-.28.53-2.92.3-3.89a3.1,3.1,0,0,0,1.7-1.2c.15.38.23.83.4,1.2-.42-.09-.5.16-.6.4.84,1,.44,3.24,1.7,3.49.61.12.7-.3,1.2-.4s1,.08,1.8,0c-.61-1.93,1.38-3.85.5-5.79-.18.86-.76,1.43-.4,2.3a6.39,6.39,0,0,1-.9.9c-.08.48.44.36.3.9a1.71,1.71,0,0,1-1.3,1,4.85,4.85,0,0,0-.4-2.19c1.65-1.62,2.88-5.19,1.7-7.89-.24,1.73-.88,3-1.1,4.79.18.19.59.14.5.6a2.29,2.29,0,0,1-1.3,1.1c-.18-1.42-1.44-2.51-.6-3.79-1.14,0-1.13-1.14-1.5-1.9.22-.46.84-.14,1.2-.3a36.32,36.32,0,0,0,1.3-5.59c-.42-.38-.53-1.06-1.1-1.3-.15,2.14-.73,3.86-1,5.89-.25.21-.7.23-.9.5-.09-.48-.41-.72-.5-1.2,1-1.71,1.3-4.1,1.6-6.49-.68-.78-1.26-1.67-1.9-2.49,0,1.32,0,2.63-.2,4.39,1.07.69.91,3.13.1,4a15.34,15.34,0,0,0-1.9-3.6c.15-.18.11-.56.3-.7-.1-.51-.28.39-.7.2-.68-1.24-1.37-2.49-1-3.79-.54.1-.56.7-1.1.8-.4-.74-1.38-1-1.6-1.8a14.83,14.83,0,0,1,.1-2.9,14.93,14.93,0,0,0-.4-3.69c-.91-.22-1.48-1.31-2.3-1.3.42,1.26.31,3.52.5,4.69.88.33.64-.14,1.5-.2a1.11,1.11,0,0,1-.2,1.5,2,2,0,0,1,.2,1.4c-1.95-1.18-3.08-3.17-5-4.39a3.2,3.2,0,0,0-.3-1.69c-.15.45-.53,1-.5,1.3a10.32,10.32,0,0,1-2.6-1.5,1.24,1.24,0,0,1,.8-1.4c-.45-1.62-.38-3.75-2.4-3.79a31.2,31.2,0,0,0,.7,3.59c.24-.39,0-1.27.7-1.2,1,.63,0,2.29-.5,2.7-.32-.32-.88-.39-1.2-.7-.19-1.68-.55-3.18-.8-4.79a12.46,12.46,0,0,0-1.7-.6,12,12,0,0,1,.9,2.89c.17.19.69,0,.7.4-.22.92.69,1.24.4,1.9-.68-.44-1.61-.54-2-1.3s-.13-1.61-.4-2.4-.88-1.07-.7-1.8a10.45,10.45,0,0,0-2.4-.5c.25,1.22.94,2,1.3,3.1.45.24.45-.71,1.2-.5.42.38.06,1.19-.4,1.3-.75-.48-1.94-.52-2.3-1.4-.34.95-1.63-.36-2.3,0-.73,1.23-1.21,2.71-2.4,3.49-.09-.18-.37-.16-.4-.4.07-1,1.46-1.72.7-2.59-.52.68-1.25,3.91-2.3,2.7.38-1.55,1.29-2.57,1.8-4-.2-.79-1.11-1.31-.8-2.3A44.57,44.57,0,0,0,38.72,12.82Zm17.47.3c0,.73-.1,1.09.3,1.5.11-.42.5-.56.6-1-.22-.15-.47-.27-.4-.7,1.21-1.05,1.44,1.22,2.2,1.6a2.75,2.75,0,0,0,.2-2.2,16.12,16.12,0,0,0-4.09-.4A3.37,3.37,0,0,0,56.19,13.11ZM70,19.21c.43-.21.21-1.05,1.1-.8-.18-.85-.13-1.94-.3-2.79-.69,0-1-.47-1.6-.6A26,26,0,0,1,70,19.21Zm2.6,2.1c.22-.51.2-1.27,1.1-1.1-.18-1.74-.18-3.68-1.8-4A28.75,28.75,0,0,0,72.56,21.3Zm5.39,3.59c.23.16.77,0,.8.4s-.13.79.1.9c1.14-1.12.72-2.68.7-4.49-.61-.33-1-.91-1.6-1.2C77.93,22.55,78.05,23.21,77.95,24.89Zm2.6,2c.23.16.77,0,.8.4.13.61-.14,1.05.1,1.6,1.14-1.31.58-4.92-.8-6C80.45,24.3,80.82,25.26,80.54,26.89Zm6.39,10.28a4.65,4.65,0,0,0-.9,2,.84.84,0,0,1,.6.1c.65-1.42.63-3.5,1.2-5-.2-.13-.11-.56-.4-.6C87.42,35,86.66,35.89,86.93,37.17Zm2.6,10.29h1.1c0-.4,0-.77-.3-.9C90.24,47,89.65,47,89.53,47.46Zm-5.89,0h.8c-.09-.18,0-.54-.3-.5C84,47.14,83.72,47.21,83.64,47.46ZM76.85,51c4.7.13,12.19-.1,17.47-.1,2,0,4,.25,5.39-.5-1.27-1.53-3.79-1-5.89-1H73.06C73.5,50.18,75.6,50.91,76.85,51Zm-67.48.5c3.44,0,5.59.23,8.38,0,1.08-.09,1.68-.7,2.4-.8a41.84,41.84,0,0,1,5.29-.2c.66,0,1.55.26,1.9-.3-.29-1-1.68-.6-2.5-.6H2.48C.33,52,6.86,51.45,9.37,51.45Zm30.15-.1c1.72.56,4.69.1,7.19.1h7.39a5,5,0,0,1-.6-1.89H37.72C38.21,50.11,38.69,51.08,39.51,51.35Zm-8.68,2.3a2.51,2.51,0,0,1-1,.1c-1.56-2.27-6.73-1.24-9.78-1a2.36,2.36,0,0,0,.7,2.89c1.6.63,3.26.44,5,.6,2.86.26,5.56,1.64,8.38,1.8A16.92,16.92,0,0,0,30.83,53.64ZM38.22,63a11.68,11.68,0,0,0,1.5.7c2.5.86,4.15-.75,6.49-1.2-5-.52-8.94-2.57-14-2.7A52.43,52.43,0,0,1,38.22,63Z"/></svg>