<svg id="_Layer_1" data-name="#Layer 1" xmlns="http://www.w3.org/2000/svg" viewBox="0 0 101.97 83.43"><defs><style>.cls-1{fill:#231f20;fill-rule:evenodd;}</style></defs><title>chat</title><path class="cls-1" d="M94.66,7C93.06,4.74,85,2.76,80.2,1.79l1.55,0a.64.64,0,0,0,0-1.28C67,.37,45.39-1.07,31.41,1.6,25.76,2.69,10.65,4.56,7,8.87,6,10.15,5,12.53,4.3,15.58L4.1,16c-5,11.17-5.14,20.87-2,32.31a24.33,24.33,0,0,0,4.53,9.24,10.53,10.53,0,0,0,1.46,1.93c9.62,9.86,43.12,5.21,55.08,6.44a7.73,7.73,0,0,1,4.19,3.87c1,2.76.85,6.05,1.22,8.42.5,4.75,1.39,7.92,4,2.05,9.62-21.36,5.67-8.74,21.31-15.49,5.55-2.4,7.25-8,7.38-14.31C103.58,36.12,99.65,14.23,94.66,7Zm.18,18.08a.64.64,0,0,1,.64-.64c.31.24.21,0,.51.36l-.06.41h0l-.34.22c0,.12,0,.07.06.17l-.16.11a.64.64,0,0,1-.64-.64Zm-.68-2.07a.64.64,0,0,1,.41-.81c.8.11.43,0,1.1.48-.46.6-.21.37-.69.74a.64.64,0,0,1-.81-.41Zm-.88-2.25a.64.64,0,0,1,.64-.64c.93.26.48.06,1.34.64-.86.58-.41.38-1.34.64a.64.64,0,0,1-.64-.64Zm-.58-2.1a.64.64,0,0,1,.64-.64,4.35,4.35,0,0,1,1.43.46c-.85.77-.37.5-1.43.82a.64.64,0,0,1-.64-.64Zm.19-2.52a2.46,2.46,0,0,1,1.61.2h0c-.75.81-.35.49-1.15,1a.64.64,0,1,1-.46-1.2ZM92.32,14a3,3,0,0,1,1.7.14c-.81.87-.34.49-1.43,1.12A.64.64,0,1,1,92.32,14Zm-1.78-.9a.64.64,0,0,1,.46-.78,10.47,10.47,0,0,1,2.84-.1h0c0,.15,0,.09-.09.19h0a6.86,6.86,0,0,1-2.44,1.15.64.64,0,0,1-.78-.46ZM90,11.67A.64.64,0,1,1,90,10.39a4,4,0,0,1,1.9.42h0a4.85,4.85,0,0,1-1.84.86ZM86.34,9.12a.64.64,0,0,1-.8-1C86.76,7.34,86.92,7,88.35,7h0c-.65.71-1.34,1.42-2,2.11ZM83.42,8.2a.64.64,0,1,1-1-.78c1-.89,1.24-1.17,2.56-1.13A15.92,15.92,0,0,0,83.42,8.2ZM81,7.46A.64.64,0,1,1,80,6.57c.84-.57,1-.78,2-.53h0c-.35.53-.69.9-1.06,1.43ZM93.79,58.71h0c.5,1.75.3,1.33-.3,3a.64.64,0,0,1-1.18-.51,13.51,13.51,0,0,0,1.48-2.51Zm-3.21,2.61a6.14,6.14,0,0,1,1.65-2.12,7.09,7.09,0,0,1-.4,2.43.64.64,0,1,1-1.25-.31Zm-1.27,1a.64.64,0,1,1-.75-1,8.7,8.7,0,0,0,1.63-1.58c.23,1.28,0,1.63-.87,2.62Zm-3.06-1.72c.79.57-1.15,1.9-1.6,2.26a1.2,1.2,0,0,1-1.29,0,.52.52,0,0,1,.06-.91c.83-.38,2-1,2.84-1.31Zm-4.32,1.61v0c.29,0,.78-1.12,1.1-.73,0,.78.18,1.39-.68,1.9a.64.64,0,0,1-.43-1.21v0Zm-1.76,1.68a.64.64,0,0,1-.41-1.22c1.11-.32,1-.57,1.63-1,.77.68-.8,1.92-1.22,2.21Zm-39-.72h0a.64.64,0,0,0-.41.5l-2.38.11c.45-.38.82-.56,1.47-1.06A138.92,138.92,0,0,1,57.26,64c-2.07-.08-4.47-.12-7.3-.31-2.29-.15-4.65-.15-7-.09l.74-.71a7.2,7.2,0,0,0-2.44.29ZM30,63.71h0a.65.65,0,0,0-.23.43c-.94,0-1.87,0-2.8,0a21.12,21.12,0,0,0,3.43-1.73h0a22,22,0,0,0-5.25,1c-.44.14-.64.44-.53.72A40.66,40.66,0,0,1,19,63.45a1.92,1.92,0,0,0,1.26-1.3c-.47-.24-.91.22-1.76.16a.64.64,0,0,0-.58.7.61.61,0,0,0,.07.23c-.43-.1-.86-.21-1.28-.32.78-.5.83-.42,1-1.4h0l-1.67.3a.64.64,0,0,0-.35.8,18.33,18.33,0,0,1-7.49-4.49C6.15,55.48,4.82,50.78,4.1,45.29c.95,5.55,2.74,10.3,5.52,13,2.2,2.15,7.27,3.14,13.54,3.67l-1.65.71a.64.64,0,0,0,.73,1.06,21.07,21.07,0,0,0,2.42-1.66c3.51.25,7.34.37,11.21.49a4.65,4.65,0,0,0-2.24,1,.64.64,0,0,0-.25.42l-2,.08a6.66,6.66,0,0,0,.92-1.32,4.55,4.55,0,0,0-2.28.93Zm53-59.94h0L84.14,4l5.6,2.58a7.82,7.82,0,0,1,2,1.56,16.58,16.58,0,0,0-3.5.82.64.64,0,0,0,.41,1.22,10.2,10.2,0,0,0,3.09-2c3.91,4.17,5,12.84,5.57,17.28,1.42,11.85,2.78,23.81-2,34.81,0-1,.15-2.37.14-3.11l-.08-.06-.07,0v0c-.75.54-1.09,2.73-1.27,3.5a.63.63,0,0,0,.87.6l-.25.52a4.63,4.63,0,0,1-1.67.43c-1.35.09-3.53.18-5.9.46a2.49,2.49,0,0,0,1-2.27,13.29,13.29,0,0,1-1.83,1.31.64.64,0,0,0-.26.87.63.63,0,0,0,.17.2c-4.8.65-10,2.12-10.7,5.89-.14.78-4.45,16-5.55,8.61a46.07,46.07,0,0,0-1.13-5.61,28.43,28.43,0,0,0-.65-4.41c-.28-.93-1.52-1.52-3.44-1.89A8.06,8.06,0,0,0,63,64.64c-12.6-5-46.31-.75-52.7-7C2,49.45,3,21.47,9.32,11.48c4.88-7.74,63-7.2,73.14-7.17a.63.63,0,0,0,.62-.54Zm-47,58.82h0l2.19.06a5.54,5.54,0,0,0-1.33.73.64.64,0,0,0-.2.47l-1.72.09a8.9,8.9,0,0,0,1-1.34Zm30.26,4h0a1.71,1.71,0,0,1,1.05,1c.07.25.14.54.21.86-.13-.25-.27-.5-.43-.73a7.7,7.7,0,0,0-.83-1.08Zm3.22,12.61h0c.58,1.43,1.34,1.49,2.14.76-.08.25-.14.46-.17.61a1.77,1.77,0,0,1-2-1.31v-.06Zm7-10.61h0a3.59,3.59,0,0,1,1.78-2.37,20,20,0,0,0-1.89,2.9c0-.2.08-.37.11-.52Zm14.11-5.08h0a50.12,50.12,0,0,1-8.23,1.14,62.79,62.79,0,0,1,8.23-1.14ZM98,55.2h0c2.12-8.23,1.44-43.82-8.17-48.77L84.29,4.07a60.55,60.55,0,0,1,6.14,1.85,13.31,13.31,0,0,1,4,3.14,32.77,32.77,0,0,1,2.59,6.31c1.32,7.49,2.73,23.67,3.21,28.31.1.94.18,1.84.24,2.71-.42,6.1-1.67,11.21-3.95,13.86a40.52,40.52,0,0,0,1.43-5Zm2.69-14h0c-.56-4.33-1.33-8.43-1.61-11.56-.34-3.89-.57-7.29-.92-10.24a98.38,98.38,0,0,1,2.53,21.8Zm-69-38.41h0c12.26-2.32,30.76-1.4,45-1a.64.64,0,0,0,0,.17.64.64,0,0,0,.64.64l.84.16-.95-.06c-4.57-.27-9.73-.1-14.35,0,4.24.07,10.51-.22,16.53.42-15.89,0-66.06,0-71,7.89-2.28,3.65-3.88,9.54-4.61,16a61.66,61.66,0,0,1,2.3-13.5c4.45-8.12,9.07-7,19.27-8.28,14.93-1.85,27-2.1,41.62-3.07-14.89.42-26.75.83-41.68,2.59-2.93.35-5.42.51-7.58.75,5.3-1.29,11.2-2.12,14-2.65ZM7.91,9.59h0A4.85,4.85,0,0,1,8.54,9a13.54,13.54,0,0,0-1,1.11,5.62,5.62,0,0,1,.36-.49ZM2.82,48.13h0c-2.9-10.44-3-19.34.82-29.37C1.83,29,1.8,43.94,4.71,53.13a27.59,27.59,0,0,1-1.89-5ZM32.49,64.89h0c5.83-.21,11.82-.69,17.4-.3,1.73.12,3.41.15,5,.19-6.55,0-14.69.37-22.41.12ZM70.4,82.66h0a4.54,4.54,0,0,1-.57-1.77,2.5,2.5,0,0,0,1.52.43,3.17,3.17,0,0,1-1,1.34ZM82,66.11h0a7.15,7.15,0,0,0-4.9,3.15c1-1.83,2-3.2,2.7-3.46,2.4-.85,7.14-.37,12.24-2a15.08,15.08,0,0,0,1.48-.56,4.57,4.57,0,0,0,1-.25c2.82-1.26,4.72-4.39,5.89-8.59C99.4,62.8,94.21,65.1,82,66.11Z"/></svg>