<svg id="s" xmlns="http://www.w3.org/2000/svg" viewBox="0 0 101.1 129.78"><defs><style>.cls-1{fill:#452400;fill-rule:evenodd;}</style></defs><title>cook</title><path class="cls-1" d="M37.35,18c-.37-.67.18-1.1.39-1.57a16.45,16.45,0,0,0-.26-4.85c-.21-.71-1.73-2.5-.39-2.75.59-.11,1.5,1.69,1.7,2.36C39.5,13.6,39.66,18.39,37.35,18Z"/><path class="cls-1" d="M59,11.24c.78,1.79-.44,3.71-1.18,4.84A1.1,1.1,0,0,1,57,16c-.11-1.6,1-3.05,1.31-4.71Z"/><path class="cls-1" d="M42.2,11.77a13.44,13.44,0,0,1,.65,5c-.15,0-.23,0-.26.13-1.48-.56-1.56-3.75-1-5.1Z"/><path class="cls-1" d="M46.78,13.21c.22,1.25.19,3.32-1.31,3.27C45.11,15.65,45.35,12.68,46.78,13.21Z"/><path class="cls-1" d="M31.33,15.82c.23,1,.44,3-1,3C29.85,18.08,29.91,15.15,31.33,15.82Z"/><path class="cls-1" d="M58.43,21.06a4.33,4.33,0,0,1-4.06,2c0-.15,0-.23-.13-.26C54.89,21.64,57.08,20.2,58.43,21.06Z"/><path class="cls-1" d="M63.14,21.32c-.12,1.07-1.41,1.41-2.23,1.83-1.75.9-3.44,1.8-5.24,2.75-.78.41-1.72,1.28-2.62.79-.17-1,1-1.53,1.83-2,2.23-1.18,5.23-2.67,7.2-3.8C62.24,20.85,63,20.81,63.14,21.32Z"/><path class="cls-1" d="M64.19,23.16c-.42,1.14-1.78,1.59-2.75,2.22-2,1.3-3.91,2.59-6,3.93-.88.56-1.95,1.85-3.14,1.18.14-1,1.43-1.76,2.36-2.36s1.94-1.12,2.88-1.7c2-1.26,3.91-2.9,5.63-3.66C63.32,22.68,64,22.66,64.19,23.16Z"/><path class="cls-1" d="M64.71,25.9c-.15,1.47-1.86,2.11-3,2.75C59.24,30,56.65,31,54.11,32.32c-1.17.63-2.45,1.81-3.8,1.31.15-1.35,1.85-1.83,2.88-2.36,3.33-1.71,7.83-3.36,10.6-5.63A1,1,0,0,1,64.71,25.9Z"/><path class="cls-1" d="M64.19,33c.11,1.39-1.61,2-2.62,2.49-2.2,1.16-4.33,2.05-6.67,3.27-1,.53-2.3,1.86-3.4.79.4-1.11,1.8-1.36,2.75-1.83s2-.94,3-1.44a69.69,69.69,0,0,0,6.15-3.53C63.86,32.61,64,32.86,64.19,33Z"/><path class="cls-1" d="M56.59,54.84a14.15,14.15,0,0,1,4.06-.13c1,.18,2.85,1.26,2.88,2.23a1.56,1.56,0,0,1-.92,1.44c-1,.31-2.1-.79-2.75-.92a14.89,14.89,0,0,0-5.1.39c-1.65.3-4.5,1.22-4.58-.79-.06-1.57,1.43-1.33,2.75-1.57S55.35,55,56.59,54.84Z"/><path class="cls-1" d="M34.6,59.68c3.22-1,2.88,3.3.52,3.14C33.58,62.72,32.84,60.25,34.6,59.68Z"/><path class="cls-1" d="M54.63,59.95c3-.43,1.83,3.27,0,3.27A1.64,1.64,0,0,1,54.63,59.95Z"/><path class="cls-1" d="M53.45,86.13c-.48,1.72-2,3.63-3.66,3.27.31-1.78,2-2.18,2.75-3.54A1,1,0,0,1,53.45,86.13Z"/><path class="cls-1" d="M66.29,98.7c.06,1-1,1.56-1.57,2.09s-1.23,1.45-2.09,1.18c-.56-1.68,1.91-2.4,2.75-3.53A1,1,0,0,1,66.29,98.7Z"/><path class="cls-1" d="M70.47,101.18c-.49,1.42-2.09,2-3.27,2.75-2.33,1.53-4.63,3.16-7.07,4.72a10,10,0,0,1-3.8,1.83c-.32-1.56,1.6-2.15,2.62-2.75,3.46-2,7.24-4.63,10.47-6.94C70,100.74,70.38,100.79,70.47,101.18Z"/><path class="cls-1" d="M69.43,105.37c0,.86-1,1.11-1.57,1.44-2.87,1.7-6.17,3.58-9.16,5.5-1.17.75-2.12,2-3.54,2.1-.52-1.36,1.27-2.18,2.36-2.88s2.39-1.45,3.53-2.09C63.56,108,65.91,106,68,105.11,68.35,104.95,69.13,104.75,69.43,105.37Z"/><path class="cls-1" d="M30.15,116.5c.47,2.3-.53,5.17-1.31,7.59-.22.69-.55,1.94-1.18,1.83-1.3-.22.35-3.73.52-4.32a45.69,45.69,0,0,0,1-4.72c0-.17.23-.2.26-.39Z"/><path class="cls-1" d="M73.48,117.42c.26,1.34-.4,3-.78,4.45-.33,1.27-.16,3.52-1.83,3.54-.31-1,.17-2.43.52-3.8a19.88,19.88,0,0,1,1.31-4.32A1.08,1.08,0,0,1,73.48,117.42Z"/><path class="cls-1" d="M56.33,117.94c0,.93-.86,1.07-1.44,1.57s-1.29,1.43-2,2.1-1.3,1.76-2.36,1.44c-.19-1.35,1.16-2.21,2-3a36.23,36.23,0,0,1,2.75-2.49C55.81,117.5,56.25,117.55,56.33,117.94Z"/><path class="cls-1" d="M84.87,120.17c.7.74,0,2.26,0,3.4,0,.65.7.61.52,1.44-.58.55-1.42.07-1.7-.4S83.39,119.87,84.87,120.17Z"/><path class="cls-1" d="M47.3,5.87c1.12-.39,1.78-1.6,3-2.36C54.78.76,62,1.94,63.93,6.13c1.8-.88,3.9-2.3,6.81-1.7a6.59,6.59,0,0,1,4.32,4.71,9,9,0,0,1-7.2,10.34c-.2,7.61.76,14.84.26,21.86-.23,3.21-1.52,6.19-1.44,9.29s1.47,5.77,1,9.43c2.48.15,4.32,4.4,2.75,6.81-.7,1.08-2,1.12-3.27,1.57-.91,3.62-2.47,6.61-3.8,9.82,1.79.74,6.12.24,5.76-1.83-.18-1.06-1.78-.88-2-1.83a1.83,1.83,0,0,1,.66-1.7c1.54-.77,4,1.35,4.19,2.62a6.61,6.61,0,0,1-.66,3.4c-1.29,2.41-5,2.85-8.9,2.23-.94,1.89-3.32,2.36-5.37,3.14a24.44,24.44,0,0,0,.52,5c2.53,0,4.54,1.12,6.55,2,3,1.27,5.76,2,8.9,3.14,2.13.78,4.3,1.51,4.84,3.53A37,37,0,0,1,83,99a16.18,16.18,0,0,1,4.19,1.83c1.12.87,2.37,4.59,3,6a66.67,66.67,0,0,1,2.49,6.55c1.64,5,3.19,9.31,4.58,13.48,1.93-.39,4.65.18,3.54,2.1-.27.47-2.94.53-4.58.52-4.2,0-9.06,0-14-.39-3.68-.31-8,0-11.39-.26-2.64-.22-5.54,0-8.38,0-5.51,0-10.1,0-15.45.39-1.53.1-3,.47-4.45.53a136.78,136.78,0,0,1-14.14-.39c-2.82-.2-5.67-.33-8.51-.53-6-.42-11.79-.12-16.63-.52-1.73-.14-3,.31-3.27-.91-.55-2.89,5.15-1,6.15-1.44.14-8.37.83-16.19.91-24.61.41-.47,1.07-.68,1.44-1.18,5-.31,8.74-1.91,13.22-2.75.84-2.72,3.29-4.15,5.89-5.76A27.91,27.91,0,0,1,37,87.57V85.08c-1.75-1.74-3.07-3.91-4.71-5.76-4.53,1.65-11.86.31-10.74-4.71.24-1.07,2.06-2.35,3.4-2.36s2.69,1.16,2.49,2.36c-.23,1.41-2,.9-3,.79.52,2.16,3.66,1.72,5.76,1.31-.82-2.5-1.92-4.71-2.88-7.07a4.36,4.36,0,0,1-2-.39c-1.47-.73-3.3-3.59-3.54-5-.39-2.33.47-4.83,2.62-5.24-.22-3.13.73-7.45-1.18-8.9.15-5.07-1.32-11.28-1.7-16.5-.11-1.55,0-3.5-.13-5.37-.11-1.65,0-4.08-.52-5s-1.91-1.18-2.49-1.7c-2.64-2.37-5.27-8.45-4.06-13.88a8.49,8.49,0,0,1,5.5-5.76c4.64-1.13,6.35,2.63,8.9,4.58C31.62,4,34.56-.78,40.49.11,43.74.6,45.93,3.17,47.3,5.87ZM70.08,7.31a5.42,5.42,0,0,0-5.24,2c-.54.7-.81,2-2.09,1.83-1.51-.18-.94-1.86-1.18-3-.4-1.91-3-3.12-4.06-3.27-4.52-.65-6.94,1.9-8.64,4.06-.49.63-1.15,1.7-1.7,1.83-2.33.55-1.87-2.08-2.23-3.41-.68-2.56-4.54-5.46-7.85-4.19-2.32.89-4.55,3.53-6.16,5.37.57,2.62-1,4.2-2.49,3-.4-.32-.75-1.45-1.18-2.09a16.71,16.71,0,0,0-5.11-4.72c-7.87-.22-5.6,12.71-1.44,14.93A26.33,26.33,0,0,1,20.59,14c.07-.79,0-2.45,1.31-2.49.68,1.06-.07,2.81-.13,4.32-.07,1.76,0,4.38,1.44,5.11.5-1.11.1-2.26.13-3.67,0-1.25.09-3.47,1-3.93,1.17.81.34,2.35.26,3.4-.11,1.49.15,2.42.13,3.8.31,0,.38-.23.78-.13.24-1.61-.71-4.27.92-5.23,1.24,1-.21,3.33.52,4.84.54.11.67-.2,1.18-.13-.37-1.24-.37-4.34.66-4.19,1.45.21-.05,3.2.39,4.06a31.25,31.25,0,0,1,5.1-.79c0-.92-.83-4.55.92-4.58.85,1.23-.15,3.33.13,4.45,1.4-.26,2.71-.61,4.19-.79.35-.39-.49-.38-.26-1,.66-2-.39-4.67,1-5.5.61,0,.59.78.66,1.18.22,1.4-.37,3.58-.66,5.11,3.41-.43,6.45-1.23,10.47-1,0-.44-.58-.21-.39-.79.19-.83.51-2,.65-3.14.1-.75-.21-2,.79-2.1,1.41,1.25-.12,4.84-.39,6,.1-.3.73-.05,1-.13-.06-1,.65-1.8.91-2.88.33-1.3-.19-3.17,1-3.8,1.48,1.42-.21,4.92-.65,6.55.36-.08,1,.16,1.18-.13-.29,0-.05-.55-.13-.78a8.72,8.72,0,0,0,1-2.75c.2-.9-.1-2.36.92-2.62,1.55,1.44-.29,4.76-.78,6.28,2.17.11,4.07.47,6.15.66.48-1.7.15-4.21,2.23-4.32,0,.18.22.22.26.39-.42,1.27-1.69,3.09-.39,4.19.75-1.83.55-4.6,2.36-5.37,1.21,1.57-1.81,4.13-.53,5.76,1-1.25.87-3.67,2.62-4.19,1.19.76-.68,2-.26,2.75C71.72,16,74.24,8.23,70.08,7.31ZM57,19.36c-8-.5-14.22,1.11-20.69,2.09a116.8,116.8,0,0,0-12.44,2.23c.21,8.48,1.57,15.8,2,24.09.67.67,1.57.31,2.49.26,1.18-.07,2.51.1,3.8,0,7.55-.61,17.9-1.07,24.61.26.23-.16-.11-.77.39-.91,1.06-.47,2.11-.41,3.4-.92.76-.3,3.16-2.07,3.4-.66.16,1-2,1.29-2.62,1.57-1.17.5-2.17.74-3,1.18a13.38,13.38,0,0,0,2.75.26c.84-.33.86-1.5,2.1-1.44,1,.64-.71,1.62-.13,1.83,1.77-.59,1-4.26,1.83-5.89-1.51.67-2.53,1.44-4.32,2.23-.62.27-4.61,2-4.84.66-.18-1.07,2.05-1,2.36-1,2.17-.57,4.31-2.19,6.15-3,.55-.15.51.28.92.26A10,10,0,0,0,65.24,40a43.12,43.12,0,0,1-5.37,2.75c-.68.32-5.24,3-5.5,1.57-.15-.83,1.66-1.19,2.22-1.44,2.67-1.17,5.38-2.55,7.59-3.8.26-.26.75-.08,1,0-.09-.61.17-1.57-.13-2-2.64,1.51-5.89,3.15-8.64,4.58-.79.41-2.33,1.48-3,.13.28-.85,1.22-.65,1.83-.91,1.69-.72,3.31-1.91,5-2.75a29.46,29.46,0,0,0,5-2.75,47.48,47.48,0,0,0-.13-5.5C62.34,32,58,34.06,54.5,35.85c-.83.42-3,2.06-3.8.52.52-.77,1.57-1,2.36-1.31a48.38,48.38,0,0,0,11.39-6.55c.37-.18.71.4.66-.13V20.54A65.45,65.45,0,0,0,57,19.36Zm-4.32,31a62.4,62.4,0,0,0-6.42,0c-6.85,0-12.95.38-19.11.65C26.15,60,29,66.3,31.33,72a12.75,12.75,0,0,0,2,3.93c3.33-.89,10.26-7.43,12.7-1.7,0-.94,1.63-1.57,1.31-2a20,20,0,0,1-4.45-.92C40,68.5,44.2,66,44.42,63.22c.1-1.25-.61-2.14-.66-3.66-1.79-1.36-4.71-1.49-8.38-1.18-1.91.16-6,1.62-5.89-.92.06-1.34,1.25-1.15,2.62-1.31,4.8-.56,11.45-1.45,13.88,1.7.69.9,1.44,4.72,1.31,5.89-.24,2.11-1.77,3.1-2.49,5.23,1.19.29,2.62.35,3.79.66a1.5,1.5,0,0,1,2.75.52c.13,1.05-.85,1.75-1,2.36,4.42.6,6.19,3.85,10.08,5,3.92-5.4,5.76-16.46,3.54-25.27C60.22,52.13,56.46,50.81,52.67,50.39Zm-27,14.93c-.44-.83-.4-2.14-.92-2.88C24.17,63.56,25.22,65,25.7,65.31Zm41.76.13c1,0,.78-2.15,0-2.23ZM45.34,76.31a2.43,2.43,0,0,0,1-.13,4.07,4.07,0,0,0-.53-1.31C45.84,75.5,45.37,75.69,45.34,76.31ZM35.26,78.53c3.91,5,16.86,5.09,23.17,2.1a17.62,17.62,0,0,0-5.76-2.88c-1.19-.41-2.47-1.06-3.53-.79-.29.51-.18,1.24-.92,1.7-1.75,1.1-7.32,1-6.28-1.83C39.37,76.57,37.19,77.75,35.26,78.53Zm13.35,26.71c2-1.81,4.44-3.81,5.89-5.1.17-.18.57-.13.92-.13.13-.84.81-1.81.66-2.49-3.41,3.26-6.27,7.09-11.13,8.9-1-1.19.77-1.45,1.57-2,3-1.89,7-6.28,9.29-8.64.58-.31.83.78.92.13.67-.73-.38-1.27-.66-1.83-3.07,2.65-5.84,5.6-9.82,7.33-.11-.23-.31-.38-.39-.66,3.19-2.83,7-5,9.82-8.25-.17-.92-.4-1.78-.52-2.75C54,91,52.69,92.19,51.49,93.33c-.62.59-1.45,1.75-2.36,1.18.15-1.69,1.75-2.48,2.75-3.4s2-2,3-3.14c-.34-.88-.39-2.06-.66-3-4.72.69-10.59.81-14.66-.52-.06,3.64.11,6.67-.39,9.42-.07.41-.4.86-.39,1.31,0,1.15,1.12,2.54,1.7,3.66a90.08,90.08,0,0,0,6,10.34c.46-.42,1.36-1.08,1.31-1.57C45.87,107.57,48,105.82,48.61,105.24ZM24.52,97.38a16.45,16.45,0,0,0,1.18,2c2.39,4.9,3.84,10.78,7.46,14.53,1.59-.41,2.58-1.43,4.72-1.31,1.6,1.56,1.88,5.77,1.31,8.64,1.71,1.66,2.67,4,4.32,5.76.53.3,1.61,0,2.36.13.7-2.92,1.33-5.92,2.23-8.64a6.38,6.38,0,0,1-1.44-2.22,43.19,43.19,0,0,0-2.49-5.63c-2-3.56-4.07-6.72-6-10.47-.81-1.56-2.45-4.44-2.22-6,.07-.54.63-.81.79-1.31.29-1-.12-1.78.26-2.61H36.7A32.61,32.61,0,0,0,24.52,97.38Zm35-1c-1.7,6.08-5.08,12-7.33,18.2a59.4,59.4,0,0,0-3.4,12.31c1,0,1-.42,1-1.18,2.27-2.88,5.54-4.75,8.77-6.68-.24-1.83-2.35-2.85-1.7-4.85.42-1.27,2.24-.74,3.8-1.18,2.44-.69,5.94-5.56,8.64-4.71,1.51-3.64,3.28-7,5-10.48C69.41,95.57,63.82,94.09,59,91.89A7.24,7.24,0,0,1,59.48,96.34Zm-34.82,7.2c-.42-1-1.38-3.86-2.1-3.66-3.79,1.07-8,1.87-12.17,2.75,2.46,7.05,5.45,14.67,5.37,23.43h2.88a41.25,41.25,0,0,1,1-5.76c.12-.68-.32-2,.92-2,.62.4.45,1.38.39,2-.17,1.84-1.06,3.94-1,5.89a6.36,6.36,0,0,0,2,.13c.28-.17-.44-.43-.26-.92,1.06-2.82,1.09-6.69,2.75-8.91,1,.5.75-.27,1.83-.26,1,3.15-.67,7.11-1.18,10.34,2.73-.11,4.79.44,7.59.26.66-2.55,1.38-5.29,2-8,.17-.77.08-2.11,1-2.36.8.17.56,1.21.52,1.7-.09,1.42-1.08,3.15-.78,4.32.31-1.22.57-2.49,1.57-3a12.55,12.55,0,0,0-.52-4.06c-1.16.2-1.78.93-3,1-.37,2.52-1.29,5.3-1.7,7.59-.14.77.09,2-.92,2.23,0-.15-.21-.14-.39-.13-.35-3.62,1.42-6.26,1.57-9.82C28.68,113.57,26.56,108.16,24.65,103.54ZM76,100.14c-2.38,4.82-4.92,9.48-6.15,15.45-2.58.71-6.17-.63-9.82-.13.47,2,1.9,4.11,2.62,6.28.3.24,1.2-.29,1.31.39-.14,1.56-.77,2.63-.92,4.19h1.18c.27-1.3.6-2.89.92-4.32s.29-3.22,1.57-3.67c.87,1.07,0,2.6-.26,3.8a40.28,40.28,0,0,0-.78,4.19h2.22c.14-2.27,1.06-4.41,1.31-6.68,0-.46-.24-2.43.78-2.36s.49,3.49.26,4.58c-.34,1.62-1,3-1.18,4.45a22.43,22.43,0,0,1,4.45.26,56.72,56.72,0,0,1,1.7-8.51c.16-.74,0-2.12,1-2.36,1.06.48.42,1.73.26,2.49-.57,2.81-1.41,5.61-1.83,8.38H76.1c0-1.8.9-3.59,1.31-5.37s.11-4.2,1.83-5c.75.59.18,1.72,0,2.48-.61,2.62-1.42,5.62-1.83,7.86,1.75-.37,1.36-2.78,1.7-4.45.31-1.52.72-3.89,2-4.32.81.77,0,2.07-.26,3.14-.52,2-.8,4.14-1,5.63,1.9.14,1.79-2.63,2.09-3.93.4-1.71.34-3.86,1.83-4.32.81.76,0,2.09-.26,3.14-.46,1.86-.82,3.85-1,5.11a23.32,23.32,0,0,0,3.93.26,93.67,93.67,0,0,1-1.18-24.09C82.73,101.24,79.29,100.75,76,100.14ZM49.66,106c-.65.68-.35.57.13.26,1.39-.89,2.47-2.22,3.66-3a.85.85,0,0,1,.66-.13c0-.46.55-1,.26-1.31C52.93,103.73,51,104.61,49.66,106Zm2.1.52c.49-.14.37.33.79.26.1-.52.81-1.1.52-1.57C52.74,105.8,52,106,51.75,106.55Zm-4.45,4.06a24.09,24.09,0,0,0,3.27-3.4C49.48,108.25,47.77,109.38,47.3,110.61Zm40.19.39c.36-.38.49-1,1.18-1a9.45,9.45,0,0,0-1.31-2.75C87.45,108.43,87.19,110,87.49,111ZM9.07,115.45c.71-.39.65-1.54,1.44-1.83.49-.27.77.61.78,0-.68-1.94-1-4.19-2-5.89A52,52,0,0,1,9.07,115.45ZM50.83,109c.86.68-.58,1.55-.13,1.7A5.76,5.76,0,0,0,51.88,108,4.74,4.74,0,0,1,50.83,109ZM63.27,113H65c0-.46.09-.78.39-.91,1.51-.07,1.48-1.66,3.14-1.57,0-.33.7-1.11.13-1.18A26,26,0,0,0,63.27,113Zm24.22,1.83c.91-.31.7-1.75,2-1.7,1.18,1.57-1.87,2.78-1.57,4.32a26.19,26.19,0,0,1,2.49-3c-.52-1-.67-2.38-1.31-3.28C88.44,112.26,87.26,112.82,87.49,114.8Zm-20.56-1.7c.4-.09.48.14.79.13.11-.29.44-1,.26-1.18C67.69,112.45,67.08,112.55,66.94,113.1Zm-18.46.39c.15.37.18.87.52,1-.45-.64.24-1.58.13-1.83C49.08,113.14,48.44,113,48.48,113.49ZM8.81,120a38.9,38.9,0,0,0,3.27-3c-.4-.82-.18-2.26-.79-2.88C10.87,116.51,8.76,117.19,8.81,120Zm79.07,1.31c1.26-.71,1.4-2.53,3.14-2.75.19.11.42.19.39.52-.41,1.38-1.92,1.66-2.09,3.27a10.36,10.36,0,0,0,2.49-3.15c-.49-1-.53-2.43-1.18-3.27C89.75,117.8,87.63,118.38,87.89,121.34Zm-64.68,3.8c-.11.35-.77,1-.39,1.18h.78c.6-2.65,2-5.85,1.44-8.77C24.19,119.74,23.87,123,23.21,125.14ZM10.51,123c1.37-1.37,3.45-2.12,1.7-4.32-1.47,1.71-3.8,2.57-3.4,6.15C9.5,124.79,9.7,123.86,10.51,123Zm48.7-2.75a23,23,0,0,0-8.38,6.29H52c2-2.39,5.3-3.51,7.46-5.76A.58.58,0,0,1,59.21,120.3ZM90,124.22c.94-.89,1.37-2.29,2.88-2.61a1.07,1.07,0,0,1-.26-.79A15.32,15.32,0,0,0,90,124.22Zm2.62-.92a.7.7,0,0,1,.52,1c.87.08.51,1,.92,1.31a7.08,7.08,0,0,0-1-3.27C93,122.86,92.6,122.87,92.6,123.31Zm-55.51,3.8h1c.16-1.92.43-3.9-1.44-4.58C38,123.37,37.48,125.57,37.09,127.1Zm-2.88-.78a5.55,5.55,0,0,0,.92-3.67C35,124,34.22,124.8,34.21,126.32Zm53.94-3.53c0,.39.07.79.39.91.1-.3.81-.66.52-.91C89,123.06,88.26,122.91,88.15,122.79ZM9.86,126.06c1.7-.06,1.35-2.82,3.14-2.36a1.07,1.07,0,0,0-.26-.79A16,16,0,0,0,9.86,126.06Zm47.92.26h3.79a17.36,17.36,0,0,1,.53-2A8.57,8.57,0,0,0,57.77,126.32Zm-45.56-.26H13c-.22-.49.43-1.18-.13-1.18C12.79,125.42,12.17,125.4,12.21,126.06Zm27.1,1h.92a2.15,2.15,0,0,0-.78-1C39.55,126.55,39.28,126.68,39.31,127.1Z"/></svg>