<svg id="Layer_1" data-name="Layer 1" xmlns="http://www.w3.org/2000/svg" viewBox="0 0 101.26 93.77"><defs><style>.cls-1{fill:#464646;}</style></defs><title>gift_card</title><path class="cls-1" d="M.47,22.79c1.22,0,2.43,0,3.65-.05a17.62,17.62,0,0,1,1.87,4c0,.22,0,.43,0,.65s.08.18.2.23c0,.21.09.42.12.64.09.62,1.89.2,1.79-.48a11,11,0,0,0-.34-1.51c0-.08,0-.16,0-.25.32-.11.58-.31.58-.55a21.12,21.12,0,0,1,.28-2.87c.94-.16,1.88-.38,2.83-.55.13,0,1.51-.52.9-.68A23.37,23.37,0,0,0,9,20.76c-.54-1.29-1-2.63-1.45-3.94,0-.71-.1-1.42-.19-2.13s-1.89-.33-1.79.48c0,.27,0,.53.07.8-.37.1-.69.31-.7.57-.08,1.49-.2,3-.23,4.48A25.63,25.63,0,0,1,1,22C.55,22.12-.66,22.8.47,22.79Zm4.32-1.13a.62.62,0,0,0,0,.1,1.7,1.7,0,0,0-.46.2H3.85Z"/><path class="cls-1" d="M101.2,88c0-.09-.08-.17-.24-.19-1.1-.17-2.23,0-3.31-.3a19.75,19.75,0,0,1-1-5.45c0-.14-.23-.15-.44-.1s-.49.12-.49.24,0,.53,0,.8a.3.3,0,0,0-.16.18,21.65,21.65,0,0,0-.3,4.53l-.67.36a23.67,23.67,0,0,1-3.32.9.62.62,0,0,0-.21.09c-.25.06-.68.31-.29.43a20.36,20.36,0,0,0,3.88.57c.41.88.89,1.73,1.3,2.61,0,.13.06.27.1.4s.05,0,.1.05c.08.19.17.38.25.57s.87,0,.79-.21l0-.08c.15,0,.28-.09.31-.17a16.43,16.43,0,0,0,.47-3.49A18.31,18.31,0,0,0,101,88.28a.38.38,0,0,0,.18-.2C101.27,88,101.29,88,101.2,88Zm-6,1.62c-.77-.08-1.55-.14-2.32-.24l2.63-.07,0,.12c0,.08,0,.16,0,.23l-.29,0Zm-.35-1a3.2,3.2,0,0,0,.57.23v0l-1.61,0c.32-.12.63-.26.94-.41A.18.18,0,0,0,94.81,88.56Zm1.49.65A.63.63,0,0,0,96.6,89h0q0,.46-.07.92C96.45,89.66,96.37,89.44,96.3,89.21Zm.57-1.41h0s0-.07,0-.11l0,.07Zm1.19.58,1.24,0c-.44.15-.87.33-1.31.52C98,88.69,98,88.54,98.07,88.38ZM96.8,92.57l.06,0,0,.12ZM98,89.15c.46-.21.91-.43,1.38-.6a8.16,8.16,0,0,1-1.38.62Z"/><path class="cls-1" d="M78,7.35c0-.11-.09-.2-.28-.23-1.33-.2-2.7-.05-4-.37A23.9,23.9,0,0,1,72.49.15C72.48,0,72.21,0,72,0s-.6.14-.59.29c0,.32,0,.65,0,1a.36.36,0,0,0-.19.22A26.21,26.21,0,0,0,70.83,7L70,7.43a28.64,28.64,0,0,1-4,1.09.75.75,0,0,0-.25.11c-.31.08-.83.37-.36.52a24.64,24.64,0,0,0,4.69.69c.5,1.07,1.07,2.1,1.58,3.16,0,.16.07.32.12.48s.06.06.12.06c.1.23.21.46.3.7s1.06,0,1-.26l0-.09c.18,0,.34-.11.37-.2a19.89,19.89,0,0,0,.57-4.22,22.16,22.16,0,0,0,3.72-1.74A.45.45,0,0,0,78,7.47C78.1,7.41,78.13,7.36,78,7.35Zm-7.31,2c-.94-.1-1.88-.16-2.8-.29l3.19-.09,0,.14c0,.09,0,.19,0,.28l-.35,0ZM70.29,8a3.87,3.87,0,0,0,.7.28s0,0,0,.05l-2,.05c.39-.15.76-.32,1.14-.5A.22.22,0,0,0,70.29,8Zm1.81.79a.77.77,0,0,0,.36-.3h0q0,.56-.09,1.12C72.27,9.38,72.17,9.11,72.1,8.83Zm.7-1.71h0s0-.09,0-.13l0,.08Zm1.44.7,1.51-.05c-.54.18-1.06.39-1.58.62C74.18,8.21,74.2,8,74.23,7.82ZM72.7,12.9l.08,0,0,.14Zm1.42-4.13c.55-.26,1.1-.52,1.67-.72a9.87,9.87,0,0,1-1.67.75Z"/><path class="cls-1" d="M17.6,21.74c.93-1.44,2.56-1.75,4.1-2.2.33-.1,1-.39.85-.85s-.83-.41-1.16-.31C19.21,19,17,19.6,15.7,21.62,15.15,22.47,17.2,22.36,17.6,21.74Z"/><path class="cls-1" d="M22.95,19.45c22.12,0,44.25-.18,66.37-.18a2.07,2.07,0,0,0,.9-.31c-.07.23.08.43.59.46,3.45.21,5.83,2,6.07,5.61.05.78,2.07.33,2-.54-.28-4.15-3.46-6.12-7.35-6.36a1.48,1.48,0,0,0-.89.3c0-.09-.2-.14-.52-.14-22.12,0-44.25.18-66.37.18C23.13,18.46,21.59,19.45,22.95,19.45Z"/><path class="cls-1" d="M93.3,74.33a2.46,2.46,0,0,0,1.14-.56,1.18,1.18,0,0,0,1.17.12C100,72,101,67.61,101.26,63.23c0-.58-.54-.76-1.09-.66,0-.08,0-.17,0-.25.47-.11.92-.32.92-.6,0-11.87-.91-23.71-1.81-35.55,0-.4-2.06,0-2,.54l.06.78c-.5.12-1,.35-1,.63C97.21,39.39,98,50.66,98.14,62a.68.68,0,0,0-.18.39C97.77,66,97.2,70,93.45,71.66c-.41.18-.55.42-.54.65Z"/><path class="cls-1" d="M17.7,30.85c-.13-3.76,0-3.34-.17-7.09,0-.73-2-.28-2,.54,0,3.69.08,2.46.17,7.09C15.7,32.14,17.73,31.67,17.7,30.85Z"/><path class="cls-1" d="M31.09,24.2a3.79,3.79,0,0,0-1-.84c-.13-.08-.55.13-.47.18a3.8,3.8,0,0,1,1,.84C30.69,24.48,31.17,24.31,31.09,24.2Z"/><path class="cls-1" d="M30.26,25.14a8.18,8.18,0,0,0-1.78-2c-.11-.09-.56.1-.47.18a8,8,0,0,1,1.75,1.91C29.84,25.41,30.31,25.22,30.26,25.14Z"/><path class="cls-1" d="M29.65,25.94A35.62,35.62,0,0,0,27,22.5c-.15-.18-.63,0-.46.23a35.67,35.67,0,0,1,2.69,3.44C29.32,26.36,29.8,26.16,29.65,25.94Z"/><path class="cls-1" d="M25.16,22.45a35.82,35.82,0,0,1,3,4.67c.08.17.57,0,.5-.14a36.13,36.13,0,0,0-3-4.73C25.54,22.12,25,22.29,25.16,22.45Z"/><path class="cls-1" d="M23.91,22.89c1.54,2,2.92,4.09,4.28,6.21.12.19.6,0,.46-.22-1.36-2.12-2.74-4.22-4.28-6.21C24.23,22.49,23.75,22.69,23.91,22.89Z"/><path class="cls-1" d="M23.13,24.19c1,1.65,2,3.34,3.11,5,.09.13.55-.07.5-.14-1.09-1.61-2.07-3.3-3.1-5C23.55,23.92,23.08,24.11,23.13,24.19Z"/><path class="cls-1" d="M22.71,25.7a28.79,28.79,0,0,0,2.52,3.86c.09.15.57,0,.5-.14a28.94,28.94,0,0,1-2.52-3.86C23.15,25.41,22.66,25.57,22.71,25.7Z"/><path class="cls-1" d="M24.47,29.76c-.66-1-1.32-2-1.93-3-.07-.13-.55.06-.5.14.61,1,1.27,2,1.93,3C24.05,30,24.51,29.82,24.47,29.76Z"/><path class="cls-1" d="M21.45,28.3c.33.57.66,1.15,1,1.7.08.12.57,0,.47-.19-.35-.54-.67-1.09-1-1.65C21.87,28,21.39,28.19,21.45,28.3Z"/><path class="cls-1" d="M87.82,23c-.57.63-1.27,1.13-1.85,1.76-.11.13-.59-.06-.47-.19.57-.63,1.27-1.13,1.85-1.76C87.46,22.64,87.94,22.82,87.82,23Z"/><path class="cls-1" d="M89.24,23.06c-.83,1.07-1.77,2-2.6,3.1-.14.18-.62,0-.46-.22.83-1.07,1.77-2,2.6-3.11C88.92,22.65,89.4,22.86,89.24,23.06Z"/><path class="cls-1" d="M91.19,22.85a24.18,24.18,0,0,1-4.13,4.81c-.11.1-.58-.09-.47-.19a23.88,23.88,0,0,0,4.1-4.76C90.78,22.57,91.25,22.76,91.19,22.85Z"/><path class="cls-1" d="M93.52,22.63c-1.72,2.18-3.92,4-5.45,6.29-.1.16-.59,0-.47-.21,1.53-2.34,3.73-4.11,5.45-6.29C93.17,22.28,93.66,22.46,93.52,22.63Z"/><path class="cls-1" d="M88.94,29.57c1-1.39,2.41-2.46,3.34-3.92.09-.15.56,0,.5.13-.94,1.48-2.34,2.56-3.37,4C89.33,29.87,88.84,29.71,88.94,29.57Z"/><path class="cls-1" d="M92.35,28.59c-.59.75-1.26,1.43-1.85,2.18-.1.13-.59,0-.47-.2.59-.75,1.26-1.43,1.85-2.18C92,28.26,92.47,28.43,92.35,28.59Z"/><path class="cls-1" d="M9.36,84.07c-2-15.18.32-30.49-1.21-45.7-.07-.73-2.1-.28-2,.54,1.53,15.21-.78,30.52,1.21,45.7C7.44,85.35,9.46,84.88,9.36,84.07Z"/><path class="cls-1" d="M8.21,36.35c.93-1.44,2.56-1.75,4.1-2.2.33-.1,1-.39.85-.85S12.33,32.89,12,33c-2.18.64-4.38,1.22-5.69,3.24C5.76,37.08,7.8,37,8.21,36.35Z"/><path class="cls-1" d="M13.56,34.06c22.12,0,44.25-.18,66.37-.18a2.07,2.07,0,0,0,.9-.31c-.07.23.08.43.59.46,3.45.21,5.83,2,6.07,5.61.05.78,2.07.33,2-.54-.28-4.15-3.46-6.12-7.35-6.36a1.48,1.48,0,0,0-.89.3c0-.09-.2-.14-.52-.14-22.12,0-44.25.18-66.37.18C13.73,33.07,12.2,34.06,13.56,34.06Z"/><path class="cls-1" d="M90.77,77.17c0-.08,0-.17,0-.25.47-.11.92-.32.92-.6,0-11.87-.91-23.71-1.81-35.55,0-.4-2.06,0-2,.54l.06.78c-.5.12-1,.35-1,.63.87,11.28,1.67,22.55,1.79,33.86a.68.68,0,0,0-.18.39c-.19,3.65-.76,7.66-4.51,9.29-.41.18-.55.42-.54.65h0c-21.72,1.74-43.52,1.49-65.29,2.36a2,2,0,0,0-.84.31.8.8,0,0,0-.48-.16c-2.94-.18-5.56-.65-7.41-3.16-.54-.73-2.46,0-1.85.88,2.1,2.86,5.19,3.52,8.55,3.73a1.45,1.45,0,0,0,1.15-.58h.06c21.76-.87,43.56-.61,65.29-2.36a2.47,2.47,0,0,0,1.14-.56,1.18,1.18,0,0,0,1.14.13.51.51,0,0,0-.16.4h0c-21,1.68-42,1.51-63,2.28a1.27,1.27,0,0,0-.22,0,1.21,1.21,0,0,0-.32,0l-1.75.06c-.67,0-2.17,1.08-.82,1l1.59-.05h.17l.15,0a.81.81,0,0,0,.78.35,1.09,1.09,0,0,0,.88-.41c20.57-.71,41.18-.59,61.71-2.24A2.46,2.46,0,0,0,85,88.38a1.18,1.18,0,0,0,1.17.12c4.38-1.9,5.42-6.28,5.65-10.66C91.89,77.26,91.32,77.08,90.77,77.17Z"/><path class="cls-1" d="M14.22,86.47c-.57-.63-1.27-1.13-1.85-1.76-.11-.13-.59.06-.47.19.57.63,1.27,1.13,1.85,1.76C13.86,86.79,14.34,86.6,14.22,86.47Z"/><path class="cls-1" d="M15.64,86.37c-.83-1.07-1.77-2-2.6-3.1-.14-.18-.62,0-.46.22.83,1.07,1.77,2,2.6,3.11C15.32,86.77,15.8,86.57,15.64,86.37Z"/><path class="cls-1" d="M17.59,86.58a24.18,24.18,0,0,0-4.13-4.81c-.11-.1-.58.09-.47.19a23.88,23.88,0,0,1,4.1,4.76C17.18,86.86,17.65,86.67,17.59,86.58Z"/><path class="cls-1" d="M19.92,86.8c-1.72-2.18-3.92-4-5.45-6.29-.1-.16-.59,0-.47.21C15.53,83,17.73,84.82,19.46,87,19.58,87.15,20.06,87,19.92,86.8Z"/><path class="cls-1" d="M15.34,79.86c1,1.39,2.41,2.46,3.34,3.92.09.15.56,0,.5-.13-.94-1.48-2.34-2.56-3.37-4C15.73,79.56,15.24,79.72,15.34,79.86Z"/><path class="cls-1" d="M18.75,80.84c-.59-.75-1.26-1.43-1.85-2.18-.1-.13-.59,0-.47.2.59.75,1.26,1.43,1.85,2.18C18.39,81.17,18.87,81,18.75,80.84Z"/><path class="cls-1" d="M10.73,68.88a13.34,13.34,0,0,0,1.8,1.88c.15.12.61-.1.4-.27a13,13,0,0,1-1.73-1.82C11.06,68.52,10.58,68.71,10.73,68.88Z"/><path class="cls-1" d="M11.3,68.17a23.21,23.21,0,0,0,1.78,2.2c.08.09.55-.09.47-.17A23.2,23.2,0,0,1,11.8,68C11.72,67.91,11.26,68.11,11.3,68.17Z"/><path class="cls-1" d="M11.48,66.19c.86,1.28,1.82,2.48,2.77,3.69.11.14.6,0,.47-.2-1-1.21-1.91-2.42-2.77-3.69C11.85,65.84,11.36,66,11.48,66.19Z"/><path class="cls-1" d="M12.14,65.15c.87,1.66,2.27,2.92,3.29,4.48.09.13.58,0,.47-.19-1-1.54-2.4-2.78-3.26-4.42C12.56,64.85,12.07,65,12.14,65.15Z"/><path class="cls-1" d="M13.23,64.56a37.38,37.38,0,0,0,2.62,3.38c.09.1.56-.08.47-.18a37.16,37.16,0,0,1-2.59-3.33C13.64,64.29,13.18,64.49,13.23,64.56Z"/><path class="cls-1" d="M14.26,64a18.73,18.73,0,0,0,2.13,2.38c.17.15.61-.1.39-.29a18,18,0,0,1-2.06-2.32C14.58,63.61,14.1,63.81,14.26,64Z"/><path class="cls-1" d="M16.77,65.76c.11.13.59,0,.47-.19a1.68,1.68,0,0,0-.34-.34c-.14-.1-.6.1-.47.19A1.68,1.68,0,0,1,16.77,65.76Z"/><path class="cls-1" d="M15.42,45.38c1,1.06,2,2.22,3,3.27.15.15.62,0,.46-.21-1-1.06-2-2.22-3-3.27C15.74,45,15.26,45.22,15.42,45.38Z"/><path class="cls-1" d="M16.91,43.08c.82,1.58,2,3,2.77,4.53.05.1.21.1.33.06.46.76.93,1.52,1.43,2.25s1.11,1.77,2,2.08c.23.08.59-.24.29-.35-.82-.3-1.45-1.47-1.91-2.14-.57-.84-1.1-1.71-1.61-2.58a.25.25,0,0,0-.33-.05c-.77-1.33-1.71-2.56-2.42-3.93C17.32,42.76,16.83,42.91,16.91,43.08Z"/><path class="cls-1" d="M17.92,41.57c1.22,2,2.44,3.91,3.78,5.79,0,0,.12,0,.21,0a10.64,10.64,0,0,0,2.66,3.34c.11.09.56-.11.47-.17a11,11,0,0,1-2.84-3.67c0-.06-.14,0-.24,0-1.24-1.77-2.39-3.6-3.53-5.43C18.34,41.3,17.87,41.48,17.92,41.57Z"/><path class="cls-1" d="M19.93,41.06a28.14,28.14,0,0,0,3.79,6.57c.09.11.57-.06.47-.18a27.92,27.92,0,0,1-3.76-6.52C20.37,40.79,19.88,40.95,19.93,41.06Z"/><path class="cls-1" d="M21.95,41.06c1,1.73,2.26,3.3,3.27,5,0,.08.18.08.3,0,.53.76,1.06,1.52,1.65,2.24.09.11.57-.06.47-.19-.78-1-1.49-2-2.18-3,0,0-.13,0-.23,0-.91-1.42-1.92-2.78-2.77-4.24C22.35,40.76,21.87,40.93,21.95,41.06Z"/><path class="cls-1" d="M24.72,40.56A24.18,24.18,0,0,0,26,43.08c.08.13.55-.07.5-.13a24.17,24.17,0,0,1-1.26-2.52C25.16,40.3,24.68,40.48,24.72,40.56Z"/><path class="cls-1" d="M36.32,43.09c-.78-1.17-1.57-2.35-2.3-3.55-.12-.19-.6,0-.46.22,1.42,2.31,3,4.51,4.45,6.8.12.19.6,0,.46-.22-.67-1-1.36-2.08-2.05-3.12a23.31,23.31,0,0,0,3.94,4.42c.15.11.61-.09.47-.2a15.24,15.24,0,0,1-2.91-3.11c.1.08.19.17.3.24s.63-.13.39-.29C36.88,43.14,36.14,40.69,35,39c-.13-.18-.61,0-.46.22.73,1.07,1.3,2.44,2.06,3.61C36.45,42.88,36.26,43,36.32,43.09Z"/><path class="cls-1" d="M40.07,42.58a25.91,25.91,0,0,0,2.77,4.28c.09.11.53-.1.5-.13a25.94,25.94,0,0,1-2.77-4.28C40.52,42.33,40,42.51,40.07,42.58Z"/><path class="cls-1" d="M40.58,41.06a53.56,53.56,0,0,0,3.8,6.08c.1.17.59,0,.46-.21a53,53,0,0,1-3.76-6C41,40.73,40.49,40.89,40.58,41.06Z"/><path class="cls-1" d="M41.84,39.3c1.67,2.83,3,6.89,5.81,8.84.14.1.6-.1.47-.19-2.8-2-4.1-5.93-5.77-8.78C42.24,39,41.76,39.18,41.84,39.3Z"/><path class="cls-1" d="M44.35,39.05c1.17,2.57,2.84,6,5.3,7.57.13.08.57-.12.47-.18-2.47-1.57-4.1-4.95-5.27-7.53C44.79,38.78,44.3,38.94,44.35,39.05Z"/><path class="cls-1" d="M47.63,39.81a32,32,0,0,1,2.77,4.78c.05.12.54-.05.5-.13a31.93,31.93,0,0,0-2.77-4.78C48,39.55,47.59,39.75,47.63,39.81Z"/><path class="cls-1" d="M49.89,38.16c-.09-.24-.59-.1-.5.14a24.07,24.07,0,0,0,2.29,4.33c.13.21.6,0,.46-.23A23.51,23.51,0,0,1,49.89,38.16Z"/><path class="cls-1" d="M73.64,43.71a3.79,3.79,0,0,0,1,.84c.13.08.55-.13.47-.18a3.8,3.8,0,0,1-1-.84C74,43.43,73.55,43.6,73.64,43.71Z"/><path class="cls-1" d="M74.46,42.77a8.18,8.18,0,0,0,1.78,2c.11.09.56-.1.47-.18A8,8,0,0,1,75,42.63C74.89,42.5,74.41,42.69,74.46,42.77Z"/><path class="cls-1" d="M75.07,42a35.62,35.62,0,0,0,2.69,3.44c.15.18.63,0,.46-.23a35.67,35.67,0,0,1-2.69-3.44C75.4,41.55,74.92,41.75,75.07,42Z"/><path class="cls-1" d="M79.56,45.45a35.82,35.82,0,0,1-3-4.67c-.08-.17-.57,0-.5.14a36.13,36.13,0,0,0,3,4.73C79.18,45.79,79.67,45.62,79.56,45.45Z"/><path class="cls-1" d="M80.82,45c-1.54-2-2.92-4.09-4.28-6.21-.12-.19-.6,0-.46.22,1.36,2.12,2.74,4.22,4.28,6.21C80.49,45.42,81,45.22,80.82,45Z"/><path class="cls-1" d="M81.59,43.72c-1-1.65-2-3.34-3.11-5-.09-.13-.55.07-.5.14,1.09,1.61,2.07,3.3,3.1,5C81.17,44,81.64,43.8,81.59,43.72Z"/><path class="cls-1" d="M82,42.21a28.79,28.79,0,0,0-2.52-3.86c-.09-.15-.57,0-.5.14a28.94,28.94,0,0,1,2.52,3.86C81.57,42.5,82.07,42.33,82,42.21Z"/><path class="cls-1" d="M80.25,38.15c.66,1,1.32,2,1.93,3,.07.13.55-.06.5-.14-.61-1-1.27-2-1.93-3C80.67,37.89,80.21,38.09,80.25,38.15Z"/><path class="cls-1" d="M83.27,39.61c-.33-.57-.66-1.15-1-1.7-.08-.12-.57,0-.47.19.35.54.67,1.09,1,1.65C82.85,39.9,83.33,39.72,83.27,39.61Z"/><path class="cls-1" d="M85.37,77.39c-.83-1-1.65-2-2.43-3-.14-.18-.62,0-.46.22.78,1,1.61,2,2.43,3C85.06,77.78,85.54,77.58,85.37,77.39Z"/><path class="cls-1" d="M86.49,76.84c-.84-1.39-1.92-2.61-2.85-3.94-.09-.12-.54.08-.5.13.93,1.33,2,2.55,2.85,3.94C86.06,77.1,86.52,76.91,86.49,76.84Z"/><path class="cls-1" d="M87.32,76.43a27.58,27.58,0,0,0-3-4.57c-.13-.17-.61,0-.46.21a27.23,27.23,0,0,1,2.92,4.49C86.92,76.76,87.42,76.61,87.32,76.43Z"/><path class="cls-1" d="M86.88,73.53c-.62-1-1.42-2-2-3-.1-.17-.58,0-.46.21.59,1.06,1.39,2,2,3C86.52,73.92,87,73.74,86.88,73.53Z"/><path class="cls-1" d="M87.31,71.94A25.4,25.4,0,0,1,85.46,69c-.09-.15-.58,0-.47.2a25.39,25.39,0,0,0,1.85,2.94C87,72.29,87.44,72.11,87.31,71.94Z"/><path class="cls-1" d="M87.81,70.09a10.61,10.61,0,0,1-1.51-2.27c-.1-.17-.58,0-.46.21a10.58,10.58,0,0,0,1.51,2.27C87.49,70.45,88,70.26,87.81,70.09Z"/><path class="cls-1" d="M88.16,68.54a17.73,17.73,0,0,1-1.18-2c-.05-.12-.54.06-.5.13a17.63,17.63,0,0,0,1.17,2C87.73,68.79,88.2,68.59,88.16,68.54Z"/><path class="cls-1" d="M70.33,81.57a1.17,1.17,0,0,0,.9.49c.25,0,.41-.33.07-.29s-1.1-1.15-1.3-1.4c-.49-.64-.93-1.3-1.4-2-.1-.15-.59,0-.47.2l1.07,1.49L69.06,80a.36.36,0,0,0-.32,0c-.13-.22-.26-.43-.4-.64s-.62,0-.46.23A27.7,27.7,0,0,0,70,82.9c.16.18.64,0,.46-.23A11.26,11.26,0,0,1,69,80.54a4.71,4.71,0,0,1,1.1,1A.21.21,0,0,0,70.33,81.57Z"/><path class="cls-1" d="M71.66,81.37l.49.63c.08.11.57-.06.47-.18A27.39,27.39,0,0,1,70,78.06c-.08-.14-.56,0-.5.14l.2.33c-.12-.07-.52.07-.44.19a22,22,0,0,0,2.14,2.64S71.55,81.4,71.66,81.37Z"/><path class="cls-1" d="M74.14,81.06a29.74,29.74,0,0,1-3.38-4.26c-.08-.14-.55,0-.5.14a30,30,0,0,0,3.41,4.3C73.75,81.34,74.23,81.17,74.14,81.06Z"/><path class="cls-1" d="M75.66,81.46c-1-1.85-2.62-3.31-3.65-5.16-.09-.17-.58,0-.5.14,1,1.85,2.62,3.31,3.65,5.16C75.25,81.76,75.73,81.59,75.66,81.46Z"/><path class="cls-1" d="M77,81.42c-1.17-2.12-2.85-3.88-4.15-5.92-.12-.19-.6,0-.46.22,1.31,2,3,3.79,4.15,5.92C76.67,81.84,77.15,81.65,77,81.42Z"/><path class="cls-1" d="M77.41,79.43a14.21,14.21,0,0,1-3.89-5c0-.12-.54,0-.5.13a14.37,14.37,0,0,0,3.92,5.05C77,79.69,77.48,79.49,77.41,79.43Z"/><path class="cls-1" d="M78.91,79c-.92-1.52-2.15-2.81-3.15-4.28-.11-.16-.59,0-.47.21,1,1.47,2.23,2.76,3.15,4.28C78.54,79.4,79,79.23,78.91,79Z"/><path class="cls-1" d="M79.92,77.51c-.9-1-1.8-2.07-2.64-3.15-.15-.19-.63,0-.46.23.84,1.08,1.74,2.11,2.64,3.15C79.62,77.92,80.09,77.71,79.92,77.51Z"/><path class="cls-1" d="M81.07,77.43c-.75-1.44-1.86-2.66-2.52-4.15-.08-.19-.58,0-.5.14.66,1.49,1.77,2.71,2.52,4.15C80.67,77.75,81.16,77.59,81.07,77.43Z"/><path class="cls-1" d="M82.44,77.53c-.88-1.27-1.64-2.63-2.52-3.9-.09-.13-.58,0-.47.2.88,1.27,1.64,2.63,2.52,3.9C82.06,77.86,82.55,77.69,82.44,77.53Z"/><path class="cls-1" d="M83.84,77.68a23.11,23.11,0,0,0-1.76-2.9c-.09-.13-.54.08-.5.14a23.21,23.21,0,0,1,1.76,2.89C83.4,77.95,83.88,77.77,83.84,77.68Z"/><path class="cls-1" d="M59.66,85a8,8,0,0,1-.88-1.13c-.1-.15-.59,0-.47.2a8.16,8.16,0,0,0,.88,1.13C59.32,85.29,59.8,85.1,59.66,85Z"/><path class="cls-1" d="M61,84.84A10.15,10.15,0,0,0,59,83c-.12-.08-.55.12-.47.17a10.17,10.17,0,0,1,2,1.89C60.65,85.11,61.13,84.94,61,84.84Z"/><path class="cls-1" d="M62.3,84.57a9.41,9.41,0,0,1-1.76-2c-.1-.14-.59,0-.47.2a9.46,9.46,0,0,0,1.76,2C62,84.89,62.44,84.69,62.3,84.57Z"/><path class="cls-1" d="M63.68,84.82a24,24,0,0,1-3-3.9c-.12-.19-.6,0-.46.22a24,24,0,0,0,3,3.9C63.38,85.19,63.85,85,63.68,84.82Z"/><path class="cls-1" d="M65.1,85.65c.12.1.57-.09.47-.18a33,33,0,0,1-3.78-4.53c-.09-.11-.57.06-.47.18A33.15,33.15,0,0,0,65.1,85.65Z"/><path class="cls-1" d="M67,84.79c-1.72-1.11-2.94-3.13-4.12-4.75-.11-.16-.6,0-.47.21,1.2,1.66,2.43,3.68,4.19,4.81C66.81,85.16,67.27,84.94,67,84.79Z"/><path class="cls-1" d="M67.42,83.28c-1.47-.74-2.2-2.67-3.24-3.87-.14-.16-.62,0-.46.22,1.06,1.23,1.8,3.17,3.31,3.93C67.21,83.65,67.66,83.4,67.42,83.28Z"/><path class="cls-1" d="M68.3,83c-1.42-.8-2.3-2.77-3.11-4.12-.12-.2-.6,0-.46.23.83,1.39,1.72,3.36,3.18,4.19C68.12,83.43,68.55,83.16,68.3,83Z"/><path class="cls-1" d="M69.17,83.16c.15.08.61-.13.4-.25a4.73,4.73,0,0,1-1.33-1.45,21.58,21.58,0,0,1-1.26-2c-.1-.18-.58,0-.5.14.4.71.83,1.41,1.29,2.08A4.79,4.79,0,0,0,69.17,83.16Z"/><path class="cls-1" d="M73.5,81.68C72.44,80,71.12,78.52,70,76.9c-.1-.15-.59,0-.47.2C70.65,78.72,72,80.2,73,81.88,73.13,82,73.62,81.86,73.5,81.68Z"/><path class="cls-1" d="M11.56,58a4,4,0,0,0,.76.84c.14.14.62-.06.47-.21a4.06,4.06,0,0,1-.76-.84C11.93,57.6,11.44,57.77,11.56,58Z"/><path class="cls-1" d="M11.81,57.54a11.43,11.43,0,0,1,1.09.92c.12.11.59-.07.47-.19a11.72,11.72,0,0,0-1.09-.92C12.15,57.25,11.69,57.45,11.81,57.54Z"/><path class="cls-1" d="M11.9,55.8c.85,1,1.63,2.11,2.52,3.11.16.18.64,0,.46-.23-.89-1-1.67-2.08-2.52-3.1C12.21,55.38,11.73,55.59,11.9,55.8Z"/><path class="cls-1" d="M12.57,55c.91,1.16,1.82,2.31,2.77,3.44.09.11.57-.06.47-.18C14.86,57.15,13.95,56,13,54.84,12.95,54.72,12.47,54.89,12.57,55Z"/><path class="cls-1" d="M12.49,53.69c1.21,1.25,2,2.86,3.48,3.89.17.12.62-.12.39-.28-1.4-1-2.22-2.6-3.4-3.83C12.8,53.32,12.32,53.52,12.49,53.69Z"/><path class="cls-1" d="M13.91,53.76a27.68,27.68,0,0,1,2.67,3.34c.08.14.56-.05.5-.14a28,28,0,0,0-2.7-3.38C14.29,53.48,13.82,53.65,13.91,53.76Z"/><path class="cls-1" d="M15,53.85a28,28,0,0,1,2.52,2.77c.11.14.59,0,.47-.2a27.74,27.74,0,0,0-2.52-2.77C15.34,53.52,14.86,53.71,15,53.85Z"/><path class="cls-1" d="M16,53.58a10.14,10.14,0,0,1,2.42,2.84c.06.12.54-.07.5-.13a10.25,10.25,0,0,0-2.45-2.87C16.38,53.33,15.94,53.53,16,53.58Z"/><path class="cls-1" d="M19.75,55.34c-.84-.92-1.76-1.77-2.6-2.68-.09-.1-.57.08-.47.18.84.92,1.76,1.77,2.6,2.69C19.37,55.62,19.85,55.44,19.75,55.34Z"/><path class="cls-1" d="M18.07,51.88c-.12-.16-.6,0-.46.21a16.19,16.19,0,0,0,2.89,3.22c.15.12.6-.09.39-.27A15.92,15.92,0,0,1,18.07,51.88Z"/><path class="cls-1" d="M22.07,54.72c-1.55-.85-2.3-2.69-3.49-3.92-.12-.12-.6.06-.47.19,1.22,1.26,2,3.1,3.56,4C21.8,55,22.27,54.84,22.07,54.72Z"/><path class="cls-1" d="M22.18,53.41a20.55,20.55,0,0,1-2.59-3.92c-.07-.14-.56,0-.5.14a20.75,20.75,0,0,0,2.62,4C21.8,53.7,22.28,53.53,22.18,53.41Z"/><path class="cls-1" d="M23,52.9c-1.42-1-2.23-2.74-3.19-4.11-.09-.13-.58,0-.47.19,1,1.37,1.77,3.16,3.19,4.11C22.7,53.19,23.15,53,23,52.9Z"/><path class="cls-1" d="M21,47.1c-.11-.17-.6,0-.46.21a18.28,18.28,0,0,0,3.73,4.56c.16.12.61-.11.39-.27A18.16,18.16,0,0,1,21,47.1Z"/><path class="cls-1" d="M22.7,46.38c-.08-.13-.55.07-.5.14.41.65.83,1.28,1.29,1.9A4.45,4.45,0,0,0,25,49.89c.14.06.53-.14.47-.17A4.44,4.44,0,0,1,24,48.28C23.53,47.67,23.11,47,22.7,46.38Z"/><path class="cls-1" d="M26.11,48.93c.15.11.61-.11.4-.26-1.24-.9-1.9-2.51-2.73-3.75-.11-.16-.59,0-.47.21C24.17,46.4,24.84,48,26.11,48.93Z"/><path class="cls-1" d="M28.6,47.92c-.1-.11-.2-.24-.29-.36-.3-.39-.6-.78-.89-1.17-.55-.73-1.08-1.48-1.63-2.21-.09-.13-.58,0-.47.19.58.78,1.15,1.57,1.72,2.35.3.41.61.81.92,1.21.11.14.23.34.42.34s.54-.27.2-.27C28.74,48,28.69,48,28.6,47.92Z"/><path class="cls-1" d="M26.39,43.92c.48.78,1,1.56,1.5,2.31A5.56,5.56,0,0,0,29.6,48c.14.07.55-.14.47-.18a5.53,5.53,0,0,1-1.67-1.78c-.54-.74-1-1.53-1.5-2.31C26.82,43.65,26.34,43.84,26.39,43.92Z"/><path class="cls-1" d="M27.34,43.7a35.51,35.51,0,0,0,3.36,4.45c.13.12.6-.07.47-.2A35.63,35.63,0,0,1,27.8,43.5C27.7,43.36,27.22,43.54,27.34,43.7Z"/><path class="cls-1" d="M28.93,43.7c.91,1.4,1.9,2.74,2.85,4.11.09.14.58,0,.47-.2-.95-1.37-1.94-2.71-2.85-4.11C29.31,43.36,28.82,43.53,28.93,43.7Z"/><path class="cls-1" d="M29.1,42.11c1.4,2,2.25,4.35,3.94,6.13.14.14.62,0,.46-.21-1.69-1.78-2.55-4.14-3.94-6.12C29.45,41.74,29,41.92,29.1,42.11Z"/><path class="cls-1" d="M30.36,42a20.19,20.19,0,0,0,3.69,5.62c.16.15.63-.06.46-.22a20.18,20.18,0,0,1-3.69-5.62C30.73,41.63,30.24,41.8,30.36,42Z"/><path class="cls-1" d="M31.28,41.53c1.29,2.06,2.68,4,3.94,6.13.12.19.6,0,.46-.22-1.26-2.08-2.65-4.07-3.94-6.13C31.62,41.11,31.14,41.3,31.28,41.53Z"/><path class="cls-1" d="M32.71,41.19A16,16,0,0,1,34,43.3l-.2-.13c-.13-.08-.57.12-.47.18a9,9,0,0,1,1.14.83A7.3,7.3,0,0,0,36.77,47a.22.22,0,0,0,.11,0c.23.35.46.71.67,1.08.08.14.56,0,.5-.13a14.93,14.93,0,0,0-3.16-4,26.62,26.62,0,0,0-1.73-3C33,40.8,32.56,41,32.71,41.19Z"/><path class="cls-1" d="M39.47,42.76c-1.48-1-2.43-3-3.26-4.51-.07-.13-.55.05-.5.13a17.53,17.53,0,0,0,2.43,3.8c-.06,0-.1.11-.06.18a25.85,25.85,0,0,0,4,5c.14.14.62-.05.46-.21a27.57,27.57,0,0,1-3.52-4.25C39.21,43,39.54,42.8,39.47,42.76Z"/><path class="cls-1" d="M28.2,58.61a2.63,2.63,0,0,1,1.2.3q.59.3.59.68,0,.58-.48.58a1.66,1.66,0,0,1-.61-.23,1.7,1.7,0,0,0-.74-.23,2.17,2.17,0,0,0-1.8,1,4,4,0,0,0-.72,2.46,3.81,3.81,0,0,0,.49,2,1.38,1.38,0,0,0,1.16.84,1.31,1.31,0,0,0,1.05-.44,1.51,1.51,0,0,0,.38-1,2.58,2.58,0,0,0,0-.52.73.73,0,0,0-.22-.38A.64.64,0,0,0,28,63.4a1.23,1.23,0,0,1-.54-.13.38.38,0,0,1-.26-.34.71.71,0,0,1,.12-.4.5.5,0,0,1,.34-.23,2.51,2.51,0,0,1,1.15.18q.29.18.44.29a.82.82,0,0,1,.25.38c.07.18.12.32.16.44a2.64,2.64,0,0,1,.08.56q0,.65,0,1.52a2.65,2.65,0,0,1-.13,1.07.44.44,0,0,1-.38.17.46.46,0,0,1-.36-.11.91.91,0,0,1-.13-.5,2.6,2.6,0,0,1-.76.44,2.22,2.22,0,0,1-.81.18,2.18,2.18,0,0,1-1.85-1.17,5.12,5.12,0,0,1-.75-2.82,5.3,5.3,0,0,1,.29-1.72,4.33,4.33,0,0,1,.78-1.42A3.22,3.22,0,0,1,28.2,58.61Z"/><path class="cls-1" d="M31.4,59a.8.8,0,0,1,.44-.13c.17,0,.27.1.31.29q0,1.45,0,4.35,0,1.77-.1,3a.49.49,0,0,1-.23.33.73.73,0,0,1-.42.14c-.23,0-.35-.12-.35-.36q.12-1.25.13-3.11l-.08-4.21A.54.54,0,0,1,31.4,59Z"/><path class="cls-1" d="M35.91,58.8l1.39,0q.93,0,.93.49a.44.44,0,0,1-.05.24l-.07.11a.19.19,0,0,1-.1.06l-.25.06h-.14l-.46,0h-.95q-.62,0-1.52,0v2.3h2.55a.35.35,0,0,1,.26.13.39.39,0,0,1,.12.28q0,.58-.49.58H34.69l0,3.28q0,.64-.43.64t-.51-.58q0-.19,0-3.19t0-3.45q-.46.05-.46-.53a.6.6,0,0,1,.13-.33c.08-.12.16-.19.22-.19h.24l.71.05Q35.32,58.81,35.91,58.8Z"/><path class="cls-1" d="M39.13,58.79l5.07-.08q.36.11.36.36,0,.63-.51.63-.94,0-2,0Q42,60.83,42,61.38v.7l.05,4.4q0,.39-.2.45a1.19,1.19,0,0,1-.38,0q-.36,0-.4-.41Q41,65.59,41,63t.08-3.17H39a.4.4,0,0,1-.31-.13.44.44,0,0,1-.11-.31.54.54,0,0,1,.16-.36A.58.58,0,0,1,39.13,58.79Z"/><path class="cls-1" d="M51.53,58.73a6.11,6.11,0,0,1,1.85.33.49.49,0,0,1,.23.38.45.45,0,0,1-.21.36.76.76,0,0,1-.47.16,5,5,0,0,0-1.26-.18,2.58,2.58,0,0,0-2.05.8,3.52,3.52,0,0,0-.7,2.38,3.49,3.49,0,0,0,.83,2.47,1.33,1.33,0,0,0,1,.46,5.05,5.05,0,0,0,1.88-.63,1.89,1.89,0,0,1,.6-.21q.33,0,.33.34a.67.67,0,0,1-.31.56,11.8,11.8,0,0,1-1.68.76,3.46,3.46,0,0,1-1,.19A2.06,2.06,0,0,1,49,66.24a4.73,4.73,0,0,1-1.14-3.35,4.13,4.13,0,0,1,1.08-3.14A3.66,3.66,0,0,1,51.53,58.73Z"/><path class="cls-1" d="M57.41,58.67a.64.64,0,0,1,.53.28,5.3,5.3,0,0,1,.55,1.14A36.41,36.41,0,0,1,60,66.48a.65.65,0,0,1,0,.14.29.29,0,0,1-.12.2.49.49,0,0,1-.34.11.62.62,0,0,1-.37-.11.54.54,0,0,1-.2-.35l-.19-1a7,7,0,0,0-.4-1.65,4,4,0,0,0-1-.19q-.85-.1-1.12-.1a.6.6,0,0,0-.33,0,11,11,0,0,0-.61,3q0,.24-.48.24t-.43-.36a17,17,0,0,1,.66-3.44,18.56,18.56,0,0,1,1.1-3.37Q56.78,58.67,57.41,58.67Zm0,1.39q-.19,0-.65,1.11a5.58,5.58,0,0,0-.46,1.37.12.12,0,0,0,0,.09,1.89,1.89,0,0,0,.79.18q.69.07.91.08c.15,0,.23,0,.25,0a.44.44,0,0,0,0-.2,10.61,10.61,0,0,0-.34-1.38Q57.57,60.06,57.36,60.06Z"/><path class="cls-1" d="M61.7,66.79a.63.63,0,0,1-.43.18q-.23,0-.32-.3,0-1.65,0-3.29l0-3.16a1.29,1.29,0,0,1,.84-1.3,3.78,3.78,0,0,1,1.6-.31,2.63,2.63,0,0,1,1,.23,3,3,0,0,1,1,.68,1.36,1.36,0,0,1,.43,1,1.83,1.83,0,0,1-.48,1.11,4.93,4.93,0,0,1-1.18,1.05,6.1,6.1,0,0,1-1.36.68,12.57,12.57,0,0,1,2,1.75,2.62,2.62,0,0,1,.86,1.45.41.41,0,0,1-.16.31.58.58,0,0,1-.39.14.49.49,0,0,1-.39-.2,4.3,4.3,0,0,0-1-1.4,12.33,12.33,0,0,0-1.8-1.4l.08,2.41A.54.54,0,0,1,61.7,66.79Zm2-4.87q1-.66,1-1.2a.9.9,0,0,0-.53-.82A2.55,2.55,0,0,0,63,59.62a3.09,3.09,0,0,0-1.15.18q0,.64,0,2.83A4,4,0,0,0,63.73,61.92Z"/><path class="cls-1" d="M66.92,66.52a.39.39,0,0,1-.19-.31.35.35,0,0,1,.14-.28,31.43,31.43,0,0,1-.24-4.11q0-.7.06-2.73a.65.65,0,0,1,.26-.33.64.64,0,0,1,.37-.14h.21a6.62,6.62,0,0,1,3.12,1.93A5.14,5.14,0,0,1,72,64a2.56,2.56,0,0,1-1.83,2.77,3.74,3.74,0,0,1-1.11.16,5.28,5.28,0,0,1-1-.09.61.61,0,0,1,0,.27.43.43,0,0,1-.21.33.78.78,0,0,1-.49.16q-.28,0-.36-.34Zm.75-4.8a32.9,32.9,0,0,0,.25,4.16,4.69,4.69,0,0,0,2.39-.15q.66-.24.7-.7c0-.23,0-.41,0-.54a4.92,4.92,0,0,0-.87-2.88,5.41,5.41,0,0,0-2.44-1.9Q67.67,61.18,67.67,61.72Z"/><path class="cls-1" d="M28.64,58.54a2.63,2.63,0,0,1,1.2.3q.59.3.59.68,0,.58-.48.58a1.66,1.66,0,0,1-.61-.23,1.7,1.7,0,0,0-.74-.23,2.17,2.17,0,0,0-1.8,1,4,4,0,0,0-.72,2.46,3.81,3.81,0,0,0,.49,2,1.38,1.38,0,0,0,1.16.84,1.31,1.31,0,0,0,1.05-.44,1.51,1.51,0,0,0,.38-1,2.58,2.58,0,0,0,0-.52.73.73,0,0,0-.22-.38.64.64,0,0,0-.46-.17,1.23,1.23,0,0,1-.54-.13.38.38,0,0,1-.26-.34.71.71,0,0,1,.12-.4.5.5,0,0,1,.34-.23,2.51,2.51,0,0,1,1.15.18q.29.18.44.29a.82.82,0,0,1,.25.38c.07.18.12.32.16.44a2.64,2.64,0,0,1,.08.56q0,.65,0,1.52a2.65,2.65,0,0,1-.13,1.07.44.44,0,0,1-.38.17.46.46,0,0,1-.36-.11.91.91,0,0,1-.13-.5,2.6,2.6,0,0,1-.76.44,2.22,2.22,0,0,1-.81.18,2.18,2.18,0,0,1-1.85-1.17A5.12,5.12,0,0,1,25,62.88a5.3,5.3,0,0,1,.29-1.72,4.33,4.33,0,0,1,.78-1.42A3.22,3.22,0,0,1,28.64,58.54Z"/><path class="cls-1" d="M31.83,58.89a.8.8,0,0,1,.44-.13c.17,0,.27.1.31.29q0,1.45,0,4.35,0,1.77-.1,3a.49.49,0,0,1-.23.33.73.73,0,0,1-.42.14c-.23,0-.35-.12-.35-.36q.12-1.25.13-3.11l-.08-4.21A.54.54,0,0,1,31.83,58.89Z"/><path class="cls-1" d="M36.35,58.74l1.39,0q.93,0,.93.49a.44.44,0,0,1-.05.24l-.07.11a.19.19,0,0,1-.1.06l-.25.06H38l-.46,0h-.95q-.62,0-1.52,0V62h2.55a.35.35,0,0,1,.26.13.39.39,0,0,1,.12.28q0,.58-.49.58H35.12l0,3.28q0,.64-.43.64t-.51-.58q0-.19,0-3.19t0-3.45q-.46.05-.46-.53a.6.6,0,0,1,.13-.33c.08-.12.16-.19.22-.19h.24l.71.05Q35.76,58.74,36.35,58.74Z"/><path class="cls-1" d="M39.57,58.73l5.07-.08q.36.11.36.36,0,.63-.51.63-.94,0-2,0-.06,1.08-.06,1.62V62l.05,4.4q0,.39-.2.45a1.19,1.19,0,0,1-.38,0q-.36,0-.4-.41-.08-1-.08-3.6t.08-3.17H39.45a.4.4,0,0,1-.31-.13.44.44,0,0,1-.11-.31.54.54,0,0,1,.16-.36A.58.58,0,0,1,39.57,58.73Z"/><path class="cls-1" d="M52,58.67a6.11,6.11,0,0,1,1.85.33.49.49,0,0,1,.23.38.45.45,0,0,1-.21.36.76.76,0,0,1-.47.16,5,5,0,0,0-1.26-.18,2.58,2.58,0,0,0-2.05.8,3.52,3.52,0,0,0-.7,2.38,3.49,3.49,0,0,0,.83,2.47,1.33,1.33,0,0,0,1,.46,5.05,5.05,0,0,0,1.88-.63,1.89,1.89,0,0,1,.6-.21q.33,0,.33.34a.67.67,0,0,1-.31.56,11.8,11.8,0,0,1-1.68.76,3.46,3.46,0,0,1-1,.19,2.06,2.06,0,0,1-1.54-.66,4.73,4.73,0,0,1-1.14-3.35,4.13,4.13,0,0,1,1.08-3.14A3.66,3.66,0,0,1,52,58.67Z"/><path class="cls-1" d="M57.84,58.61a.64.64,0,0,1,.53.28A5.3,5.3,0,0,1,58.92,60a36.41,36.41,0,0,1,1.54,6.4.65.65,0,0,1,0,.14.29.29,0,0,1-.12.2.49.49,0,0,1-.34.11.62.62,0,0,1-.37-.11.54.54,0,0,1-.2-.35l-.19-1a7,7,0,0,0-.4-1.65,4,4,0,0,0-1-.19q-.85-.1-1.12-.1a.6.6,0,0,0-.33,0,11,11,0,0,0-.61,3q0,.24-.48.24t-.43-.36A17,17,0,0,1,55.56,63a18.56,18.56,0,0,1,1.1-3.37Q57.22,58.61,57.84,58.61Zm0,1.39q-.19,0-.65,1.11a5.58,5.58,0,0,0-.46,1.37.12.12,0,0,0,0,.09,1.89,1.89,0,0,0,.79.18q.69.07.91.08c.15,0,.23,0,.25,0a.44.44,0,0,0,0-.2,10.61,10.61,0,0,0-.34-1.38Q58,60,57.79,60Z"/><path class="cls-1" d="M62.13,66.73a.63.63,0,0,1-.43.18q-.23,0-.32-.3,0-1.65,0-3.29l0-3.16a1.29,1.29,0,0,1,.84-1.3,3.78,3.78,0,0,1,1.6-.31,2.63,2.63,0,0,1,1,.23,3,3,0,0,1,1,.68,1.36,1.36,0,0,1,.43,1,1.83,1.83,0,0,1-.48,1.11,4.93,4.93,0,0,1-1.18,1.05,6.1,6.1,0,0,1-1.36.68,12.56,12.56,0,0,1,2,1.75,2.62,2.62,0,0,1,.86,1.45.41.41,0,0,1-.16.31.58.58,0,0,1-.39.14.49.49,0,0,1-.39-.2,4.3,4.3,0,0,0-1-1.4,12.33,12.33,0,0,0-1.8-1.4l.08,2.41A.54.54,0,0,1,62.13,66.73Zm2-4.87q1-.66,1-1.2a.9.9,0,0,0-.53-.82,2.55,2.55,0,0,0-1.25-.29,3.09,3.09,0,0,0-1.15.18q0,.64,0,2.83A4,4,0,0,0,64.17,61.86Z"/><path class="cls-1" d="M67.36,66.46a.39.39,0,0,1-.19-.31.35.35,0,0,1,.14-.28,31.43,31.43,0,0,1-.24-4.11q0-.7.06-2.73a.65.65,0,0,1,.26-.33.64.64,0,0,1,.37-.14H68a6.62,6.62,0,0,1,3.12,1.93A5.14,5.14,0,0,1,72.48,64a2.56,2.56,0,0,1-1.83,2.77,3.74,3.74,0,0,1-1.11.16,5.28,5.28,0,0,1-1-.09.61.61,0,0,1,0,.27.43.43,0,0,1-.21.33.78.78,0,0,1-.49.16q-.28,0-.36-.34Zm.75-4.8a32.9,32.9,0,0,0,.25,4.16,4.69,4.69,0,0,0,2.39-.15q.66-.24.7-.7c0-.23,0-.41,0-.54a4.92,4.92,0,0,0-.87-2.88,5.41,5.41,0,0,0-2.44-1.9Q68.11,61.12,68.11,61.66Z"/></svg>