<svg id="_1" data-name="1" xmlns="http://www.w3.org/2000/svg" viewBox="0 0 101.54 98.12"><defs><style>.cls-1{fill:#3f3f3f;}</style></defs><title>grid</title><path class="cls-1" d="M25.14,1.38C22-.88,17.6.28,13.81.42c-3,.11-7.35-.52-9.87,1.21C3.48,1.4,2.89,1.44,2.77,2c-1.35,6.68-.15,13.83-2,20.41A1.75,1.75,0,0,0,1.8,24.67a1.66,1.66,0,0,0,1.66.85c6.18-.47,12.79,0,18.84-1.32,1.16,1.29,4.35.91,4.16-1.21-.58-6.51-.62-12.91-1.94-19.35,0-.06-.09-.05-.14-.09a6.08,6.08,0,0,0,.77-.43A1.15,1.15,0,0,0,25.14,1.38Zm-13.7,2.7c.83,0,1.64,0,2.37,0s1.61.1,2.44.18c-2.06.93-4.05,2.28-5.84,3.28-2,1.09-3.9,2.21-5.75,3.44,0-1,.08-1.93.09-2.88A8.53,8.53,0,0,0,8.47,6.23,21.56,21.56,0,0,0,11.45,4.08ZM7,3.92l-.77.54c-.56.38-1.1.73-1.57,1.12,0-.78,0-1.56-.09-2.33A8.34,8.34,0,0,0,7,3.92ZM21.91,23.19c-1.37-.27-2.74-.45-4.15-.59a13.25,13.25,0,0,0,4.38-3.14c-.09,1.18-.16,2.35-.28,3.53C21.87,23.06,21.91,23.11,21.91,23.19ZM22.25,18a1,1,0,0,0-.52-.08A14.93,14.93,0,0,0,14.15,22a.76.76,0,0,0-.17.36c-1.83-.09-3.67-.15-5.51-.2a65.34,65.34,0,0,0,7.14-3.65c2-1.17,4.45-2.17,5.64-4.1a.6.6,0,0,0-.57-.89c-2.61.25-4.71,2-6.83,3.25A56.77,56.77,0,0,0,7,21.49a.45.45,0,0,0-.14.58c-.59,0-1.17,0-1.75-.06a27.07,27.07,0,0,1-.34-3.11c3.17-1,6.15-3,8.89-4.68S19.51,10.6,21.5,8c.3-.4-.27-.75-.67-.59C17.4,8.77,14.48,11.13,11.41,13,9.21,14.39,6.74,15.54,4.59,17c0-1.31,0-2.62,0-3.94a69.63,69.63,0,0,0,7.6-3.93c2.43-1.37,5.5-2.63,7.32-4.66a10.84,10.84,0,0,0,4.25-.6A106,106,0,0,0,22.25,18Z"/><path class="cls-1" d="M61.82,1.38C58.69-.88,54.28.28,50.49.42c-3,.11-7.35-.52-9.87,1.21-.46-.23-1-.19-1.17.41-1.36,6.68-.16,13.83-2,20.41a1.74,1.74,0,0,0,1.05,2.22,1.66,1.66,0,0,0,1.66.85c6.18-.47,12.79,0,18.86-1.32,1.14,1.29,4.34.91,4.15-1.21-.58-6.51-.6-12.91-1.94-19.35,0-.06-.1-.05-.15-.09a6.09,6.09,0,0,0,.77-.43A1.14,1.14,0,0,0,61.82,1.38ZM47.59,4.09c-.44.27-.88.54-1.32.8-1.65,1-3.28,2-4.84,3.09a40.87,40.87,0,0,0-.18-4.72C43,4.11,45.39,4.12,47.59,4.09Zm11,19.1a61.82,61.82,0,0,0-9.72-.92c3.42-1.1,7.37-2.66,10.12-5-.13,1.9-.26,3.8-.42,5.71C58.55,23.06,58.58,23.11,58.58,23.19Zm1-13.65h0c-3.15.34-5.82,2.25-8.41,3.78-2.92,1.74-6.07,3.49-8.46,5.81a.91.91,0,0,0,1,1.48A46.76,46.76,0,0,0,52.92,16c2.21-1.32,4.82-2.66,6.51-4.57-.11,1.24-.22,2.48-.31,3.72-4.2.68-8.3,3.43-11.46,5.83a.78.78,0,0,0,.19,1.29c-2-.06-4.09-.11-6.09-.22-.75-3.79-.53-7.71-.41-11.61a60.34,60.34,0,0,0,6.41-3.24,33.09,33.09,0,0,0,4.76-2.93,40.19,40.19,0,0,0,4.5.21c-2.16,1.27-4.22,2.7-6.36,4-2.77,1.67-5.86,2.92-8.59,4.63a.9.9,0,0,0,.76,1.62c5.86-1.43,13-5.86,16.35-10.52a7.47,7.47,0,0,0,1.26-.3C60.06,5.75,59.81,7.64,59.61,9.54Z"/><path class="cls-1" d="M1.8,60.36a1.66,1.66,0,0,0,1.66.85c6.18-.47,12.79,0,18.84-1.31,1.16,1.29,4.35.9,4.16-1.22-.58-6.51-.62-12.9-1.94-19.35,0-.06-.09-.06-.14-.1a5.21,5.21,0,0,0,.77-.43,1.15,1.15,0,0,0,0-1.75C22,34.81,17.6,36,13.81,36.1c-3,.11-7.35-.53-9.87,1.22-.46-.23-1.05-.19-1.17.41-1.35,6.68-.15,13.83-2,20.41A1.75,1.75,0,0,0,1.8,60.36Zm20.11-1.49c-1.11-.22-2.25-.35-3.39-.48A13.26,13.26,0,0,0,22,56.33c-.05.78-.1,1.56-.18,2.34C21.87,58.75,21.91,58.8,21.91,58.87ZM22.15,55A.46.46,0,0,0,22,55a14.72,14.72,0,0,0-5.12,2,.85.85,0,0,0-.39,1.26c-1-.08-2-.16-3-.2,3.65-1.27,7.35-3.55,8.89-6.6C22.32,52.6,22.24,53.81,22.15,55Zm.21-15.15a8.08,8.08,0,0,0,1.42-.33,87.49,87.49,0,0,0-1.33,11.32.6.6,0,0,0-.72-.41,26.09,26.09,0,0,0-5.78,3.43c-1.88,1.27-3.85,2.45-5.71,3.76a.46.46,0,0,0-.15.23c-1.67-.05-3.35-.09-5-.18a35.09,35.09,0,0,1-.49-7.11.88.88,0,0,0,1.09.66c3.54-.9,6.74-3,9.62-5C17.86,44.45,20.85,42.51,22.36,39.87Zm-7.6,0c1.42.1,2.87.25,4.32.31-1.94,1.23-3.71,2.78-5.55,4C10.66,46,7.39,47.67,4.81,49.88a.72.72,0,0,0-.21.37c0-1.25,0-2.51.07-3.77a52.56,52.56,0,0,0,6-3.53A19.22,19.22,0,0,0,14.75,39.83Zm-3.52-.07c-.9.57-1.76,1.21-2.6,1.77-1.32.89-2.65,1.83-3.91,2.82a45.63,45.63,0,0,0-.16-5.43C6.43,39.83,8.95,39.81,11.23,39.77Z"/><path class="cls-1" d="M38.47,60.36a1.66,1.66,0,0,0,1.66.85c6.18-.47,12.79,0,18.86-1.31,1.14,1.29,4.34.9,4.15-1.22-.58-6.51-.6-12.9-1.94-19.35,0-.06-.1-.06-.15-.1a5.22,5.22,0,0,0,.77-.43,1.15,1.15,0,0,0,0-1.75c-3.12-2.25-7.54-1.1-11.33-1-3,.11-7.35-.53-9.87,1.22-.46-.23-1-.19-1.17.41a50.17,50.17,0,0,0-.77,8.6c-.07.09-.17.15-.22.24a.69.69,0,0,0,.19.92,43.19,43.19,0,0,1-1.22,10.65A1.75,1.75,0,0,0,38.47,60.36Zm12-20.6h0c3.26.12,7,1,10-.22-1.28,6.36-1.32,12.7-1.89,19.13a1.4,1.4,0,0,0,0,.2c-1.14-.22-2.32-.37-3.5-.5l.1,0A6.71,6.71,0,0,0,57,57a.52.52,0,0,0-.41-.89,7.42,7.42,0,0,0-2.34.34,1,1,0,0,0-.38,1.77c-1.27-.11-2.55-.2-3.85-.25,3.49-1.35,6.84-3.5,8.62-6.41.32-.52-.31-1-.85-.76-3.79,1.5-7.43,4.06-10.74,6.3a.92.92,0,0,0-.38.75c-1.66,0-3.31-.09-4.95-.17a26.67,26.67,0,0,1-.46-4.29c3.34-1.35,6.31-3.58,9.2-5.58s6.2-4,8-6.76c.27-.43-.18-.93-.7-.82-3.48.77-6.62,3.17-9.46,5.06a65.48,65.48,0,0,0-7,5c0-1.15,0-2.3.05-3.46a31.56,31.56,0,0,0,4.39-2.81C47.45,42.82,49.46,41.58,50.46,39.76Zm-3.91,0c-1,.62-1.88,1.35-2.74,2s-1.6,1.18-2.37,1.8a41.21,41.21,0,0,0-.18-4.62A12.41,12.41,0,0,0,46.55,39.77Z"/><path class="cls-1" d="M5.14,54.95c-.66.6,0,1.6.91,1.39,3.39-.78,6.48-2.72,9.25-4.58,2.53-1.7,5.41-3.75,6.71-6.39a.54.54,0,0,0-.65-.77c-3,1-5.61,3.16-8.17,4.87S7.48,52.83,5.14,54.95Z"/><path class="cls-1" d="M50.64,49.33c-2.88,2.05-5.79,4-8.58,6.18-.74.57.21,1.48,1,1.15a64.76,64.76,0,0,0,9.49-5.12C55,50,58,48.25,59.33,45.79a.79.79,0,0,0-.95-1.1C55.45,45.46,53,47.64,50.64,49.33Z"/><path class="cls-1" d="M100.22,1.38C97.09-.88,92.68.28,88.89.42,85.9.53,81.54-.1,79,1.63c-.46-.23-1-.19-1.17.41-1.36,6.68-.16,13.83-2,20.41a1.74,1.74,0,0,0,1.05,2.22,1.66,1.66,0,0,0,1.66.85c6.18-.47,12.79,0,18.86-1.32,1.14,1.29,4.34.91,4.15-1.21-.58-6.51-.6-12.91-1.94-19.35,0-.06-.1-.05-.15-.09a6.09,6.09,0,0,0,.77-.43A1.14,1.14,0,0,0,100.22,1.38ZM86,4.09c-.44.27-.88.54-1.32.8-1.65,1-3.28,2-4.84,3.09a40.87,40.87,0,0,0-.18-4.72C81.41,4.11,83.79,4.12,86,4.09Zm11,19.1a61.82,61.82,0,0,0-9.72-.92c3.42-1.1,7.37-2.66,10.12-5-.13,1.9-.26,3.8-.42,5.71C96.95,23.06,97,23.11,97,23.19ZM98,9.54h0c-3.15.34-5.82,2.25-8.41,3.78-2.92,1.74-6.07,3.49-8.46,5.81a.91.91,0,0,0,1,1.48A46.76,46.76,0,0,0,91.32,16c2.21-1.32,4.82-2.66,6.51-4.57-.11,1.24-.22,2.48-.31,3.72-4.2.68-8.3,3.43-11.46,5.83a.78.78,0,0,0,.19,1.29c-2-.06-4.09-.11-6.09-.22-.75-3.79-.53-7.71-.41-11.61a60.34,60.34,0,0,0,6.41-3.24,33.09,33.09,0,0,0,4.76-2.93,40.19,40.19,0,0,0,4.5.21c-2.16,1.27-4.22,2.7-6.36,4-2.77,1.67-5.86,2.92-8.59,4.63a.9.9,0,0,0,.76,1.62c5.86-1.43,13-5.86,16.35-10.52a7.47,7.47,0,0,0,1.26-.3C98.46,5.75,98.21,7.64,98,9.54Z"/><path class="cls-1" d="M76.87,60.36a1.66,1.66,0,0,0,1.66.85c6.18-.47,12.79,0,18.86-1.31,1.14,1.29,4.34.9,4.15-1.22-.58-6.51-.6-12.9-1.94-19.35,0-.06-.1-.06-.15-.1a5.22,5.22,0,0,0,.77-.43,1.15,1.15,0,0,0,0-1.75c-3.12-2.25-7.54-1.1-11.33-1-3,.11-7.35-.53-9.87,1.22-.46-.23-1-.19-1.17.41a50.17,50.17,0,0,0-.77,8.6c-.07.09-.17.15-.22.24a.69.69,0,0,0,.19.92,43.19,43.19,0,0,1-1.22,10.65A1.75,1.75,0,0,0,76.87,60.36Zm12-20.6h0c3.26.12,7,1,10-.22-1.28,6.36-1.32,12.7-1.89,19.13a1.4,1.4,0,0,0,0,.2c-1.14-.22-2.32-.37-3.5-.5l.1,0A6.71,6.71,0,0,0,95.44,57a.52.52,0,0,0-.41-.89,7.42,7.42,0,0,0-2.34.34,1,1,0,0,0-.38,1.77C91,58.13,89.76,58,88.47,58c3.49-1.35,6.84-3.5,8.62-6.41.32-.52-.31-1-.85-.76-3.79,1.5-7.43,4.06-10.74,6.3a.92.92,0,0,0-.38.75c-1.66,0-3.31-.09-4.95-.17a26.67,26.67,0,0,1-.46-4.29c3.34-1.35,6.31-3.58,9.2-5.58s6.2-4,8-6.76c.27-.43-.18-.93-.7-.82-3.48.77-6.62,3.17-9.46,5.06a65.48,65.48,0,0,0-7,5c0-1.15,0-2.3.05-3.46a31.56,31.56,0,0,0,4.39-2.81C85.85,42.82,87.86,41.58,88.86,39.76Zm-3.91,0c-1,.62-1.88,1.35-2.74,2s-1.6,1.18-2.37,1.8a41.21,41.21,0,0,0-.18-4.62A12.41,12.41,0,0,0,84.95,39.77Z"/><path class="cls-1" d="M89,49.33c-2.88,2.05-5.79,4-8.58,6.18-.74.57.21,1.48,1,1.15a64.76,64.76,0,0,0,9.49-5.12c2.44-1.57,5.44-3.27,6.79-5.74a.79.79,0,0,0-.95-1.1C93.85,45.46,91.42,47.64,89,49.33Z"/><path class="cls-1" d="M1.15,97.27a1.66,1.66,0,0,0,1.66.85c6.18-.47,12.79,0,18.84-1.31,1.16,1.29,4.35.9,4.16-1.22-.58-6.51-.62-12.9-1.94-19.35,0-.06-.09-.06-.14-.1a5.21,5.21,0,0,0,.77-.43,1.15,1.15,0,0,0,0-1.75c-3.12-2.25-7.54-1.1-11.33-1-3,.11-7.35-.53-9.87,1.22-.46-.23-1.05-.19-1.17.41C.77,81.32,2,88.47.09,95.05A1.75,1.75,0,0,0,1.15,97.27Zm20.11-1.49c-1.11-.22-2.25-.35-3.39-.48a13.26,13.26,0,0,0,3.53-2.06c-.05.78-.1,1.56-.18,2.34C21.22,95.66,21.26,95.71,21.26,95.78Zm.24-3.85a.46.46,0,0,0-.18,0,14.72,14.72,0,0,0-5.12,2,.85.85,0,0,0-.39,1.26c-1-.08-2-.16-3-.2,3.65-1.27,7.35-3.55,8.89-6.6C21.67,89.52,21.59,90.72,21.5,91.93Zm.21-15.15a8.08,8.08,0,0,0,1.42-.33,87.49,87.49,0,0,0-1.33,11.32.6.6,0,0,0-.72-.41,26.09,26.09,0,0,0-5.78,3.43c-1.88,1.27-3.85,2.45-5.71,3.76a.46.46,0,0,0-.15.23c-1.67-.05-3.35-.09-5-.18A35.09,35.09,0,0,1,4,87.5.88.88,0,0,0,5,88.16c3.54-.9,6.74-3,9.62-5C17.21,81.36,20.2,79.42,21.71,76.79Zm-7.6,0c1.42.1,2.87.25,4.32.31-1.94,1.23-3.71,2.78-5.55,4C10,83,6.74,84.58,4.16,86.79a.72.72,0,0,0-.21.37c0-1.25,0-2.51.07-3.77a52.56,52.56,0,0,0,6-3.53A19.22,19.22,0,0,0,14.1,76.75Zm-3.52-.07c-.9.57-1.76,1.21-2.6,1.77-1.32.89-2.65,1.83-3.91,2.82a45.63,45.63,0,0,0-.16-5.43C5.78,76.75,8.3,76.72,10.58,76.68Z"/><path class="cls-1" d="M37.82,97.27a1.66,1.66,0,0,0,1.66.85c6.18-.47,12.79,0,18.86-1.31,1.14,1.29,4.34.9,4.15-1.22-.58-6.51-.6-12.9-1.94-19.35,0-.06-.1-.06-.15-.1a5.22,5.22,0,0,0,.77-.43,1.15,1.15,0,0,0,0-1.75c-3.12-2.25-7.54-1.1-11.33-1-3,.11-7.35-.53-9.87,1.22-.46-.23-1-.19-1.17.41a50.17,50.17,0,0,0-.77,8.6c-.07.09-.17.15-.22.24a.69.69,0,0,0,.19.92,43.19,43.19,0,0,1-1.22,10.65A1.75,1.75,0,0,0,37.82,97.27Zm12-20.6h0c3.26.12,7,1,10-.22-1.28,6.36-1.32,12.7-1.89,19.13a1.4,1.4,0,0,0,0,.2c-1.14-.22-2.32-.37-3.5-.5l.1,0a6.71,6.71,0,0,0,1.87-1.32A.52.52,0,0,0,56,93a7.42,7.42,0,0,0-2.34.34,1,1,0,0,0-.38,1.77C52,95,50.71,95,49.42,94.9c3.49-1.35,6.84-3.5,8.62-6.41.32-.52-.31-1-.85-.76-3.79,1.5-7.43,4.06-10.74,6.3a.92.92,0,0,0-.38.75c-1.66,0-3.31-.09-4.95-.17a26.67,26.67,0,0,1-.46-4.29C44,89,47,86.75,49.85,84.74s6.2-4,8-6.76c.27-.43-.18-.93-.7-.82-3.48.77-6.62,3.17-9.46,5.06a65.48,65.48,0,0,0-7,5c0-1.15,0-2.3.05-3.46A31.56,31.56,0,0,0,45.07,81C46.8,79.73,48.81,78.49,49.81,76.67Zm-3.91,0c-1,.62-1.88,1.35-2.74,2s-1.6,1.18-2.37,1.8a41.21,41.21,0,0,0-.18-4.62A12.41,12.41,0,0,0,45.9,76.69Z"/><path class="cls-1" d="M4.49,91.86c-.66.6,0,1.6.91,1.39,3.39-.78,6.48-2.72,9.25-4.58,2.53-1.7,5.41-3.75,6.71-6.39a.54.54,0,0,0-.65-.77c-3,1-5.61,3.16-8.17,4.87S6.83,89.75,4.49,91.86Z"/><path class="cls-1" d="M50,86.24c-2.88,2.05-5.79,4-8.58,6.18-.74.57.21,1.48,1,1.15a64.76,64.76,0,0,0,9.49-5.12c2.44-1.57,5.44-3.27,6.79-5.74a.79.79,0,0,0-.95-1.1C54.8,82.37,52.37,84.55,50,86.24Z"/><path class="cls-1" d="M76.22,97.27a1.66,1.66,0,0,0,1.66.85c6.18-.47,12.79,0,18.86-1.31,1.14,1.29,4.34.9,4.15-1.22-.58-6.51-.6-12.9-1.94-19.35,0-.06-.1-.06-.15-.1a5.22,5.22,0,0,0,.77-.43,1.15,1.15,0,0,0,0-1.75c-3.12-2.25-7.54-1.1-11.33-1-3,.11-7.35-.53-9.87,1.22-.46-.23-1-.19-1.17.41a50.17,50.17,0,0,0-.77,8.6c-.07.09-.17.15-.22.24a.69.69,0,0,0,.19.92,43.19,43.19,0,0,1-1.22,10.65A1.75,1.75,0,0,0,76.22,97.27Zm12-20.6h0c3.26.12,7,1,10-.22-1.28,6.36-1.32,12.7-1.89,19.13a1.4,1.4,0,0,0,0,.2c-1.14-.22-2.32-.37-3.5-.5l.1,0a6.71,6.71,0,0,0,1.87-1.32.52.52,0,0,0-.41-.89,7.42,7.42,0,0,0-2.34.34,1,1,0,0,0-.38,1.77c-1.27-.11-2.55-.2-3.85-.25,3.49-1.35,6.84-3.5,8.62-6.41.32-.52-.31-1-.85-.76-3.79,1.5-7.43,4.06-10.74,6.3a.92.92,0,0,0-.38.75c-1.66,0-3.31-.09-4.95-.17a26.67,26.67,0,0,1-.46-4.29c3.34-1.35,6.31-3.58,9.2-5.58s6.2-4,8-6.76c.27-.43-.18-.93-.7-.82-3.48.77-6.62,3.17-9.46,5.06a65.48,65.48,0,0,0-7,5c0-1.15,0-2.3.05-3.46A31.56,31.56,0,0,0,83.47,81C85.2,79.73,87.21,78.49,88.21,76.67Zm-3.91,0c-1,.62-1.88,1.35-2.74,2s-1.6,1.18-2.37,1.8A41.21,41.21,0,0,0,79,75.84,12.41,12.41,0,0,0,84.3,76.69Z"/><path class="cls-1" d="M88.39,86.24c-2.88,2.05-5.79,4-8.58,6.18-.74.57.21,1.48,1,1.15a64.76,64.76,0,0,0,9.49-5.12c2.44-1.57,5.44-3.27,6.79-5.74a.79.79,0,0,0-.95-1.1C93.2,82.37,90.77,84.55,88.39,86.24Z"/></svg>