<svg id="Layer_1" data-name="Layer 1" xmlns="http://www.w3.org/2000/svg" viewBox="0 0 92.96 130.67"><defs><style>.cls-1{fill-rule:evenodd;}</style></defs><title>marker</title><path class="cls-1" d="M14.43,2.33c0-.24.24-.36,0-.42.57-.34,2-1,2.63-.42.67-.56,1.27-.43,1.94-.83,5.3,0,11-1.16,16-.42-.13.46-.26.07-.69.14a1.15,1.15,0,0,1-.56.55A67.11,67.11,0,0,0,23,1.36c-.47,0-1.12.11-1.39-.14a2.63,2.63,0,0,1-2.5,0c-.19,0,0,.24.14.28A21.39,21.39,0,0,1,14.43,2.33Z"/><path class="cls-1" d="M28.17,22c1.77,6.15,1.84,10.54,3.75,16.65a5.5,5.5,0,0,0,.69,3.61c-.1.25-.25,0-.42,0a100.41,100.41,0,0,1,2.5,12.07c.19,1.48,1,3.69,1.53,5.69.35,1.43.22,2.6,1.25,3.33a24.27,24.27,0,0,0-.28,2.77,2,2,0,0,1-1.67-.83c-.06-.48.42-.42.55-.69-2.64-14.24-5.77-29-8.46-42.32C27.7,22.12,28.15,22.29,28.17,22Z"/><path class="cls-1" d="M11,68.1c.35.27-.21.8-.56.83A1.94,1.94,0,0,1,11,68.1Z"/><path class="cls-1" d="M9.58,70c.07-.4.53-.4.83-.56A1,1,0,0,1,9.58,70Z"/><path class="cls-1" d="M22.48,70.73A39.1,39.1,0,0,1,19,78.5c.26,1.41-1.78,3.07-1,4.58.56-.09.3-1,1-1-.35.93-.4,1.83-1.8,1.94.05-.24-.11-.26-.28-.28.7-4.8,3.21-8.61,4.86-13.18A.9.9,0,0,1,22.48,70.73Z"/><path class="cls-1" d="M19,76c-.3.31-.72.59-.42.83,0,.19-.35.12-.55.14A1,1,0,0,1,19,76Z"/><path class="cls-1" d="M44.26,79.06c.18.51.82.57.69,1.39C44.49,80.22,44.34,79.68,44.26,79.06Z"/><path class="cls-1" d="M38.3,110.83h.42c0,.32,0,.52.28.55C38.7,111.8,38.32,111.14,38.3,110.83Z"/><path class="cls-1" d="M81,119.71a3.3,3.3,0,0,0,.55.55,132.5,132.5,0,0,0-12.49,8.46c.15.27.47.36.69.56-.15.62-1.33.83-1.94.55,0-.16,0-.25-.14-.28.58-1.67,2.45-2.83,4.16-4a50.59,50.59,0,0,1,8.88-5.41C80.8,119.94,81,119.91,81,119.71Z"/><path class="cls-1" d="M37.19,16.48a4.4,4.4,0,0,0-1.94.83c.09.19.42-.12.55.28A105.08,105.08,0,0,1,38.44,28c1.64,3.58,2.49,7.25,3.75,11.65,2.1,5.57,4,11.71,6,17.34a7.9,7.9,0,0,0,.55,4.58,14.94,14.94,0,0,1,5.83,5.55c2.44,2,4.52,4.36,6.94,6.38.7-1,.62-2.72,1.53-3.47C62.16,68.7,60.44,68,59.66,67c.25-.35.18-.15.69-.14-2.11-2.37-6-3-8.74-4.72-1.13-.3-2.44-.43-2.78-1.53.42.3,1.12-.31,1.39.28.11-.65.85-.53,1-.83,1.8,2,4.66,2.72,7.08,4.3a31.56,31.56,0,0,1,3.33,3.05,41.18,41.18,0,0,0,3.33,3.05.89.89,0,0,0,.69.14c-.21.71.83,1.27,1,2.08-.55,1.55.44,3-1.11,4.16-.25.19-.76.21-1.11.42a34.15,34.15,0,0,1-3.33,2.08,62.73,62.73,0,0,1-6.66,2.08c-3.44,1.05-6,2.45-8.19,2.64-1.11.81-2.92.85-4.58,1.39,0,.31.59.06.83.14.85,2.2-.15,4,1.11,5.83a1.56,1.56,0,0,0,0,1.53c-.2-.2-.54-.21-.42.28s.76-.13.55.83c-.15,0-.09-.28-.28-.28-.17,4.27,1.26,8.67,1.8,13.73.12.2.11.54.55.42.47.89-.33,1.47.28,2.22-.06.21-.18-.05-.42,0a2.92,2.92,0,0,1,.56,2.36c1.29,2.52.87,7.35,2.5,9.85,1.61-.62,2.46-2.71,4.44-2.5-.68,2.23-3.59,2.59-5.13,4.44,2.76-.71,4.52-3.62,7.91-4.16.56.92-.39,1.36-1,1.8s-1.19,1.33-1.94,1.94c-1.17,1-2,1.85-3.05,2.91a43.26,43.26,0,0,0,7.49-5c1,0,1.58-1.48,2.5-.69-1.11,1.85-3.38,2.54-4.58,4.3-.22,0-.24-.13-.42-.14a1.33,1.33,0,0,1-.42,1c4.1-1.59,7.85-5.47,12.49-6.52-.05.24.11.26.28.28-2,2.16-5,3.36-6.94,5.55,3.35-1.88,6.48-4,10.68-5,.17.43.44.76,0,1.11,1.18-.36,2.45-1.53,3.75-1.94,1.68-.53,3.29-.21,1.66,1.25-1.15,1-4.19,3-6,4.3a32.55,32.55,0,0,0-4,3.19c.08.5-.16.67-.28,1-.33,0-.52.22-1,.14-.36-1.05,1.11-2.19,2.08-2.77,1.28-1.59,3.36-2.37,4.72-3.88,1.27-.48,1.93-1.58,3.19-2.08-.18-.43-.62.26-.83-.14-3,1.53-5.73,4-8.74,5-.42.17.2.53-.14.69-1.56.48-2.66,2.14-4.3,2.08-.22-1.4,1.95-2.14,3.05-2.91,1.83-1.28,2.9-2.21,4.58-3.19-4,.67-7.34,4.24-12.07,6-.26-.27-.13-.59-.28-.69,1.66-1.86,3.86-3.17,5.69-4.86-.77,0-.87.89-1.53.55-.24.54-1.07.6-1.39,1.39-2.66,1-4.78,3.26-7.63,3.6-.21-1.73,1.49-1.56,1.94-2.63a21.71,21.71,0,0,1-5.27,2.77,14.5,14.5,0,0,1-.83-2.22,5.33,5.33,0,0,1-3.05,1c-.21-.12-.2-.44-.28-.69a8.51,8.51,0,0,1-3.19.14,11.26,11.26,0,0,0,.56,2.5c.31-.06.06-.68.14-1,.53.33,1.36,2.61-.14,2.49-1.51-1,0-4.87-3.75-4.3-.36.15-.27.75-.28,1.25-.62,0-.69.17-1.11-.14.19-.7,0-.81.14-1.25-1.67-.07-3.32-.46-5.13-.42,0-.58-.18-.54,0-1-.72-.62-2.21-.06-3.05-.28.11-.48-.21-.53-.14-1,1.49-.31,2.61-2.32,4.16-1.67a2.41,2.41,0,0,1-1.53,1.67c.68.59,2.42-.07,3.61.28C33.6,116.4,32.22,110,31.5,103.2,31,98,29.69,92.56,29.14,87a17,17,0,0,0-5.83,0c-4.61-1-7-.31-11.1-1-.3-.52,0-.67.28-1-1.48,0-3.26-1.38-4.72-.83-.29-.17-.54-.38-.83-.55-.6.79-2,.74-3.47.69-1.28-.9-1-3.3-2.22-4.3-.5,0-.67.26-1.11.28,0-.84-.82-4,1.25-3.88,1.4-1.87,3.14-5.09,5.55-7.08,1.94-1.61,3.55-5,6.66-4-.36,1.33-1.7.86-1.94,2.36-.84-.15-.94.44-1.39.69-1.88-.16-2.34,1.81-3.61,1.81C6,71.94,4,73.42,3.19,75.17c.52.2,1.2-.07,1.94.14C4,76.6,5.64,79,6,80.58a3.41,3.41,0,0,1,1.67.55c2.12-3.2,4.43-6.21,6.66-9.3,0-.45-.25-.59-.14-1.11.28,0,.89-.38.42-.69.78-.08.47-1.19.28-1.53C12.57,69.71,12,72.77,9,73,7.2,73.7,7.21,75.75,6,76.84c-.37-2,1-3.15,1.94-4.3.4-.47.68-1.07,1-1.39.06-.07.35.06.42,0,.65-.62,1.29-1.68,2.08-2.5a12.19,12.19,0,0,1,4.72-3.47c.23-.67-.35-2.31.83-2.5-1.56-9.1-2.55-21.18-3.33-30.52-.23-2.82-.09-6.56-.55-10.27.51.09.53-.3,1-.28.36.84.33,2.07,1,2.63-.9,2.59,1.27,6.15-.28,9.16-.06,6,1.12,12.57,1.25,17.9,1.18,3.58.81,8.52,2.36,11.93-.85-7.52-1.45-17-1.94-25.53a36,36,0,0,0-.28-5.55c-.13-.54-.2-.23-.14-.69a48.91,48.91,0,0,0-.28-5.13c0-1-.29-2.16-.28-3.19s.58-2-.28-3.05a7.75,7.75,0,0,1-4.58-.56c-1.49.35-3.25-.09-5-.41-.21.06.06.18,0,.41-.7-.18-.72-1-1.66-1-.29-.5-.28-1.29-.69-1.67,0-.55.21,0,.42-.28a12.41,12.41,0,0,1-.83-2.5c-.39.24-.5.26-1,0a7.09,7.09,0,0,1,0,2.36c-2.26.15-.22-4.3-1.25-6.38,0-.37.29-.36.55-.42A3.37,3.37,0,0,1,.7,6.08c2-.91,3.26-2,5.41-2.5.49-.22.08.47.42.42s0-.46-.14-.42a33.42,33.42,0,0,1,7.49-1.66c0,.39.66.17.56.69C9.69,3.38,6.8,3.79,2.78,5.8c.33.15,1.81-.5,1.39.56-.28.1-.64,0-.69-.28-.52.22-1.1.38-1.11,1.11.06.31.68.06,1,.14a11.55,11.55,0,0,1,.56,2.22C4.08,9.5,4,9.2,4,9c4.66,1.09,7.55.43,13,.42v.42c.16,0,.12-.25.14-.42,7.47-.27,14.77-2,21.64-3.88,1.43-.79,2-2.56.28-3.47,0-.11.14-.14.14-.28.5-1,2,.12,2.22,1.11.16-.21.52-.22.69-.42.64.92,1.37,1,1.8,2.22.47-.25.67,0,1.25,0,0,.69-.62.77-1.11,1,.22,2.59,1.48,6.54-.14,7.77.16.54.68.71,1.11,1-.1.45-.69.42-1.11.55,0-.43-.69-.23-.55-.83a12.72,12.72,0,0,0-2.77,1.25c-1.06.55-2.31,1.64-2.91,1.25-.35.35-1,.39-1.39.69C36.12,17.07,37.14,16.91,37.19,16.48Zm.42-8.32c.14,1.46-.44,2.44-.28,4.3.71-1.31.46-3.9,1.53-4.44a5.27,5.27,0,0,1,1,.28,8.83,8.83,0,0,0,1.11,4.16c0-.08,0-.16.14-.14,0-.2.23-.24.28-.42-.59.12-.7-.23-.83-.56.08-1.77.14-3.42,1-4.72C40.05,6.6,39,7.71,37.6,8.16Zm-1.39.56a20,20,0,0,0-2.64.83c0,2.22-.75,4,.83,5C35.23,12.6,35.59,10.44,36.22,8.71ZM37.74,15a3.54,3.54,0,0,0,2.5-1.8c-.94-.72-.72-2.61-1.39-3.61C38.14,11.4,38.86,13.58,37.74,15ZM1.53,10.66c-.62,0-.13,1.25.28,1.53.25-.74.11-2.58-.55-2.36C1.48,10,1.4,10.41,1.53,10.66Zm29.27,6.94c1.91-2.09.29-5.08,1.53-7.91-1.22,0-1.68,0-2.36.69.87.44.42,3.26,0,3.47C30.53,15.3,30.25,16.51,30.81,17.59Zm3.88-1.67c-1.62-.33-2.13-2.09-2.36-3.05-.32,1.86.29,2.73-.14,4.3a36.63,36.63,0,0,0,5.27-2.08c-1.7-1.1-.87-3.6-.83-5.41C35.32,11.58,36.1,14.45,34.69,15.93Zm-7.77-5.27c.37,2,.39,4.62,1.25,6.52,1.75-1.79.35-4.22,1.25-6.8A3.77,3.77,0,0,0,26.92,10.66Zm-2.5,8.88c1.56.21,2.34-.59,3.75-.83-1.72-1.33-1.57-4-1.8-6-.52-.11-.1.74-.69.56,0-.19-.24-.13-.28-.28a1.77,1.77,0,0,0,.14-2.22,3.55,3.55,0,0,1-1.8.28c.33,2.27-.38,5.63.69,7.35a4.17,4.17,0,0,0,2.77.14v.28A17.21,17.21,0,0,0,24.42,19.53ZM4.86,14a17,17,0,0,0,.42-2.77c-.26-.25-.92-.1-1.39-.14A4,4,0,0,0,4.86,14Zm15.4-2.5a5.61,5.61,0,0,1,0,3.61c.89,1.28.58,4.26,3.19,3.61-1-1.94-.43-5-1-7.49A7.43,7.43,0,0,0,20.26,11.49ZM7.77,13c.12-.29,0-.86.56-1,1.25.09.33,2.36,1.67,2.36a2.34,2.34,0,0,1,.69-2.08c.65,1.41-.28,2.8-.28,4.58-.33.09-.23.6-.83.42-.69-.66.09-1.89-.69-2.36a3.87,3.87,0,0,1-1,1.94c-1.42-.82-.54-3.31-1.67-4.58-1.17,1.38.08,3.24-1.11,4.16-.63-.62-1-1.46-1.67-2.08.58,4,6.42,4.21,10.54,5.27,1.84-.71,4.72-.14,6.38-.83-.45-2.13-1.62-5.24-.69-7.08a59.77,59.77,0,0,1-12.63-.14C7.24,12.16,7.34,12.75,7.77,13Zm-6,.28c-.08-.29.17-.91-.14-1C1.41,12.49,1.14,13.36,1.81,13.29Zm27.06,5.13c.25-.35.89-.31,1.25-.55-.41-.51-.39-1.46-.83-1.94A13.53,13.53,0,0,1,28.86,18.43ZM40.52,48.53c.14-.41.58-.53.69-1A33.75,33.75,0,0,1,37.74,37c-.35-.2-.37-.74-.69-1-1-3.91-3-7.87-3.88-12.35.25-.21.33-.6.55-.83.35.08.68.56,1,.28-.29-1.51-.92-2.69-1.25-4.16.54.22.29-.36.55-.42.55,0,.62,1.13,1,.83-.45-.47-.2-1.42-.42-1.8-1.3.49-2.5.25-3.19,1.39,1.13,4.87,1.91,9.28,3.05,14.71.28,1.32.72,3.37,1.11,5.14.44,2,1.12,3.64,1.53,5.41,0-.05-.3.08-.28.28.23,2.17,1.87,4.82,1.67,7.21,1,3.75,2.69,9.18,2.36,12.49-1.58-.93-1.27-3.1-1.53-4.86-.48-3.25-1.51-7.28-2.36-10.55-1.35-5.2-2.3-11.5-3.33-16.09-.54-.75-.64-2.38-.83-3.05-.47-.05-.22.61-.83.42a11.45,11.45,0,0,1,0-2.5c-.14-.42-.55-.56-.69-1,.55-2.91-.5-5.51-1-7.63-.64.19-1.42.24-2.08.42.15.63.16,1.35.28,1.67-.56-.33-.34.22-.83.28a6.92,6.92,0,0,0-.28-1.67c-3.78.13-7.51.54-11,.56-.06.72.1,1.67-.42,1.94.9,7,.71,12.46,1.53,18.59,0,.18-.24.13-.28.28a77.45,77.45,0,0,1,.69,12.35c.67.45.22,1,.28,1.67.31,3.4,1,7,1.39,10.68a1.53,1.53,0,0,1,.55.83c-.56.15-.23.38-.42,1,3.74.77,7.49,2,12.35,1.39,4.21-.52,9-2.75,12.35-4.3-.05-.24.21-.36,0-.42C43.36,58.83,42,54,40.52,48.53ZM35,21.76c1.52.54,1.12,2.92,2.08,4.3-.51-1.76-.57-5.16-2.08-6.38C34.71,20.64,35.31,20.94,35,21.76Zm.42,2.5c0,.22-.3.1-.42,0,.19.51.5,2.06,1,1.39-.71.11-.32-.88-.55-1.25C35.46,24.39,35.54,24.28,35.38,24.25Zm.28,5.55c-.32-1.25-.44-2.7-1.11-3.61C35,27.56,34.86,28.49,35.66,29.8ZM37.74,28a2.77,2.77,0,0,0-.42-1C37.26,27.56,37.39,27.89,37.74,28Zm1,3.05a20.88,20.88,0,0,0-.83-2.5A4.12,4.12,0,0,0,38.71,31.05Zm.83,8.74A66.21,66.21,0,0,0,36.63,29c.38,2.67,1.46,5.85,1.94,8.88.14.32.54.38.69.69C39,38.49,39,39.4,39.55,39.79Zm-.69-6.52c.21,0,.57.52.69.14-.15-.09,0-.46-.42-.55C39.1,33.05,38.9,33.09,38.85,33.27Zm3.47,13.6c.27,1,.4,2.09.69,2.91.41,1.14,1.51,2.16.56,3.05-1.09-.21-.93-1.66-1.53-2.36.45,3.57,2.11,6.11,2.08,9.16.83.86,1.13,2.9,1.11,4.16a4,4,0,0,0,2.22-1.39c-1.06-.37-.49-1.47-.55-2.22a32.16,32.16,0,0,0-1-3.47A109.37,109.37,0,0,0,39.55,36C40.53,38.94,41.34,43.27,42.32,46.87ZM49,63.1c0,.76-.73.21-.83.69.43.38.8.58,1.11.42.15.52-.29.45-.42.69,1.23,1.69,2.25,3.58,3.47,5.27a11.24,11.24,0,0,0,3.05,4,3.11,3.11,0,0,1-.69-1.94,1.5,1.5,0,0,1-1-1.67c.2,1.56,1.62,1.06,1.25,2.77,1.06.86,2.88,2.36,2.22,4a6.24,6.24,0,0,1-2.36-1.8c-2.33-2.65-3.84-6.17-6-9,.07-.54-.35-.57-.42-1-.39,0-.59.24-.55.69.1.14.53-.09.55.42-.63-.26-.24.5-.55.55,0-.82-.45-1.13-.56-1.8-.61,0-.7.51-1.39.42.1,1.86,1.36,3,2.22,4.44a24.91,24.91,0,0,0,2.22,3.61c0-.11,0-.27.14-.28.8,2.26,2.24,3,2.64,5.69A33.19,33.19,0,0,0,61.05,76c.39-1.39-.14-1.45-.83-2.08-3.11-2.84-6.6-6.88-9.57-9.71,0,.41.19.51,0,.69A3.12,3.12,0,0,0,49,63.1Zm-4.44,3.33c-.6.32-1.44.41-1.8,1a49.85,49.85,0,0,0,4.86,10.68c.52.15.22-.52.69-.42.53.56,1.29,1.64.69,2.5h-.83c-3-3.29-4.43-8.06-6.38-12.35A60.26,60.26,0,0,1,25.26,70c-.22-.2-.11-.72-.56-.7-1.34,0-3-.66-4.3,0a8.92,8.92,0,0,1-2.91,3.75,1,1,0,0,1,0,.83q-2.33,4.13-4.3,8.6c.21,0,.51,0,.56.14a5.19,5.19,0,0,0-.56,1.39c2.22.57,5.07,1.22,7.35.55.27-4.22,2.21-7.25,2.91-10.82.8-.59.45-2.33,1.8-2.36.32,1.51-1,2.52-1.53,4-.29.77-.14,1.71-.83,1.8.12,2.15-1.5,3.32-1.39,5.55-.4-.17-.74,1.54-.56,1.94a6,6,0,0,1,2.22.42c3.12-1,6.88-.6,10-1,3.89-.47,7.5-1.15,10.68-1.8a41.78,41.78,0,0,0-3.05-8.6c-.79-1.71-2-3.38-1.94-4.72,1,.23,1.12,1.32,1.53,2.08a40.09,40.09,0,0,1,4,10c.6,0,1.21.21.83.83a4.55,4.55,0,0,0,1.39-.28c-.23.09-.33-.19-.14-.28,1.26-.6,3.92-1.09,6-1.8C49.94,75.55,47.31,70.29,44.54,66.43ZM15.68,69.48c.36-.79,1.1-1.21,1.11-2.36-.45.17-.11-.45-.56-.28A5.68,5.68,0,0,0,15.68,69.48ZM8.19,81.55a5.25,5.25,0,0,1,1,.69c0,.26-.46.1-.42.42a6.82,6.82,0,0,0,3.19,1,108.45,108.45,0,0,1,7.49-14.71c-.84-.13-1.21-.73-2.08-.83C14.48,72.77,11.31,77.14,8.19,81.55Zm54.94-7.08c.23-.37.59-.61.83-1,.36,0,.2.54.55.55.59-.54.74-.85.42-1.8-.55.14-1.05.24-1.25-.28C63.73,73,62.87,73.75,63.13,74.48ZM2.5,75.73a.61.61,0,0,1,.56-.28v-.28c-.14,0-.17-.11-.28-.14C2.85,75.36,2.08,75.51,2.5,75.73ZM1.39,77.95c.5-.18.77-2,.55-1.94A4.59,4.59,0,0,0,1.39,77.95Zm2.22,1.39a2.31,2.31,0,0,0-.55-1.39C2.61,78.28,3,79.29,3.61,79.33Zm44.12,2.91a20.12,20.12,0,0,0,5.41-1.8A15.57,15.57,0,0,0,47.73,82.25Zm-44.12.69A3.66,3.66,0,0,0,6,83.36c-.52-1-2.53-1.26-2.64-2.22C3.24,82.12,3.65,82.31,3.61,82.94Zm32.33,1.8c1.84-.22,3.77,0,5.27-.83C39.57,84.26,37.48,84,35.94,84.75Zm3.75,1.52c1,0,.52,1.35,1.25,1.39-.05-.75-.56-1.42-.28-2.08C40.07,85.55,39.54,85.57,39.68,86.27ZM37.6,89.19a10.34,10.34,0,0,1-.28-2.91h-1c-.06.76.67,1.79.42,2.64-.54,0-.18-.84-.69-.83-.33.29,0,1.1.14,1.39C36.27,88,37.12,90.24,37.6,89.19Zm-2.5-2.64c-.3-.31-.47.12-1,0,.35,3,.47,6.83,1.53,9.57C35.9,92.84,35,89.5,35.11,86.55ZM30.94,87v1c1.65,0,1,3.68,1.94,4.44.66-1.52-.09-4-.14-5.69C31.92,86.55,31.69,87,30.94,87ZM38.16,89a37.88,37.88,0,0,1,.83,11.1c-.63-.12-.77.24-1.11.42.8.32.92,1.54.55,2.5a2.3,2.3,0,0,1,.28,2.5c.72.14.65,1.26.28,1.67a4.09,4.09,0,0,1,.69,3.33c1.67,4.2,1.59,9.23,3.19,13.46a5.26,5.26,0,0,0,1.8-.14A13.75,13.75,0,0,1,45,120.4c-.09-.19-.53,0-.56-.28-1-5.5-1.87-9.95-2.36-15.12a7,7,0,0,1-.69-1.11c-.56-4.87-1.2-10.53-2.77-15.4C38.34,88.58,38.35,88.91,38.16,89ZM36.49,91.4a5.78,5.78,0,0,1-.14-1.67C35.65,89.91,36.45,91.53,36.49,91.4Zm1.67,2.92c-.35-.51,0-1.39-.42-1.53C37.76,93.34,37.89,94.49,38.16,94.32Zm-5.41,2.91a5,5,0,0,0-.42-4A6,6,0,0,0,32.75,97.23Zm9,.42c0-.46,0-.85.28-1-.71.2-.24-.78-.69-.83C41.36,96.58,41.3,97.37,41.77,97.65ZM42.32,99c.19-.39.07-2-.42-1.67C42.59,97.89,41.51,98.92,42.32,99Zm-5.69,23.17c-.49.19.07,1.3.14,1.8.74.31,1.35-.41,2.5,0a2.59,2.59,0,0,0-.14-1.11c-.33-.06-.3.25-.69.14-1.3-2.11-1.24-6.2-1.67-9.16-.71-4.09-2.16-8.76-2.08-12.76-.41,0-.52.19-.69,0-.37-1,.05-2.83-.55-3.61.08,1.28-.75,1-1.39,1.39a6.21,6.21,0,0,0,.42,2.64c-.2-.47.86.95.55,2.08-.59.75-.11,1.17.28,1.94-.12.13-.42,0-.42.56,0,.29.38-.21.42.28.94,2.76.63,5.63,1.67,8.46-.41.2.36.72-.28.69,0-.08-.11-.16-.14,0C36.22,117.17,35.33,120.34,36.63,122.21ZM34.69,98.9a2.75,2.75,0,0,1,.14,1.53,1.6,1.6,0,0,1,.28,1.94c.74.94.15,3.5,1.39,4.3-.07,1.46-.4,2.79.42,4.3,1.2-1.23-.08-4.19.14-7.21-.24-.06-.36.21-.42,0,.75-.41-.65-1.31.28-1-.27-1.18-.06-2.55-.42-3.88-.78.69.17,2-.14,2.91-.4-.53-.39-1.46-.69-2.08-.45-.12-.29.36-.55.42C35,99.68,35,99.13,34.69,98.9Zm3.05,2.91c-.46-.64.18-1.93-.69-2.36C37.6,100.09,36.82,101.41,37.74,101.81Zm4.72-.28a3,3,0,0,0-.42-1.11C42.09,100.89,41.86,101.62,42.46,101.53Zm-.28,1h.42c-.13-.24,0-.74-.42-.69A.87.87,0,0,1,42.18,102.5Zm-4.86-.28c1,3.48.33,7.17.69,11-.22.24-.27.65-.56.83.42,1.66.52,3.38,1,5.83.57.11.26-.66.83-.55a39.51,39.51,0,0,0,1.11,5.13,3.12,3.12,0,0,1,1.53,0c-1-5.16-2-10.65-3.19-16,0,.22,0,.48-.28.42.53-2.31-.53-4.32-.83-6.94C37.59,102.12,37.56,102.28,37.33,102.23Zm5.13,3.05c.08.22.5.26.55.56s-.2.9-.14,1.39c0,.28.34.61.42,1,.19.92,0,2.17.28,3.05s1,1.26,1,2.08c-.12.25-.36.38-.42.7.69,1.14.41,2.17,1.11,3.61a80.67,80.67,0,0,0-2.77-14.71C42.87,103.74,42.2,104.59,42.46,105.28Zm2.91,15.12a2.23,2.23,0,0,0,0-2.64C45.12,118.8,45.84,119.67,45.37,120.4Zm5.55,4.3c.06-.36.41-.42.42-.83.62-.61,2.72-1.62,2.5-2.08-1.19.75-2.34,1.54-3.47,2.36h-.69c0,.72-.46,1-1.11,1.11,0,.37-.58,1.24,0,1.25C49.4,126.51,50,125.08,50.92,124.7Zm-13-.28c.23,0,.88.45.83-.14C38.63,124,37.82,124.11,37.88,124.43Zm-1.67,1c.2-.44-.83-.35-.83-.14A1.17,1.17,0,0,0,36.22,125.4Z"/><path class="cls-1" d="M35,1.08c0-.78,1.34-.14,1.66-.55.26,0,.1.46.42.42.59-.16,1.09.06,1.8-.42.91.29,2.21.19,3.05.55a.14.14,0,0,1-.28,0C40.49,1.1,39,.51,38,1.22,37.09.86,35.71,1.63,35,1.08Z"/><path class="cls-1" d="M48.56,68.79a2.58,2.58,0,0,1,.69.83C49,69.35,48.46,69.4,48.56,68.79Z"/><path class="cls-1" d="M86.16,123c-3.44,1.7-6.39,3.88-10.27,5.14a2.5,2.5,0,0,1,1.39-.7c2.08-1.3,4.61-2.14,6.38-3.75,2.1-.85,4-2.29,6.11-3.33,1-.48,2.06-1.47,3.19-1-1.8,2-4.13,2.93-6.52,4.44A63.6,63.6,0,0,0,79.37,129c-.76.65-.91,1.28-2.22,1.39C79.45,127.23,83,125.37,86.16,123Z"/><path class="cls-1" d="M87.83,119.15c0,.35-.27.44.14.56A112,112,0,0,0,75.48,128c.31.3-.11.47,0,1-.8.27-1.53.6-2.36.83,0-.35-.31-.34-.42-.55,3.23-3.34,8-5.69,11.24-8.6,0,.28-.38.27-.42.56.7-.19,1.06-.7,1.8-.83.06-.3-.2-.26-.42-.28A3.1,3.1,0,0,1,87.83,119.15Z"/></svg>