<svg id="Layer_1" data-name="Layer 1" xmlns="http://www.w3.org/2000/svg" viewBox="0 0 101.53 77.96"><defs><style>.cls-1{fill:#846612;fill-rule:evenodd;}</style></defs><title>motorbike</title><path class="cls-1" d="M26.19,33.71c.15,0,.18.19.34.21-.29.55-1.36.39-1.38,1.17a.72.72,0,0,1-.56-.08C24.73,34.22,25.87,34.34,26.19,33.71Z"/><path class="cls-1" d="M28.86,34a21.1,21.1,0,0,1-3.11,2.14A5.62,5.62,0,0,1,28.86,34Z"/><path class="cls-1" d="M30.43,34.5a11,11,0,0,1-2.58,1.67c-.29.13-.14.65-.75.48A6.33,6.33,0,0,1,30.43,34.5Z"/><path class="cls-1" d="M32.55,34.73A9,9,0,0,1,29.22,37c.32-1.07,1.92-1.12,2.35-1.77,0-.06-.19-.13-.23-.1C31.7,34.87,32.21,34.56,32.55,34.73Z"/><path class="cls-1" d="M36.1,34.9c-1.31,1-2.82,1.74-4.19,2.64.19-.79,1.2-1.23,1.91-1.64A6.08,6.08,0,0,1,36.1,34.9Z"/><path class="cls-1" d="M38.89,35.43C37.77,36.49,36,37,34.69,37.84c.09-.77,1.07-1,1.71-1.3a7.32,7.32,0,0,0,2.16-1.21A.52.52,0,0,0,38.89,35.43Z"/><path class="cls-1" d="M41.12,35.66c.12,0,.09.22.23.21-.61.77-1.8,1-2.7,1.46-.58.31-1,.93-1.74.75C37.92,36.9,40.09,36.8,41.12,35.66Z"/><path class="cls-1" d="M40.88,37.66c0,.21.36-.15.66,0a6,6,0,0,1-2.07.65c.13-.45.68-.75,1.06-.94,1-.49,2.26-.85,3.37-1.27C43.23,36.91,41.87,37.12,40.88,37.66Z"/><path class="cls-1" d="M45,36.8c-.82.91-2.11,1.39-3.11,2.14-.23-.57,1.61-1.46,2.35-1.88-.18-.33-.48.11-.77,0C43.82,36.68,44.83,36.45,45,36.8Z"/><path class="cls-1" d="M86.32,36.17a2.49,2.49,0,0,1-.65.25c-.38-.2-.27-.94-.61-1.19C85.55,34.29,86.47,35.08,86.32,36.17Z"/><path class="cls-1" d="M21.34,38.92c.06.33-.35.25-.54.36C20.77,39,21.06,38.95,21.34,38.92Z"/><path class="cls-1" d="M44.13,54.89c-.92,1.67-3.39,2.84-4.77,4.43.75-.22-.76,1.21-1.29.84C39.78,58.13,42.13,56.66,44.13,54.89Z"/><path class="cls-1" d="M54,58.08c.17.33,0,.4,0,.88-.57-.38-1.18.57-1.5,1.07C52.28,59.48,53.06,58.17,54,58.08Z"/><path class="cls-1" d="M47.79,64.24c-.43.72-1.35.35-2.19.44-2.65.27-5.51.59-9,.76-.86,0-1.92.36-2.67-.2C39.19,65.16,42.85,64.68,47.79,64.24Z"/><path class="cls-1" d="M47.19,65.49c-4,.25-10.59.71-14.47.69-.2-.19.5-.34.76-.37C37.28,65.34,43.31,65.6,47.19,65.49Z"/><path class="cls-1" d="M47.34,66.48c-2.92-.24-5.9.39-9.17.55-1.29.06-2.76.4-3.88-.15,2.59,0,5.32-.35,7.83-.59C43.75,66.12,45.88,65.9,47.34,66.48Z"/><path class="cls-1" d="M4.85,64.84c1-2.41,2.2-4.55,2.52-7.54-.35.45-1.53,1.07-1.67,2.07-.58-.71.67-1.47.55-2.46,2.3-3.06,5.4-6,9.88-6.45-.74-1.33-1.25-4.5-2-5.77.89-.44.89.7,1.06,1.39,1-.6,1.58-1.52,2.56-2.12-.76-.56-1.21,0-1.75.42-.41.1-.26-.41-.57-.42a3.17,3.17,0,0,1-2,.43C9,47,5,50.1.86,53A3.45,3.45,0,0,0,0,51.23c2.5-3.29,5.83-5.83,8.89-8.62,0-2.68-.45-4.93-.68-7.39.24-.26.41.14.46.42-.07-.91.62-1.13.92-1.7,1.11.3,1.93-.65,3.4-.72.33.34.27,1.1.62,1.41,2-.57,4.37,0,6.09-.07.45-.46,0-1.08,0-1.66.05-.41.35-.48.51-.91.38-1-.09-2.79,1-3.26.56.69-.26.92-.14,1.67.45-.38.47-1.19.58-1.8a14.16,14.16,0,0,0,4.89.43c7.32,0,14.06,1.39,20.47,2,1.07.53,2.68.46,3.7,1,.33,3.8.18,7.92-1.3,10-.31,0-.62-.09-.58-.53-.61.14-.27,1.27-1.06.94.56,3.89,2,7.7,5,9.29.07.24-.2.17-.21.34A46.37,46.37,0,0,0,66,53.41c-.38,1.39-3,.22-4.39.87a20.32,20.32,0,0,1,3.34.39c.31-.13-.36-.09,0-.33s.48.15.89.18c.59-1.12.73-2.65,1.49-3.61,0-.29-.07-.63.07-.78a39.59,39.59,0,0,1,5.69-8.35c.16-.32-.06-1,.51-.91C72.13,36.2,72,30,70.42,25.52c.06-.58.52-.8.6-1.36-.34-.2-.18,1-.85.81a9.84,9.84,0,0,0-.09-2,1.78,1.78,0,0,0-1.21.17c-.25-.65-1.06-.69-1.7-.92-.71.73-1.39,1.93-2.91,1.58a1.85,1.85,0,0,1-.62-1.3c-2.78-1-7-.43-8.44-2.92.29-.86,0-2.25.41-3,2.3.26,5.67.63,8.36,1.15a2.12,2.12,0,0,1,3.17-.82,7.64,7.64,0,0,1,.25,2.87c-.85-.18-.14-1.61-.87-2.06-.78.2-.47,1.1-.58,1.69a17.82,17.82,0,0,0,6.16,1.48A78.18,78.18,0,0,0,67.32,9.05c-1.13.41-1.49-.29-2.36-.66S63.4,8.06,63,7.6c-1.87-2.42,1-7.3,4.13-6.4,1.43.41,3.24,2.22,3.27,3.61a4.37,4.37,0,0,1-1.72,3.4c1.37,4.43,3.35,8.17,5,12.28,2.86-.42,5.52-1.14,8-.38.88-3.82.89-8.42,2.09-11.95C83,7.5,81.8,7.48,81,6.74a5.76,5.76,0,0,1-1.3-1.82c-1.27-4.64,6.64-7,7.86-2.48.07.24.41-.39.66,0,.22,3.09-.84,5-3.39,5.59,0,4.69-1.36,8.21-1.84,12.49-.21.19-.14,0-.44,0,1.31,3.13,2.32,6.56,3.34,9.7a5.42,5.42,0,0,1,4.76,4.54,7.39,7.39,0,0,1-1.11,4.7c2.53.83,5.8.64,8.71,1.47a9.85,9.85,0,0,0,3,.52.3.3,0,0,0,.24.32,5.31,5.31,0,0,0-.13,2c-.94.77-3.3.24-3.93,1.29-.21,0-.29-.22-.56-.2-2.53.94-5.9,1.12-8.66,1.85.17,1.21.46,2.28.71,3.4,1.2.35,2.33.77,3.59,1,4.08,2.38,8,6.53,7.73,13.48-.1,2.14-1.13,3.45-1.63,5.39-2.73,2.67-5.46,6.23-10.64,6.71a21.63,21.63,0,0,1-3.31.27,18.25,18.25,0,0,1-3.14-.74,13.72,13.72,0,0,1-4.28-1.57,10.6,10.6,0,0,1-3.15-3.39c-.23.11.23.43.15.77-.39-.15-.37-.76-.6-1.08-1.93-1.2-2.87-4-2.88-7-6.59-.41-11.8,1-19,.79.06-.74.72-.88.26-1.56,1.72-1.85,3.74-3.43,5.51-5.24a6.8,6.8,0,0,0-1.44,0c-1.42,1.28-2.71,2.68-4,4.07,0,.39-.29.29-.08.67-.41,0-.31.14-.66,0,.46,2-.64,4,.78,4.83-.36.1-.43.51,0,.55a26.68,26.68,0,0,1-5.2,0c-4.49,0-9.69.46-14.93.49-.42,0,0-.09-.13-.33-.66,1.48-1.66,2.65-2.24,4.2-1.92,1.67-4.16,3-6.09,4.72-3.14.33-6.11,1.17-8.95.42-.23-.2-.05-.4,0-.66-1.71,0-2.61-.93-4.15-1.13a5.43,5.43,0,0,0-2.19-1.78C5.4,71.7,4.37,67.27,4.08,62.55c.45-.29.34-1.1.7-1.47A6,6,0,0,1,4.85,64.84ZM82.24,3.92C82.79,2.58,84,1.81,84.52.49A1.55,1.55,0,0,0,83.4.32c-.11.35.19.26.24.43a2.21,2.21,0,0,1-.63.8,10.24,10.24,0,0,1-1.11,2.27c0,.69-.4,1.83-.93,1.37.25-1.4,1.91-2.51,1.36-3.94-.57,1-1.47,1.7-1.74,3,.35.14-.31,1.78.86,1.84a20.92,20.92,0,0,0,1.72-3.4A11.11,11.11,0,0,0,82.24,3.92ZM64.76,2c.44,0,.6-.23,1.1-.16-.09-.3.21-.23.2-.45A2.2,2.2,0,0,0,64.76,2Zm17.67,3.7a.52.52,0,0,1-.34-.09c.1.56-.21.85.16,1.1a11.64,11.64,0,0,0,1.42-2.84c.45-.94.82-2.21,1.77-2.41-.32.73-1,1.17-1.12,2,1.22-.2.94-1.76,2-2.09.14,1-1.27,1.7-.74,3.14a3.18,3.18,0,0,0-1,2.37,4.07,4.07,0,0,0,2.42-5C86.37,1.39,85.47.52,84.63.59,84.39,2.22,82.36,4.09,82.44,5.68ZM66.1,2.14c.18,0,.38,0,.34.21.38.06.12-.46.54-.36.23.07.47.31.25.54.2.06.44-.35.55,0-.07.27-.18.77,0,1,.41,0,.41-.47.52-.8a3.13,3.13,0,0,0-1.7-.92C66.83,2.24,66.07,1.82,66.1,2.14ZM80.56,3.55a6.41,6.41,0,0,1,1.13-1.94C80.69,1.63,80.34,2.78,80.56,3.55ZM63.51,3.48c.09,0,.22,0,.23.1a3.08,3.08,0,0,0-.39,1.13c0,.5.22,1.62.28,1.32a29.26,29.26,0,0,1,.73-3.36C63.81,2.69,63.7,3.12,63.51,3.48Zm1.3,1.82c.18-1,.51-1.79.76-2.69C64.18,2.62,63.95,4.73,64.81,5.3Zm1.1-2.49c-.24,1.69-1.17,3.3-1.09,4.92a25.63,25.63,0,0,0,1.54-4.94Zm.23,2.42a3.3,3.3,0,0,0,.8-1.92c-.14,0-.16-.13-.34-.1C66.54,3.91,66,4.73,66.14,5.23Zm1-.49c.41,0,.47-1.11.17-1.11C67.28,4,66.83,4.41,67.11,4.75Zm1.75-.53c.17-.18,0-.52-.14-.66C68.7,3.78,68.55,4.12,68.86,4.22Zm-1.17.94c-.05-.47.36-.9-.05-1.11C67.65,4.42,67.2,5,67.68,5.16ZM84.63,7.57c2.14-.44,3.12-2.16,3-4.46C87.73,5.59,86.14,6.54,84.63,7.57ZM64.35,7.31c.11-.58.23-1.13.36-1.68-.17-.24-.4-.41-.58-.64C64.09,5.88,63.39,7,64.35,7.31Zm3.43-.05c.12-.53.09-1.18.48-1.46.12.39-.4.76-.06,1,.37-.5.38-1.55-.2-1.87C67.9,5.68,67.28,6.58,67.78,7.26Zm1-.49c.58-.06.89-1.49.25-1.67C68.87,5.76,69.13,6.24,68.76,6.77ZM65.6,7.92c.28,0,.55-1.45.47-1.79C66,6,66,6,65.84,6,65.87,6.64,65.18,7.64,65.6,7.92Zm-2-.35c.09-.56-.39-1.12-.6-1C63.19,6.93,63.27,7.38,63.59,7.57Zm19.34-.81c.1.27.59.13.79.29.1-.55.37-.93.48-1.46a.72.72,0,0,0-.56-.08C83.63,6.13,83.05,6.24,82.93,6.76ZM66,8l.55,0c.07-.28.28-1.18-.27-1.09C66.39,7.4,66.12,7.62,66,8Zm2.1,0c.47,0,.55-.35.75-.59C68.42,7.42,68.4,7.82,68.15,8Zm-1.53.4-.66,0A.33.33,0,0,0,66.62,8.42ZM82.75,19.28c.62-3.42,1.85-6.84,1.6-10.71C83.83,12.06,83.28,15.84,82.75,19.28ZM69.56,11.94c-.5-.54-.5-1.62-1.09-2.05.32.65.3,1.18.51,1.53,0-.09,0-.22.1-.23C69.16,11.45,69.36,12.18,69.56,11.94Zm13.78-1.21c-.23,1.05.25,1.37,0,0Zm-.6,6c-.05-.55.47-1.12.15-1.56C82.9,15.65,82.48,16.74,82.74,16.74Zm-26.26,2c2.42-.18,4.71.79,7,1.11.05-.75-.92-.63-1.36-.71-1.89-.33-3.81-.54-5.47-.85,2-.38,4.63.63,6.9.78.09-.23.2-.45.3-.68-2.29-.38-5.45-1.22-7.69-1.07.06.76-.42,1-.24,1.89,2.36.66,5.18.82,7.6,1.41-.17-.72-1.16-.66-1.81-.8a15.29,15.29,0,0,0-4.35-.68C58.06,19.45,56.41,19.25,56.48,18.76Zm10.11-1.59c-.79-.46-1.92-.26-2.07.65C65.22,17.68,66.28,17.17,66.59,17.17Zm15.7,1.91c.08-.55.44-1.9.24-2C82.43,17.57,82.07,19.32,82.3,19.08Zm-18,.19c.09-.21.32-.83.06-1C64.34,18.57,63.72,19.19,64.26,19.28Zm1.83,1.24c0,.38.21.46.36.65-.14-.41.26-.33.19-.67A.69.69,0,0,0,66.09,20.52Zm6.43.25c.16,0,.41,0,.44-.13-.22-.1-.2-.48-.57-.42C72.35,20.49,72.6,20.45,72.52,20.77Zm-5.5.81a.91.91,0,0,0,.51-.91c-.21,0-.25-.11-.45-.09C67.17,21,66.92,21.13,67,21.58Zm9.36-1.11a24.07,24.07,0,0,1,3-.25C78.72,19.84,77.26,20.2,76.38,20.47Zm-8,1c.09-.24.32-.34.3-.68l-.33,0C68.36,21,68,21.42,68.35,21.52Zm-.87.37c.36,0,.64-.68.4-.91C67.81,21.33,67.24,21.6,67.48,21.89Zm12.81-.83a1.51,1.51,0,0,0,.87-.26c-2.18-.67-5,.34-7.05.78-.1.42.38.2.46.42-.32-.08-.28.17-.55.14,0-.19.09-.56-.24-.43a.91.91,0,0,0-.65.25c.55,0-.24.41-.19.67-.23,0-.12-.41-.35-.43-.18.17-.94,0-1.08.49.09.21.62-.06.67.19.14,1,1.65,2,1.38,3.48A59.85,59.85,0,0,1,77.7,41.12c1.45-.43,2.72-.11,4.07-.64a18.93,18.93,0,0,1-3.38-1.28c0-.15.15-.22.09-.45-1.2-.27-1-2.17-1.36-3a10.45,10.45,0,0,1,8.7-5.62c-.87-.13-.56-1.56-1.09-2.05-.08.72.8,1.33,0,1.55-1-3.08-1.47-6.67-3-9.16.19.95-1.29.59-1.51.85C80.18,21.18,80.27,21.15,80.29,21.06ZM69.06,22.37a.62.62,0,0,1,.45.09c.17-.24.05-.73.29-.9.34.13.46.5.49,1,.54.23,1-.17,1.42-.4a.69.69,0,0,1,0-.55c-.52-.16-.49.09-.87.26,0-.3.17-.23,0-.44a9.39,9.39,0,0,1-1.56-.26A4.08,4.08,0,0,0,69.06,22.37Zm-.78-.18.44,0c-.24-.44.45-.89,0-.88C68.59,21.63,68.33,21.81,68.27,22.19Zm-3,1.14c1,.08,1.17-1.65.25-1.67C65.32,22.14,65.34,22.79,65.23,23.33Zm-.55,0c-.08-.38.11-1.06-.27-1.09C64.44,22.68,64.36,23.23,64.67,23.35Zm6.45.58c0-.18.32-.72-.14-.66C71.05,23.47,70.88,23.93,71.12,23.93Zm.06,1.22c.06-.44.88-1.07.26-1.45C71.52,24.26,70.88,24.73,71.18,25.15Zm.25.65c-.07-.28.36-.65.07-.78C71.4,25.24,71,25.69,71.43,25.8Zm.46,2.64c.23-1.17.92-2.41.06-3.44.07.77-.74,1.3-.35,2,.09-.38.31-1.19.62-1C71.79,26.78,71.33,27.69,71.89,28.44Zm.25.54c.29-.37.4-1.47.82-1.37-.26,1.13-1.44,2-.51,3.35.25-1.4,1.4-3,.24-4.22C72.62,27.52,72,28.38,72.14,29ZM42.92,31.7c-.73-.05-1.55-.43-2.46-.55-4.56-.6-10.15-.5-14.44-.87A14.12,14.12,0,0,0,22.91,30a4.49,4.49,0,0,0-2.17,3.2c.06.49,1,1.3,1.53,1.81,1.6,1.62,3.25,2.81,4.63,4.32.69-.32,2.6.62,3.56.38-.68-.19-1.41-.27-2.12-.45s-1.68-.25-1.93-1c5.37,1,11.35,1.44,16.85,2.74a18.48,18.48,0,0,1,2.41-.45,19.58,19.58,0,0,0,.82-8.34A13.18,13.18,0,0,0,42.92,31.7Zm-6-1.26c-3.1-.15-8.43-.94-12-.43C28.87,30.25,33.54,30.78,36.88,30.43Zm-3.81-.93c-1.18,0,1.31.2,1.78.25.84.08,1.55.42,2.11.12C35.74,29.81,33.69,29.5,33.07,29.5ZM73,31.15c-.21.06-.19.33-.54.25A9.72,9.72,0,0,0,73,33.15c.2-1.45,1.58-3.07.45-4.45C73.42,29.56,72.62,30.25,73,31.15ZM73.33,33c.13,0,.31,0,.34.09-.66.3-.54,1.31-.24,2a27.8,27.8,0,0,0,1.05-3.48c-.49.12-.49,1.24-.95,1,.35-.31.43-1.33.94-1.15,0-.36-.22-.46-.15-.88A7.59,7.59,0,0,0,73.33,33ZM47.43,40.45c.14.32.82,0,.69.63-.25.41-1.33.06-1.29.73.55,0,.66-.32,1.2-.28,1-2.21,1.16-6.19,1-8.8-.31,0-.47-.18-.78-.18A43.31,43.31,0,0,1,47.43,40.45ZM10,35.69a22.64,22.64,0,0,0,.58,5.18,5.34,5.34,0,0,0,1.15-6A3.27,3.27,0,0,1,10,35.69Zm68.8-1.61a31.2,31.2,0,0,0,3.09-2.58C80.82,32.26,79.24,33.11,78.8,34.09Zm9.63-2.34c-.59-.54-3-.3-3.64.28-1.14,1.05-1.67,5.39,0,6.76a4,4,0,0,0,2.8.75c.67-.16,1.31-1.33,1.8-1.64C89.11,36,89.37,32.6,88.44,31.75ZM13.38,36.86c.45,0,0-.15.09-.45a34.39,34.39,0,0,0,7.27-.79c-.35-.57-.56.06-1.33,0-1.78-.52-4.6-.18-6.11-.37A3.9,3.9,0,0,1,13.38,36.86Zm60.91-2.23c.16-.7,1-1.54.33-2.34-.09,1.15-.92,2.18-.84,3.36.11-.26.3-1,.51-.8-.33.74-1,1.58-.43,2.57a22.61,22.61,0,0,0,.74-3.14C74.49,34.4,74.59,34.7,74.29,34.63Zm-27,.51c.09-1.85-.36-.48,0,0ZM81.71,32.4a6.68,6.68,0,0,0-2.54,2.45c.34,0,.41-.37.66-.14-.11,1.57-.07,3.3.76,4.39-.08-1.5-.77-4.43.07-5.43.46,1.68-.65,4.92.84,5.94-.08-1.44-.72-5.6.13-6.65.12,1.71-.48,5.1.53,6.4.06.3-.41.12-.43.35.42.16,1.12.62,1.67.25C81.06,39,82.31,34.72,81.71,32.4ZM9.12,38.17c-.29-.38,0-1.37-.41-1.64C8.87,37,8.78,38.32,9.12,38.17Zm6.14-1.29c2.36.11,4.37-.61,5.76.06a4.8,4.8,0,0,1-1.54.18c-.13.49.44.21.36.65-.17.27-.63.27-1.09.27-1.55,1.76-3.33,3.31-4.73,5.21,1.42-.13,1.82-.94,2.69-1.68a65.35,65.35,0,0,0,5.09-4.67c-.32-.19-.45-.59-.71-.85C19.35,36.43,17.1,36.28,15.26,36.88Zm61.09-.69c-.19-.76-.35-2.17-.77-2.29A15.19,15.19,0,0,0,76.36,36.2Zm-1.86,2.75a7,7,0,0,1,.13-1.89c.46-.15.22.46.47.53.07-.65.24-1.19.36-1.79-.57.15-.42,1-.94,1.15.17-1,1.49-1.75.53-2.79C74.88,35.9,73.64,37.43,74.49,38.94ZM13.07,37.32c0,.18,0,.37,0,.55,1.27,0,2.63,0,4-.08.73,0,1.74.12,1.52-.74C16.47,37.29,15,37,13.07,37.32ZM16,42.94a3.19,3.19,0,0,1,1.21-.17c1.46-1.42,3.19-2.6,4.68-4-.13,0-.31,0-.34-.09.38-.15.58-.46,1.08-.49-.06-.55-.53-.66-.71-1.07C20.26,39.34,17.78,40.83,16,42.94Zm-3.11-.29c0-.07,0-.13.11-.12.24.37-.52.39-.41.79,1.12-.11,2-1.43,2.88-2.35a32,32,0,0,0,2.74-2.9c-2.17.09-3.3.17-5.09.13a9.84,9.84,0,0,0,0,2.55c-1.45.86-3.45,1.23-3.72,3.17-.32,0-.21-.46-.57-.42-2.54,2.73-5.28,5.28-7.81,8,0,.27.21.23.14.55,3.11-2.64,6.63-4.9,9.83-7.44.12-.24-.09-.43.19-.67.41,0,.31-.14.66,0,.27-.28-.24-.22-.14-.66.78-.94,1.88-1.95,2.63-3,.31-.44.39-1.58,1.27-1.28C14.82,40.26,13.49,41.57,12.88,42.64ZM9.2,39.72l0-.88c0-.13,0-.31-.13-.33,0,.18,0,.37,0,.55.17,1.32,0,2.37.37,3.08A11.45,11.45,0,0,0,9.2,39.72Zm69.13-3.95a2.65,2.65,0,0,0,.29,1.54c-.34-.07-.12.39-.54.25.31.25.73,1,1,.84-.33-.78-.07-2.49-.36-3C78.74,35.65,78.47,35.65,78.33,35.77ZM11.88,40.26c.09-.2.33-.26.65-.25,0-.45.15-.78.16-1.23a.52.52,0,0,1-.34-.09C12.27,39.2,11.59,39.74,11.88,40.26Zm68-1.35c-.25-1-.45-2.68-.71-3.29C79.47,37,78.92,38.81,79.92,38.91Zm-57.05-.5c-1.65,1.49-3.46,2.85-5.11,4.34l1.33-.06c1.39-1.35,2.87-2.6,4.24-4C23.11,38.68,23.22,38.29,22.87,38.41Zm23.76,1.31A3.51,3.51,0,0,0,47,37.37C47,38.14,46.23,39.3,46.63,39.71Zm-27.3,3.51c.18.31.2.78.59.86a1.55,1.55,0,0,0-.17,1.11c1.77-1.57,3.36-3.29,5-5A2.68,2.68,0,0,0,23.34,39C22.18,40.6,20.36,41.56,19.33,43.22Zm6.5-3c-.13.16-.47.13-.77.15-.62.67-1.61,1.52-2.65,2.56s-3.3,2.66-1.81,3.85c2.81-2.1,5.32-5,7.86-7-.91,0-2-.5-2.68-.43C26.18,39.69,25.87,39.84,25.83,40.26Zm17.79,1.48a43.31,43.31,0,0,0-6.14-1.15,44.49,44.49,0,0,0-6-1C35.47,40.48,39.09,41.61,43.62,41.74Zm-31.72-1a2,2,0,0,0-1.08.61C11.36,41.26,11.56,40.92,11.9,40.7Zm16.79-.8c-2.37,2.25-4.81,4.43-7.1,6.76.72-.06,1,.39,1.78.25,1.77-1.54,3.63-3.26,5.19-4.9.51-.53,1-1.42,1.82-1.42-2.1,2.32-4.46,4.4-6.66,6.63,1.27.56,2.46-1.39,3.33-2.26S29,43,29.59,42.4c.45-.47.86-1.52,1.6-1.29-2.09,2.19-4.26,4.3-6.22,6.61.49,0,.57.38.91.51,1.85-1.76,4.08-3.66,5.95-5.38.6-.55,1.29-1.63,1.93-1.42-2.42,2.35-5,4.56-7.42,6.89.37.33.81.58,1.15.94,2.82-2.48,5.6-5,8.16-7.7.16.05.56-.16.56.08-2.82,2.58-5.64,5.16-8.26,7.92.55.13.75.65,1.26.83q5-4.13,9.67-8.54C35.93,41.23,32,40.58,28.7,39.9Zm3.67.27a4.31,4.31,0,0,0-1.46-.37C31,40.19,32.55,40.19,32.36,40.17ZM76,39.65c-.18-.52.27-1-.06-1.33C75.65,38.49,75.56,39.55,76,39.65Zm.41,1.64a1.23,1.23,0,0,0-.18-1.43C76.21,40.33,75.94,41,76.38,41.29ZM42.82,43.44c-.39-.15-.23-.91-.5-1.19a31.32,31.32,0,0,1-3.23-.4c-2.84,3.27-6.45,5.84-9.55,8.87a2.09,2.09,0,0,0,1,.73c2-1.73,4.64-4,6.91-6,.6-.51,2.62-1.88,2.11-2.2.66-.08,1.39-1.06,1.85-.64-3.66,2.91-7.1,6-10.64,9a2.83,2.83,0,0,0,1.27,1c3.27-2.84,6.85-5.4,9.9-8.44a4.84,4.84,0,0,1-.39-1.31c.22,0,.2-.31.43-.35C42.43,42.63,42.44,43.73,42.82,43.44Zm.08-.56c.23.56.64.92.64,1.74,1.38,2.28,2.64,5.26,3.9,7.57.45.82.67,1.87,1.44,2.26-2-3.88-3.87-8-5.78-12-.08,0-.22,0-.22.12C43.06,42.57,43,42.79,42.9,42.88ZM95.07,41c-2.24.09-4.9-1.39-6.54-.13C90.35,40.74,93,41.06,95.07,41ZM44.6,43.69c.33,0,.36-.43.66-.14a3.22,3.22,0,0,1-.05,1.22c.82,1.66,1.47,4.44,2.7,5.52.15.13.82.66,1,.28-1.42-1.88-1.83-4.88-3.1-6.94,0-.29.47-.14.3-.57A.83.83,0,0,0,44.6,43.69ZM15.29,46.74c.68,1.11,1,2.63,1.83,3.57.81-.29,1,.27,2.33,0,.66,1.29-.47,1.89-1,2.81s-.76,1.73-1.22,2.38a1.42,1.42,0,0,0,.9.29c1.17-1.22,1.51-3.21,3.13-4-.82,1.37-1.85,2.55-2.58,4q.43-.12.35.31c-.55,0-.81.16-1.87.2a26.57,26.57,0,0,1,.6,5.73,5.09,5.09,0,0,1,1.23.27c.32-2.18.43-4.54,1.72-5.84-.23-.05-.24-.16-.13-.33,1.08-1.24,2.15-2.49,3.26-3.7-.07-.5-.6-.5-1-.62-.61,1.32-3,3.47-2.88,4.57-.33,0-.33.27-.65.25-.16-1,.92-1.8,1.54-2.62.3-.41.63-.84.94-1.26s.8-.89.6-1.25c-.43-.14,0,.49-.43.35-.22-.27-.62-.33-.7-.74.47-.44,1.18-.13,1.88,0,.46-.82,1.37-1.22,1.78-2.08a4.88,4.88,0,0,1-1-.39c-.72.59-1.13,2-2.12,2,.36-.94,1.37-1.29,1.78-2.19-1.37-.74-2.51.68-2.9,1.8a2.81,2.81,0,0,1-1.39-1.37c-.12.38-.66.94-1.07.71a3.55,3.55,0,0,1,1.05-1.16,10.38,10.38,0,0,0-.42-1.75c-.57.22-.56,1.53-1.38,1.17.95-1,1.93-1.84,1.15-3.71C17.34,44.15,16.21,45.76,15.29,46.74Zm60.48-4.2c.09-.32.49-.68.07-.89C75.87,41.93,75.52,42.4,75.77,42.54Zm-2.31.33a3.12,3.12,0,0,1-1.24,1.83,42.92,42.92,0,0,0-5.15,10.43c-.14,0-.16-.13-.34-.09-.36,1-.28,2.35-1,3-.34-.27-.63.13-1.1.05-1.59,1.58-3.84,3.11-5,4.45,3,.13,6.37-.1,9.73-.24.3,0,.93-.45,1.12.17a64.48,64.48,0,0,1-11.92.79c-1.62,0-3.27-.26-4.4.54A141.54,141.54,0,0,0,68.88,63c.12.2-.31.38,0,.44.47-.39,1.4,0,1.66-.08.26-1.35.78-3,.91-4.14a.11.11,0,0,1-.22,0c-.09-2.18,1.07-3.21,1.66-4.73.47-1.22.8-2.34,1.38-3.5s1.26-2.19,1.73-3.29c1.15-.7,1.59-2.29,2.85-2.9.39-.19.95,0,1.31-.39,4.9.27,10.53-.87,15-.71a3.26,3.26,0,0,1,.14-1.67,142.5,142.5,0,0,0-17.15.26c-.3.28.18.66-.07.89-.43,0-.18-.66-.58-.64-.06.4-.24.56-.54.25a2.84,2.84,0,0,1-.37,1.46c-.39-.65.72-2.16-.12-2.54,0,.35.26.42,0,.66-.66-.33-.42.8-1.17.94-.32-.39.1-.85,0-1.33-.49-.34-.77.07-1.11-.06.08.36-.05.52-.07.78C73.87,42.67,73.72,42.82,73.46,42.87ZM83.81,41.6c.33-.12,1.13.18,1.09-.27C84.39,41.55,84.09,41.17,83.81,41.6Zm3.32,0c3.4,0,6,.07,9,.13C93.6,41.32,89.49,40.83,87.13,41.55ZM9.19,46.47c.65-.54,1.74-.67,2-1.54A9.38,9.38,0,0,0,9.19,46.47Zm63.3-3.23c.19-.5.83-.59,1.06-1a.69.69,0,0,1-.55,0C73,42.66,72.19,42.91,72.48,43.25ZM48.92,48.46c.16.29.63,1.08.59.75a25.35,25.35,0,0,1-2-4.89c0-.64-.28.38,0,.33A13.4,13.4,0,0,0,48.92,48.46Zm48.75-6.52c.66.22.53,1.46.31,1.87-.16,0-.37-.45-.33,0l0,.33a8.77,8.77,0,0,0,2.84-.8C101,41.72,99,41.44,97.67,41.94Zm-65.36,11a2.69,2.69,0,0,0,1.28,1.27c3.12-2.41,6-5,9.06-7.52a6.71,6.71,0,0,0-.65-2C38.86,47.52,35.58,50.22,32.3,52.91ZM44.43,47c-.18-.34-.43-1.07-.59-.75a30.75,30.75,0,0,0,4.53,9.09C47.17,52.65,45.73,49.54,44.43,47Zm-23.6,2a3.65,3.65,0,0,0,1.27-1.17,3.12,3.12,0,0,0-1.56-.15A2.61,2.61,0,0,1,20.82,49ZM33.7,54.39c.21.62.81.82,1.06,1.39a83.64,83.64,0,0,0,8.52-7.16A12.86,12.86,0,0,1,42.76,47C39.62,49.34,37,52.19,33.7,54.39Zm36.09-7.14c.24-.49.82-1.23.81-1.59A2.32,2.32,0,0,0,69.79,47.25ZM20.51,49.37c-.22-.3.05-1.14-.39-1.2C20,48.53,20.1,49.24,20.51,49.37Zm60.4-3.64a11.09,11.09,0,0,1,1.76-.31C82.23,45,80.89,45.44,80.91,45.73Zm-80,5.13c.19-.46,1-.91.94-1.26C1.54,50,.71,50.43.87,50.86ZM80.81,46c-.06.52.72.24.66-.14C81.2,45.82,81.15,46,80.81,46Zm3,.41c.36,0,.59-.17.64-.47C84.1,45.92,83.87,46.06,83.81,46.36Zm-2.64.35c.69,3.87,1.55,8.16,2.24,12.19.58-.34,1.08,0,1.66,0a24,24,0,0,1-.48-3.08c-.13-.25-.79.09-.89-.18.26,0,.32-.21.66-.14.06-.42-.59,0-.47-.53.21,0,.24-.14.44-.13-.68-2.74-1.36-5.48-1.95-8.32C81.86,46.49,81.63,46.7,81.17,46.71ZM23.78,50.76c.21.36.06.48-.19.67.44.35.74.23,1.13.5a7.58,7.58,0,0,0,1.79-1.86c-.53-.12-.75-.57-1.25-.72C24.73,49.79,24.39,50.4,23.78,50.76Zm61.41-1c-.32-1.24-.19-1.59-.59-3.07-.29-.21-.72.12-.87.37a39.52,39.52,0,0,1,1.47,7.68c.64,0,1.4-.38,2.09-.21a9,9,0,0,1,2.26-3.65,7.71,7.71,0,0,0-1.55,0c-.25,1.05-1.06,2-.85,3.14-.2-.13-.44-.21-.47-.53.07-1.13.87-1.61.86-2.81-.43-.09-.45.08-.78-.07,0,.29.09.65-.19.67s0-.52-.25-.54c-.1.2-.16.6-.43.35-.05-.34.23-.54,0-.77-.39,0-1.06.23-1-.28C84.86,49.78,85.18,49.89,85.19,49.73Zm-7.27-1.54c.31-.18.71-.83.5-1.13C78.3,47.47,77.92,47.66,77.92,48.19ZM35.11,56a6.13,6.13,0,0,0,1.06,1.39c1.15-1.06,2.5-2,3.73-3.06s2.22-2.48,3.74-2.95c-2.48,2-4.73,4.29-7.34,6.22a1.77,1.77,0,0,0,.6,1c2.21-1.73,4.47-4,6.72-5.3C41.51,55.25,39.11,57,37,59a3.47,3.47,0,0,0,1.18,1.49c4.73,0,7.85-.28,12.17-.25a1,1,0,0,1,.17-1.12c1.66.6.37,2,.94,3.39,1.17-1.83,3-3.06,4.43-4.64-2.34,0-4.46,0-6.42.08-.64,0-1.59.36-2-.24,2-.48,5.14-.06,8-.38l.88,0s.67-.05.22-.12c-2.5-.38-6.9.21-8.76-.36-1.54-2.47-3.71-4.81-4.68-7.53C40.5,51.58,37.88,53.85,35.11,56ZM32,58.35c.41-.58,1.15-.86,1.48-1.51-.41-.32-.57-.92-.95-1.28-.29.08-.61.8-.87.26.09-.34.52-.37.52-.8-.49-.19-.63-.78-1-1.06-.13.24-.63.69-1,.38.84-.57.48-1.31-.51-1.53-.25.23-.67.82-1,.38,0-.53.63-.42.62-.92-.35-.16-.47-.56-.92-.62-.38.16-.63.85-1.08.6.06-.51.57-.61.73-1-1.27-1.46-2-.11-2.83,1,1.33.38,2,1.9,3.3,1.95,0,.21-.11.25-.09.45a10.38,10.38,0,0,1,3.26,5.6.49.49,0,0,1,.45.2c0,.13-.18.26,0,.33,1.36-.4,3.3.09,5.41-.37-.51-.26-.56-1-1.16-1.16-.05.44.31.43.26.87-1.28.24-1.14-1.07-2.05-1.23-.43.24-.5,1.13-1.18.83.21-.55.94-.62,1-1.27a2.93,2.93,0,0,1-.6-1C32.91,57.33,33,58.7,32,58.35Zm46.31-8.73c.4-.29,1.31-1.18.93-1.48A10.24,10.24,0,0,0,78.32,49.61Zm6.42,4.68c-.07.24.15.7.12.22-.43-2.24-.55-4.82-1.42-6.58C83.88,50.05,84.25,52.24,84.75,54.29ZM10,54.63c.45,1.09-.1,3.28.53,4.18,0-1.61-.17-3.55.66-4.68.3-.09-.05.52.24.43.2-.38.05-1.08.61-1.14.19,1.41-.18,2.94-.11,4.77.78-1.3-.24-4.23,1.09-5,.15.73-.09,1.67.1,2.1.19-1,.21-2.06.87-2.59.35-.07.11.5.36.54.09-.38.08-.84.63-.8-.66,1.36-.67,3.69-1.33,4.71-.66-.94.68-2.39.16-3.55-.29,1.56-.73,3.32-.89,4.69-1.5.82-2,2.54-2.57,4.22a20,20,0,0,1,4.45.45c.24-.16.26-.87.64-.58.33.1-.05,1,.27,1.09a2.11,2.11,0,0,0,0-1.55c.25-.53,1.06.08,1.32-.17a23.79,23.79,0,0,1-.59-5.4c-.77.07-1.52.17-1.62.85-.14-.23-.49-.24-.68-.41.14-.26.44-.38.64-.58-.07-.68.4-1.25.57-1.91.25-.94,0-2,1-2.26a39.53,39.53,0,0,0-1.24,4.16c.91-.29.9-1.49,1.22-2.27S17,52,17.74,51.72c-.32,1.32-1.63,3-1.35,4.16a19.34,19.34,0,0,0,2.77-4.67A12,12,0,0,0,10,54.63Zm38-3.47c-.17,0-.49-.45-.56-.2.4.45.51,1.22.86,1.73.72-.17,1.4.31,1.88,0-.67-.35-2.25-.66-1.74-1.58A4.47,4.47,0,0,1,47.22,50C47.28,50.62,47.84,50.7,48.06,51.16Zm-18,.74c-.14-.39-.72-.91-.93-.84A4.38,4.38,0,0,0,30,51.91ZM79.1,49.69c.17,0,.38,0,.34.2-.15.75-.8,1-1,1.71a7,7,0,0,1,1.64-.52,4.29,4.29,0,0,0-.34-2.53C79.52,48.95,79.31,49.32,79.1,49.69Zm7.41-.13c0,.44.24.59.69.52-.17-.59-.24-1.28-.42-1.86C86.75,48.8,86.73,49.41,86.51,49.56Zm-41,1.73a2,2,0,0,0-.49-1A2,2,0,0,0,45.51,51.28Zm3.43-.05c.27-.09.48.47.67.08-.23-.06-.06-.56-.46-.42C49.13,51,49,51.08,48.94,51.23Zm-29.5,10.7c1.49-.35,3-1.79,4.47-1.43.26-.16.06-.22.2-.34l.35.31a14,14,0,0,0-4.78,2c1.9.51,4-1,5.8-1.49-.39-2.2-2.45-3.07-3.73-3.92.7-1.79,2.49-2.6,3.23-4.36-.34,0-.51-.22-.79-.29-.75,1.29-2.28,2.43-2.82,3.57.17-.09.15-.36.43-.35C20.22,57,19.67,59.32,19.44,61.93Zm12-8.76c-.21-.43-.71-1.15-1.15-.94C30.75,52.45,30.95,53,31.43,53.17ZM77.3,51.32c.28-.3,1.14-1,.72-1.25C77.84,50.55,77.46,50.83,77.3,51.32ZM22.2,57c.4-.09.43.22.78.18,1.07-1.18,1.79-2.67,3.27-3.48-.13-.44-.54-.57-.92-.73C24.45,54.51,22.92,55.41,22.2,57ZM77.77,52c.21-.44.84-1.07.71-1.47C78.38,51,77.58,51.51,77.77,52ZM32.59,54.22c-.24-.15-.65-.5-.48-.75-.21,0-.25-.11-.45-.09C31.86,53.7,32.25,54.44,32.59,54.22Zm-9.26,3.32c.78,0,1.33-.94,1.81-1.53s1.12-1.4,1.56-2.07c0-.08-.1-.12-.23-.1A18.36,18.36,0,0,0,23.33,57.54Zm57.47-2.4a2.55,2.55,0,0,0-.56-2.41c-.17-.63.18-1.12-.39-1.31C79.73,52.25,80.09,54.46,80.8,55.14Zm8.05-2.93c.74.44,1.76-.44,2.05-1.09-.46.11-.53-.19-.89-.18C89.78,51.51,89,51.61,88.85,52.21ZM9.31,58.32c.08-1.06.5-2.36.17-3.44C8.88,55.35,9.26,57.37,9.31,58.32Zm66.42-5.15a3.18,3.18,0,0,0,1.49-1.29C76.24,51.33,76.3,52.74,75.72,53.17ZM79,52.9c.16-.07.58.1.55-.14-.28-.23-.25-.81-.49-1.08C78.61,51.84,78.94,52.43,79,52.9Zm-54.9,5.15c.65.59.8-.14,1.19-.61.64-.78,2.16-2.13,2.41-2.88-.33,0-.39-.27-.68-.3-.62.91-1.91,1.79-2.08,2.76.06-.2.57-.53.65-.36C25.15,57.15,24.61,57.58,24.13,58.06ZM49.2,54.21a2,2,0,0,1,.4-.79,2.52,2.52,0,0,1-1-.17C48.79,53.57,48.9,54,49.2,54.21ZM51,53.34c-.26,0-1.17-.33-1-.06C50.36,53.23,51.2,53.62,51,53.34Zm27.25.26c.28,0,.34-.19.43-.35-.22-.19-.14-.47-.28-1.2C77.56,52.31,78.18,53,78.29,53.6Zm-28.46-.09c.09.5-.39.49-.28,1s.3.52.48.75c-.54,0-.38.57-.39,1,5.57,0,11,.37,15.64.48,0-.5.22-.86.27-1.34C59.4,55.78,55.07,54.15,49.83,53.51Zm40.59-1c.38.09.82.11,1.23.16.18-.4.69-.89,1.08-.49-.34.11-.5.39-.86.48-.07.31.23.21.24.43.4-.27.89-.46,1.06-.94-.47-.1-.66-.52-1.24-.49,0,.13,0,.31-.09.34,0-.21-.14-.24-.13-.44C91,51.59,90.75,52.07,90.42,52.47ZM11.53,56.11c-.13,2.14.44-.48.09-.45C11.71,55.83,11.53,56.06,11.53,56.11ZM27.6,58.89c0-.09.09-.13.22-.12-.38.4-1,1.48-1.5,1.07-.07-.74,1.06-.93.82-1.48-.39.31-.54.85-1.17.94,0-.11-.1-.13-.12-.22.69-1.42,1.91-2.35,2.7-3.67-.26-.06-.31-.35-.57-.42-.48,1-1.79,1.83-2.09,2.65a5.12,5.12,0,0,1,1.49-1.18c-.57,1-1.7,1.48-2.44,2.33a4.13,4.13,0,0,1,1.31,1.93,3.09,3.09,0,0,0,1.26-1.39c.78-.78,2.13-1.57,2.08-2.76A6.71,6.71,0,0,0,27.6,58.89ZM76.93,53c.24.32.08.37.36.65.38-.23.74-.7.17-1C77.31,52.78,77.21,53,76.93,53Zm-19,1.12c-.67,0-1.74-.46-2.11-.23C56.58,53.84,57.3,54.44,57.94,54.12ZM7.82,57.28c0-.22.29-1,.07-.78C7.84,56.68,7.49,57.11,7.82,57.28Zm3,2.52a6.33,6.33,0,0,0,.06-3.44C10.93,57.51,10.71,59,10.82,59.8Zm68.37-5.9c.2.06.44-.35.55,0s-.41.33-.41.68a.42.42,0,0,1,.26.76c.34.07.2-.31.54-.25-.24-.63-.17-1.6-.65-2C79.39,53.37,79.05,53.42,79.19,53.89Zm8.8,1c0-1.06,1.22-1.08,1.34-2.06-.45.15-.44-.21-.78-.18C88.27,53.35,87.35,54.36,88,54.91Zm4.57-1.77c.06.36.35.46.58.64.14-.3.55-.9,1-.6-.18.37-.71.41-.73.92.16,0,.14.24.24.32a1.76,1.76,0,0,0,1.16-1.16,4.88,4.88,0,0,0-1.26-.83C93.55,53,92.75,52.8,92.55,53.15Zm-84.14,5c0-.47.36-1.19-.07-1.44C8.52,57.26,8.13,57.85,8.41,58.14Zm81.49-5c.52.15.85.66,1.1-.05C90.46,53.17,90.09,52.52,89.9,53.16ZM27,58.25c.74-.83,1.64-1,2.11-2.2-.22,0-.16-.29-.45-.2C28.3,56.74,27.16,57.5,27,58.25ZM75,56.3c.66-.75,2.26-1.6,1.75-2.74C76.28,54.52,75.14,55.42,75,56.3Zm2.58-1.67c.53,0,.72-.87.28-1.12C77.59,53.86,77.29,54.07,77.56,54.63Zm1.21-.17c.12-.17.37-.48,0-.55C78.69,54,78.51,54.45,78.77,54.46Zm-70,8c.36-1.64,1.56-3.09,1.08-5.15C9.71,59.18,8.77,60.86,8.73,62.44Zm2.7-3.78c.36-.07.25-1.55,0-1.44C11.42,57.74,11.5,58.11,11.43,58.66Zm62.23-2.29c.17-.22.65-.36.77,0,.33-.8.92-1.35,1.23-2.16C74.91,54.75,73.86,55.63,73.66,56.37Zm15.41-1.95c.35-.6.9,0,1.2-.39,0-.38-.35-.47-.69-.52C89.43,53.83,89.12,54,89.07,54.42Zm2-.54c.21,0,.25.11.45.09.3-.25.15-.59-.36-.54C91.16,53.64,91,53.68,91,53.88Zm-43.3,2.28c.35-.07.27.33.67.19,0-.34,0-.73-.36-.65C48.24,56.13,47.77,55.94,47.74,56.16ZM8,58.82c-.14.11.12-1.2-.15-.88C7.9,58.38,7.44,59.11,8,58.82ZM75.24,57c.69-.69,1.93-1.39,2-2.31,0-.09-.1-.12-.23-.1A27.71,27.71,0,0,1,75.24,57Zm18.82-2.33c0,.53.53.5.6,1,.6-.19.69-.86,1.28-1.06C95.5,53.31,94.64,53.92,94.06,54.62ZM35.42,58c-.18-.5-.69-1.25-1.05-1.17C34.74,57.16,34.89,57.77,35.42,58ZM78,55.38c0-.36.48-.34.41-.79C78.09,54.63,77.6,55.26,78,55.38Zm13.68-1.09c.28,0,.64.57.78.07-.45.11-.23-.52-.68-.41A.52.52,0,0,1,91.72,54.29Zm-1.31.28c.15.14.55.15.55-.14-.25,0-.14-.31-.35-.32C90.62,54.34,90.31,54.28,90.41,54.58ZM28.49,59c-.36.39-1.52,1.52-.5,1-.33.51-.86.84-1.15,1.38a11.41,11.41,0,0,0,2-1.87c.51-.58,1.6-1.54,1-2.15A6.68,6.68,0,0,1,28.49,59ZM8.8,59.34c-.23-.93.12-.94-.12-.22-.16.47-.58,1.58-.36,1.79A5.14,5.14,0,0,1,8.8,59.34Zm79.65-3.89c.77.36,1.1-.34,1.29-.84C89.11,54.7,88.5,54.82,88.45,55.44ZM92,55.06c-.08-.26-.17-.51-.47-.53C91.59,54.78,91.68,55,92,55.06ZM49.87,56.72a33.41,33.41,0,0,0,4.65-.11C53.15,56.59,50.87,56.36,49.87,56.72Zm28.44-.47c0-.35.82-.7.29-.9C78.54,55.64,78,56,78.31,56.26Zm7-.89c.82,0,2.4.4,2.54-.23C87.4,55.12,86,54.79,85.35,55.37Zm7.75,0c.29-.35-.29-.45-.47-.64C92.64,55.06,92.93,55.14,93.1,55.33Zm-20.57.53a6.78,6.78,0,0,0-.77,2.36A10.75,10.75,0,0,0,72.53,55.87Zm3.63,1.71c.23-.82,1.49-1.25,1.34-2.06C77.18,56.26,76.16,56.91,76.15,57.58Zm13.63-2.09c.13-.42.56.09.65-.36-.13,0-.18-.11-.23-.21C89.89,54.89,89.6,55.42,89.79,55.49ZM95,55.8a1.23,1.23,0,0,0,.59.75,8.13,8.13,0,0,1,1.15-1.38C96.09,54.21,95.62,55.5,95,55.8ZM7.8,59.16c-.2.56-.67,1.44-.46,2C7.39,60.54,8,59.33,7.8,59.16Zm68-1.9c.11-.53,1-1,.82-1.37C76.53,56.43,75.23,56.8,75.81,57.26Zm16.88-1.36c.27-.34-.11-.65-.37-.76C92,55.4,92.27,55.84,92.68,55.91ZM28.31,62.18c1.14-.46,1.76-2.47,2.88-2.24a4.85,4.85,0,0,0-.75-1.74,10.56,10.56,0,0,0-2.2,2.65c.1-.07.39-.48.43-.24-.38,1-2.12,1.24-1.76,2.52a10.73,10.73,0,0,1,1.89-2.19c.56-.65.94-1.67,1.8-1.75C30,60.29,28.65,61.21,28.31,62.18Zm46.37-5.3c.34,0,.92-.71.52-.69C75.27,56.63,74.75,56.55,74.68,56.87ZM36.25,59c-.2-.32-.26-.8-.71-.85C35.69,58.56,35.82,59,36.25,59Zm49.5.09c.22.14.64.07.89.18.3-1.11.76-2,.29-3.34-.3-.26-.89-.19-1.45-.15C85.43,57.11,85.92,58,85.75,59.12Zm-9-1.56c0-.52.84-.85.6-1.25C77.29,56.82,76.14,57.19,76.71,57.55Zm10.44-1.6c.1.28.14.62.37.76,0-.4.18-.54.18-.89A.72.72,0,0,0,87.15,55.95Zm1.67,4.9a29,29,0,0,0-1-4.27c-.48,1.37-.12,3.46.24,5.08,1.43-.74,3.63-.79,5.25-1.36a8,8,0,0,0-5.09-4.52C88.25,57.55,89.37,59.26,88.82,60.85Zm5.31-4.68c-.29-.07-.48-.86-.8-.52C93.7,55.65,93.82,56.51,94.14,56.17Zm2.18,1.67c.34-.64,1-1,1.25-1.72-.29-.19-.34-.63-.7-.74C96.5,56.14,95.24,57,96.32,57.84Zm-17-.63c-.14.61-.67.87-.93,1.37,1.08.75,1.83,1.86,3,2.51a3,3,0,0,1,.6-1.25c-.55-1-.27-3.37-1.17-3.6A1.65,1.65,0,0,1,79.35,57.21Zm-72.48,8c0-2.12,1.22-3.62,1.18-5.37C7.69,61.54,6.42,63.76,6.86,65.19Zm70.39-7.66c.22-.36.49-.68.73-1A1.38,1.38,0,0,0,77.26,57.53ZM93.51,57c0-.12.11-.18.21-.23a1.49,1.49,0,0,0-.71-.85C92.55,56.31,93.13,56.81,93.51,57Zm-2.23-.23c-.57.12-.21-.78-.8-.63C90.58,56.44,91,57,91.28,56.75Zm-30.18,1.1c.46-.16.94.24,1-.16C61.58,57.77,61.38,57.51,61.11,57.85ZM7,67.84A9.8,9.8,0,0,1,5.92,63.9c.35-.08.35.19.55,0,0-1.21.63-2.45.5-3.46C6.67,63,4.13,64.78,5.32,67.7c2,2.35,3.54,5.25,6.62,6.44-1.11-1.08-2.48-2.08-3.59-3.26a7.84,7.84,0,0,1-2.42-4.31C6.39,66.8,6.68,67.83,7,67.84Zm3-6.68c.38-1.89-.62.53-.28,1C9.68,61.64,9.94,61.44,10,61.16ZM58.12,58c-1.8,1.85-4,3.36-5.61,5.36.67-.22.66-.18.86-.59l1.44-.07c1.87-1.47,3.64-3,5.43-4.58C59.51,58.1,58.79,58.07,58.12,58Zm2.33.11c-.07,0,0,.31-.1.34-1.83,1-3.16,3.07-4.89,4.22a7.65,7.65,0,0,1,1.66,0c1.68-1.51,3.44-2.93,5-4.56C61.55,58.12,61,57.89,60.45,58.1Zm2.21,0c-1.48,1.58-3.45,2.71-4.66,4.54l1.22-.06c1.2-1.91,4-2.94,5-4.67C63.92,58.19,63.15,58,62.67,58.11Zm11.9,1c.1-.51.6-.66.49-1.35C74.55,57.81,74.43,58.79,74.56,59.09Zm22.6.14c.36-.62.93-1.06,1.25-1.72-.34-.21-.37-.76-.82-.85C97.06,57.31,96.4,58.25,97.16,59.24Zm-89.33,3c-.06-.49.55-.91.27-1.23C8.09,61.45,7.54,61.92,7.83,62.26Zm85.8-5.07a2.72,2.72,0,0,0,.6,1c0-.23.29-.23.31-.46-.29-.15-.24-.66-.59-.75A.3.3,0,0,1,93.63,57.19ZM73.14,59.38c.32,0,.35-.94.07-.89A2.06,2.06,0,0,1,73.14,59.38Zm1.38,3.37a7.27,7.27,0,0,0,.73-3.25c.13-.18.61-1,.17-1A26.24,26.24,0,0,0,74.52,62.75Zm-1-.06c0-1.34.61-2.69.48-3.79C73.57,59.76,72.86,61.87,73.52,62.69Zm1.9.35c.13-1.41,1-3.2.79-4.25C75.73,59.9,74.74,61.9,75.42,63Zm-46.2-.46c.16-.57,1.24-.84.93-1.48C30.08,61.74,29,62,29.22,62.58Zm-7.62.36a15.07,15.07,0,0,0,4.23.57,8.6,8.6,0,0,0-.32-2.09C24.3,62,22.76,62.3,21.6,62.94Zm56.14-2.44c1.54-.17,2.66,1.31,3.59,1-1.27-.63-2.08-2.08-3.22-2.5A5.39,5.39,0,0,0,77.73,60.49Zm9.84-.36c-.21-.42-.08-1.22-.41-1.53A1.23,1.23,0,0,0,87.57,60.14Zm7.2,11.62c1.85-.68,2.56-3.31,4.1-4.62.3-.09-.05.52.24.43,1.24-2.65.63-7-.56-9.5-.51.52-.87,1.18-1.36,1.73C98.11,64.67,97.39,69.44,94.77,71.75ZM9,63.65c-.19-.53.38-.92.05-1.22C9.07,62.95,8.35,63.45,9,63.65ZM31.7,68.11c6.08-.51,12.71-.14,19.23-.8.34-.42-.12-.78-.17-1.21a38.18,38.18,0,0,0-.47-5.18c-5.24-.55-14,.75-19.13.47C31.53,63.71,31.26,66,31.7,68.11Zm42.38-5.22a8.49,8.49,0,0,0,.35-1.9c.1-.54.61-1.47,0-1.55C74.35,60.05,73.56,62,74.08,62.88Zm-57.66.75c2.59.15,4.67,1.54,7.06,1.77.77.07,1.66,0,2.55,0,1.49.06,3,.07,4.76,0-.64-1.08-2.56.75-3.35-.51.49-.56,2.84.16,3.29-.71a30.06,30.06,0,0,1-9.79-1c-.49-.09-.73.6-1.09.27-.1-.37.44-.16.31-.57-.48-.09-1-.32-1.33.06-.55-.74-1.33-.51-2.25-.78C16.9,62.65,16.2,63.27,16.42,63.63Zm78-5c0,.31.22.45.26.76.32,0,.4-.27.53-.47a.49.49,0,0,1-.24-.43C94.7,58.38,94.74,58.62,94.47,58.59ZM72.83,62.28c0-1,.53-1.92.32-2.67C72.79,60.16,72.45,61.74,72.83,62.28Zm-1.37,1.39c-.29,0-.36.17-.31.46.33,2,.53,4.23,1.69,5.35a22.81,22.81,0,0,1-.77-4.5c0-.21-.42.21-.45-.2a35.13,35.13,0,0,0,.32-4.89C71.8,61,70.73,62.72,71.46,63.67ZM10.85,65.22c1.31-.15,2.07-.8,3.39-.94.06-.27,0-.52.06-1a12.94,12.94,0,0,0-3.89-.37C10.27,63.94,10.92,64.65,10.85,65.22ZM28.71,63.6c.44-.09,1.18.09,1.43-.18-.76-.25.43-1.24-.17-1.32C29.66,62.69,29,63,28.71,63.6Zm57.75-3.41,0-.44c-.14,0-.56-.3-.56-.08C86.15,59.76,86.1,60.21,86.47,60.19Zm-.71,1.36c-.21-.74-.32-1.59-1-1.84C84.43,60.22,85.43,61,85.75,61.55ZM27.38,63.44c.07,0,.13,0,.11.11s.14.08.23.1c.09-.41.46-.57.62-.91C27.84,62.8,27.72,63.22,27.38,63.44Zm56-3c0,.26.21.32.14.66-1.28-.05-1,1.92-.54,2.57a4.73,4.73,0,0,0,3-.8C85.6,62.09,85,59.42,83.38,60.45Zm-1.49,1.18c.18-.44.57-.68.72-1.14-.35.15-.1-.35-.45-.2C82,60.65,81.62,61.28,81.88,61.62Zm-4.2,4.85a31.69,31.69,0,0,0,4.67-2c-.38-.75-1.23-1-1.21-2.16a12.37,12.37,0,0,0-3.51-1.61C76.83,62.37,77.43,64.67,77.68,66.47Zm8.5-5.16a.76.76,0,0,0-.27-1C85.7,60.62,86,61.12,86.19,61.31Zm.69.63c.68-.17,0-1.26-.18-1.54C86.45,60.92,87.21,61.33,86.88,61.94ZM7.43,65.49c.06-.25.24-.84-.15-.88C7.36,64.88,7.18,65.42,7.43,65.49Zm8.91-1.2c1.28.4,1-.22,0,0ZM88.1,62a4.32,4.32,0,0,1-1.42,2.72,10.49,10.49,0,0,1,2.62,1.54,23.66,23.66,0,0,0,2.51,1.65c.79-.09,1.64-2.58,1.83-3.41a6,6,0,0,0-.18-3.76A40.73,40.73,0,0,0,88.1,62Zm6.19-.29c-.06-.36.1-1-.27-1C93.85,61,94.07,61.53,94.29,61.7Zm-86,4.08c-.12-.45.06-.87-.26-.87A1.51,1.51,0,0,0,8.33,65.78ZM11,65.66c0,.48.19,1,.35.43,0,.55.33.92.17,1.32-.21,0-.25-.11-.45-.09a9.34,9.34,0,0,0,4.51,4.1,49.8,49.8,0,0,1,1.53-5.05c-1.3-.12-2.42-.44-2.63-1.76C13.17,64.83,12.19,65.35,11,65.66Zm84-3.32c-.18-.56.25-1.1-.07-1.44C94.83,61.3,94.67,62.19,95,62.33ZM16.51,65.5c0-.29-.07-.63.07-.78l-.44,0C16.17,65.11,16.14,65.53,16.51,65.5Zm6.94,4c-2.07-.36-2.62-2.38-4-3.46.12.64-.9.24-1.31.39.12,1.78.14,4,.26,5.41a7.05,7.05,0,0,0,7.29-5c-2.64-.55-5.24-1.13-7.83-1.73.17,1.1,1.43.85,2.13.56A19.16,19.16,0,0,0,23.46,69.49Zm72.18-5a6,6,0,0,0,.19-3C95.52,62.29,95.84,63.64,95.64,64.51Zm-10-.19a2.14,2.14,0,0,0,1.67-2.07C86.2,62.41,86.21,63.62,85.66,64.32ZM7.31,67.6a3.13,3.13,0,0,0-.51-1.31A3.71,3.71,0,0,0,7.31,67.6Zm88-3.51c0-.54.33-1.38,0-1.88A4.13,4.13,0,0,0,95.29,64.09Zm-39.41.21-1,0c-.52-.05-.51.21,0,.11s1.55.07,2-.2C56.36,64.34,56.2,64.13,55.88,64.3Zm19.78-.83c.54.16,0,2,.65,2.07-.21-.68,0-1.49-.44-2.19C75.85,63.44,75.79,63.48,75.66,63.47ZM16,71.29c.73.09.9.79,1.91.57-.11-1.93,0-3.28-.15-5.42l-.33,0A31.24,31.24,0,0,0,16,71.29Zm57.72-4.07c-.42-1.17-.37-2.49-.93-3.28C73.11,65.39,73.17,66.43,73.73,67.22Zm9.94-2.8c.61.11,1.91-.48,1.84-1C85.22,64.06,84,63.84,83.68,64.42Zm12.8,1.38a6.72,6.72,0,0,0,.08-2.88C96.61,64.09,96.24,64.8,96.48,65.8ZM74.72,69.27a19.68,19.68,0,0,0-1.12-4.93A9.82,9.82,0,0,0,74.72,69.27Zm.52-.69c-.4-1.35-.48-3-1.08-4.16C74.67,65.87,74.38,67.68,75.24,68.59Zm1.09-.38a13.72,13.72,0,0,0-1-3.72A14.24,14.24,0,0,0,76.33,68.2Zm-64.6,1.52c-.18-.85-1.32-1.13-1.09-2.05-.19.07-.66-.1-.66.14A24.6,24.6,0,0,0,11.73,69.72Zm14.12-1.22A13.42,13.42,0,0,0,26.66,67C25.91,67,26,68.28,25.85,68.49Zm1.14.72c.59-.67,1.54-1.54,1.66-2.29-1.66-.27-1.67.95-2.25,1.66.83-.2.85-1.13,1.59-1.4C28.37,68,26.79,68.94,27,69.21Zm65.17-1c.36.27.57-.33,1,0,.23-.32,0-1,.73-.92a6.23,6.23,0,0,0,.28-3.45A7.11,7.11,0,0,1,92.16,68.22ZM28.81,68c.2-.38.56-.62.73-1C29.07,67.06,28.79,67.86,28.81,68Zm47.09.53a18.13,18.13,0,0,0-1.06-3.72C75.17,66.17,75,67.66,75.9,68.55ZM7.68,68.47a7.58,7.58,0,0,0,5.66,4.94,59.74,59.74,0,0,1-5.23-5.29C8,68.28,8,68.55,7.68,68.47Zm5.13,3.08a18.66,18.66,0,0,1-3.38-3.49c.18.5-.68-.08-.32.24C10.18,69.49,11.25,71.29,12.81,71.55Zm17.45-3.38c.15-.36.77-.85.61-1.14-.16.32-.51-.13-.88,0a.72.72,0,0,1-.08.56C30.69,67.37,30,68.46,30.26,68.17Zm52.43-3.49A30.45,30.45,0,0,1,78,66.79c.64,1.41,1.7,2.91,3.35,2.83-.08.66,1.15.49,1.49,1a.94.94,0,0,1-.67-.08c-.58.72-2.31,1.81-2.09,2.54,1.16-.81,2.39-1.56,3.54-2.38.26-1.81.93-3.8.84-5.58A6.55,6.55,0,0,1,82.69,64.69Zm12.66.84c-.12-.37.3-.77,0-1C95.19,64.68,95.13,65.41,95.36,65.53Zm-10.2-.29A44.07,44.07,0,0,0,84,71c-.17.13-.51.65-.18.89a11.15,11.15,0,0,1,1.29-.84c.19.28,1.07.29,1.22-.06-.2-.21-.77,0-.79-.4a18.06,18.06,0,0,0,4.27-1.09A16.71,16.71,0,0,0,86,65.3c0,.1-.28.5-.32.24.19-.2,0-.34-.24-.43C85.47,65.24,85.31,65.24,85.15,65.23Zm4.95,4a4.44,4.44,0,0,0,1.39-1.06c-1.51-.9-3.11-2.32-4.67-2.77A43.67,43.67,0,0,1,90.1,69.21Zm5.63-2.81c0-.35.24-1-.06-1.33C95.78,65.53,95.37,66.06,95.73,66.39ZM26.78,71.88a7.52,7.52,0,0,0,2.05-3.42C28.29,69.73,27.29,70.58,26.78,71.88ZM12.4,69.8c-.14-.31-.12.18,0,.22s-.08.14-.1.23c.59.32,1.32,1.1,1.93,1A12.64,12.64,0,0,1,12.4,69.8Zm12.94,1.93a1.07,1.07,0,0,1,.88,0c.27-.86,1.43-2,1.2-2.6A11,11,0,0,1,25.34,71.73ZM8.1,72.55c0-.81-.91-1.7-1.44-2.37C6.34,71,7.34,72.16,8.1,72.55Zm20,.49c.54,0,.77-1.23,1.08-.49.44-1.11.63-2.46,1.16-3.49C29.4,70.25,29,71.88,28.05,73Zm-1-.28c1.4-.42,1.79-2.32,2.05-3.42C28.54,70.59,27.69,71.58,27,72.76ZM76.9,68.62c.56-.11.85.07,1,.39-.25.85-1.78.32-1.49,1.29,1.18-.12,1.61-.93,2.37-1.44-.29-.23-.42-.62-.71-.85,0,.17.06.41-.09.45-.45-.28-.37-1.15-.84-1.4A4.26,4.26,0,0,0,76.9,68.62Zm19.17.31a4.25,4.25,0,0,0,.34-2.23A5,5,0,0,0,96.07,68.92ZM12.79,71.11c1.26.83,2.43,2.36,4.41,2-.68,0-1,.05-1.46-.37,0-.23.29-.23.31-.46C15,72.33,13.34,71.19,12.79,71.11Zm82.43-3.8c.19.63-.25,1.25.08,1.66.09-.66.48-1,.47-1.79C95.42,67.31,95.47,67.15,95.22,67.3ZM22.47,72.09c.64-.3,1.94-.56,1.83-1.19C23.75,71.34,22.88,71.51,22.47,72.09Zm-5.11,2a3.69,3.69,0,0,0-1.67-.25c-.75-1.19-2.75-1.63-3.76-2.15C13.26,73,14.62,74.79,17.36,74.1Zm76.87-4.32a1.84,1.84,0,0,0,.35-2A8.18,8.18,0,0,0,94.23,69.79ZM75.6,69.34a.71.71,0,0,0,.55-.14c0-.25,0-.41-.24-.43C75.8,69,75.56,69,75.6,69.34Zm-1.32.28c.18-.2-.09-.49-.25-.65C74.05,69.27,74,69.63,74.29,69.63Zm-52.17,2a22.91,22.91,0,0,1-2.73.79A3.2,3.2,0,0,0,22.12,71.66ZM91,69.17c.36-.1,1.13-.38.85-.71C91.66,68.79,91.08,68.76,91,69.17Zm-67.6,3.54c.43-.35,1.12-.46,1.51-.85C24.44,71.72,23.23,72.3,23.39,72.71Zm53.84-1.78c1-.14,1.43-.88,2.27-1.21C78.87,68.54,77.79,70.41,77.23,70.93ZM22.68,74.07c1-.67,2.85-1.07,3.11-2A36.28,36.28,0,0,0,22.68,74.07Zm-11.34-.9c1.41,1,2.7,2.76,5.3,2.07C14.94,74.63,12.58,73.52,11.34,73.17Zm66.59-1.5a6.94,6.94,0,0,0,2.57-1.78A3.18,3.18,0,0,0,77.93,71.67Zm-2.5-1.43c-.27-.25-.29.19-.54.25,0-.06-.1-.12-.11,0A.41.41,0,0,0,75.43,70.24ZM19,73.14l1,0C20.11,72.84,19,72.72,19,73.14Zm6.76.12c-.23-.17-.14,0-.44,0-.44.55-1.61,1-1.82,1.42,1-.39,1.78-1.06,2.81-1.46,0-.33.27-.39.3-.68C26.15,72.65,26,73,25.74,73.26Zm64.11-2.49c-1.24.48-2.8.44-3.7,1.39,2.14-.84,4.91-1.11,6.41-2.52A11.9,11.9,0,0,0,89.85,70.77Zm-11,1.63c1.13,0,1.93-1.26,2.79-1.9C80.39,70.06,79.58,71.67,78.85,72.4ZM18.23,73.73c.76-.15,1.86.35,2.31-.22C19.84,73.64,18.65,73.15,18.23,73.73Zm3.55.16c.62,0,.82-.38,1.19-.61A2.24,2.24,0,0,0,21.78,73.89Zm2.29,1.66c.74-.42,2.9-1.37,3.76-2.39A25.08,25.08,0,0,0,24.08,75.55Zm-13.19-.37c-.34-.29-.84-1-1.26-.83C10.05,74.55,10.53,75.3,10.88,75.18Zm3,1c-1.36-.29-2.51-1.43-3.41-1.83C11.26,75.23,12.88,76.32,13.92,76.15ZM18.8,74a.94.94,0,0,0-.67-.08C18.28,74.58,20.69,73.81,18.8,74ZM78.39,72c.51,0,1.18-.93,1.07-.83C79.16,71.48,78.56,71.54,78.39,72ZM15.81,76.39a22.68,22.68,0,0,0-4.3-1.9A12.44,12.44,0,0,0,15.81,76.39Zm10.07-2.47c.31-.51-.36.14-.54.25A11.73,11.73,0,0,1,23,75.28a3.77,3.77,0,0,1-.53.58c-.42,0-1,0-1,.38C23.29,76.11,24.36,74.65,25.88,73.92Zm-3.94,1a2.28,2.28,0,0,0,1.4-.73C22.87,74.38,22.25,74.5,21.94,74.88Zm-.8-.52c-1.26,0-2.66.26-3.53.28C18.59,74.71,20.6,75.25,21.14,74.37Zm60.62-1.22c.75-.27,1.91-.73,1.58-1.62C82.85,72.08,82.28,72.6,81.76,73.15ZM18,75.07c-.43,0-.92-.24-1.33,0C17.1,75,17.72,75.5,18,75.07Zm62.37-1.74c.85.43,1.88-1.11,2.14-1.54A21.34,21.34,0,0,1,80.33,73.33Zm13.34-1.19c.36-.24,1.17-.63,1.06-.94C94.5,71.55,93.53,71.79,93.68,72.14Zm-9.93.8a2.62,2.62,0,0,0,1.61-1.07C84.52,71.65,84.19,72.49,83.75,72.94ZM20.29,75.07a10.41,10.41,0,0,1-1.66,0H18.4C18.53,75.48,20.37,75.17,20.29,75.07Zm69.28-3.18a6,6,0,0,0-2.72,1C87.72,73,88.7,72.2,89.57,71.89Zm-4.16,1A10.77,10.77,0,0,0,87.91,72C87.06,72.26,85.95,72.3,85.41,72.86Zm1.6,1a13.34,13.34,0,0,0,3.8-1.62c0-.14.16-.23-.12-.22A23.71,23.71,0,0,0,87,73.89Zm-5.65,0a.49.49,0,0,1,.45.2,3.18,3.18,0,0,0,1.27-1.28A3.45,3.45,0,0,0,81.36,73.94ZM18.57,76.15A3.37,3.37,0,0,0,21.22,76C20.38,75.92,19.73,76.15,18.57,76.15Zm73.8-3.61c-1,.49-2.93,1-3.9,1.85.42.44.81-.38,1.42-.4,0,.19-.5.37-.2.45C90.75,74,92.26,73.46,92.37,72.53Zm-7.27.79a1.23,1.23,0,0,0,1.09-.38C85.84,73.08,85.36,73.1,85.1,73.32Zm-2.17,1c.15-.3,1,.24,1.21-.17-.33-.14.18-.39.08-.67C83.61,73.52,82.9,74,82.93,74.31Zm1.88-.09A2.32,2.32,0,0,0,86,73.61,1.54,1.54,0,0,0,84.81,74.22Zm-1.31.51s2.69.43,2.54-.23C85.67,74.79,83.6,74.29,83.5,74.73Z"/><path class="cls-1" d="M66.74,57.58C65.57,59,64.05,60,62.82,61.31c.39,0,.48-.34.87-.37-.46.47-1.19,1.11-1.83,1.08A21.38,21.38,0,0,1,66.74,57.58Z"/><path class="cls-1" d="M70.93,52.62c-.58,1.8-1.15,3.6-1.85,5.29,0,.22,0,.34.24.32A10,10,0,0,0,68,60.84c-.36.11-.1-.8.07-.89-.32,0-.76.72-.94,1.15-.18-1,1-1.81,1.54-2.51C69.53,56.38,69.71,54.06,70.93,52.62Z"/><path class="cls-1" d="M45.61,55.6c-.3,1-1.93,1.77-2.64,2.78,1.13-.42,2-1.6,3.36-1.49A2.63,2.63,0,0,1,45,58.29c0-.61.57-.75.83-1.15-1.35.37-2.26,1.66-3.57,1.72C42.72,57.62,44.49,56.63,45.61,55.6Z"/><path class="cls-1" d="M74.05,45.94c.38.74-.28,2.56-.28,3.34-.69-.09-.42-1.24-.54-2-.83,1-.39,3.31-.67,4.46-.56-.71-.14-2.11-.26-3.09-.94,1.08.11,3.25-.69,4.24-.93-.22-.8-3-.38-3.3.45.45-.24,2,.25,2.87.43-1.33,0-3.44.67-4.57.19-.22.33,0,.56.08a2.68,2.68,0,0,1,.48-1.57c.45.32.36,1.23.43,2C73.91,47.72,73.7,46.57,74.05,45.94Z"/><path class="cls-1" d="M67.19,60a1.07,1.07,0,0,1,0-.88,19.77,19.77,0,0,0-1.91,1.75c.26.23.52-.44,1-.38-.51.4-1,.92-1.62,1,.49-1.32,1.85-1.65,2.63-2.89,1.16-1.83.48-4.74,2.37-6.09a36.87,36.87,0,0,0-1.85,5.4c.09.24.36-.23.43-.35.2.64-1,.95-.79,1.92.19-.11.18-.4.3-.57A1,1,0,0,1,67.19,60Z"/></svg>