<svg id="Layer_1" data-name="Layer 1" xmlns="http://www.w3.org/2000/svg" viewBox="0 0 101.31 109.09"><defs><style>.cls-1{fill-rule:evenodd;}</style></defs><title>package</title><path class="cls-1" d="M9.81,97.16l-.35,0c-1.9-2-1.94-7.22-1.69-10,.82,2.72.27,6.66,1.58,8.95.5.06-.14-1.17.58-.85A4,4,0,0,1,9.81,97.16Z"/><path class="cls-1" d="M13,96.82c-2.71-1.05-1.43-5.63-2.7-8-.21,0-.17.31-.21.52-.49-.36-.19-.95-.08-1.6,1.85,1.59,1.32,5.28,2.19,7.74C12.27,96.15,13.17,96,13,96.82Z"/><path class="cls-1" d="M6.69,96.08l-.53,0a20.25,20.25,0,0,1-.61-4.46c-.18-1.63-1-3.76.09-4.42,0,.31-.16.33-.37.33.88,2.06.63,5.11,1.14,7.5.42,0,.16-.83.75-.66A7.69,7.69,0,0,1,6.69,96.08Z"/><path class="cls-1" d="M95.86,93.71c-.23-.08-.26-.33-.51-.39-1.48-3.75-3.59-7.83-3.68-12.26.89,2,1.2,4,1.93,6.13S95.47,91.33,95.86,93.71Z"/><path class="cls-1" d="M92.33,93.49c-.29,0-.29-.18-.52-.21a68.34,68.34,0,0,0-2.13-11.63c-.56.32-.43,1.39-1.49,1.15,0-1.37.93-1.32.69-2.61.24-.56.17.49.13.72,1.57-.55,1.2-3.29,2.38-4.28a6.08,6.08,0,0,1-1.32,4.17A64.83,64.83,0,0,1,92.33,93.49Z"/><path class="cls-1" d="M10.91,70.33c-.29,0-.29-.19-.52-.21,1.4-3.46,2.28-8.25,4.34-10.36C13.25,63.18,12.14,67.13,10.91,70.33Z"/><path class="cls-1" d="M14.28,70.17c-.36-3.39,2.42-7.43,3.48-10.76C17.91,62.9,14.79,66.15,14.28,70.17Z"/><path class="cls-1" d="M38.35,70.22c.08-.66.61-.82.79-1.37C39.43,69.19,38.88,70.18,38.35,70.22Z"/><path class="cls-1" d="M5.09,67.14c1.11-2.32,1.47-5.17,2.4-7.47.1-.25.21-.7.75-.66C8,62,6.69,63.81,5.85,66.13c.85.33.32-.9,1.1-.64C6.51,66.16,6,67.59,5.09,67.14Z"/><path class="cls-1" d="M71.1,67.07c-.21,0-.31-.06-.34-.2a58.59,58.59,0,0,1,.32-8.12c.17-1.41.1-3.39,1.15-4.35C71.69,57.76,71.31,63.3,71.1,67.07Z"/><path class="cls-1" d="M68.08,64.41c-.29,0-.29-.19-.52-.21.14-1.4.12-3.07.28-4.59.23-2.2,0-4.58,1-5.6-.1,3.51-.56,5.49-.71,8.81,0,.25.31,0,.36-.16C69,63.19,68.25,64,68.08,64.41Z"/><path class="cls-1" d="M65.16,63c-.41-2.15.14-5.77.29-7.77C66.27,57,65.69,61.53,65.16,63Z"/><path class="cls-1" d="M62.93,61.8a.83.83,0,0,0-.52-.21c.14-1.91-.84-5.29.4-6.53C62.88,57.1,62.86,59.35,62.93,61.8Z"/><path class="cls-1" d="M82,53.75c0,.58-.26.84-.76.84C81.37,54.17,81.45,53.7,82,53.75Z"/><path class="cls-1" d="M82.18,53.76c.33-.32.27-1.07.95-1C82.81,53.1,82.8,53.78,82.18,53.76Z"/><path class="cls-1" d="M21.85,44.62c.28-2.82,3.34-4.14,4.8-6.25-2.63-.45-5,2-7.7,1.48,2.73-3.19,6.39-5.35,9.68-7.91-2.44,3-6,4.82-8.77,7.43,2.51.15,5.33-2.27,7.69-1.3C25.91,40.54,23.27,41.88,21.85,44.62Z"/><path class="cls-1" d="M16.75,35.28c1.62-1.81,4-2.83,6.09-4.06s4.1-2.59,6.24-3.69a23.81,23.81,0,0,1-5.18,3.76c-1.86,1.1-3.83,2.1-5.68,3.19.33.6.92-.07,1.25-.1C19.15,35.27,17.53,35.54,16.75,35.28Z"/><path class="cls-1" d="M12.86,32.39c1.67-1.78,4.19-2.6,6.25-3.87,2.92-1.79,5.49-4.09,8.45-5.15C22.8,26.54,18.39,30.1,12.86,32.39Z"/><path class="cls-1" d="M71.61,35.42c-1.2-1.18.72-3,1.14-4.18-1.52.54-2,2.21-3.7,2.61.7-3.67,4.5-5.46,5.53-9.4,1.09,1.39-.86,2.85-1.66,4-1,1.36-1.85,2.81-2.71,3.91,1-.09,1.79-2,3.31-2.1C73.52,32,71.78,33.78,71.61,35.42Z"/><path class="cls-1" d="M13.45,28.36c.85-1.8,2.87-2.51,4.46-3.45,2.58-1.53,5-3.39,8.06-4.47-3.62,2.75-8.13,4.52-11.6,7.44.06.24,1-.16,1.26-.28C15.94,28.28,14.36,28.43,13.45,28.36Z"/><path class="cls-1" d="M67.55,29.34c1-2.64,3.78-4.88,5.42-7.64.53-.88.64-2.37,1.92-2.54-1.71,3.6-4.1,6.42-6.41,9.34C69.8,28.05,68.42,29.81,67.55,29.34Z"/><path class="cls-1" d="M13.15,24.62c2.72-2.83,6.85-4.07,10.12-6.29-1.78,2.18-5.93,3.62-8.65,5.49.18.55.62-.15,1.06.07A3.8,3.8,0,0,1,13.15,24.62Z"/><path class="cls-1" d="M65,27.24a128.39,128.39,0,0,1,7.22-11.07c.07,1.49-1.6,2.9-2.57,4.45a37.21,37.21,0,0,1-2.94,4.78c0,.29-.34.75,0,.35C66.9,26.26,65.71,27.7,65,27.24Z"/><path class="cls-1" d="M12.45,21.57c1.12-1.24,2.76-1.76,4.23-2.58a24.46,24.46,0,0,1,4.38-2.21c-1.91,1.73-4.45,2.76-6.79,4,.1.67,1.12-.4.86.41C14.16,21.13,13.28,22.12,12.45,21.57Z"/><path class="cls-1" d="M12,19.78c1.49-2,4.71-3.59,7.54-4.68-2,1.6-5.22,2.73-6.47,4.56A1.5,1.5,0,0,1,12,19.78Z"/><path class="cls-1" d="M57.27,20.93c-.58-1.76,1.2-4,2.43-5C58.76,17.56,58,19.57,57.27,20.93Z"/><path class="cls-1" d="M13.72,9.44c.2.46.61-.43,1.08-.29-.59.62-1.55,1.71-2.39,1.45a64.48,64.48,0,0,1,6.69-8.09c.14,1-1.4,2.45-2.34,3.58S14.56,8.38,13.72,9.44Z"/><path class="cls-1" d="M17.28,9.12c.31.46.71-.56,1.27-.45a6.34,6.34,0,0,1-2.41,1.8c.22-1.58,1.65-2.88,2.73-4.08a20.24,20.24,0,0,1,3.4-3.51C20.92,5.32,18.89,7,17.28,9.12Z"/><path class="cls-1" d="M19.86,10.34c.59-1.62,2-2.66,3.07-3.88s1.75-2.81,3.22-3.52C24.77,5.47,22.7,7.2,21,9.35c.21.46.8-.21,1.25-.1A3.42,3.42,0,0,1,19.86,10.34Z"/><path class="cls-1" d="M10.74,8.9c.57,0,.83-.89,1.27-.45-.69.35-.89,1.26-2,1.12a17.86,17.86,0,0,1,6.1-7.24C14.29,4.49,12.38,6.54,10.74,8.9Z"/><path class="cls-1" d="M24.85,9.76c-.15-.09-.31-.17-.33-.37a36.12,36.12,0,0,1,4.78-5.9c.19,1.39-2.55,3.15-3.3,4.76.59,0,.79-.36,1.1-.64C27.56,8.21,25.37,9,24.85,9.76Z"/><path class="cls-1" d="M34.73,4.34c-.3,1.85-1.42,2.79-2.2,4.11,1.91-.61,2.27-3,4.61-3.08.33,1.17-.83,2.15-.39,3.52-.91-.37-.6-1.71-.37-2.68-1.55.26-2.44,2.9-4.61,3.08-.31-1.83,2.37-2.82,2.05-4.65-.76.66-1.91,1.86-2.6,2C32.23,5.74,33.14,3.93,34.73,4.34Z"/><path class="cls-1" d="M55,9.46c.15-.14.49-.08.55-.32.21.43-.84,1.05-1.49,1.15.67-2.47,3.36-4.23,5.15-6.06.54.26-.11.89-.24,1C57.9,6.56,55.74,7.83,55,9.46Z"/><path class="cls-1" d="M30.32,7.08c.12.53.29-.39.72-.13-.48.81-1.56,1.83-2.4,1.62.95-2,2.72-3.08,3.67-5.09C33.28,4.4,31,6.16,30.32,7.08Z"/><path class="cls-1" d="M51.57,9.79c-.15-.09-.31-.18-.33-.38a11.59,11.59,0,0,1,3.42-3.86C54.2,7,53,7.66,52.16,8.76c.08.53.39-.15.7,0C52.74,9.47,51.9,9.34,51.57,9.79Z"/><path class="cls-1" d="M2,100.58A55.08,55.08,0,0,1,0,92.5c-.11-.76,1-.12.93-.83-.4-14.3,1.24-33.74.41-47.58C2.51,42.82,2.49,40.18,3,37.81,4.64,29.65,8.21,22,8.91,12.86a11.3,11.3,0,0,0-4.54-1c.28-.88-.14-.9-1-.95C4.33,6,6.26.57,11.17,1.85,9.27,4.47,7,6.64,6.05,10.39,24,11.74,42.61,11.83,61.16,12.14c5.69.1,12.76,0,18.36.76.45-1.41.27-2.4.75-3.67C75.74,8,71.34,6.57,66.7,5.4a7,7,0,0,0-2.88,3.72c-.78-1.39,1-3,1.82-3.78-.58-.49-1.75-.45-2.43-.85-.89,1.61-3.71,3.28-3.29,4.58-.68,0-.85.55-1.62.43.92-2.17,2.94-3.08,4-5.06C52.68.73,38.07.21,27.68,1.08c0-.3.33-.44,0-.53s-.17.06-.19.17c-.29.69-1.46.72-2,.76-3.91.35-7.77.13-12.09.86A36.47,36.47,0,0,1,9,7.91c-.2.75.79-.29.49.74-.55-.12-.43.52-1.08.29.27-3,4.09-4.51,4.52-7.34,3.14-.15,7.64-.25,11-.75C21,.46,15.31.78,11.93,1c2-1.33,5.34-.77,8.54-.72,2.38,0,5-.4,6.89.24,4-.61,10.47-.58,15.78-.46,6,.14,11,1.32,16.83,2.61,3.45.77,7.11.92,10.16,1.68a31.25,31.25,0,0,0,3.13.9c4.76.66,9.57-.15,12.91,3.08.39,4.1-1.31,9-1.17,13.38.08,2.5,1,5.33,1.46,8.05,1.86,11,4.3,23.11,6.59,34.38.81,4,1,8.34,2.14,11.46.21.58.74,1,1,1.47a15.12,15.12,0,0,1,.68,3.4c1.11,5.42,3.22,10.69,4.34,16-.49,1.33.52,2.25,0,3.36-.62,0-.59-.48-.84-.76a46.07,46.07,0,0,1-12.88-.6,99.39,99.39,0,0,1-7.25,8.59c-.29,1-.68,1.86-2.07,2-.09-.55.22-.63.24-1-4.06.55-8.3-.82-13-1.32-10.15-1.08-21.83-1.71-32.39-2.85s-20.44-2-29.43-2.14m2.84-3c11.44,2.42,25.1,3.21,39,4.67,1.71.18,3.56.38,5.28.5,8.95.63,18.28,2,26.1,1.58.78-6.64-.37-11.49-.37-17.19,0-11.22-.18-22.61.79-33.4C78.41,40.75,79.54,27,80,16.11c-3.38-.35-5.86-.3-9.7-.59A39.84,39.84,0,0,1,64.93,23c-.64.75.55.59.11,1.07-.69.17-1.06,1.48-1.83,1,1.82-3.5,4.94-6,6.24-9.53-.8-.17-1.8.09-2.12-.13-1,1.85-2.81,3.78-3.88,5.61-.56,1-.66,2.62-2.09,2.35,1.3-2.3,3.58-5.12,5.08-7.83l-2.64-.16c-1.38,1.91-2.21,5.41-4.09,6.12a66,66,0,0,0,3.39-6.34c-17.32-.11-34.38-2-51.92-1.91-1.63,6.54-3.56,13.6-5.46,20a33.29,33.29,0,0,0-1.64,6.63c-.18,2.88.09,6.31-.23,9.54C3.21,56,3.35,63.21,3.14,70,2.92,77.26,2,85.41,3.45,91.11c-1.3,2.67-.14,5.67.39,8.16C5,99.46,6,99.46,6.36,98.72ZM19.78,102c3.43.6,7,.53,10.9,1.19C27.52,102.45,22.27,101.69,19.78,102ZM2.3,95.47c.16.52.09,1.25.43,1.62C2.67,96.62,2.5,94.73,2.3,95.47Zm82.82,3.08c-.66,1,1-.74.92-.65,3-2.36,9.16-1.72,13.65-.41-1.18-3.41-1.34-6.91-2.21-10.22s-2.39-6.19-3.15-9.39c-1.68-7.1-2.85-14.48-4.74-21-3.06-10.54-3.82-21.93-6.13-33.11a20.66,20.66,0,0,0-1.77,5.91c1,.11.39-1.57,1.66-1.14A15.13,15.13,0,0,0,80.78,36c1.32-.71,1.06-3.2,2.69-3.55-.83,1.89-2,3.44-2.8,5.32.43.26.48-.8.72-.13a3,3,0,0,0-1.06,2.94c1.35-1.49,2.06-4.7,3.68-5.26-1,2.12-2.8,4.24-3.38,6.17.17-.09.69-.69.73-.31-.56.63-1.86,1.41-1.23,2.76,1.14-1.82,1.76-4,3.3-4.76-.67,1.94-2,3.12-2.78,5,.62-.12,1.26-1.21,1.65-1-1,1-2.89,2.14-2.38,4.28,1.26-1.84,2.14-4.12,3.7-5.62-.54,2.72-2.9,4.39-3.4,6.52a.18.18,0,0,1,.35,0,3.07,3.07,0,0,0-.91,3.31,34.54,34.54,0,0,1,4.24-5.76c-.57,2.18-2.15,3.22-3.13,4.94.78.06.75-.79,1.46-.8-1.54,1.4-3.36,2.49-3,6a22.36,22.36,0,0,0,3.58-6.51c.24,0,.35-.23.72-.13-.28,2.35-2.4,3.53-2.29,5.7-.88-.08-.93,1.81-1.9,2.19.06.95-.37,2.33,0,3A38.15,38.15,0,0,1,83.64,53c-.21,0-.41-.08-.33-.37.45-.08,1.22-.87,1.42-.09-1.09,2.41-4.16,4.39-3.8,7.2a3.83,3.83,0,0,0-2,3.6,22.19,22.19,0,0,0,5-7.13c.24,0,.35-.23.72-.13-.35,3.85-6,6.07-5.74,10.09,2.46-1.74,3.87-4.67,6.4-6.34-1.59,3-4.22,4.9-6.45,7.22a4.43,4.43,0,0,0,0,2.48c1.74-2.18,3.88-3.91,5.51-6.21q-.58,0-.5-.56c1.45-.68,1.5-2.95,3.71-2.78.35,1.6-1.23,3.47-1.17,4.71.25-.35,1-1.14,1.29-.81.19.89-.74.9-1.32,1.33-1,.82-.84,2.94-2.32,3.22-.26-.61,1.05-1.9.85-2.43-1.58,2.24-4.17,4.33-5.34,6.4,0-.22.55-.58.54-.15-.49.65-1.89,1.25-1.22,2.58a17.65,17.65,0,0,1,2.67-3.2c.88-1,1.58-2.71,3-2.65-2.31,3.27-6.28,5.05-5.53,9.4,1.57-2.31,4.2-4.42,5.35-6.58-.06.27-.29,0-.34-.2,1-.88.91-3,1.83-4,.09.88-.7,1.68-.34,2.64.9-2,2.4-4.32,4-4.89a60.69,60.69,0,0,0-3.67,5.09c-.17.54.6.25.3.9a43.59,43.59,0,0,0-6.85,7.9c2.28-2.52,5.28-4.21,7.16-7.18a.49.49,0,0,0,.32.55c.88-1.33,1.46-4,3.07-3.88-1.71,1.77-2.68,4.38-4.11,6.48-2,.5-3.37,2.73-4.14,4q2.89-2.77,6-5.3c0,.21.27.21.52.21a8.24,8.24,0,0,1,2.11-2.71,48.35,48.35,0,0,1-4.32,7c-.42.64-.84,1.89-1.88,1.83-.19-.61.75-.89.25-1.22a18.37,18.37,0,0,1-5.07,4.83c.13.5,0,1.24.26,1.61,2.2-1.79,3.92-4.12,6.86-5.07-.06.68-.9.49-1,1.18.9,2.52.62,5.43,1.44,8.41.06-.16.81-.42.72-.14-1,1-.78,2.27-.22,3.53.36-.67,1.35-.61,1.51-1.5-.72-3.64-.85-7.81-2.54-10.59,1.81-2.42,3.06-5.47,5.07-7.66-.88,3.21-3,5-4.36,7.7,1.57,2.61,1.7,6.5,2.22,10,.53.11.75,1.62.07,1.77l-.5-.56c-2.31,2.41-5.52,4.82-7.17,7.35,0-.18.32-.2.35,0,0,.89-1.34.37-1.16,1.52,3-1.62,4.44-4.91,7.3-6.64C87.12,97.06,85.82,97.44,85.12,98.54Zm1-7c-1.85,2.91-5.84,4.82-5.28,8.35C82.16,96.83,87.74,95.33,86.08,91.52Zm-5.27,5.17c1-2.31,6-4.78,5.07-7.66-1.59,1.79-3.61,3.09-4.58,5.56-.62.3-1.55,1.06-1,2.06ZM85.94,88a3.32,3.32,0,0,1-.09-1.42c-2.15,1-4.12,3.88-6,5.83.32.19.62-.49.7,0a1.19,1.19,0,0,0-.29,1.93A66.15,66.15,0,0,1,85.94,88Zm-6.49,1.91c-.06.72-.12,1.44.25,1.78.74-.88,1.66-2,2.85-3.19,1.4-1.46,3.95-2.6,2.58-4.62C82.78,85.55,81.34,88.12,79.45,89.88Zm3.3-4.76c.91-1,2.79-1.75,2.33-3.4-1.73,1.67-6.78,3.21-5.56,7.1C80.64,87.65,81.63,86.3,82.75,85.12Zm.78-7c-1.42,1.53-3,2.86-4.51,4.33.5-.05-.2,1,.3.9C80.65,81.62,82.78,79.82,83.53,78.09ZM79.9,79.64A2.5,2.5,0,0,0,81,78.47c.32,0,1.15-1,.75-.66-.91.86-2.59,1.85-2.66,3C79.25,80.29,79.89,80.32,79.9,79.64ZM86.67,76c-.55,1.07-1.68,1.5-2.28,2.52C85.42,78.61,86.61,76.9,86.67,76Zm-9.24-8.17c0-.41-.07-2-.27-1.43a31.61,31.61,0,0,0,0,5.66C77.16,70.94,77.45,69.12,77.43,67.81ZM87,61c-.44-.05-.56.25-.9.3-.67,3-4.47,5.58-6.52,8.28.21,0,.5,0,.52.21-.51.3-.79.87-1.48,1,.24.35-.06,1.17.27,1.43C81.43,68.18,85.82,66.36,87,61Zm5.39,4.58a28.08,28.08,0,0,0,1.4,6.1C93.27,69.69,93.37,67.16,92.43,65.54ZM87.59,40.29c.76,5.95,1.33,12.06,3.4,16.84C89.9,51.48,88.86,45.79,87.59,40.29ZM2.47,46.1c.07,1-.61,1.84,0,2.48A3.68,3.68,0,0,0,2.47,46.1Zm.62-1.38c.5-3.62-.78-.44,0,0Zm1.73-11c0,.5-.58,2.1-.12,1.94C4.51,34.75,5.53,34,4.81,33.68Zm2.24-7.83c-.59,2.3-1.93,5-1.88,7.67C5.5,31.41,7.22,28.48,7.06,25.85Zm72.67,9.89c-.42,2.47.63.7,0,0Zm4.64-12.28c0,4.55,1.38,9.34,2.17,13.76C85.9,32.56,85.39,27.78,84.37,23.46ZM80,31.86c.07.77-.35,2,0,2.48C80.13,33.4,80.51,32.39,80,31.86ZM8.25,20.79c-.14.11-.52,1,.12.89C8.54,20.87,8.38,19,8.25,20.79Zm75.05-.23c-1.05,1-1.08,3.69-1.21,5.41C82.78,23.71,83.86,23.38,83.3,20.56ZM82.21,21c-.27,0-.15.51,0,.18A6.81,6.81,0,0,0,82.64,17,17.47,17.47,0,0,0,82.21,21ZM84,14.59c-.4,2.28-.83,4.6.14,6.38C83.88,19,84.88,16.53,84,14.59Zm-3.29,1.75c0,.48-.29,2.14.07,1.77C80.76,17.63,81.09,16,80.73,16.33ZM15.88,11.69c-.67,0-2.69-.33-2.13,0,5.4.53,11,.4,15.9.43.74,0,1.75.5,2.14-.22C26.56,11.86,20.7,11.71,15.88,11.69Zm24.56.61c-1.26.18-2-.21-3,.17C38.16,12.69,40.16,13.17,40.45,12.3ZM4.39,8.52l-.11,1.76c.51-.12.44.28.87.23C4.92,9.83,4.59,9.23,4.39,8.52Zm47.36,4.11c-3.16-.19-1,.19.69.22a15.72,15.72,0,0,1,3,0C55.16,12.39,52.66,12.55,51.75,12.63Zm5.66,0c-.43,0-2-.27-1.6.08.66-.07,1.74.34,2.13,0C57.7,12.57,57.66,12.42,57.42,12.62ZM9.88,2.66c-2.72.89-4,3.37-4.82,6.43.43,0-.15.8.5.56C6.41,6.65,8.3,4.82,9.88,2.66ZM84.75,8.44c-.1,1.62-.23,3.24.13,3.72C84.84,10.44,85.51,9.62,84.75,8.44Zm-2,.94a9,9,0,0,0,.37,2.68C83.14,11,83.43,9.77,82.74,9.38Zm-76-5.32c.34-.13,1-.85.77-1C7.13,3.29,6,5.27,6.79,4.06Zm59.08.58c5.2.89,10.18,2.53,14.65,3.54a3.32,3.32,0,0,0,.26-1.4C75.17,7,70.47,4.79,65.87,4.64Z"/><path class="cls-1" d="M65.59,90.81c-.43-.25.24-.84.75-.66,0-1.41.52-1.72.18-3-2.08,2-4.11,4.15-6.21,6.17,1-.7,2.28-1.2,3.3-1.92.28.15-.38.82-.92.65-1.85,1.63-4,3.85-6.28,4.4,2.73-3.33,7-6.59,10.17-10.18a1.15,1.15,0,0,1-.12-.89c-1.91.73-3.65,3.29-5.59,4.62.2.51.4-.53.9-.3a25.32,25.32,0,0,1-5,4.29c-.47,1.17-.75,2.55-1.61,3.27-.47,0-.56-.28-.49-.74-.49.15-1.06,1.18-1.46.8-.49,0-.59-.31-.32-.55-.05-.33-.87.55-1.23-.08,4.49-2.88,5.95-12.73,3.22-18-2.33,3-5.66,4.79-8.57,7.09,1.3-6.15-.78-12.59-3.76-16.86-1.18,4.74-4.61,7-7.67,9.8-2.8,2.58-2.6,6.41-5,10-.18,2.37.88,4.23.18,5.85-.55.1-.5-.34-1-.24a12.14,12.14,0,0,1-.52-3c-.28.52.15,2.08-.51,2.62-.64-.21-.47-1.14-.6-1.81-.85.16.19,1.43-.47,1.92-.57.12-.34-.48-.67-.57-.75.41-.93,1.46-1.87,1.66-.57-1.6,2.41-1.37,1.61-3.26-1.5.62-1.84,2.57-3.71,2.78.55-1.48,1.54-3.17,1.34-4.52,0-.24-.35,0-.36.15,0-.17.42-.62.42-1-.49-.23-.94,1.19-1.51,1.5.23.6.24-.58.73-.31-.15.53-.73.56-.94,1,.13.75.35,2.12-.82,1.9.44.9.5,1.68.76,2-1.17.4-2-1.64-2.5-2.63a82.78,82.78,0,0,1-2.89-7.79,21.65,21.65,0,0,1-1.11-2.19c-.5-2.09,0-4.68.23-6.71a29,29,0,0,1,4.64-12.28c.3-1.23,0-3.15.93-3.66,2.2,1.83,1.41,6.31,3,8.68a5.19,5.19,0,0,1,1.68,1.52c-.78-6.81,1.63-11,4.62-14.94,1.71-2.26,4.35-3.85,6.2-6,2.14-2.48,3.15-5.48,5.26-8a5.36,5.36,0,0,1,.1-1.59c.55.12.5-.58.89-.12.79,1.15,1.67,2.5,1.53,4,.41.51.58-.85,1.28-.63-.21.58-.72.82-1.13,1.17.58,2.08.12,3.8,0,5.49-.16,2.87,1.43,4.43,3,6.55s2.18,4.78,3.26,7.46a10.88,10.88,0,0,1,1.06,5.9c2-1.38,3.89-4.53,4.39-8.23,1.24.36.93-1.08,2-1.29a3.7,3.7,0,0,1-.47,1.92c.6,1.25,1.08,2.6,2.28,3.32.6,2.07,1,5.71,2,7.38C63,74,64.67,75.4,65.71,77.19a17.24,17.24,0,0,1,1.6,14.43c-.58,1.55-2,3.16-2.61,5.15A43.59,43.59,0,0,1,60.08,100a6.58,6.58,0,0,0-2.41-1.21c1.38-2.38,5.87-5.68,7.71-7.5C65.82,90.9,66.51,89.62,65.59,90.81Zm-1.83,4c-1.41,1.48-3.18,2.56-4.66,4C61.74,98.77,62.76,96,63.76,94.77Zm2-3.24c-1.66,1.77-4.19,3.56-5.28,5.34C61.85,94.81,65.66,94.47,65.73,91.52ZM54.15,95.6a.66.66,0,0,0-.75.66A.67.67,0,0,0,54.15,95.6ZM25.42,90.85c-.27.63-1.7,1.79-1.35,1.86C24.34,92,26.17,91.49,25.42,90.85ZM56.32,92c-.75.29-1.19,1.91-1.21,2.41A24.23,24.23,0,0,1,56.32,92Zm-37-2.6a11.39,11.39,0,0,0,1.25,2.73C20.88,91.21,19.82,90.16,19.31,89.42Zm6.19-2.81c-1.17-.05-.86,2.23-.52,2.8-.65.07-1.36,1.9-.67,2.26C25.72,90.47,25.51,89.14,25.5,86.61Zm1.59,2.93c-1.44.68-.32,1.22-.3,2.11C27.48,91.19,26.92,90.45,27.09,89.53Zm-4.24-3.09c-1.1.58-1.74,1.68-2.79,2.31.32.83.95,1.38,1.28,2.2C22.23,89.67,23.89,88.36,22.85,86.45Zm43.5-2.32c-.43-1.18-.71-2.49-1.2-3.61-1.39.56-2.25,1.93-3.37,3s-2.82,1.73-3,3.18c1-.65,2.22-2,3.14-2.11-.89,1.33-3.15,2.07-3.4,3.51a13.29,13.29,0,0,0,3.95-3.83c0,.14-.16.2-.36.16,1-.74,1.65-1.91,3.14-2.11-1.77,3.08-5.08,4.44-7,7.36,1.14-.16,1.59-1.1,2.57-1.44-.86,1.35-3.22,2-3.07,3.88C60.48,89.3,63.74,87.08,66.35,84.13ZM27,88.82c-.39,0,0-.63-.12-.89-1.18,0,.38-2.15-.36-2.85-.25,1.68-.86,2.92-.09,4.42C26.26,88.92,27,89.29,27,88.82ZM17.89,86.5A10.06,10.06,0,0,0,19,88.69C18.63,88,19.16,86.44,17.89,86.5Zm1.86,1.35c1-2,3.5-2.87,2.66-5.85C20.73,83,18.29,85.64,19.76,87.85Zm37.31.5c-.11.39-.63,1.29-.27,1.58C56.94,89.56,57.53,88.76,57.07,88.35ZM27.14,85.82a10.13,10.13,0,0,0,.39,2.33C27.49,87.29,27.67,86.24,27.14,85.82Zm-4.25.1c-.38,0,0-.63-.12-.89a5.31,5.31,0,0,0-1.92,2.54C21.31,86.78,22.31,86.58,22.88,85.92Zm1.78-3.08c-1.15.22-.37,3.41-.4,3.69C24.27,85.16,24.71,84.28,24.66,82.84Zm-7.24-.26c.77-.76.13-2.51,0-3.54-1.08,1.67-.09,5.09.44,7.28A4.06,4.06,0,0,0,17.42,82.58Zm13.91,1.2c-.24,1.11-1.15,1.47-1.23,2.76A4.17,4.17,0,0,0,31.33,83.78ZM25.42,82A16,16,0,0,0,25,86,5.68,5.68,0,0,0,25.42,82Zm-2.07,2c.13.5-.46,1.63.26,1.61C23.45,85.05,23.77,84.58,23.35,84Zm-1-6.25c-.63,1-1.82,1.34-1.78,3.08-1.59.3-2.85,2.67-1.49,4.16C20.36,82.94,22.82,80.62,22.32,77.74Zm7.55,3.82c-.49.1-.33-.37-.68-.4-.67.44,0,2.38-1.2,2.23-.1.59-.31,1.4.25,1.78C28.67,83.85,29.37,82.81,29.87,81.56Zm-2.29-.14c-.28.52-.58,1.75-1.31,1.16.08.54-.32,1.5.07,1.77C27.05,83.69,28.48,82.8,27.58,81.43ZM41.07,69.15a48.85,48.85,0,0,0-4,4.36c-1,1.1-3.6,4-4.67,4A44.41,44.41,0,0,1,30,82.63c-.19.41-.8,1.45-.43,1.21C32.33,77.87,38.17,74.35,41.07,69.15ZM64.68,79.6c-.06-.34-.35-.47-.3-.9a16.31,16.31,0,0,0-6.7,5.43c.24-.25,1.08-.77,1.27-.45-.21.64-1.16.45-1.31,1.16.3.13-.07.84.3.9A39.82,39.82,0,0,0,64.68,79.6ZM23,80.44c0,1.09-.29,2.37.17,3A4.14,4.14,0,0,0,23,80.44Zm3.64-4.56a3.42,3.42,0,0,0-.14,2.29,3,3,0,0,0-.57.67c.42.87,0,3,.53,2.86C26.93,80.22,27.82,77.66,26.68,75.88ZM20.54,75c-1.34,1.68-3.25,3.86-2,6.43C20.18,80.06,20.62,77.53,20.54,75ZM50.07,81.2a14.92,14.92,0,0,1,2.37-4.1c.21-1.08.12-2.64,1.75-2.55.53-1.92,2.58-3.11,2.1-5.53-.39,1.54-1.69,2.3-1.65,3.79-2.75.56-3.89,3.84-5.34,6.4.4.38,1.25-1.34,1.65-1-.66.83-1,2-2.42,2,.56-3.44,3.91-6.77,5.31-8.7,0-.34-.58-.16-.5-.56-2.69.66-4.08,3.81-5,5.89.2-.35.75-1.28,1.11-.82-1.68,1.23-1.88,4.2-1.64,6.63A13.87,13.87,0,0,1,50.07,81.2ZM25.38,79.7c0,.38-.25,1.87.09,1.42C25.45,80.74,25.73,79.25,25.38,79.7ZM64.07,78c-.65-.31-.59-1.26-1.33-1.5-2.16,1.45-4.34,2.88-5.8,5.14.63.09.87-.28,1.43-.27-.2.65-1.12.5-1.14,1.35,0,.2.18.29.33.37A36,36,0,0,1,64.07,78ZM28.74,76.89c-.25,1.06-1.42,2.44-.38,3.34.27-.65-.45-1.25.1-1.59.34.59-.22,2,.39,2.33C29.16,79.46,29.26,77.69,28.74,76.89Zm2.16,2.26c0,.36-1.07,1.1-.25,1.22C30.46,79.77,31.4,79.48,30.9,79.15Zm.77-1c.17-1.77,2.14-3.47,2.2-4.11a10.07,10.07,0,0,0-3.72,6C30.76,79.07,30.8,78.67,31.67,78.13Zm-6.91.11c-.25.24-.44,1.37.09,1.42C24.77,79.24,25.15,78.4,24.76,78.24ZM23,78.49c0,.3-.64,1.09.11,1.07C23,79.24,23.37,78.54,23,78.49Zm-4.87-4.37c-.86,0-1.27,1.34-.43,1.21a3.33,3.33,0,0,0-.57,3.5C18.14,77.62,17.71,75.36,18.11,74.12ZM23,72.48c-1.88.7-2.17,4.12-2,6.07C22.73,77.36,22.88,75.13,23,72.48Zm33.54,7.34c.16.25.13.67.49.74,1.53-2,3.8-3.24,5.61-5-.24-.06-.18-.4-.32-.55C59.51,76,58.44,78.25,56.53,79.82ZM33.6,66.75c-1.56.06-1.88,1.51-2.46,2.68-1.59.25-2.87,2.81-1.71,4.85.45-1.18.87-2.4,2.11-2.7-1.49,1.77-2.84,4.52-1.68,7.33.84-2.32,2.64-4.56,3.23-6.53-.59.4-.84,1.19-1.67,1.32C31,73,32.57,71.32,32.93,72c1.58-1.67,3.57-3.88,5.25-4.81-1.53,2-4.11,3.77-4.63,6.27,1.75-2.72,4.27-3.68,6.06-6.54-.6-.56-.78,0-1.23-.25,2.79-2.37,5.11-6.75,7.69-10-.87-1.12-1.47-2.48-2.26-3.68,0,.89-.05,2.17.4,2.15-.22.88-.4,1.81-1.35,1.86-1.31,2.35-3.26,4-4.13,6.83.32.19.62-.49.71,0a3.23,3.23,0,0,1-2.75,1.6c-1.48,1.54-2.84,2.81-4.33,4.34-1,1-2,2.68-3.18,2.82,1.12-1.82,2.68-3.12,4-4.71,0,.18-.16.2-.2.34a31.38,31.38,0,0,0,3.18-2.82c.41-.36,1.3-.69,1.66-1.14.7-.87,1.11-2.18,1.79-3.25s1.28-2.18,2-3.24c-.67-.3-.27-1.54-.58-2.16-1.27.67.17,3.24-1.12,3.83-.6-.14,0-1.32-.43-1.62-.62.62-.67,1.88-1.22,2.58C37.36,60,36,62.42,37,62.88c.38-.14.35-.73.92-.65C36.51,63.75,34.36,64.46,33.6,66.75Zm22.6,6.68c-.73.76-1.13,2.64-2.43,2.15-.46,1.68-2.22,2.9-2.22,4.47,1-1,3-1.53,2.35-3.75a1,1,0,0,1,1.25-.1c.61-1.88,2.81-3,2.95-4.78a1.24,1.24,0,0,1-.94.83c-.25-.22-.4-.54-.85-.58-.16,1.08-1.31,2-1.23,2.76C55.5,74.14,55.55,73.44,56.21,73.43ZM25.27,75.8c-.16.7-.75.91-.81,1.72C25.05,77.44,25.4,76.08,25.27,75.8ZM28,77.56c.75-1.31,1.15-4.29.12-4.95-.24.71.4,2-.35,2.81q.05-.88.11-1.76C27,74.45,27.54,76.82,28,77.56Zm8.44-2c-.34.43-1.53,1.71-1.17,1.7C35.53,76.7,36.71,76.16,36.43,75.59ZM21,70.76c-1.33,1.2-1.55,3.65-2.28,5.53A5,5,0,0,0,21,70.76Zm-1.7,1.84a4.69,4.69,0,0,0-.74,3.49C18.75,74.83,19.07,73.48,19.27,72.6Zm6,.19c.05,1.44-.69,2.2-.56,3.33.22-.25.2-.78.75-.66C25.07,74.59,25.64,73,25.27,72.79Zm-1.47-2c-.29-.53-.25,1.29-.32,2.28-.08,1.17-.38,2.67,0,2.83C24.42,74.44,23.61,72.42,23.8,70.75ZM50.62,72.2a3.51,3.51,0,0,0-.45-1.27A30.76,30.76,0,0,0,47.26,75c.83.36.86-1.15,1.28-.63-.51,1-1.83,1.4-1.23,2.76A24,24,0,0,1,50.62,72.2ZM35.44,74.47c.33-.46-.23-.84.42-1,0,.23-.24.23-.21.52a80.83,80.83,0,0,0,5.85-6c-.49-.12-.29-.85-.83-.93-2.23,2.2-4.46,4.39-6.6,6.68,1.5.6-1.16,2-.69,2.61C34,75.73,34.73,73.71,35.44,74.47Zm-9.1-1.61c-.1.83-.59,2.22-.18,3A3.71,3.71,0,0,0,26.33,72.85Zm31.47,3.5c0,.43-.35.37-.23.87,1.35-.55,3-1.73,3.19-3-.35.55-1.2.53-1.65,1,.19-.54.87-.53,1.12-1a8.17,8.17,0,0,0-3.55,3.15A4.55,4.55,0,0,1,57.8,76.35Zm2.89-.89c.14-.47.76-.4.77-1C61,74.42,60.36,75.22,60.68,75.47Zm-1.13-1.84c-.65-.14-.72-.81-1.17-1.13-.7,1.53-3,3.08-2.58,4.62C56.75,75.62,58.39,74.89,59.56,73.63ZM18.3,71c-.2.85-1,2-.7,2.79C17.77,72.85,18.72,71.87,18.3,71Zm6.16.55c-.05.77-.16,1.59.23,2C24.85,72.73,25.64,71.69,24.47,71.5Zm-2.73-1.76c.31.94-.26,2.17,0,3.36.66-1,1.27-1.49,1.24-2.93C22.76,69.94,21.87,69.47,21.74,69.74Zm28.35-.58c-1.35.55-1.94,1.95-3,2.83-.07.34.22.36.32.55-.17.37-.69.35-.76.84.14.27.1.69.67.57C48,72.09,49.91,71.6,50.09,69.16Zm-29.88-.4c-.44.79-1.6,2.67-.92,3.48C19.62,71.24,20.4,69.74,20.21,68.77Zm7.29,2.39c-.4.29-.58,1.28.09,1.42C27.63,72.27,28.25,71.17,27.49,71.15Zm32-.18a2.56,2.56,0,0,0,1.09,2.37A11.38,11.38,0,0,0,59.54,71Zm-9.77-2.36a6.56,6.56,0,0,1,.15-2.47c-2,.86-2.78,3.14-4.18,4.7.21-2.47,2.48-4.23,3.9-6a1.45,1.45,0,0,1-.29-1.08c-2,1.33-3.32,3.41-4.75,5.38.71.21.6-1,1.09-.47-.12.56-.71.58-.78,1.19.51.77.56,1.95,1.45,2.39A15.9,15.9,0,0,1,49.77,68.61ZM21.19,70.06c-.12-.45.44-1.5-.27-1.43.14.74-.76,2-.29,1.93Q20.62,70,21.19,70.06Zm9.55-2.78a4.21,4.21,0,0,0-1.94,2.89C30,69.89,30.44,68.64,30.74,67.28Zm.33-5.47a20.32,20.32,0,0,0-2.38,4.28c.65-.11.35,1.36-.07,1.23,0-.26.15-1.44-.12-.89-.31,1.1.2,1.34.22,2.14.2-1.28,2.06-1.69,1.94-2.71,0,.13,0,.35-.2.34C31.08,65.34,31,62.65,31.07,61.82Zm27.77,6.11c0,1-.18,2.05.57,2.34C59.91,69.46,59.28,68.42,58.84,67.92Zm-10-4.5A2.08,2.08,0,0,0,48.23,62c-1.09,2.2-4.56,3.95-3.76,6.5.48-1.34,2.16-2.13,2.15-3.41.22,0,.23.24.52.21C47.37,64,47.79,64.07,48.85,63.42ZM33.12,66c-.2-.33,0-1-.28-1.26-.45.78-2.46,1.7-1.42,2.92C31.92,67,32.26,66.24,33.12,66Zm23.38-.35a9.38,9.38,0,0,1-1.79,3.25A3.3,3.3,0,0,0,56.5,65.66Zm-8.4-4.4c-.05-.68-.49-1-.42-1.79C45.5,61.34,44,64,42.13,66.2c.44.22.66-.72.89-.12-.56.36-.7,1.11.09,1.42C44.77,65.41,46.51,63.42,48.09,61.25Zm-7.54,4.68c-.14.47-.76.39-.77,1C40.16,66.85,41.05,66.38,40.55,65.93Zm-7-9.63c-.44,1.3-2.67,3-1.12,3.83-1.19,1-.91,3.94-.86,5.43,1-.78,2.23-3,1.51-4.51-.18.3-.44.66-.73.31.58-1.3,1.2-1.68,1.26-3.29-.26,0-.65,0-.69-.22C33.28,57.64,33.75,56.56,33.53,56.3Zm-2.38,4.28c-.13-.45-.89.92-1.06-.06a5.53,5.53,0,0,0,1.48-4c-.23.56-1.18,1.3-.82,1.9.05-.19.32-.41.36-.16-.89,1.59-2.52,4.25-2.53,6.75C29.29,63.39,30.38,62.17,31.15,60.58Zm11.11,3.51c-.37.31-1,1-.63,1.55,1.74-1.43,2.73-3.7,4.39-5.22.07-.35-.22-.37-.32-.55.61-.26,1.27-.45,1.49-1.15a3.11,3.11,0,0,0-.81-1.29c-1.7,2.23-4,4.81-5,7.13C41.5,64.35,42,63.59,42.26,64.09Zm-6.88-3.25c-.35.64-.72,1.73-1.66,1.14,0,.35,0,.71-.07,1.06.43.26.6-.66.72-.13a2.66,2.66,0,0,0-.67,2.26A3.44,3.44,0,0,0,35.19,64c-.93-.23.72-1.53-.27-1.43.78-.53.81-1.8.54-3-.18.43-.9,1.24-.63,1.55C34.89,61,35.35,60.41,35.38,60.84Zm-1.48,1c.18-1.74,2.12-2.5,1.51-4.51C34.62,58.6,33.4,60.09,33.9,61.81Zm2.57-1.44c1.58.17,1.69-3.3,1.34-4.52-.71,1.31-2.48,3.31-1.39,5.4ZM37.87,49c-.18.43-.51,1.25-.93.83-.61,1.94-5.12,4.46-4.74,8,.91-1.18,1.71-3.47,2.88-3.72-.15.62-.56.94-.25,1.22L36,53.27c-.48-.21-.56,1-.9.3C36.48,51.39,37.14,51.6,37.87,49Zm-3.58,9.34c.75-.92,1.9-2.38,1.32-4.17C35.14,55.35,33.67,56.46,34.29,58.29Zm5-4.47a3.84,3.84,0,0,0-.59,3.86c.14-.53-.13-1.53.28-1.75.08.54-.32,1.5.07,1.77C39.83,56.85,39.45,54.94,39.34,53.82ZM42,57.52a9.24,9.24,0,0,1,1-1.18c0-1.08.22-2.31-.36-2.85C41.58,54.29,42.26,57.27,42,57.52Zm-4-4.31c-.45,1.21-2.43,2.63-1.49,4.15C36.87,55.86,38.52,55.41,38,53.21ZM32,54.62c0,.61-1,1-.45,1.56C31.51,55.44,32.93,55.12,32,54.62Zm9-3.17A4.55,4.55,0,0,0,40.27,56,5.93,5.93,0,0,0,41.08,51.45ZM37.86,52c0,.21-.06.5.14.54.34-.58-.15-1.26.29-1.93a4.79,4.79,0,0,0-1.86,4.49A20,20,0,0,0,37.86,52Zm1.83-1c-.91.11-1.24,1.86-.88,2.78C39.8,53,39.35,51.76,39.69,51Zm3.1,1.43a6.76,6.76,0,0,1-.21-2.31c-1.17,0-1,3.23-.56,3.33C42,52.78,42.61,52.86,42.79,52.44Zm-1.71-3.82a2.63,2.63,0,0,0-.72,3.14c.37-.34.32-1.15,1-1.18,0-.48-.27-.37,0-.71-.23-.41-.44.2-.52-.21C41,49.53,41.48,48.79,41.07,48.62Zm-1.59-.1c-.39.38-1.39,1.87-.5,2.45C39.18,50.3,40,49.39,39.49,48.52Zm2.56-1.44c.06.83-.36,2.1,0,2.66C42.64,49.24,42.41,47.34,42.05,47.08Zm-1-.59c-.39.51-1.24,1.49-.68,2.44C40.71,48.39,41.44,47.28,41,46.49Zm-1.64.79c-.26.46-.82.58-.79,1.37C39.13,48.61,39.68,47.62,39.39,47.28Zm2.84-3c-.14-.32,0-.88-.29-1.08-.14.54-.92,1.33-.47,1.92C41.65,44.75,41.73,44.28,42.22,44.26Z"/><path class="cls-1" d="M37.37,71.75c-.28-.27.34-1.11.78-1.19C38,71,37.56,71.28,37.37,71.75Z"/><path class="cls-1" d="M32.79,71.47c-.17-.52.7-1.46,1.34-1.69A10.78,10.78,0,0,1,32.79,71.47Z"/><path class="cls-1" d="M7.79,69.25c.81-3.18,1.7-7.87,4.14-9.84a36.48,36.48,0,0,0-3.14,7.95C10.1,66.16,8.95,69,7.79,69.25Z"/><path class="cls-1" d="M81.35,58.67a4.52,4.52,0,0,1,1.88-1.83A5.12,5.12,0,0,1,81.35,58.67Z"/><path class="cls-1" d="M33.73,44.28c-.82-6.4,5.75-9.5,5.36-15.43,3.66,1.9,1.12,9.9-.77,12.69-1.53.72-3.1,1.4-3.9,2.95C34.1,44.5,34.06,44.26,33.73,44.28Zm2.92-4.43c-.8.32-1.63,2.51-1.24,2.93A3.73,3.73,0,0,0,36.65,39.85Zm2.15-3.41c-.24,1.51-1.67,3.62-1.17,4.71C38.84,39.9,39,38.33,38.8,36.44Zm-3.19,3A1.26,1.26,0,0,0,35.16,41C35.13,40.39,36,39.83,35.61,39.44ZM39.67,31a24.16,24.16,0,0,0-2.06,7.66C38,36,40,33.28,39.67,31Z"/></svg>