<svg id="Objects" xmlns="http://www.w3.org/2000/svg" viewBox="0 0 110.82 109.82"><title>star</title><path d="M110.35,29.53c-.29-.23-.91-.26-1.92,0A206.83,206.83,0,0,1,77.5,34.79,278.68,278.68,0,0,0,64.73.56C63.6-2,54,4.69,53.44,6.54c-3,10.41-6,20.85-8.77,31.34-12.5,1.39-24.9,3.41-37,7.43C6.48,45.73-2,50.39.43,51.81Q18.5,62.43,36.06,73.86c-2.4,11.62-4.4,23.32-5.77,35.12-.3,2.61,7.37-1.68,8-2.13C45.81,101.52,52,95.15,57.82,88.42q9.85,6.8,19.54,13.85c2.45,1.78,11.46-3.58,11.26-6.5a278.66,278.66,0,0,0-5-36.66c9.07-9.27,18.46-18.23,26.74-28.25C111.06,30,110.88,29.66,110.35,29.53ZM22.81,49.12l3,3.76c.62.77,2,.75,3.5.34.12,1,.24,1.94.37,2.92Q22.87,51.91,16,47.8c3.33-.75,6.69-1.37,10.06-1.91C23.89,47.18,22.35,48.55,22.81,49.12Zm12.94-4.56,3.45-.39a17.47,17.47,0,0,0-3,.93Zm16,5.38-.19.08q.42-1.73.84-3.46a12.13,12.13,0,0,0,1.33,2.66C53,49.45,52.29,49.71,51.71,49.94ZM57.2,28q1-3.62,2-7.23c.54,1.39,1.07,2.78,1.59,4.17A13.86,13.86,0,0,0,57.2,28ZM48.59,62.71a4.88,4.88,0,0,0,1.3,1.21,2.19,2.19,0,0,0,1,.33l-1.69,4.28-1.59-1Q48.07,65.11,48.59,62.71Zm10.49,12.4q1.29-3.3,2.61-6.59a32.23,32.23,0,0,0,.68,6.1l-1.44,1.74ZM91.81,38.49a22.9,22.9,0,0,0-3.39,2.15A64.36,64.36,0,0,0,81,47.42q-.87-3.5-1.84-7C83.38,39.92,87.61,39.29,91.81,38.49Zm-50,10.38-.67-4.21c-.07-.41-.43-.59-1-.6l3-.29Q42.47,46.32,41.82,48.88Zm.45,49.42c.06-.44.11-.87.16-1.31a13.38,13.38,0,0,0,1.37-.25Q43,97.53,42.27,98.3ZM70.66,83a23.37,23.37,0,0,0,4.43-1.76q.39,2.68.73,5.38C74.1,85.42,72.38,84.21,70.66,83Z"/></svg>