<svg id="Layer_1" data-name="Layer 1" xmlns="http://www.w3.org/2000/svg" viewBox="0 0 101.34 156.06"><defs><style>.cls-1{fill:#7f723c;fill-rule:evenodd;}</style></defs><title>wine</title><path class="cls-1" d="M19.84,149.83H19.3c-.56-3.47-.17-7.49-.36-11.71-.12-2.59-.61-5.24.18-7.27C19.65,136.13,19.19,144.67,19.84,149.83Z"/><path class="cls-1" d="M15.86,149.65c-.29,0-.31-.17-.54-.18.37-5.82-.27-13.66.91-19.16.19,5-.72,12.68-.18,18.81C16.09,149.41,15.87,149.43,15.86,149.65Z"/><path class="cls-1" d="M10.61,149.65h-.54C10.19,144.36,8.77,138.32,9,133c.88.37.3,1.45.36,2.31.36,4.76,1.3,9.91,1.27,13.84Z"/><path class="cls-1" d="M13.32,149.48h-.54c-1.46-5.55.48-12.63-.9-16.5.72-.52-.07-1.82.54-2.13.92,5.1-.06,12.24.54,17.39.27.42.55-.63.54-1.07C14,147.78,13.36,148.8,13.32,149.48Z"/><path class="cls-1" d="M22.74,148.77H22.2c-.85-4.78,0-9.49-1.27-13.66,0-.5.54-.41.54-.89-.6,0-1-1.76-.18-2.31,1.11,3.87.76,10.26,1.09,15.44,1.5-3.92.66-9.13,1.81-13.49,1.46,3.45,1.12,8.52,1.63,12.24-1.24-2.33-.72-6.39-1.45-9.23C23.59,140.61,23.86,145.36,22.74,148.77Z"/><path class="cls-1" d="M25.1,111.15c.38.14.71.73.36,1.07C25.06,112.09,24.86,111.38,25.1,111.15Z"/><path class="cls-1" d="M47,109c-.9.11-.94-.62-1.63-.71a23.79,23.79,0,0,0-1.81-7.1.5.5,0,0,1,.72,0c-.1-.76-.84-2.06.36-2.13.17.84.58,1.45.73,2.31,3.5-.38,5.29,3,5.61,5.68-.69-.15-.6-1.06-.91-1.6-.55.22.26.68-.18.89-1.64-.58-1.49-2.92-3.08-3.55C46,104.83,47.28,107.14,47,109Z"/><path class="cls-1" d="M38.86,95.18c.68.1-.27,1.07.91.89.73,1.57.76,4-.54,5-.94,0-1.52-1.34-1.63-2.13C37.35,97.24,38.33,96.21,38.86,95.18Z"/><path class="cls-1" d="M70.92,89.68A1.2,1.2,0,0,1,70,89.5c.44-1.29,1.63-1.84,2-3.19-2.16-.39-3.07,2.89-5.25,2.48a26.53,26.53,0,0,1,5.07-5.86c-.79,1.71-2.24,2.77-3.26,4.26,1-.15,2.16-1.67,3.8-1.77C73.54,87.17,70.9,87.91,70.92,89.68Z"/><path class="cls-1" d="M85.59,84.35c-.93-.19.43-.76.36-1.24C86.6,83.59,85.46,83.8,85.59,84.35Z"/><path class="cls-1" d="M15,81.16a52,52,0,0,1-.18-15.44C15,69.23,14.89,75.38,15,81.16Z"/><path class="cls-1" d="M12.78,80.8c-.29.05-.31-.17-.55-.18.07-5-.22-11.38.91-16.5C13.37,69.2,12.32,75.62,12.78,80.8Z"/><path class="cls-1" d="M10.61,79h-.54c.48-4.11-.16-11,.36-15.08.85,3.83.08,10.25.36,14.55C10.84,78.78,10.62,78.8,10.61,79Z"/><path class="cls-1" d="M6.62,79H6.08c.47-4.63-.82-10.06.18-13.49C6.29,69,7,75.29,6.62,79Z"/><path class="cls-1" d="M78.16,73.53c-.71,1.49-2.22,2.2-3.08,3.55.45,0,.57-.27.72-.53.09.83-1.74,2.16-2.72,1.95,1-2.36,3.83-3.3,4.71-5.32C78,73.22,77.92,73.53,78.16,73.53Z"/><path class="cls-1" d="M8.43,78.67c-.29.05-.31-.17-.54-.18.51-5.57-1.1-11,.36-14.55.09,2.89,0,9.83.36,14.2A.82.82,0,0,0,8.43,78.67Z"/><path class="cls-1" d="M32.52,71.76H32c-.65-1.31-.22-3.69-.9-5,.85.5-.22-.93.36-1.24,1,.86.54,3.14.72,4.79C32.31,70.78,33.07,71.16,32.52,71.76Z"/><path class="cls-1" d="M6.08,59.51c-.29.05-.31-.17-.54-.18,4-5.73,8.8-10.66,13.22-16-.12,1.72-1.86,2.69-2.9,3.9-2.16,2.53-4.31,5.11-6.52,7.81A20.24,20.24,0,0,0,6.08,59.51Z"/><path class="cls-1" d="M12.78,59q3.46-5.84,7.06-11.53c.75,1.07-.79,1.9-1.27,2.66-1.64,2.6-3.19,5.86-4.89,8.52,0,.19-.36.12-.36.36Z"/><path class="cls-1" d="M11.33,57.2c-.15-1,.86-.94,1.27-1.42,1.55-1.85,2.37-4.42,4.35-5.86a46.32,46.32,0,0,1-5.07,7.45C11.58,57.43,11.56,57.21,11.33,57.2Z"/><path class="cls-1" d="M33.61,45.67c-.93-1.23-2.57-2.68-2-4.79A24.11,24.11,0,0,1,33.61,45.67Z"/><path class="cls-1" d="M35.24,44.07h-.36c-1.18-.94-2.31-3.52-2-4.79C34.07,40.48,34.21,42.71,35.24,44.07Z"/><path class="cls-1" d="M66.75,40.52c1.73-1.45,3.14-4.13,5.61-4.26a11.88,11.88,0,0,1-3.44,5.32c-.17-1.84,2.14-2.75,2.54-4.61-3,1.22-3.65,4.7-6.7,5.86.32-1.89,2-3.15,2.9-4.61.54-.9.45-2.42,1.81-2.66C69,37.6,67.64,38.85,66.75,40.52Z"/><path class="cls-1" d="M73.09,42.12a1.2,1.2,0,0,1-.91-.18c1.23-2,2.18-4.25,4-5.68C75.36,38.43,73.68,39.74,73.09,42.12Z"/><path class="cls-1" d="M76.17,41.77c-.79-.59.43-2.14.9-2.66C77.47,40.1,76.67,41.09,76.17,41.77Z"/><path class="cls-1" d="M23.83,34.14c.72-.75,2.7-.47,4.53-.71s3.79-1.07,4.89-.71c-1.11,1-3.12.82-4.71,1.07C26.75,34.06,25,34.83,23.83,34.14Z"/><path class="cls-1" d="M26.18,32.72c-.36-.47-1.9.21-2-.53.76-1,2.5-.73,3.8-.89,1.78-.21,3.6-.67,5.25-.71-1.48,1.26-4.58,1-6.88,1.42C27.1,32.5,26.18,32.07,26.18,32.72Z"/><path class="cls-1" d="M24.91,27.39c1.82-.19,4.19-.72,5.44-.89-.08.61-1.28.9-2.17,1.06C27.11,27.77,25.15,28.14,24.91,27.39Z"/><path class="cls-1" d="M26.73,25.44c-.4.43-1.36-.08-1.63-.35,1.32-1,3.83-.68,4.89-.71-.67.67-3,.59-3.8.53C26.15,25.3,26.33,25.47,26.73,25.44Z"/><path class="cls-1" d="M30.35,24.55c0-.75,1.13-.31,1.09-1.07.14.15.49.11.54.36C31.88,24.52,30.85,24.28,30.35,24.55Z"/><path class="cls-1" d="M26.18,23.13c.27-.93,1.47-.43,2.17-.53,1.4-.19,2.86-.51,4-.71C31.08,23,28.36,23.54,26.18,23.13Z"/><path class="cls-1" d="M21.29,10.18c4.35-.13,9.58-.84,13-.71-1.09.59-3.82.7-5.8.89C25.93,10.61,22.87,10.93,21.29,10.18Z"/><path class="cls-1" d="M45.56,152.85c.59.33,1.28-.78,2,0-1.15,2.24-4.44,1.72-6.88,2.13A53.06,53.06,0,0,1,33.43,156a100,100,0,0,1-26.8-3c-.62-1.85-3.76-2.08-3.44-4.26.39-.91.29.46.91.35.05-.68-.92-1.67-1.63-1.77-.9-21.4-2.47-47.42-1.81-68A79.54,79.54,0,0,0,.28,68.56c-.4-3.84-.67-8.65,1.27-11.71A52.6,52.6,0,0,1,5.9,52.06c1.43-1.58,3.09-3.17,4.35-4.61.55-.63.77-1.42,1.27-2,2-2.08,5.28-5.21,5.43-9.4.07-2-.27-4.24-.36-6.74,0-.47.57-.38.54-.89-1.06-4-.62-8.83-1.45-13.31C13,12.57,12.92,5.45,14.59,1.66a14.76,14.76,0,0,0,2.9-1.6C18,0,17.86.64,18,1,23.44.24,31.45-.78,35.78,1a20,20,0,0,1,2.36,4.26c-.43,3.91,1.06,7.67-1.63,9.23-.72,2-.84,6.24-.72,9.23.18,4.58-.38,8.16.18,11.71,1.05,6.66,5.6,10,9.78,12.78a19.77,19.77,0,0,1-.18-7.81c1.17-1.1,2.5-2,3.62-3.19a52.12,52.12,0,0,1,12.68-2.66,106.06,106.06,0,0,1,11.77,0,114.23,114.23,0,0,1,20.28,2.84c2,.48,4.39.71,5.25,2.66.31.62-.44,1.52-.36,2.48,1.18-.24.07-1.64,1.09-2,1.74,2.32,1,6.64,1.45,9.94-.76,2.15-.39,5.63-.72,8.52a45.36,45.36,0,0,1-2.53,11.18C96.36,79.59,91.37,85.82,86.31,92c-.5,1.65-1.68,3.35-2.9,3.73-2.72,8.1-1.26,20.87-1.63,30.52A22.62,22.62,0,0,0,84,137.05c5.54,1.21,14.72,0,13.22,7.63-5.15,2.93-12,3.34-17.93,3.55a79.77,79.77,0,0,1-20.1-1.6,14.33,14.33,0,0,0-5.07-.53,3.41,3.41,0,0,0-.54,2.48c-.52,1.74-1.86,2.68-2.9,3.91a6.91,6.91,0,0,0-2.72.18c-.34-.26,0-1.16-.36-1.42C46.91,151.8,46.52,152.6,45.56,152.85Zm-36-101C7.5,54,3.47,60.36,3,63.06c-.78,4.44.07,9.44,0,13.84-.07,4.69-.07,9.23-.18,13.84.07.43-.83-.1-.54.53.5,1.42.28,3.16.36,5,.36,7.66.1,15.69.36,22.36.05,1.38.57,2.62.72,3.91.25,2,.08,4.2.18,6.39.23,4.82-.21,12.41,1.09,16,.26.73,1.53,2.58,2,2.13-.17-3,.06-5.42-.18-8.52-.08-1.11-1-3.14.18-4.08.71,4.5-.07,10,.72,14a10.58,10.58,0,0,0,4.17,3.19,24.68,24.68,0,0,1,5.07.18,65.32,65.32,0,0,0,22.64-1.42c.49-6.29-.12-13.36.18-18.81,1.1,4.87.31,12.59.36,18.63,1.13-.25,2.07-.69,3.26-.89.35-5.05,0-11,0-15.79,0-1.25-.5-3,.72-3.9.68.82-.09,1.41-.18,2.31-.59,5.45.83,12.49,0,17.21a10.8,10.8,0,0,1,2.17-.35,195.07,195.07,0,0,0,.54-19.87c-5.79,1.6-12.44,1.38-19.38,1.06-2.66-.12-7-.14-7.79-1.6,3.52.73,8.59.93,13.4,1.24-3-.73-7-.53-9.6-.89-.58-1.15-2.51-1-3.62-1.6.07.66-.15,1-.73,1.07-.15-.86-1-1.07-1.45-1.6C15,110.43,15.59,90.85,15.32,76c.34-.08,1.09.24.91-.36.55-1.57-1.48-7,.54-8.34-.27,1.64-.61,3.06,0,4.08.92-1.09.94-.22,2.17,0,0-1.5-.72-4.46,0-6,.79,1.82.08,4.35.73,6,.23-.83.72.87,1.81.36.27-3.33-.73-5.77.36-7.45.13,2,.25,5.34.36,7.63H24c.39-2.34-.84-6.26.72-7.45-.37,2.71,0,5,0,7.45a5.34,5.34,0,0,0,2,.18c.58-2.26-.63-4.85,0-7.1,1.14,1.66.19,5.06.72,6.92.29-.13,0-.87.54-.71a1.13,1.13,0,0,0-.18.89c.84-.1,1.09.24,1.63,0,.45-3.44-.79-6.62.36-7.63.63,2.09.12,3.47.18,6,.6,0,.38.57.36,1.6a15.25,15.25,0,0,0,3.44-.18c.25-2.37-.54-4.67,0-6.74,1.12,1.54-.1,4.33.9,6,0-.58-.07-1.25.55-1.24a5.05,5.05,0,0,0-.18,2c2.76.12,3.9-.25,6.52-.18,1.07-3-.31-8.37.18-10.82,1.19,2.85.37,6.94.9,10.65,1-.17,1.52-.25,2.18-.36.45-3.63-.92-7.65-.36-11.36-1.22-3-2.54-5.92-3.8-8.87-.65-.84-1.64-1.36-1.81-2.66,1.94,1.71,3,4.36,4.17,6.92a35.58,35.58,0,0,1,2.9,7.81c-.63.09-.63-.45-.91-.71.1,3.31.62,5.51.54,8.69.81.14,1.09-.24,1.81-.18-.26-3,.68-5.88.18-8.69-.58-3.29-3.67-5.6-4-8.69,1.93,1.78,2.5,4.89,4,7.1.82-1.84-1.23-3.85-1.09-5.5,1.56,1.41,1.84,5,3.44,6.92-.58-8.77-7.26-11.86-12-17-.68-2.11-2.94-2.68-3.44-5,.52-1-.47-2-.36-3.19-4.08,1.38-8.9.92-13.95.53,0,2.59-2.42,3.26-2.18,5.5-2.88,2.44-4.92,5.71-7.61,8.34,0-.75,1.78-1.37.9-1.77A11,11,0,0,1,9.52,51.88ZM38.86,154.62a2.12,2.12,0,0,0-1.63.35A3.68,3.68,0,0,0,38.86,154.62Zm-3.26-.71c-.29-.09-1.83-.24-2.36.36A7,7,0,0,0,35.6,153.91Zm-14.49,0c-1.39.11-2.81-.68-4-.18C18.41,154,20.39,154.28,21.11,153.91ZM41,152.85a2.7,2.7,0,0,0-1.63.36C40,153.13,41,153.43,41,152.85Zm-1.45-.71c-.51-.63-2.62.13-3.26.53C37.54,152.64,38.66,151.9,39.59,152.14Zm3.8-1.06c-.4.2-1.17,0-1.27.53C42.57,151.45,43.37,151.65,43.39,151.07ZM45.74,150c-.2.64-2.3.35-1.63,1.24.66-.53.71-.21,1.09,0C45.27,150.83,46.43,150.58,45.74,150Zm4.71-6.74a10.62,10.62,0,0,0-.18-1.24c-.26-4.34,1.25-10.54,0-13.66-1.38,1.86-.78,4.82-.91,7.63-.21,4.54-.95,9.63-.73,13.66C48.49,147.38,50.21,145.49,50.45,143.27Zm-2.53,5.32c.34-6,1.28-14.58.72-20-2.15.07-1.45,2.68-1.45,4.08a161.22,161.22,0,0,1-.54,16.32c0,.11,0,.21.18.18A1.84,1.84,0,0,1,47.92,148.59Zm28.62-1.42c-.7,0-1.59-.14-1.81.36A3.78,3.78,0,0,0,76.53,147.17Zm13.95-2.66c-1.79.09-4.56.41-6.88.53-.22-1-2-.37-3.08-.53-.37-.11,0-.89-.72-.71-3.72-.1-5.38.15-8.51.18-.17,1.13-2,.69-2.9,1.06.56.48-.57.8,0,1.42C77.12,146.59,83.55,146.31,90.48,144.51Zm.72,1.6c.61-.24,1.53-.16,2-.53A2.92,2.92,0,0,0,91.2,146.1Zm-17-10.47c-.54,1.42-2.45,2.16-3.44,3.19-1.2,1.25-1.76,2.61-2.72,3.73,1.87-.83,2.52-2.85,4.35-3.73.12,1-.69,1.1-.72,2,1.32-.48,2.09-1.5,3.62-1.78a5.63,5.63,0,0,1-.18,2.49c-1.34.31-.92-1-1.09-1.42-1.67,2-4.3,1-5.43,3.19,9.07-.55,19.43,1.2,25.72-2.84-2.55-1.29-6.07-1.63-9.42-2.13-.17.76.72.48.72,1.07-.18.24-.17.66-.54.71-1,.12-1-.75-2-.71-.33-1.76-2.34-2.58-2.9-4.08-.72-1.93-.8-5.11-.9-7.45-.38-8.57.4-16.26.54-24.66-1-.07-1.12-1-1.45-1.77-1.27.69-2.2,2.52-3.62,2.49C76,113.13,77.6,126.72,74.18,135.64ZM68,137.41c-1.33,2.13-3.2,3.73-4.71,5.68C65.18,141.61,67.42,139.54,68,137.41Zm-.91,0c-.32.1-1.06-.21-1.09.18.38.1.38.28.18.53a6,6,0,0,1-2,1.77c-.22,1.23-2.47,2.28-2,3A23.78,23.78,0,0,0,67.12,137.41Zm2.54,0c-1.1-.17-.41.63-.91,1.24s-1.58.82-1.81,1.78c-.32-.25-1.78,1.89-1.45,2.13C67,141,68.72,139.58,69.65,137.41Zm25.9,3.37c-.45-.51-1.71.71-.91.89C94.87,141.3,95.36,141.18,95.55,140.78Zm-35.86-.89c-.83.14-1.79,1.08-1.63,1.6C58.67,141,59.42,140.69,59.69,139.89Zm5.8-2c-1.79.55-2.34,2.33-3.62,3.37A22.72,22.72,0,0,0,65.48,137.94Zm4.17,1.42c-.59.44-1.67,1.32-1.63,1.77C68.53,140.52,69.17,140,69.65,139.36Zm-8.33.71c-.55,0-1.18.84-.9,1.06C60.6,140.67,61.13,140.54,61.32,140.07ZM59,138.83c-.63,0-1.18.15-1.09.89h.54C58.33,139.16,58.91,139.25,59,138.83Zm.18-1.77a32.21,32.21,0,0,1,11.23-.53c2.39-7.62,2.22-19,2-28.21a32,32,0,0,0-.36-5.15c-1.12-5.51-4.68-8.23-8.51-10.65-2.72-1.72-4.38-3.78-6.7-5.86-.49-.84-2-2.55-2.35-2.31-.25,5.92,1.11,11,.36,16.15-.28-2.08,0-4.32-.54-6.39-.44,3.55.2,7.06.36,10.82.53,12.66-1.49,23.93-.18,34.6C54.43,138.48,57.74,137.37,59.15,137.05Zm14.13-2.66c-.24.14-1,1.21-.18,1.24C73,135.18,73.73,134.63,73.27,134.39ZM3.36,131c.25-.18,0,1.62.36,1.24C3.71,131.85,3.87,130.36,3.36,131Zm30.07-1.42c.67-.11,1.8.23,2.17-.18C34.93,129.54,33.8,129.19,33.43,129.6Zm10.14-1.24c1-.08,2.69.25,3.08-.71-2.14-.32-4.81.37-6.7.89A20.65,20.65,0,0,0,43.57,128.36Zm-7.24,0c4.09,0,7.93-1.81,12.13-1.6.5,0,.41.66.72.89.75-.53,1.61,0,2.17-.53.47-9.2.33-15.94.18-24.13a.92.92,0,0,0-.91-.71A12.35,12.35,0,0,0,51.54,97c0-4.94.21-10.39,0-15.08.83-2.5,1-8.23-.18-10.47-.86.8-1.55.7-3.08.89-.05.54,0,1.21-.54,1.24s0-1.06-.72-.89c-10.84,1.66-19.66,1-28.8.53-.53,3.22,0,5-.54,7.28,0-.68.11-1.52-.54-1.6-.69,12.32,1.27,25.2,1.63,38.5a51.54,51.54,0,0,0,.72,9.05C25,126.56,30.55,128.42,36.33,128.36Zm-8.69-.18c2.52.14-1.08-.81-1.81-.36C26.17,127.85,27,128.15,27.63,128.18Zm-5.43-.89c.55,0,1.61.42,1.81.18C23.54,127.38,22.57,126.88,22.2,127.29ZM53.89,111c.09,2.88-.52,6.63.18,8.52C54,116.71,54.32,113.45,53.89,111Zm20.83,3.55c.22,1.09-.45,3,.36,3.55C75,116.87,75.36,115.19,74.72,114.52ZM16.4,90.39c0-.19-.24-.14-.18.18-.24,8.58.1,20.47,1.27,27.33C17.12,108.39,16.48,100.21,16.4,90.39Zm.9,17c.51.28-.13,2.6.36,2.31C17.54,109.08,18,106.94,17.31,107.42Zm61-10.12c-1,.46-2.73,2-2.35,2.66C76.6,99,78.26,98.17,78.34,97.31ZM74.9,98.37c2-1.67.15-.32-1.27.18a.84.84,0,0,0,.54,1.06C74.26,99,74.87,99,74.9,98.37Zm-.72-2.31a18.17,18.17,0,0,1-1.81.36c0,.45.33.62.55.89A5.64,5.64,0,0,0,74.18,96.07Zm4.71.71h.9C79.74,96,79,96.27,78.89,96.77ZM52.44,81.87c.12,5.28-.81,10-.18,14.37C52.22,91.87,53,85.79,52.44,81.87ZM81.42,95c-.69.34-.69.26-1.45,0,.14.63.89.67,1.27,1.07A1.48,1.48,0,0,1,81.42,95Zm-5.62-1.77c-.94.1-2.08-.15-2.9.36.8-.25.47.6,1.09.53C74.6,93.82,75.43,93.75,75.81,93.23Zm-8.87-.89a5.22,5.22,0,0,1-2.36-.89,1,1,0,0,1,.18-.71c-1-.79-2.69-.92-3.45-2,.22-1.05,2,0,2.9-.35A20.46,20.46,0,0,0,58.6,87a30.42,30.42,0,0,0,9.06,6.74c0-.14,0-.35-.18-.36C66.94,93.4,67.24,92.57,66.93,92.34ZM63.13,86c.56-.13.35.48.91.36,2.72-3.73,5.73-8.1,9.24-10.47-2.9,3.6-6.49,6.54-8.69,10.82.39.5,1.12-1,1.45,0-.34.5-.6.26-.36,1.06-.32.1-1.07-.21-1.09.18a1.63,1.63,0,0,1,1.09,1.24c-.23.43-1.43-.1-1.63.36,2.86,1.33,8.94,3.37,13.4,1.77,3.48-1.24,5.07-5.4,8-6.74,0,.26-.06.65.18.71a23.77,23.77,0,0,0,2.72-5c.71,3.08-3,4.82-3.62,7.81,4.3-3,8.13-8.4,10-13.84-3.43.66-7.18,1-10.68,1.6.74.3,1.22-.2,2,.36.21.57-1.28.93-.36,1.06,2.12,0,4.28-.89,6.16-.53-1.17,1.1-3.92.65-5.8,1.07.8,1.12-1.33,1.42-.72,2.31a3.58,3.58,0,0,1,2.53-.36c-.84.78-2.65.59-3.62,1.24.41.31,1.52-.07,1.63.53a3.17,3.17,0,0,1-2,0c-.2.46-.65.66-.72,1.24,1.33-.12,3.06-.79,4-.71-.44,1-1.75.93-2.54,1.42-1,.62-1.63,1.75-2.9,2,0-.33-.6-.12-.54-.53.1-1.26,1.12-1.62,1.45-2.66-1.06.29-1.66,1.88-2.9,1.42.74-2.12,2.53-3.2,3.62-5-.57.24-.62.06-.72-.53.74-1.07,2.49-.14,2.72-1.78-.39-.36-1.62.35-2.17-.18a34.15,34.15,0,0,1-2.17,2.66c-.64.85-1.75,2.26-1.63,2.66.66-.7,1.71-1.93,2.54-1.42-1.38.67-2.47,2.53-4,2.48.13-2,5-5.17,4.16-7.1,3.76-.56,8.92-1.32,12.86-1.6.1-.73.52-1.15.54-2-4,1.37-11.42.36-13.58,2.66-1.47,1.57-3.21,3.54-3.8,5.32a5.21,5.21,0,0,1,2-1.07c-1,.54-2.1,2.51-3.44,1.6,1.54-2.74,4.54-4.83,5.8-7.28,1.32.35,1.09-.82,2-.89,0,.33-.21.39-.18.71,4.12-.28,7.62-1.17,11.41-1.78.37-.64.4-1.62.72-2.31a71.39,71.39,0,0,1-10.5,1.77c-.91.09-2.37.7-2.9-.18,4.86-.22,9.47-1.59,13.58-2,.09-2.24,1.93-4.58,1.09-6.57-.63.25,0,.65-.36,1.06-5.28,1.1-10,2.7-15.76,3.37-.43.07.1-.81-.55-.53-3,.63-7.49.12-10.5.53,2.5.3,5.52.23,8.15.36,2,.09,4.21-.12,5.61.71a.5.5,0,0,0-.54.36c1.11-.11,2.23-.07,3.26-.18,3.56-.38,6.65-2,9.42-1.77a48.88,48.88,0,0,1-13.95,2.66c-.21-.47.56-.76-.18-.71-6.68,1.26-16,.42-22.64.53.42.05.42.48,0,.53-.29-.42-1.6.14-1.63-.53-.21-.56.28-.43.36-.71-1-.59-2.35-.14-3.44-.35.25.53-.11.77,0,1.6,6.72,2,17.21,1.34,25.17.89,1.12-.06,2.53-.82,3.44.18-1.72.28-4.18.4-5.61.53-8.13.73-18.84-.49-23,1.07,4.39-.32,8.25,2.15,12.13.71.35.07.14.69.72.53C71,72,76.08,73,80.15,71.93c.91-.23,2.49-1.26,3.44,0-3,.72-4.74,3.64-5.79,5.68.15-.28.71-1.06,1.09-.53-.76.56-1.18,1.45-2.35,1.6.43-2.52,3-4.41,4.71-6.21a3,3,0,0,0-3.08,1.06c-.07-.43.33-.39.18-.89-2.22,0-3.88.46-6.16.35-2.66,3.25-5.83,6.94-7.61,10.47.1-.37.28-.38.55-.18a3.4,3.4,0,0,1-1.63,1.6c-.93-1-4.44-1-6.16-1.07.64.32,1.72.21,2.17.71-1.39-.35-2.34-.36-3.44-.71.14,1.28,1.28,1.58,1.81,2.49,1.42-1.16,4.18.82,6,.35C63.44,86.55,62.76,86.31,63.13,86Zm19.74-2c-.51.15-.47-.25-.91-.18.09.56-.43.73.18.89C82.2,84.29,82.71,84.31,82.87,84Zm1.27-.71c-.62-.18-1.37.41-.91.71C83.23,83.46,84.15,83.83,84.14,83.29ZM62.59,81.34c1.41-3.17,4.21-5,5.8-8h-2c-1.12,2.1-2.8,3.65-4.16,5.5.07.78-.22,1.2-.91,1.24-.7-1-3.66-1.41-4.34-.36.29-.13.79.35.36.36a2.76,2.76,0,0,0-2.17.89,50.52,50.52,0,0,1,5.25.36c.73.07,1.92-.43,2.17.53-1.77.34-3.9-.24-6.34-.18,0,.33-.37.73-1.09.36-.13.54.31.52.18,1.06a25.07,25.07,0,0,1,8,.89,129.39,129.39,0,0,1,8-10.82H69.47c-2,2.57-4.14,4.93-6,7.63.33,0,.43.18.37.53C63.53,81.34,62.8,81.81,62.59,81.34ZM85.77,78a1.86,1.86,0,0,0-1.45.35c.22,0,.43.05.36.36-1.71.14-2.93,2.8-3.62,3.9C82.5,80.92,84.68,80,85.77,78Zm-29.7,2c-.51,0-.75-.33-1.27-.36.1.37-.23,1.17.18,1.24C55.23,80.4,55.88,80.39,56.07,79.92ZM2.27,78.32c.08.58-.18,2.42.18,2.13C2.38,79.87,2.64,78,2.27,78.32ZM57.33,79c-1.09.14-1.59-.45-2,.18C56.1,79.47,56.9,79.76,57.33,79Zm4.35-.18c1.19-2,2.87-3.46,4-5.5H64c-1.13,1.91-2.59,3.5-3.62,5.5Zm-1.27-1.6c-1.35-.2-1.57.71-2,1.42C59.81,78.92,59.93,77.9,60.41,77.26ZM59,77.08c-1.19.1-2.44-.68-3.44-.18.16.05.79.48.36.53a4.13,4.13,0,0,1-1.08-.35c-.29.5.21.75-.18,1.24C56.65,78.35,58.41,79,59,77.08Zm2.9-1.77c-2.14-.15-4.5-1-6.52-.71a4.83,4.83,0,0,1,1.45.71c-.88.15-1.2-.24-1.81-.36.15.5-.26.46-.18.89a35.37,35.37,0,0,0,4.34.71.86.86,0,0,1,.36-.89c.27.54-.06.69.18,1.06C61.1,76.92,61.41,76,61.86,75.3Zm.72-1.78c-1.6.15-4-.45-4.53.71C59.9,74.18,63,75.37,62.59,73.53ZM61,72.82c-1.61-.08-3.5-.83-4.89-.53.17.19.67.06.54.53-.46.36-1-.32-1.63-.35.06.42.29.67.18,1.24.74-.07,1.63.64,2.17.18C56.81,72.54,60,73.33,61,72.82Zm-31.51-.18c-.55.11-1.56-.23-1.81.18C28,72.73,29.19,73.29,29.44,72.64Zm-12.14.18c-.1-.26.21-.92-.18-.89-.07.3-.23,0-.54,0,.1.31-.22,1,.18,1.07C16.8,72.79,17.05,72.8,17.31,72.82Zm27.35-.89a3.67,3.67,0,0,0-1.63.36C43.69,72.28,44.46,72.39,44.66,71.93Zm5.25-1.6c-.25-3.54.47-7.45-1.81-9.94.13,3.44-.59,7.47.18,10.29C48.9,70.64,49.15,70.24,49.91,70.34Zm7.6-.18c1,.12,1-.3,0-.18-.35-.24-1-.17-1.45-.35.06.75-1,.18-1.27.17C54.79,70.75,56.5,69.86,57.51,70.16Zm-6.88-1.24c-.1-1.82-.38-.2,0,1.06C51,69.43,50.65,69.34,50.63,68.92ZM79.07,67.5A75.68,75.68,0,0,0,70.19,67c-.23-.24-.54-.35-.18-.71-.87-.08-.65,1-1.45.53,0-.28.46-.14.36-.53-1.64.26-2.91-.22-4.35.18.34.08,1.09-.24.91.36-2.18-.25-6-.3-9.42-.71.21-1-.4-1.15-1.27-1.07A3.29,3.29,0,0,1,55,66.43,71.29,71.29,0,0,0,79.07,67.5ZM58.24,64.3c4.48,2.26,12.67,1.31,19.2,1.24C70.85,65.31,64.32,65,58.24,64.3ZM56.61,65c.42.19,1.5.65,2,.18C57.93,65.25,56.88,64.75,56.61,65Zm-2-1.24h-.72a6.29,6.29,0,0,0,.18,1.6C54.69,64.87,54.37,64.56,54.62,63.77Zm31.51.53c-1.2.17-2.92.08-3.26.71,2.47-.3,5.3-.25,7.06-1.24C88.84,63.84,87.44,64.12,86.13,64.3ZM55.52,60.22c-.91.37-1.62.36-2-.36v2a53.2,53.2,0,0,0,15,1.42C64,62.4,58.88,62.19,55.52,60.22Zm15,2.66c.19,0,.37.47.72,0C70.66,62.7,68.89,62.64,70.56,62.88Zm21-2c1.49-.49,3.73-.73,4-2.48a26.79,26.79,0,0,0-3.26,0c-.64-.14-.21-1.33-1.09-1.24-5.66-.36-11.84-1.82-17.93-.89-1.74.27-3.45,1-5.25,1.24-4.28.69-8.89.25-11.41,2.31C66,62.35,82,64,91.57,60.93ZM50.63,54.72c.24.65.85,1.18,1.08,1.77.32.81.16,2.67,1.09,2.84-.67-.59-.14-1.27-.36-2.31,4.28-1.3,8.46-1.24,12.32-1.24,2.26,0,4.29-.49,6.34-.53s4,.42,6.16.53c6.42.33,12.64-.11,19,1.06,1.26-3.32.43-7.84.36-11.89C80.4,47.41,63.21,46.7,50.09,43.72,50.08,47.52,49.48,51.56,50.63,54.72Zm20.83,1.07c-.55.47-1.51-.27-1.63.36C70.16,56.37,71.36,56.33,71.46,55.78Zm1.63,0c-.75,0-.7.23-1.27,0C71.78,56.53,72.94,56,73.09,55.78Zm27-9.76c-.07,2.18-.65,4.8-.18,6.92C100.12,50.44,100.52,48.85,100.08,46ZM47.19,48.69a.84.84,0,0,0,.55,1.06C47.5,49.46,47.8,48.62,47.19,48.69ZM99,47.8c-.11.44-.58,1.55,0,1.6C99,48.72,99.21,48.25,99,47.8ZM48.46,45.67c-.24.53-.33,2.91,0,2.84C48.3,47.43,49.4,46.43,48.46,45.67ZM99,46c.05.38-.14,1.89.18,1.42C99.12,47.06,99.31,45.55,99,46ZM48.64,43.89c.31.67-.59,1.6.18,1.6C48.59,44.74,49.37,44.09,48.64,43.89Zm48,0a2.76,2.76,0,0,0-1.81.53C95.49,44.3,96.39,44.42,96.64,43.89Zm-36-4.61c1.46-.93,2.94-3.55,4.89-2.84.06,1.36-.94,1.68-1.45,2.48.22,0,.43.05.36.35-1,.66-1.53,2.75-3.08,2.31.44-1.88,2.87-2.75,2.9-4.44-2.51.91-3.36,4.39-6.16,4.44.67-1.71,2.76-3,2.71-4.79-1.62,1-2.35,2.78-4,3.73C56,39.16,58,38.1,57.7,37.15c-1.72.92-2.59,3.61-4.53,3.73.19-1.71,2.07-1.75,2-3.73-.68.16-1.28.4-2,.53-.09,1-1.11,2.23-1.81,3.19,6.82,3.32,16.14,2.86,25.18,3.19,6.5.24,13.23.35,18.65-1.77,1.27.66,1.5-.38,2.72,0,.18-1,.86-1.69.36-2.84-1-.08-1.22-.94-2.17-1.07-.23.66-1.23.57-2,.71-.21-.47.56-.76-.18-.71-4.16-1.77-8.63-1.58-13.22-2.13C78.36,36,76,35.23,73.64,35c-3.87-.33-7.62.74-11.59.89C62.16,37.41,60.48,39,60.6,39.28Zm-11,1.6c.16.79,1.85,1,2.35.89C50.94,41.71,50.24,40.62,49.55,40.88Zm3.26-3c-1.1.3-3.08.42-2.9,1.42-.47-.44-.87.19-1.09.53,1-.21,1.05.51,1.81.53A15.42,15.42,0,0,1,52.81,37.86Zm-2.36,0c-.19,0-.14.23.18.18,4.11-1.89,8.77-2.41,13.94-3C59.57,35,54.27,35.83,50.45,37.86ZM60.6,36.09c-.57-.09-.64.32-1.27.18.09.69-.87,1.27-.55,1.6C59.32,37.2,60.09,36.78,60.6,36.09Zm-3.26.53a3,3,0,0,0-1.27.35c.2.45-.62.91.18.89C56.41,37.25,57,37.08,57.33,36.62Zm-36-3.37c.49-3.4.25-8.58.18-11.89,0-.84.48-1.69-.36-2.13.6-.41.51-1.79-.54-1.6a131.85,131.85,0,0,0,.18,17.21C21.43,34.52,21.21,33.85,21.29,33.25Zm-.72,3.19c.83.19,1.77.2,2.17.36.07-.71-.82-1.06-.36-1.6,3,.17,8.14,0,11.41-1.06a42.72,42.72,0,0,1-.18-4.79c-3.43.2-5.72,1.45-8.7.71,2.67-.57,5.77-.74,8.51-1.24.09-2.25-.47-5.64-.18-8.16a65.48,65.48,0,0,0-10.32.89,126.08,126.08,0,0,1-.18,13c-.61-.41-.4-.82-1.27-.71C21.53,35,21.47,36.14,20.57,36.44Zm4-.18c.67-.11,1.8.23,2.17-.18C26.06,36.2,24.92,35.86,24.55,36.27ZM33.43,35a3.78,3.78,0,0,0-1.81.36A3,3,0,0,0,33.43,35ZM22.2,19.58c-.22,3.66-.49,9.61.18,12.42C22.44,27.6,22.76,23.24,22.2,19.58ZM19.66,31.12a118.17,118.17,0,0,0,0-13.84c-.74,3.9-.26,11.62-.36,13.49C19.55,30.1,19.33,31.29,19.66,31.12ZM33.24,19.58c0-.48-.3-.36,0-.71-2.78,0-6.32,1-10.32.71.13.41-.33,1.39.36,1.24C26.91,20.23,30.43,21,33.24,19.58Zm-2.17-1.06c.74-.13,2.3.07,2.17-1.07-3.29,0-8.09.49-10.32.71,0,.33-.21.39-.18.71A26,26,0,0,0,31.07,18.52ZM22,17.81c0,.5-.15,1.22.36,1.24C22.35,18.55,22.54,17.84,22,17.81Zm11.05-1.07c-1.18-1.27-3.71.17-6.34.36-1.38.1-2.51-.29-3.62.18C26.75,17.87,29.52,17,33.07,16.75Zm2.17-1.06c-.42.05-.2-.51-.55-.53a1.15,1.15,0,0,0-.18.89C34.93,16.09,35.2,16,35.24,15.68ZM17.31,4.5c-.48,2.75-.89,5.16,0,7.27.16-.49-.37-1.67.36-1.6.11,1.05-.82,3,.54,3.19-.08-.39-.42-1,.18-1.06C21.61,14.92,29.4,14,34,13.73a9.21,9.21,0,0,1,.54-2.31c-4.11.21-9,1.44-12.68.89,3.78-.91,8.7-.7,12.68-1.42a7.46,7.46,0,0,0,.18-2.48c-4.52,0-9.26,1.91-13,.18a42,42,0,0,0,7.43-.18c2.11-.18,5.71.24,5.8-1.6-3.43-.24-7.79,1.81-12,.89-.28-.06-1.24,0-1.09-.89,3,.8,7.06.27,10.69-.18.81-.1,2.19,0,2.35-.88-2.5.38-8.12,1.22-11-.18,3.42,0,8,1.07,11-.71-2.72-.49-6.06.48-8,0a1.28,1.28,0,0,1,.54.36c-.94.22-.82-.32-.9-.53C24.23,5.6,20.71,5,17.31,4.5Zm6.7,0c-1.29.13-2.7-.54-3.8,0C21.12,4.58,23.59,5,24,4.5Zm8-.71c.73-.06,1.86.08,2.18-.71-3.59-.94-11.56-2.52-14.67,0C22.39,4.32,28,4.13,32,3.79Zm-6-2.3c3-.25,5.71.79,8,.71C32.94.55,27.39,1.4,26,1.49Z"/><path class="cls-1" d="M27.09,117.89c0-1.79-2.33-5.26-.72-7.45,1.75,1.48.59,5.8,2.72,6.92,2.4-2-.23-7,.72-9.93,1.9,1.39,1.42,5.11,3.62,6.21,1.53-2.65-.59-6.89-.18-9.58.47-.05.78.06.73.53.24-.51-.18-1.55,1.09-1.42-.71,3.58,2.09,9.87-.36,12.6-1.77-.15-2.22-1.61-2.9-2.84a12,12,0,0,1-1.45,7.28c-4.55-.16-4.89-4.44-5.62-8.34C25.89,113.5,25.93,116.25,27.09,117.89Z"/><path class="cls-1" d="M8.43,58.8c.14-.75.3-.95,1.09-.71,2.9-4.92,5.93-10,10-13.31-3.22,3.34-5.75,7.75-8.51,11.89C10.4,57.52,9.57,58.79,8.43,58.8Z"/><path class="cls-1" d="M16.95,49.75c-.42-.37.45-1,.72-1.24C18,48.76,17.29,49.54,16.95,49.75Z"/><path class="cls-1" d="M17.67,48.33c-.19-.14.33-1.08.91-1.07A1.12,1.12,0,0,1,17.67,48.33Z"/><path class="cls-1" d="M19.48,43.36c-.37-.26.51-.8.54-1.24C20.52,42.5,19.6,43,19.48,43.36Z"/><path class="cls-1" d="M41,111.86c-2.33-.86-2.63-4.64-2.36-7.45,2-.45,2.07,2.77,2.72,4.44C41.76,109.77,42.34,111.14,41,111.86Z"/><path class="cls-1" d="M37,70.34c-1.82.08-.55-3.45-1.81-3.37.15-.5.21-1.1.36-1.6,1.15.35.62,2.35,1.09,3.37.62-.28.19-1.59.54-2.13,1.41.34,1.84,1.63,2.36,2.84-1.19,0-1.25-1-1.81-1.6C37.33,68.48,37.57,69.78,37,70.34Z"/></svg>